%TF.GenerationSoftware,KiCad,Pcbnew,(6.0.5)*%
%TF.CreationDate,2022-06-04T22:01:23+02:00*%
%TF.ProjectId,SmartHarz-Thermometer,536d6172-7448-4617-927a-2d546865726d,1b1*%
%TF.SameCoordinates,Original*%
%TF.FileFunction,Copper,L2,Bot*%
%TF.FilePolarity,Positive*%
%FSLAX46Y46*%
G04 Gerber Fmt 4.6, Leading zero omitted, Abs format (unit mm)*
G04 Created by KiCad (PCBNEW (6.0.5)) date 2022-06-04 22:01:23*
%MOMM*%
%LPD*%
G01*
G04 APERTURE LIST*
G04 Aperture macros list*
%AMRoundRect*
0 Rectangle with rounded corners*
0 $1 Rounding radius*
0 $2 $3 $4 $5 $6 $7 $8 $9 X,Y pos of 4 corners*
0 Add a 4 corners polygon primitive as box body*
4,1,4,$2,$3,$4,$5,$6,$7,$8,$9,$2,$3,0*
0 Add four circle primitives for the rounded corners*
1,1,$1+$1,$2,$3*
1,1,$1+$1,$4,$5*
1,1,$1+$1,$6,$7*
1,1,$1+$1,$8,$9*
0 Add four rect primitives between the rounded corners*
20,1,$1+$1,$2,$3,$4,$5,0*
20,1,$1+$1,$4,$5,$6,$7,0*
20,1,$1+$1,$6,$7,$8,$9,0*
20,1,$1+$1,$8,$9,$2,$3,0*%
G04 Aperture macros list end*
%TA.AperFunction,ComponentPad*%
%ADD10R,1.500000X1.500000*%
%TD*%
%TA.AperFunction,ComponentPad*%
%ADD11C,1.500000*%
%TD*%
%TA.AperFunction,ComponentPad*%
%ADD12R,1.200000X1.200000*%
%TD*%
%TA.AperFunction,ComponentPad*%
%ADD13C,1.200000*%
%TD*%
%TA.AperFunction,ComponentPad*%
%ADD14C,1.600000*%
%TD*%
%TA.AperFunction,ComponentPad*%
%ADD15O,1.600000X1.600000*%
%TD*%
%TA.AperFunction,ComponentPad*%
%ADD16RoundRect,0.300000X0.300000X-0.300000X0.300000X0.300000X-0.300000X0.300000X-0.300000X-0.300000X0*%
%TD*%
%TA.AperFunction,ComponentPad*%
%ADD17R,1.600000X1.600000*%
%TD*%
%TA.AperFunction,ComponentPad*%
%ADD18C,0.800000*%
%TD*%
%TA.AperFunction,ComponentPad*%
%ADD19C,5.400000*%
%TD*%
%TA.AperFunction,ComponentPad*%
%ADD20R,2.000000X2.000000*%
%TD*%
%TA.AperFunction,ComponentPad*%
%ADD21O,1.600000X2.000000*%
%TD*%
%TA.AperFunction,ComponentPad*%
%ADD22R,1.800000X4.400000*%
%TD*%
%TA.AperFunction,ComponentPad*%
%ADD23O,1.800000X4.000000*%
%TD*%
%TA.AperFunction,ComponentPad*%
%ADD24O,4.000000X1.800000*%
%TD*%
%TA.AperFunction,ComponentPad*%
%ADD25O,2.000000X1.600000*%
%TD*%
G04 APERTURE END LIST*
D10*
%TO.P,U2,1,VCC*%
%TO.N,+5V*%
X96496000Y-83830000D03*
D11*
%TO.P,U2,2,IO*%
%TO.N,/DHT_IO*%
X96496000Y-86370000D03*
%TO.P,U2,3,NC*%
%TO.N,unconnected-(U2-Pad3)*%
X96496000Y-88910000D03*
%TO.P,U2,4,GND*%
%TO.N,GND*%
X96496000Y-91450000D03*
%TD*%
D12*
%TO.P,C2,1*%
%TO.N,+5V*%
X169250000Y-94577401D03*
D13*
%TO.P,C2,2*%
%TO.N,GND*%
X169250000Y-96077401D03*
%TD*%
D14*
%TO.P,R2,1*%
%TO.N,+3V3*%
X144502000Y-91450000D03*
D15*
%TO.P,R2,2*%
%TO.N,/I2C_SCL*%
X144502000Y-83830000D03*
%TD*%
D16*
%TO.P,U3,1,VO*%
%TO.N,+5V*%
X169250000Y-90110000D03*
D13*
%TO.P,U3,2,GND*%
%TO.N,GND*%
X169250000Y-87570000D03*
%TO.P,U3,3,VI*%
%TO.N,+9V*%
X169250000Y-85030000D03*
%TD*%
D17*
%TO.P,C1,1*%
%TO.N,+9V*%
X169250000Y-81180000D03*
D14*
%TO.P,C1,2*%
%TO.N,GND*%
X169250000Y-79180000D03*
%TD*%
D18*
%TO.P,H3,1,1*%
%TO.N,GND*%
X184568109Y-75431891D03*
X187431891Y-72568109D03*
X183975000Y-74000000D03*
X186000000Y-76025000D03*
D19*
X186000000Y-74000000D03*
D18*
X188025000Y-74000000D03*
X184568109Y-72568109D03*
X186000000Y-71975000D03*
X187431891Y-75431891D03*
%TD*%
D14*
%TO.P,R3,1*%
%TO.N,+3V3*%
X147550000Y-91450000D03*
D15*
%TO.P,R3,2*%
%TO.N,/I2C_SDA*%
X147550000Y-83830000D03*
%TD*%
D20*
%TO.P,J2,1,Pin_1*%
%TO.N,GND*%
X142216000Y-79004000D03*
D21*
%TO.P,J2,2,Pin_2*%
%TO.N,+3V3*%
X144756000Y-79004000D03*
%TO.P,J2,3,Pin_3*%
%TO.N,/I2C_SCL*%
X147296000Y-79004000D03*
%TO.P,J2,4,Pin_4*%
%TO.N,/I2C_SDA*%
X149836000Y-79004000D03*
%TD*%
D22*
%TO.P,J1,1*%
%TO.N,+9V*%
X175900000Y-85400000D03*
D23*
%TO.P,J1,2*%
%TO.N,GND*%
X181700000Y-85400000D03*
D24*
%TO.P,J1,3*%
X178900000Y-80600000D03*
%TD*%
D18*
%TO.P,H1,1,1*%
%TO.N,GND*%
X92568109Y-72568109D03*
X94000000Y-71975000D03*
X92568109Y-75431891D03*
X94000000Y-76025000D03*
X96025000Y-74000000D03*
D19*
X94000000Y-74000000D03*
D18*
X91975000Y-74000000D03*
X95431891Y-75431891D03*
X95431891Y-72568109D03*
%TD*%
D20*
%TO.P,U1,1,~{RST}*%
%TO.N,unconnected-(U1-Pad1)*%
X107418000Y-78750000D03*
D25*
%TO.P,U1,2,A0*%
%TO.N,unconnected-(U1-Pad2)*%
X107418000Y-81290000D03*
%TO.P,U1,3,D0*%
%TO.N,unconnected-(U1-Pad3)*%
X107418000Y-83830000D03*
%TO.P,U1,4,SCK/D5*%
%TO.N,/DHT_IO*%
X107418000Y-86370000D03*
%TO.P,U1,5,MISO/D6*%
%TO.N,unconnected-(U1-Pad5)*%
X107418000Y-88910000D03*
%TO.P,U1,6,MOSI/D7*%
%TO.N,unconnected-(U1-Pad6)*%
X107418000Y-91450000D03*
%TO.P,U1,7,CS/D8*%
%TO.N,unconnected-(U1-Pad7)*%
X107418000Y-93990000D03*
%TO.P,U1,8,3V3*%
%TO.N,+3V3*%
X107418000Y-96530000D03*
%TO.P,U1,9,5V*%
%TO.N,+5V*%
X130278000Y-96530000D03*
%TO.P,U1,10,GND*%
%TO.N,GND*%
X130278000Y-93990000D03*
%TO.P,U1,11,D4*%
%TO.N,unconnected-(U1-Pad11)*%
X130278000Y-91450000D03*
%TO.P,U1,12,D3*%
%TO.N,unconnected-(U1-Pad12)*%
X130278000Y-88910000D03*
%TO.P,U1,13,SDA/D2*%
%TO.N,/I2C_SDA*%
X130278000Y-86370000D03*
%TO.P,U1,14,SCL/D1*%
%TO.N,/I2C_SCL*%
X130278000Y-83830000D03*
%TO.P,U1,15,RX*%
%TO.N,unconnected-(U1-Pad15)*%
X130278000Y-81290000D03*
%TO.P,U1,16,TX*%
%TO.N,unconnected-(U1-Pad16)*%
X130278000Y-78750000D03*
%TD*%
D18*
%TO.P,H4,1,1*%
%TO.N,GND*%
X184568109Y-102431891D03*
X184568109Y-99568109D03*
X186000000Y-103025000D03*
X187431891Y-99568109D03*
X183975000Y-101000000D03*
X188025000Y-101000000D03*
X186000000Y-98975000D03*
D19*
X186000000Y-101000000D03*
D18*
X187431891Y-102431891D03*
%TD*%
D19*
%TO.P,H2,1,1*%
%TO.N,GND*%
X94000000Y-101000000D03*
D18*
X95431891Y-99568109D03*
X94000000Y-98975000D03*
X95431891Y-102431891D03*
X92568109Y-102431891D03*
X96025000Y-101000000D03*
X92568109Y-99568109D03*
X91975000Y-101000000D03*
X94000000Y-103025000D03*
%TD*%
D14*
%TO.P,R1,1*%
%TO.N,+5V*%
X101000000Y-83830000D03*
D15*
%TO.P,R1,2*%
%TO.N,/DHT_IO*%
X101000000Y-91450000D03*
%TD*%
%TA.AperFunction,Conductor*%
%TO.N,GND*%
G36*
X185982236Y-70302004D02*
G01*
X186000000Y-70305136D01*
X186008529Y-70303632D01*
X186008530Y-70303632D01*
X186009613Y-70303441D01*
X186031662Y-70302055D01*
X186237897Y-70312187D01*
X186357764Y-70318076D01*
X186367432Y-70319029D01*
X186716922Y-70370871D01*
X186726451Y-70372766D01*
X187069188Y-70458617D01*
X187078485Y-70461437D01*
X187411158Y-70580470D01*
X187420134Y-70584188D01*
X187739538Y-70735254D01*
X187748106Y-70739834D01*
X188051166Y-70921481D01*
X188059235Y-70926873D01*
X188343036Y-71137355D01*
X188350546Y-71143518D01*
X188612338Y-71380792D01*
X188619208Y-71387662D01*
X188856482Y-71649454D01*
X188862645Y-71656964D01*
X189073127Y-71940765D01*
X189078519Y-71948834D01*
X189157769Y-72081054D01*
X189260166Y-72251894D01*
X189264746Y-72260462D01*
X189415812Y-72579866D01*
X189419530Y-72588842D01*
X189538563Y-72921515D01*
X189541383Y-72930812D01*
X189627234Y-73273549D01*
X189629129Y-73283078D01*
X189680971Y-73632568D01*
X189681924Y-73642236D01*
X189697945Y-73968334D01*
X189696559Y-73990387D01*
X189694864Y-74000000D01*
X189696368Y-74008528D01*
X189697996Y-74017761D01*
X189699500Y-74034953D01*
X189699500Y-100965047D01*
X189697996Y-100982236D01*
X189694864Y-101000000D01*
X189696368Y-101008529D01*
X189696368Y-101008530D01*
X189696559Y-101009613D01*
X189697945Y-101031662D01*
X189692048Y-101151689D01*
X189681924Y-101357764D01*
X189680971Y-101367432D01*
X189629129Y-101716922D01*
X189627234Y-101726451D01*
X189541383Y-102069188D01*
X189538563Y-102078485D01*
X189419530Y-102411158D01*
X189415812Y-102420134D01*
X189264746Y-102739538D01*
X189260166Y-102748106D01*
X189078519Y-103051166D01*
X189073127Y-103059235D01*
X188862645Y-103343036D01*
X188856482Y-103350546D01*
X188619208Y-103612338D01*
X188612338Y-103619208D01*
X188350546Y-103856482D01*
X188343036Y-103862645D01*
X188059235Y-104073127D01*
X188051166Y-104078519D01*
X187904479Y-104166440D01*
X187748106Y-104260166D01*
X187739538Y-104264746D01*
X187420134Y-104415812D01*
X187411158Y-104419530D01*
X187078485Y-104538563D01*
X187069188Y-104541383D01*
X186726451Y-104627234D01*
X186716922Y-104629129D01*
X186367432Y-104680971D01*
X186357764Y-104681924D01*
X186237897Y-104687813D01*
X186031662Y-104697945D01*
X186009613Y-104696559D01*
X186008530Y-104696368D01*
X186008529Y-104696368D01*
X186000000Y-104694864D01*
X185982236Y-104697996D01*
X185965047Y-104699500D01*
X94034953Y-104699500D01*
X94017764Y-104697996D01*
X94000000Y-104694864D01*
X93991471Y-104696368D01*
X93991470Y-104696368D01*
X93990387Y-104696559D01*
X93968338Y-104697945D01*
X93762103Y-104687813D01*
X93642236Y-104681924D01*
X93632568Y-104680971D01*
X93283078Y-104629129D01*
X93273549Y-104627234D01*
X92930812Y-104541383D01*
X92921515Y-104538563D01*
X92588842Y-104419530D01*
X92579866Y-104415812D01*
X92260462Y-104264746D01*
X92251894Y-104260166D01*
X92095521Y-104166440D01*
X91948834Y-104078519D01*
X91940765Y-104073127D01*
X91656964Y-103862645D01*
X91649454Y-103856482D01*
X91635638Y-103843960D01*
X91508808Y-103729008D01*
X91500991Y-103720959D01*
X91499666Y-103719164D01*
X91436134Y-103654626D01*
X91306689Y-103523133D01*
X91304233Y-103520638D01*
X91290180Y-103509913D01*
X91276888Y-103497698D01*
X91239172Y-103456084D01*
X91143517Y-103350545D01*
X91137355Y-103343036D01*
X90926873Y-103059235D01*
X90921481Y-103051166D01*
X90739834Y-102748106D01*
X90735254Y-102739538D01*
X90673592Y-102609163D01*
X134136338Y-102609163D01*
X134136795Y-102613111D01*
X134136795Y-102613116D01*
X134152877Y-102752105D01*
X134165478Y-102861012D01*
X134234509Y-103104962D01*
X134341655Y-103334737D01*
X134484159Y-103544426D01*
X134658355Y-103728633D01*
X134859762Y-103882621D01*
X134863266Y-103884500D01*
X134863271Y-103884503D01*
X135038360Y-103978384D01*
X135083198Y-104002426D01*
X135322915Y-104084967D01*
X135513633Y-104117910D01*
X135569669Y-104127589D01*
X135569671Y-104127589D01*
X135572744Y-104128120D01*
X135596107Y-104129181D01*
X135602031Y-104129450D01*
X135602037Y-104129450D01*
X135603135Y-104129500D01*
X135779697Y-104129500D01*
X135781671Y-104129341D01*
X135781675Y-104129341D01*
X135964752Y-104114611D01*
X135964757Y-104114610D01*
X135968712Y-104114292D01*
X135972572Y-104113344D01*
X136211057Y-104054767D01*
X136211062Y-104054765D01*
X136214923Y-104053817D01*
X136218584Y-104052263D01*
X136218587Y-104052262D01*
X136444634Y-103956311D01*
X136444636Y-103956310D01*
X136448297Y-103954756D01*
X136662832Y-103819656D01*
X136853006Y-103651994D01*
X136962648Y-103518514D01*
X137011402Y-103459161D01*
X137011405Y-103459157D01*
X137013929Y-103456084D01*
X137141459Y-103236966D01*
X137232316Y-103000276D01*
X137260611Y-102864833D01*
X137283347Y-102756003D01*
X137283347Y-102755999D01*
X137284161Y-102752105D01*
X137290652Y-102609163D01*
X154836338Y-102609163D01*
X154836795Y-102613111D01*
X154836795Y-102613116D01*
X154852877Y-102752105D01*
X154865478Y-102861012D01*
X154934509Y-103104962D01*
X155041655Y-103334737D01*
X155184159Y-103544426D01*
X155358355Y-103728633D01*
X155559762Y-103882621D01*
X155563266Y-103884500D01*
X155563271Y-103884503D01*
X155738360Y-103978384D01*
X155783198Y-104002426D01*
X156022915Y-104084967D01*
X156213633Y-104117910D01*
X156269669Y-104127589D01*
X156269671Y-104127589D01*
X156272744Y-104128120D01*
X156296107Y-104129181D01*
X156302031Y-104129450D01*
X156302037Y-104129450D01*
X156303135Y-104129500D01*
X156479697Y-104129500D01*
X156481671Y-104129341D01*
X156481675Y-104129341D01*
X156664752Y-104114611D01*
X156664757Y-104114610D01*
X156668712Y-104114292D01*
X156672572Y-104113344D01*
X156911057Y-104054767D01*
X156911062Y-104054765D01*
X156914923Y-104053817D01*
X156918584Y-104052263D01*
X156918587Y-104052262D01*
X157144634Y-103956311D01*
X157144636Y-103956310D01*
X157148297Y-103954756D01*
X157362832Y-103819656D01*
X157553006Y-103651994D01*
X157662648Y-103518514D01*
X157711402Y-103459161D01*
X157711405Y-103459157D01*
X157713929Y-103456084D01*
X157841459Y-103236966D01*
X157932316Y-103000276D01*
X157960611Y-102864833D01*
X157983347Y-102756003D01*
X157983347Y-102755999D01*
X157984161Y-102752105D01*
X157995662Y-102498837D01*
X157989655Y-102446915D01*
X157966979Y-102250935D01*
X157966978Y-102250931D01*
X157966522Y-102246988D01*
X157947042Y-102178145D01*
X157898573Y-102006862D01*
X157897491Y-102003038D01*
X157790345Y-101773263D01*
X157647841Y-101563574D01*
X157473645Y-101379367D01*
X157272238Y-101225379D01*
X157268734Y-101223500D01*
X157268729Y-101223497D01*
X157052308Y-101107454D01*
X157052309Y-101107454D01*
X157048802Y-101105574D01*
X156809085Y-101023033D01*
X156618367Y-100990090D01*
X156562331Y-100980411D01*
X156562329Y-100980411D01*
X156559256Y-100979880D01*
X156535893Y-100978819D01*
X156529969Y-100978550D01*
X156529963Y-100978550D01*
X156528865Y-100978500D01*
X156352303Y-100978500D01*
X156350329Y-100978659D01*
X156350325Y-100978659D01*
X156167248Y-100993389D01*
X156167243Y-100993390D01*
X156163288Y-100993708D01*
X156159429Y-100994656D01*
X156159428Y-100994656D01*
X155920943Y-101053233D01*
X155920938Y-101053235D01*
X155917077Y-101054183D01*
X155913416Y-101055737D01*
X155913413Y-101055738D01*
X155687366Y-101151689D01*
X155683703Y-101153244D01*
X155469168Y-101288344D01*
X155278994Y-101456006D01*
X155118071Y-101651916D01*
X154990541Y-101871034D01*
X154899684Y-102107724D01*
X154898872Y-102111611D01*
X154869006Y-102254575D01*
X154847839Y-102355895D01*
X154847658Y-102359870D01*
X154847658Y-102359874D01*
X154843706Y-102446915D01*
X154836338Y-102609163D01*
X137290652Y-102609163D01*
X137295662Y-102498837D01*
X137289655Y-102446915D01*
X137266979Y-102250935D01*
X137266978Y-102250931D01*
X137266522Y-102246988D01*
X137247042Y-102178145D01*
X137198573Y-102006862D01*
X137197491Y-102003038D01*
X137090345Y-101773263D01*
X136947841Y-101563574D01*
X136773645Y-101379367D01*
X136572238Y-101225379D01*
X136568734Y-101223500D01*
X136568729Y-101223497D01*
X136352308Y-101107454D01*
X136352309Y-101107454D01*
X136348802Y-101105574D01*
X136109085Y-101023033D01*
X135918367Y-100990090D01*
X135862331Y-100980411D01*
X135862329Y-100980411D01*
X135859256Y-100979880D01*
X135835893Y-100978819D01*
X135829969Y-100978550D01*
X135829963Y-100978550D01*
X135828865Y-100978500D01*
X135652303Y-100978500D01*
X135650329Y-100978659D01*
X135650325Y-100978659D01*
X135467248Y-100993389D01*
X135467243Y-100993390D01*
X135463288Y-100993708D01*
X135459429Y-100994656D01*
X135459428Y-100994656D01*
X135220943Y-101053233D01*
X135220938Y-101053235D01*
X135217077Y-101054183D01*
X135213416Y-101055737D01*
X135213413Y-101055738D01*
X134987366Y-101151689D01*
X134983703Y-101153244D01*
X134769168Y-101288344D01*
X134578994Y-101456006D01*
X134418071Y-101651916D01*
X134290541Y-101871034D01*
X134199684Y-102107724D01*
X134198872Y-102111611D01*
X134169006Y-102254575D01*
X134147839Y-102355895D01*
X134147658Y-102359870D01*
X134147658Y-102359874D01*
X134143706Y-102446915D01*
X134136338Y-102609163D01*
X90673592Y-102609163D01*
X90584188Y-102420134D01*
X90580470Y-102411158D01*
X90461437Y-102078485D01*
X90458617Y-102069188D01*
X90372766Y-101726451D01*
X90370871Y-101716922D01*
X90319029Y-101367432D01*
X90318076Y-101357764D01*
X90307952Y-101151689D01*
X90302055Y-101031662D01*
X90303441Y-101009613D01*
X90303632Y-101008530D01*
X90303632Y-101008529D01*
X90305136Y-101000000D01*
X90302004Y-100982236D01*
X90300500Y-100965047D01*
X90300500Y-96475996D01*
X106113814Y-96475996D01*
X106123523Y-96685767D01*
X106124628Y-96690351D01*
X106149084Y-96791826D01*
X106172724Y-96889918D01*
X106259640Y-97081081D01*
X106381137Y-97252360D01*
X106459127Y-97327019D01*
X106529427Y-97394317D01*
X106529431Y-97394320D01*
X106532831Y-97397575D01*
X106709246Y-97511485D01*
X106713623Y-97513249D01*
X106820811Y-97556447D01*
X106904019Y-97589981D01*
X106908643Y-97590884D01*
X107106627Y-97629548D01*
X107106634Y-97629549D01*
X107110122Y-97630230D01*
X107115643Y-97630500D01*
X107670469Y-97630500D01*
X107766540Y-97621334D01*
X107822353Y-97616009D01*
X107822355Y-97616009D01*
X107827046Y-97615561D01*
X108028549Y-97556447D01*
X108215239Y-97460295D01*
X108380379Y-97330576D01*
X108518010Y-97171971D01*
X108623166Y-96990201D01*
X108657990Y-96889918D01*
X108690509Y-96796273D01*
X108690510Y-96796271D01*
X108692053Y-96791826D01*
X108722186Y-96584004D01*
X108717187Y-96475996D01*
X128973814Y-96475996D01*
X128983523Y-96685767D01*
X128984628Y-96690351D01*
X129009084Y-96791826D01*
X129032724Y-96889918D01*
X129119640Y-97081081D01*
X129241137Y-97252360D01*
X129319127Y-97327019D01*
X129389427Y-97394317D01*
X129389431Y-97394320D01*
X129392831Y-97397575D01*
X129569246Y-97511485D01*
X129573623Y-97513249D01*
X129680811Y-97556447D01*
X129764019Y-97589981D01*
X129768643Y-97590884D01*
X129966627Y-97629548D01*
X129966634Y-97629549D01*
X129970122Y-97630230D01*
X129975643Y-97630500D01*
X130530469Y-97630500D01*
X130626540Y-97621334D01*
X130682353Y-97616009D01*
X130682355Y-97616009D01*
X130687046Y-97615561D01*
X130888549Y-97556447D01*
X131075239Y-97460295D01*
X131240379Y-97330576D01*
X131378010Y-97171971D01*
X131483166Y-96990201D01*
X131517990Y-96889918D01*
X131550509Y-96796273D01*
X131550510Y-96796271D01*
X131552053Y-96791826D01*
X131582186Y-96584004D01*
X131572477Y-96374233D01*
X131548040Y-96272836D01*
X131524381Y-96174665D01*
X131524379Y-96174660D01*
X131523276Y-96170082D01*
X131436360Y-95978919D01*
X131314863Y-95807640D01*
X131230115Y-95726512D01*
X131166573Y-95665683D01*
X131166569Y-95665680D01*
X131163169Y-95662425D01*
X130986754Y-95548515D01*
X130880539Y-95505709D01*
X130796356Y-95471782D01*
X130796354Y-95471781D01*
X130791981Y-95470019D01*
X130786687Y-95468985D01*
X130589373Y-95430452D01*
X130589366Y-95430451D01*
X130585878Y-95429770D01*
X130580357Y-95429500D01*
X130025531Y-95429500D01*
X129929460Y-95438666D01*
X129873647Y-95443991D01*
X129873645Y-95443991D01*
X129868954Y-95444439D01*
X129667451Y-95503553D01*
X129480761Y-95599705D01*
X129315621Y-95729424D01*
X129177990Y-95888029D01*
X129072834Y-96069799D01*
X129071290Y-96074244D01*
X129071290Y-96074245D01*
X129036419Y-96174665D01*
X129003947Y-96268174D01*
X128973814Y-96475996D01*
X108717187Y-96475996D01*
X108712477Y-96374233D01*
X108688040Y-96272836D01*
X108664381Y-96174665D01*
X108664379Y-96174660D01*
X108663276Y-96170082D01*
X108576360Y-95978919D01*
X108454863Y-95807640D01*
X108370115Y-95726512D01*
X108306573Y-95665683D01*
X108306569Y-95665680D01*
X108303169Y-95662425D01*
X108126754Y-95548515D01*
X108020539Y-95505709D01*
X107936356Y-95471782D01*
X107936354Y-95471781D01*
X107931981Y-95470019D01*
X107926687Y-95468985D01*
X107729373Y-95430452D01*
X107729366Y-95430451D01*
X107725878Y-95429770D01*
X107720357Y-95429500D01*
X107165531Y-95429500D01*
X107069460Y-95438666D01*
X107013647Y-95443991D01*
X107013645Y-95443991D01*
X107008954Y-95444439D01*
X106807451Y-95503553D01*
X106620761Y-95599705D01*
X106455621Y-95729424D01*
X106317990Y-95888029D01*
X106212834Y-96069799D01*
X106211290Y-96074244D01*
X106211290Y-96074245D01*
X106176419Y-96174665D01*
X106143947Y-96268174D01*
X106113814Y-96475996D01*
X90300500Y-96475996D01*
X90300500Y-95222047D01*
X168349500Y-95222047D01*
X168352618Y-95248247D01*
X168398061Y-95350554D01*
X168477287Y-95429642D01*
X168485645Y-95433337D01*
X168572864Y-95471897D01*
X168572866Y-95471897D01*
X168579673Y-95474907D01*
X168587067Y-95475769D01*
X168602378Y-95477554D01*
X168605354Y-95477901D01*
X169894646Y-95477901D01*
X169912561Y-95475769D01*
X169913469Y-95475661D01*
X169913470Y-95475661D01*
X169920846Y-95474783D01*
X170023153Y-95429340D01*
X170102241Y-95350114D01*
X170147506Y-95247728D01*
X170150500Y-95222047D01*
X170150500Y-93932755D01*
X170147382Y-93906555D01*
X170101939Y-93804248D01*
X170022713Y-93725160D01*
X169993591Y-93712285D01*
X169927136Y-93682905D01*
X169927134Y-93682905D01*
X169920327Y-93679895D01*
X169906322Y-93678262D01*
X169897494Y-93677233D01*
X169897493Y-93677233D01*
X169894646Y-93676901D01*
X168605354Y-93676901D01*
X168588951Y-93678853D01*
X168586531Y-93679141D01*
X168586530Y-93679141D01*
X168579154Y-93680019D01*
X168476847Y-93725462D01*
X168397759Y-93804688D01*
X168352494Y-93907074D01*
X168349500Y-93932755D01*
X168349500Y-95222047D01*
X90300500Y-95222047D01*
X90300500Y-93935996D01*
X106113814Y-93935996D01*
X106123523Y-94145767D01*
X106124628Y-94150351D01*
X106149084Y-94251826D01*
X106172724Y-94349918D01*
X106259640Y-94541081D01*
X106381137Y-94712360D01*
X106459127Y-94787019D01*
X106529427Y-94854317D01*
X106529431Y-94854320D01*
X106532831Y-94857575D01*
X106709246Y-94971485D01*
X106713623Y-94973249D01*
X106820811Y-95016447D01*
X106904019Y-95049981D01*
X106908643Y-95050884D01*
X107106627Y-95089548D01*
X107106634Y-95089549D01*
X107110122Y-95090230D01*
X107115643Y-95090500D01*
X107670469Y-95090500D01*
X107766540Y-95081334D01*
X107822353Y-95076009D01*
X107822355Y-95076009D01*
X107827046Y-95075561D01*
X108028549Y-95016447D01*
X108215239Y-94920295D01*
X108380379Y-94790576D01*
X108518010Y-94631971D01*
X108623166Y-94450201D01*
X108657990Y-94349918D01*
X108690509Y-94256273D01*
X108690510Y-94256271D01*
X108692053Y-94251826D01*
X108722186Y-94044004D01*
X108712477Y-93834233D01*
X108687746Y-93731615D01*
X108664381Y-93634665D01*
X108664379Y-93634660D01*
X108663276Y-93630082D01*
X108576360Y-93438919D01*
X108454863Y-93267640D01*
X108370115Y-93186512D01*
X108306573Y-93125683D01*
X108306569Y-93125680D01*
X108303169Y-93122425D01*
X108126754Y-93008515D01*
X108020539Y-92965709D01*
X107936356Y-92931782D01*
X107936354Y-92931781D01*
X107931981Y-92930019D01*
X107926687Y-92928985D01*
X107729373Y-92890452D01*
X107729366Y-92890451D01*
X107725878Y-92889770D01*
X107720357Y-92889500D01*
X107165531Y-92889500D01*
X107069460Y-92898666D01*
X107013647Y-92903991D01*
X107013645Y-92903991D01*
X107008954Y-92904439D01*
X106807451Y-92963553D01*
X106620761Y-93059705D01*
X106455621Y-93189424D01*
X106317990Y-93348029D01*
X106212834Y-93529799D01*
X106211290Y-93534244D01*
X106211290Y-93534245D01*
X106146277Y-93721465D01*
X106143947Y-93728174D01*
X106143271Y-93732836D01*
X106118008Y-93907074D01*
X106113814Y-93935996D01*
X90300500Y-93935996D01*
X90300500Y-91421069D01*
X99895164Y-91421069D01*
X99908392Y-91622894D01*
X99958178Y-91818928D01*
X100042856Y-92002607D01*
X100159588Y-92167780D01*
X100304466Y-92308913D01*
X100472637Y-92421282D01*
X100658470Y-92501122D01*
X100855740Y-92545760D01*
X101057842Y-92553700D01*
X101067651Y-92552278D01*
X101253519Y-92525329D01*
X101253522Y-92525328D01*
X101258007Y-92524678D01*
X101396187Y-92477772D01*
X101445234Y-92461123D01*
X101445237Y-92461121D01*
X101449531Y-92459664D01*
X101591256Y-92380295D01*
X101622039Y-92363056D01*
X101622041Y-92363055D01*
X101626001Y-92360837D01*
X101781505Y-92231505D01*
X101910837Y-92076001D01*
X102009664Y-91899531D01*
X102074678Y-91708007D01*
X102103700Y-91507842D01*
X102105215Y-91450000D01*
X102100253Y-91395996D01*
X106113814Y-91395996D01*
X106114032Y-91400707D01*
X106114032Y-91400708D01*
X106116314Y-91450000D01*
X106123523Y-91605767D01*
X106124628Y-91610351D01*
X106149084Y-91711826D01*
X106172724Y-91809918D01*
X106174674Y-91814206D01*
X106174674Y-91814207D01*
X106178692Y-91823045D01*
X106259640Y-92001081D01*
X106381137Y-92172360D01*
X106439271Y-92228011D01*
X106529427Y-92314317D01*
X106529431Y-92314320D01*
X106532831Y-92317575D01*
X106709246Y-92431485D01*
X106713623Y-92433249D01*
X106884521Y-92502123D01*
X106904019Y-92509981D01*
X106908643Y-92510884D01*
X107106627Y-92549548D01*
X107106634Y-92549549D01*
X107110122Y-92550230D01*
X107115643Y-92550500D01*
X107670469Y-92550500D01*
X107766540Y-92541334D01*
X107822353Y-92536009D01*
X107822355Y-92536009D01*
X107827046Y-92535561D01*
X108028549Y-92476447D01*
X108215239Y-92380295D01*
X108380379Y-92250576D01*
X108518010Y-92091971D01*
X108623166Y-91910201D01*
X108628363Y-91895234D01*
X108690509Y-91716273D01*
X108690510Y-91716271D01*
X108692053Y-91711826D01*
X108692729Y-91707164D01*
X108721509Y-91508674D01*
X108721509Y-91508673D01*
X108722186Y-91504004D01*
X108719821Y-91452913D01*
X108717187Y-91395996D01*
X128973814Y-91395996D01*
X128974032Y-91400707D01*
X128974032Y-91400708D01*
X128976314Y-91450000D01*
X128983523Y-91605767D01*
X128984628Y-91610351D01*
X129009084Y-91711826D01*
X129032724Y-91809918D01*
X129034674Y-91814206D01*
X129034674Y-91814207D01*
X129038692Y-91823045D01*
X129119640Y-92001081D01*
X129241137Y-92172360D01*
X129299271Y-92228011D01*
X129389427Y-92314317D01*
X129389431Y-92314320D01*
X129392831Y-92317575D01*
X129569246Y-92431485D01*
X129573623Y-92433249D01*
X129744521Y-92502123D01*
X129764019Y-92509981D01*
X129768643Y-92510884D01*
X129966627Y-92549548D01*
X129966634Y-92549549D01*
X129970122Y-92550230D01*
X129975643Y-92550500D01*
X130530469Y-92550500D01*
X130626540Y-92541334D01*
X130682353Y-92536009D01*
X130682355Y-92536009D01*
X130687046Y-92535561D01*
X130888549Y-92476447D01*
X131075239Y-92380295D01*
X131240379Y-92250576D01*
X131378010Y-92091971D01*
X131483166Y-91910201D01*
X131488363Y-91895234D01*
X131550509Y-91716273D01*
X131550510Y-91716271D01*
X131552053Y-91711826D01*
X131552729Y-91707164D01*
X131581509Y-91508674D01*
X131581509Y-91508673D01*
X131582186Y-91504004D01*
X131579821Y-91452913D01*
X131578347Y-91421069D01*
X143397164Y-91421069D01*
X143410392Y-91622894D01*
X143460178Y-91818928D01*
X143544856Y-92002607D01*
X143661588Y-92167780D01*
X143806466Y-92308913D01*
X143974637Y-92421282D01*
X144160470Y-92501122D01*
X144357740Y-92545760D01*
X144559842Y-92553700D01*
X144569651Y-92552278D01*
X144755519Y-92525329D01*
X144755522Y-92525328D01*
X144760007Y-92524678D01*
X144898187Y-92477772D01*
X144947234Y-92461123D01*
X144947237Y-92461121D01*
X144951531Y-92459664D01*
X145093256Y-92380295D01*
X145124039Y-92363056D01*
X145124041Y-92363055D01*
X145128001Y-92360837D01*
X145283505Y-92231505D01*
X145412837Y-92076001D01*
X145511664Y-91899531D01*
X145576678Y-91708007D01*
X145605700Y-91507842D01*
X145607215Y-91450000D01*
X145604557Y-91421069D01*
X146445164Y-91421069D01*
X146458392Y-91622894D01*
X146508178Y-91818928D01*
X146592856Y-92002607D01*
X146709588Y-92167780D01*
X146854466Y-92308913D01*
X147022637Y-92421282D01*
X147208470Y-92501122D01*
X147405740Y-92545760D01*
X147607842Y-92553700D01*
X147617651Y-92552278D01*
X147803519Y-92525329D01*
X147803522Y-92525328D01*
X147808007Y-92524678D01*
X147946187Y-92477772D01*
X147995234Y-92461123D01*
X147995237Y-92461121D01*
X147999531Y-92459664D01*
X148141256Y-92380295D01*
X148172039Y-92363056D01*
X148172041Y-92363055D01*
X148176001Y-92360837D01*
X148331505Y-92231505D01*
X148460837Y-92076001D01*
X148559664Y-91899531D01*
X148624678Y-91708007D01*
X148653700Y-91507842D01*
X148655215Y-91450000D01*
X148636708Y-91248591D01*
X148581807Y-91053926D01*
X148492351Y-90872527D01*
X148371335Y-90710467D01*
X148222812Y-90573174D01*
X148202450Y-90560326D01*
X148055594Y-90467667D01*
X148051757Y-90465246D01*
X147863898Y-90390298D01*
X147665526Y-90350839D01*
X147565930Y-90349535D01*
X147467826Y-90348251D01*
X147467821Y-90348251D01*
X147463286Y-90348192D01*
X147458813Y-90348961D01*
X147458808Y-90348961D01*
X147371340Y-90363991D01*
X147263949Y-90382444D01*
X147074193Y-90452449D01*
X146900371Y-90555862D01*
X146896956Y-90558857D01*
X146896953Y-90558859D01*
X146798487Y-90645212D01*
X146748305Y-90689220D01*
X146745497Y-90692782D01*
X146627678Y-90842236D01*
X146623089Y-90848057D01*
X146528914Y-91027053D01*
X146527569Y-91031384D01*
X146527568Y-91031387D01*
X146477438Y-91192836D01*
X146468937Y-91220213D01*
X146445164Y-91421069D01*
X145604557Y-91421069D01*
X145588708Y-91248591D01*
X145533807Y-91053926D01*
X145444351Y-90872527D01*
X145323335Y-90710467D01*
X145174812Y-90573174D01*
X145154450Y-90560326D01*
X145007594Y-90467667D01*
X145003757Y-90465246D01*
X144815898Y-90390298D01*
X144617526Y-90350839D01*
X144517930Y-90349535D01*
X144419826Y-90348251D01*
X144419821Y-90348251D01*
X144415286Y-90348192D01*
X144410813Y-90348961D01*
X144410808Y-90348961D01*
X144323340Y-90363991D01*
X144215949Y-90382444D01*
X144026193Y-90452449D01*
X143852371Y-90555862D01*
X143848956Y-90558857D01*
X143848953Y-90558859D01*
X143750487Y-90645212D01*
X143700305Y-90689220D01*
X143697497Y-90692782D01*
X143579678Y-90842236D01*
X143575089Y-90848057D01*
X143480914Y-91027053D01*
X143479569Y-91031384D01*
X143479568Y-91031387D01*
X143429438Y-91192836D01*
X143420937Y-91220213D01*
X143397164Y-91421069D01*
X131578347Y-91421069D01*
X131572695Y-91298941D01*
X131572695Y-91298940D01*
X131572477Y-91294233D01*
X131548040Y-91192836D01*
X131524381Y-91094665D01*
X131524379Y-91094660D01*
X131523276Y-91090082D01*
X131436360Y-90898919D01*
X131314863Y-90727640D01*
X131230115Y-90646512D01*
X131166573Y-90585683D01*
X131166569Y-90585680D01*
X131163169Y-90582425D01*
X130986754Y-90468515D01*
X130947204Y-90452576D01*
X130796356Y-90391782D01*
X130796354Y-90391781D01*
X130791981Y-90390019D01*
X130786687Y-90388985D01*
X130589373Y-90350452D01*
X130589366Y-90350451D01*
X130585878Y-90349770D01*
X130580357Y-90349500D01*
X130025531Y-90349500D01*
X129929460Y-90358666D01*
X129873647Y-90363991D01*
X129873645Y-90363991D01*
X129868954Y-90364439D01*
X129667451Y-90423553D01*
X129480761Y-90519705D01*
X129315621Y-90649424D01*
X129177990Y-90808029D01*
X129072834Y-90989799D01*
X129071290Y-90994244D01*
X129071290Y-90994245D01*
X129036419Y-91094665D01*
X129003947Y-91188174D01*
X129003271Y-91192836D01*
X128999302Y-91220213D01*
X128973814Y-91395996D01*
X108717187Y-91395996D01*
X108712695Y-91298941D01*
X108712695Y-91298940D01*
X108712477Y-91294233D01*
X108688040Y-91192836D01*
X108664381Y-91094665D01*
X108664379Y-91094660D01*
X108663276Y-91090082D01*
X108576360Y-90898919D01*
X108454863Y-90727640D01*
X108370115Y-90646512D01*
X108306573Y-90585683D01*
X108306569Y-90585680D01*
X108303169Y-90582425D01*
X108126754Y-90468515D01*
X108087204Y-90452576D01*
X107936356Y-90391782D01*
X107936354Y-90391781D01*
X107931981Y-90390019D01*
X107926687Y-90388985D01*
X107729373Y-90350452D01*
X107729366Y-90350451D01*
X107725878Y-90349770D01*
X107720357Y-90349500D01*
X107165531Y-90349500D01*
X107069460Y-90358666D01*
X107013647Y-90363991D01*
X107013645Y-90363991D01*
X107008954Y-90364439D01*
X106807451Y-90423553D01*
X106620761Y-90519705D01*
X106455621Y-90649424D01*
X106317990Y-90808029D01*
X106212834Y-90989799D01*
X106211290Y-90994244D01*
X106211290Y-90994245D01*
X106176419Y-91094665D01*
X106143947Y-91188174D01*
X106143271Y-91192836D01*
X106139302Y-91220213D01*
X106113814Y-91395996D01*
X102100253Y-91395996D01*
X102086708Y-91248591D01*
X102031807Y-91053926D01*
X101942351Y-90872527D01*
X101821335Y-90710467D01*
X101672812Y-90573174D01*
X101652450Y-90560326D01*
X101505594Y-90467667D01*
X101501757Y-90465246D01*
X101313898Y-90390298D01*
X101115526Y-90350839D01*
X101015930Y-90349535D01*
X100917826Y-90348251D01*
X100917821Y-90348251D01*
X100913286Y-90348192D01*
X100908813Y-90348961D01*
X100908808Y-90348961D01*
X100821340Y-90363991D01*
X100713949Y-90382444D01*
X100524193Y-90452449D01*
X100350371Y-90555862D01*
X100346956Y-90558857D01*
X100346953Y-90558859D01*
X100248487Y-90645212D01*
X100198305Y-90689220D01*
X100195497Y-90692782D01*
X100077678Y-90842236D01*
X100073089Y-90848057D01*
X99978914Y-91027053D01*
X99977569Y-91031384D01*
X99977568Y-91031387D01*
X99927438Y-91192836D01*
X99918937Y-91220213D01*
X99895164Y-91421069D01*
X90300500Y-91421069D01*
X90300500Y-88895262D01*
X95440520Y-88895262D01*
X95440925Y-88900082D01*
X95454443Y-89061059D01*
X95457759Y-89100553D01*
X95459092Y-89105201D01*
X95459092Y-89105202D01*
X95506324Y-89269918D01*
X95514544Y-89298586D01*
X95608712Y-89481818D01*
X95736677Y-89643270D01*
X95740357Y-89646402D01*
X95740359Y-89646404D01*
X95811582Y-89707019D01*
X95893564Y-89776791D01*
X95897787Y-89779151D01*
X95897791Y-89779154D01*
X95937342Y-89801258D01*
X96073398Y-89877297D01*
X96077996Y-89878791D01*
X96264724Y-89939463D01*
X96264726Y-89939464D01*
X96269329Y-89940959D01*
X96473894Y-89965351D01*
X96478716Y-89964980D01*
X96478719Y-89964980D01*
X96546541Y-89959761D01*
X96679300Y-89949546D01*
X96877725Y-89894145D01*
X96882038Y-89891966D01*
X96882044Y-89891964D01*
X97057289Y-89803441D01*
X97057291Y-89803440D01*
X97061610Y-89801258D01*
X97065427Y-89798276D01*
X97220135Y-89677406D01*
X97220139Y-89677402D01*
X97223951Y-89674424D01*
X97260260Y-89632360D01*
X97283313Y-89605651D01*
X97358564Y-89518472D01*
X97377231Y-89485613D01*
X97457934Y-89343550D01*
X97457935Y-89343547D01*
X97460323Y-89339344D01*
X97473882Y-89298586D01*
X97523824Y-89148454D01*
X97523824Y-89148452D01*
X97525351Y-89143863D01*
X97535812Y-89061059D01*
X97550823Y-88942228D01*
X97551171Y-88939474D01*
X97551583Y-88910000D01*
X97546288Y-88855996D01*
X106113814Y-88855996D01*
X106114032Y-88860707D01*
X106114032Y-88860708D01*
X106116314Y-88910000D01*
X106123523Y-89065767D01*
X106124628Y-89070351D01*
X106162487Y-89227440D01*
X106172724Y-89269918D01*
X106259640Y-89461081D01*
X106262366Y-89464924D01*
X106274350Y-89481818D01*
X106381137Y-89632360D01*
X106425078Y-89674424D01*
X106529427Y-89774317D01*
X106529431Y-89774320D01*
X106532831Y-89777575D01*
X106709246Y-89891485D01*
X106713623Y-89893249D01*
X106892531Y-89965351D01*
X106904019Y-89969981D01*
X106908643Y-89970884D01*
X107106627Y-90009548D01*
X107106634Y-90009549D01*
X107110122Y-90010230D01*
X107115643Y-90010500D01*
X107670469Y-90010500D01*
X107766540Y-90001334D01*
X107822353Y-89996009D01*
X107822355Y-89996009D01*
X107827046Y-89995561D01*
X108028549Y-89936447D01*
X108215239Y-89840295D01*
X108380379Y-89710576D01*
X108518010Y-89551971D01*
X108623166Y-89370201D01*
X108649652Y-89293928D01*
X108690509Y-89176273D01*
X108690510Y-89176271D01*
X108692053Y-89171826D01*
X108695442Y-89148454D01*
X108721509Y-88968674D01*
X108721509Y-88968673D01*
X108722186Y-88964004D01*
X108719815Y-88912776D01*
X108717187Y-88855996D01*
X128973814Y-88855996D01*
X128974032Y-88860707D01*
X128974032Y-88860708D01*
X128976314Y-88910000D01*
X128983523Y-89065767D01*
X128984628Y-89070351D01*
X129022487Y-89227440D01*
X129032724Y-89269918D01*
X129119640Y-89461081D01*
X129122366Y-89464924D01*
X129134350Y-89481818D01*
X129241137Y-89632360D01*
X129285078Y-89674424D01*
X129389427Y-89774317D01*
X129389431Y-89774320D01*
X129392831Y-89777575D01*
X129569246Y-89891485D01*
X129573623Y-89893249D01*
X129752531Y-89965351D01*
X129764019Y-89969981D01*
X129768643Y-89970884D01*
X129966627Y-90009548D01*
X129966634Y-90009549D01*
X129970122Y-90010230D01*
X129975643Y-90010500D01*
X130530469Y-90010500D01*
X130626540Y-90001334D01*
X130682353Y-89996009D01*
X130682355Y-89996009D01*
X130687046Y-89995561D01*
X130888549Y-89936447D01*
X131075239Y-89840295D01*
X131163915Y-89770639D01*
X168349500Y-89770639D01*
X168349501Y-90449360D01*
X168349924Y-90452571D01*
X168349924Y-90452576D01*
X168352359Y-90471074D01*
X168364956Y-90566762D01*
X168367438Y-90572754D01*
X168367439Y-90572758D01*
X168399196Y-90649424D01*
X168425464Y-90712841D01*
X168521718Y-90838282D01*
X168647159Y-90934536D01*
X168793238Y-90995044D01*
X168910639Y-91010500D01*
X169249947Y-91010500D01*
X169589360Y-91010499D01*
X169592571Y-91010076D01*
X169592576Y-91010076D01*
X169674329Y-90999314D01*
X169706762Y-90995044D01*
X169712754Y-90992562D01*
X169712758Y-90992561D01*
X169812753Y-90951141D01*
X169852841Y-90934536D01*
X169978282Y-90838282D01*
X170074536Y-90712841D01*
X170135044Y-90566762D01*
X170150500Y-90449361D01*
X170150499Y-89770640D01*
X170142976Y-89713488D01*
X170139314Y-89685671D01*
X170135044Y-89653238D01*
X170132562Y-89647246D01*
X170132561Y-89647242D01*
X170091141Y-89547247D01*
X170074536Y-89507159D01*
X169978282Y-89381718D01*
X169852841Y-89285464D01*
X169706762Y-89224956D01*
X169589361Y-89209500D01*
X169250053Y-89209500D01*
X168910640Y-89209501D01*
X168907429Y-89209924D01*
X168907424Y-89209924D01*
X168825671Y-89220686D01*
X168793238Y-89224956D01*
X168787246Y-89227438D01*
X168787242Y-89227439D01*
X168687247Y-89268859D01*
X168647159Y-89285464D01*
X168521718Y-89381718D01*
X168425464Y-89507159D01*
X168408593Y-89547889D01*
X168370654Y-89639483D01*
X168364956Y-89653238D01*
X168349500Y-89770639D01*
X131163915Y-89770639D01*
X131240379Y-89710576D01*
X131378010Y-89551971D01*
X131483166Y-89370201D01*
X131509652Y-89293928D01*
X131550509Y-89176273D01*
X131550510Y-89176271D01*
X131552053Y-89171826D01*
X131555442Y-89148454D01*
X131581509Y-88968674D01*
X131581509Y-88968673D01*
X131582186Y-88964004D01*
X131579815Y-88912776D01*
X131572695Y-88758941D01*
X131572695Y-88758940D01*
X131572477Y-88754233D01*
X131548040Y-88652836D01*
X131524381Y-88554665D01*
X131524379Y-88554660D01*
X131523276Y-88550082D01*
X131504029Y-88507749D01*
X131438310Y-88363208D01*
X131436360Y-88358919D01*
X131314863Y-88187640D01*
X131230115Y-88106512D01*
X131166573Y-88045683D01*
X131166569Y-88045680D01*
X131163169Y-88042425D01*
X130986754Y-87928515D01*
X130909811Y-87897506D01*
X130796356Y-87851782D01*
X130796354Y-87851781D01*
X130791981Y-87850019D01*
X130768687Y-87845470D01*
X130589373Y-87810452D01*
X130589366Y-87810451D01*
X130585878Y-87809770D01*
X130580357Y-87809500D01*
X130025531Y-87809500D01*
X129929460Y-87818666D01*
X129873647Y-87823991D01*
X129873645Y-87823991D01*
X129868954Y-87824439D01*
X129667451Y-87883553D01*
X129480761Y-87979705D01*
X129315621Y-88109424D01*
X129177990Y-88268029D01*
X129072834Y-88449799D01*
X129071290Y-88454244D01*
X129071290Y-88454245D01*
X129036419Y-88554665D01*
X129003947Y-88648174D01*
X128973814Y-88855996D01*
X108717187Y-88855996D01*
X108712695Y-88758941D01*
X108712695Y-88758940D01*
X108712477Y-88754233D01*
X108688040Y-88652836D01*
X108664381Y-88554665D01*
X108664379Y-88554660D01*
X108663276Y-88550082D01*
X108644029Y-88507749D01*
X108578310Y-88363208D01*
X108576360Y-88358919D01*
X108454863Y-88187640D01*
X108370115Y-88106512D01*
X108306573Y-88045683D01*
X108306569Y-88045680D01*
X108303169Y-88042425D01*
X108126754Y-87928515D01*
X108049811Y-87897506D01*
X107936356Y-87851782D01*
X107936354Y-87851781D01*
X107931981Y-87850019D01*
X107908687Y-87845470D01*
X107729373Y-87810452D01*
X107729366Y-87810451D01*
X107725878Y-87809770D01*
X107720357Y-87809500D01*
X107165531Y-87809500D01*
X107069460Y-87818666D01*
X107013647Y-87823991D01*
X107013645Y-87823991D01*
X107008954Y-87824439D01*
X106807451Y-87883553D01*
X106620761Y-87979705D01*
X106455621Y-88109424D01*
X106317990Y-88268029D01*
X106212834Y-88449799D01*
X106211290Y-88454244D01*
X106211290Y-88454245D01*
X106176419Y-88554665D01*
X106143947Y-88648174D01*
X106113814Y-88855996D01*
X97546288Y-88855996D01*
X97536772Y-88758941D01*
X97531952Y-88709780D01*
X97531951Y-88709776D01*
X97531480Y-88704970D01*
X97471935Y-88507749D01*
X97375218Y-88325849D01*
X97245011Y-88166200D01*
X97228790Y-88152781D01*
X97090002Y-88037965D01*
X97090000Y-88037964D01*
X97086275Y-88034882D01*
X96905055Y-87936897D01*
X96841855Y-87917333D01*
X96712875Y-87877407D01*
X96712871Y-87877406D01*
X96708254Y-87875977D01*
X96703446Y-87875472D01*
X96703443Y-87875471D01*
X96508185Y-87854949D01*
X96508183Y-87854949D01*
X96503369Y-87854443D01*
X96443354Y-87859905D01*
X96303022Y-87872675D01*
X96303017Y-87872676D01*
X96298203Y-87873114D01*
X96100572Y-87931280D01*
X96096288Y-87933519D01*
X96096287Y-87933520D01*
X96085428Y-87939197D01*
X95918002Y-88026726D01*
X95914231Y-88029758D01*
X95761220Y-88152781D01*
X95761217Y-88152783D01*
X95757447Y-88155815D01*
X95754333Y-88159526D01*
X95754332Y-88159527D01*
X95659863Y-88272111D01*
X95625024Y-88313630D01*
X95622689Y-88317878D01*
X95622688Y-88317879D01*
X95615955Y-88330126D01*
X95525776Y-88494162D01*
X95524313Y-88498775D01*
X95524311Y-88498779D01*
X95508037Y-88550082D01*
X95463484Y-88690532D01*
X95462944Y-88695344D01*
X95462944Y-88695345D01*
X95461865Y-88704970D01*
X95440520Y-88895262D01*
X90300500Y-88895262D01*
X90300500Y-87644646D01*
X174699500Y-87644646D01*
X174702618Y-87670846D01*
X174748061Y-87773153D01*
X174754529Y-87779610D01*
X174754530Y-87779611D01*
X174784568Y-87809596D01*
X174827287Y-87852241D01*
X174835645Y-87855936D01*
X174922864Y-87894496D01*
X174922866Y-87894496D01*
X174929673Y-87897506D01*
X174937067Y-87898368D01*
X174952378Y-87900153D01*
X174955354Y-87900500D01*
X176844646Y-87900500D01*
X176862561Y-87898368D01*
X176863469Y-87898260D01*
X176863470Y-87898260D01*
X176870846Y-87897382D01*
X176973153Y-87851939D01*
X176999282Y-87825765D01*
X177045786Y-87779179D01*
X177052241Y-87772713D01*
X177097506Y-87670327D01*
X177100500Y-87644646D01*
X177100500Y-83155354D01*
X177097382Y-83129154D01*
X177051939Y-83026847D01*
X176972713Y-82947759D01*
X176899074Y-82915203D01*
X176877136Y-82905504D01*
X176877134Y-82905504D01*
X176870327Y-82902494D01*
X176855977Y-82900821D01*
X176847494Y-82899832D01*
X176847493Y-82899832D01*
X176844646Y-82899500D01*
X174955354Y-82899500D01*
X174938951Y-82901452D01*
X174936531Y-82901740D01*
X174936530Y-82901740D01*
X174929154Y-82902618D01*
X174826847Y-82948061D01*
X174820390Y-82954529D01*
X174820389Y-82954530D01*
X174812508Y-82962425D01*
X174747759Y-83027287D01*
X174702494Y-83129673D01*
X174699500Y-83155354D01*
X174699500Y-87644646D01*
X90300500Y-87644646D01*
X90300500Y-86355262D01*
X95440520Y-86355262D01*
X95440925Y-86360082D01*
X95454443Y-86521059D01*
X95457759Y-86560553D01*
X95459092Y-86565201D01*
X95459092Y-86565202D01*
X95506324Y-86729918D01*
X95514544Y-86758586D01*
X95608712Y-86941818D01*
X95736677Y-87103270D01*
X95740357Y-87106402D01*
X95740359Y-87106404D01*
X95811582Y-87167019D01*
X95893564Y-87236791D01*
X95897787Y-87239151D01*
X95897791Y-87239154D01*
X95937342Y-87261258D01*
X96073398Y-87337297D01*
X96077996Y-87338791D01*
X96264724Y-87399463D01*
X96264726Y-87399464D01*
X96269329Y-87400959D01*
X96473894Y-87425351D01*
X96478716Y-87424980D01*
X96478719Y-87424980D01*
X96546541Y-87419761D01*
X96679300Y-87409546D01*
X96877725Y-87354145D01*
X96882038Y-87351966D01*
X96882044Y-87351964D01*
X97057289Y-87263441D01*
X97057291Y-87263440D01*
X97061610Y-87261258D01*
X97065427Y-87258276D01*
X97220135Y-87137406D01*
X97220139Y-87137402D01*
X97223951Y-87134424D01*
X97260260Y-87092360D01*
X97283313Y-87065651D01*
X97358564Y-86978472D01*
X97377231Y-86945613D01*
X97457934Y-86803550D01*
X97457935Y-86803547D01*
X97460323Y-86799344D01*
X97473882Y-86758586D01*
X97523824Y-86608454D01*
X97523824Y-86608452D01*
X97525351Y-86603863D01*
X97535812Y-86521059D01*
X97550823Y-86402228D01*
X97551171Y-86399474D01*
X97551583Y-86370000D01*
X97546288Y-86315996D01*
X106113814Y-86315996D01*
X106114032Y-86320707D01*
X106114032Y-86320708D01*
X106116314Y-86370000D01*
X106123523Y-86525767D01*
X106124628Y-86530351D01*
X106149084Y-86631826D01*
X106172724Y-86729918D01*
X106259640Y-86921081D01*
X106262366Y-86924924D01*
X106274350Y-86941818D01*
X106381137Y-87092360D01*
X106425078Y-87134424D01*
X106529427Y-87234317D01*
X106529431Y-87234320D01*
X106532831Y-87237575D01*
X106709246Y-87351485D01*
X106713623Y-87353249D01*
X106892531Y-87425351D01*
X106904019Y-87429981D01*
X106908643Y-87430884D01*
X107106627Y-87469548D01*
X107106634Y-87469549D01*
X107110122Y-87470230D01*
X107115643Y-87470500D01*
X107670469Y-87470500D01*
X107766540Y-87461334D01*
X107822353Y-87456009D01*
X107822355Y-87456009D01*
X107827046Y-87455561D01*
X108028549Y-87396447D01*
X108215239Y-87300295D01*
X108380379Y-87170576D01*
X108518010Y-87011971D01*
X108623166Y-86830201D01*
X108657990Y-86729918D01*
X108690509Y-86636273D01*
X108690510Y-86636271D01*
X108692053Y-86631826D01*
X108695442Y-86608454D01*
X108721509Y-86428674D01*
X108721509Y-86428673D01*
X108722186Y-86424004D01*
X108719815Y-86372776D01*
X108717187Y-86315996D01*
X128973814Y-86315996D01*
X128974032Y-86320707D01*
X128974032Y-86320708D01*
X128976314Y-86370000D01*
X128983523Y-86525767D01*
X128984628Y-86530351D01*
X129009084Y-86631826D01*
X129032724Y-86729918D01*
X129119640Y-86921081D01*
X129122366Y-86924924D01*
X129134350Y-86941818D01*
X129241137Y-87092360D01*
X129285078Y-87134424D01*
X129389427Y-87234317D01*
X129389431Y-87234320D01*
X129392831Y-87237575D01*
X129569246Y-87351485D01*
X129573623Y-87353249D01*
X129752531Y-87425351D01*
X129764019Y-87429981D01*
X129768643Y-87430884D01*
X129966627Y-87469548D01*
X129966634Y-87469549D01*
X129970122Y-87470230D01*
X129975643Y-87470500D01*
X130530469Y-87470500D01*
X130626540Y-87461334D01*
X130682353Y-87456009D01*
X130682355Y-87456009D01*
X130687046Y-87455561D01*
X130888549Y-87396447D01*
X131075239Y-87300295D01*
X131240379Y-87170576D01*
X131378010Y-87011971D01*
X131483166Y-86830201D01*
X131517990Y-86729918D01*
X131550509Y-86636273D01*
X131550510Y-86636271D01*
X131552053Y-86631826D01*
X131555442Y-86608454D01*
X131581509Y-86428674D01*
X131581509Y-86428673D01*
X131582186Y-86424004D01*
X131579815Y-86372776D01*
X131572695Y-86218941D01*
X131572695Y-86218940D01*
X131572477Y-86214233D01*
X131548040Y-86112836D01*
X131524381Y-86014665D01*
X131524379Y-86014660D01*
X131523276Y-86010082D01*
X131504029Y-85967749D01*
X131469689Y-85892222D01*
X131436360Y-85818919D01*
X131314863Y-85647640D01*
X131220936Y-85557725D01*
X131166573Y-85505683D01*
X131166569Y-85505680D01*
X131163169Y-85502425D01*
X130986754Y-85388515D01*
X130880539Y-85345709D01*
X130796356Y-85311782D01*
X130796354Y-85311781D01*
X130791981Y-85310019D01*
X130786687Y-85308985D01*
X130589373Y-85270452D01*
X130589366Y-85270451D01*
X130585878Y-85269770D01*
X130580357Y-85269500D01*
X130025531Y-85269500D01*
X129929460Y-85278666D01*
X129873647Y-85283991D01*
X129873645Y-85283991D01*
X129868954Y-85284439D01*
X129667451Y-85343553D01*
X129480761Y-85439705D01*
X129406593Y-85497965D01*
X129330515Y-85557725D01*
X129315621Y-85569424D01*
X129177990Y-85728029D01*
X129072834Y-85909799D01*
X129071290Y-85914244D01*
X129071290Y-85914245D01*
X129036419Y-86014665D01*
X129003947Y-86108174D01*
X128973814Y-86315996D01*
X108717187Y-86315996D01*
X108712695Y-86218941D01*
X108712695Y-86218940D01*
X108712477Y-86214233D01*
X108688040Y-86112836D01*
X108664381Y-86014665D01*
X108664379Y-86014660D01*
X108663276Y-86010082D01*
X108644029Y-85967749D01*
X108609689Y-85892222D01*
X108576360Y-85818919D01*
X108454863Y-85647640D01*
X108360936Y-85557725D01*
X108306573Y-85505683D01*
X108306569Y-85505680D01*
X108303169Y-85502425D01*
X108126754Y-85388515D01*
X108020539Y-85345709D01*
X107936356Y-85311782D01*
X107936354Y-85311781D01*
X107931981Y-85310019D01*
X107926687Y-85308985D01*
X107729373Y-85270452D01*
X107729366Y-85270451D01*
X107725878Y-85269770D01*
X107720357Y-85269500D01*
X107165531Y-85269500D01*
X107069460Y-85278666D01*
X107013647Y-85283991D01*
X107013645Y-85283991D01*
X107008954Y-85284439D01*
X106807451Y-85343553D01*
X106620761Y-85439705D01*
X106546593Y-85497965D01*
X106470515Y-85557725D01*
X106455621Y-85569424D01*
X106317990Y-85728029D01*
X106212834Y-85909799D01*
X106211290Y-85914244D01*
X106211290Y-85914245D01*
X106176419Y-86014665D01*
X106143947Y-86108174D01*
X106113814Y-86315996D01*
X97546288Y-86315996D01*
X97536772Y-86218941D01*
X97531952Y-86169780D01*
X97531951Y-86169776D01*
X97531480Y-86164970D01*
X97471935Y-85967749D01*
X97375218Y-85785849D01*
X97245011Y-85626200D01*
X97228790Y-85612781D01*
X97090002Y-85497965D01*
X97090000Y-85497964D01*
X97086275Y-85494882D01*
X96974123Y-85434242D01*
X96909309Y-85399197D01*
X96909308Y-85399197D01*
X96905055Y-85396897D01*
X96841855Y-85377333D01*
X96712875Y-85337407D01*
X96712871Y-85337406D01*
X96708254Y-85335977D01*
X96703446Y-85335472D01*
X96703443Y-85335471D01*
X96508185Y-85314949D01*
X96508183Y-85314949D01*
X96503369Y-85314443D01*
X96443354Y-85319905D01*
X96303022Y-85332675D01*
X96303017Y-85332676D01*
X96298203Y-85333114D01*
X96100572Y-85391280D01*
X96096288Y-85393519D01*
X96096287Y-85393520D01*
X96085428Y-85399197D01*
X95918002Y-85486726D01*
X95914231Y-85489758D01*
X95761220Y-85612781D01*
X95761217Y-85612783D01*
X95757447Y-85615815D01*
X95754333Y-85619526D01*
X95754332Y-85619527D01*
X95659863Y-85732111D01*
X95625024Y-85773630D01*
X95622689Y-85777878D01*
X95622688Y-85777879D01*
X95615955Y-85790126D01*
X95525776Y-85954162D01*
X95524313Y-85958775D01*
X95524311Y-85958779D01*
X95508037Y-86010082D01*
X95463484Y-86150532D01*
X95462944Y-86155344D01*
X95462944Y-86155345D01*
X95461865Y-86164970D01*
X95440520Y-86355262D01*
X90300500Y-86355262D01*
X90300500Y-85030000D01*
X168344540Y-85030000D01*
X168364326Y-85218256D01*
X168365927Y-85223183D01*
X168365928Y-85223188D01*
X168405738Y-85345709D01*
X168422821Y-85398284D01*
X168517467Y-85562216D01*
X168520939Y-85566072D01*
X168640659Y-85699035D01*
X168640663Y-85699038D01*
X168644129Y-85702888D01*
X168797270Y-85814151D01*
X168802002Y-85816258D01*
X168802004Y-85816259D01*
X168817612Y-85823208D01*
X168970197Y-85891144D01*
X168975267Y-85892222D01*
X168975268Y-85892222D01*
X169012610Y-85900159D01*
X169155354Y-85930500D01*
X169344646Y-85930500D01*
X169487390Y-85900159D01*
X169524732Y-85892222D01*
X169524733Y-85892222D01*
X169529803Y-85891144D01*
X169682388Y-85823208D01*
X169697996Y-85816259D01*
X169697998Y-85816258D01*
X169702730Y-85814151D01*
X169855871Y-85702888D01*
X169859337Y-85699038D01*
X169859341Y-85699035D01*
X169979061Y-85566072D01*
X169982533Y-85562216D01*
X170077179Y-85398284D01*
X170094262Y-85345709D01*
X170134072Y-85223188D01*
X170134073Y-85223183D01*
X170135674Y-85218256D01*
X170155460Y-85030000D01*
X170135674Y-84841744D01*
X170134073Y-84836817D01*
X170134072Y-84836812D01*
X170078781Y-84666646D01*
X170078780Y-84666645D01*
X170077179Y-84661716D01*
X170070904Y-84650846D01*
X169985126Y-84502275D01*
X169985125Y-84502274D01*
X169982533Y-84497784D01*
X169882166Y-84386315D01*
X169859341Y-84360965D01*
X169859337Y-84360962D01*
X169855871Y-84357112D01*
X169702730Y-84245849D01*
X169697998Y-84243742D01*
X169697996Y-84243741D01*
X169534540Y-84170965D01*
X169534539Y-84170965D01*
X169529803Y-84168856D01*
X169524733Y-84167778D01*
X169524732Y-84167778D01*
X169487390Y-84159841D01*
X169344646Y-84129500D01*
X169155354Y-84129500D01*
X169012610Y-84159841D01*
X168975268Y-84167778D01*
X168975267Y-84167778D01*
X168970197Y-84168856D01*
X168965461Y-84170965D01*
X168965460Y-84170965D01*
X168802004Y-84243741D01*
X168802002Y-84243742D01*
X168797270Y-84245849D01*
X168644129Y-84357112D01*
X168640663Y-84360962D01*
X168640659Y-84360965D01*
X168617834Y-84386315D01*
X168517467Y-84497784D01*
X168514875Y-84502274D01*
X168514874Y-84502275D01*
X168429097Y-84650846D01*
X168422821Y-84661716D01*
X168421220Y-84666645D01*
X168421219Y-84666646D01*
X168365928Y-84836812D01*
X168365927Y-84836817D01*
X168364326Y-84841744D01*
X168344540Y-85030000D01*
X90300500Y-85030000D01*
X90300500Y-84624646D01*
X95445500Y-84624646D01*
X95448618Y-84650846D01*
X95494061Y-84753153D01*
X95573287Y-84832241D01*
X95581645Y-84835936D01*
X95668864Y-84874496D01*
X95668866Y-84874496D01*
X95675673Y-84877506D01*
X95683067Y-84878368D01*
X95698378Y-84880153D01*
X95701354Y-84880500D01*
X97290646Y-84880500D01*
X97308561Y-84878368D01*
X97309469Y-84878260D01*
X97309470Y-84878260D01*
X97316846Y-84877382D01*
X97419153Y-84831939D01*
X97437811Y-84813249D01*
X97491786Y-84759179D01*
X97498241Y-84752713D01*
X97527847Y-84685747D01*
X97540496Y-84657136D01*
X97540496Y-84657134D01*
X97543506Y-84650327D01*
X97546500Y-84624646D01*
X97546500Y-83801069D01*
X99895164Y-83801069D01*
X99908392Y-84002894D01*
X99958178Y-84198928D01*
X100042856Y-84382607D01*
X100159588Y-84547780D01*
X100304466Y-84688913D01*
X100472637Y-84801282D01*
X100658470Y-84881122D01*
X100855740Y-84925760D01*
X101057842Y-84933700D01*
X101067651Y-84932278D01*
X101253519Y-84905329D01*
X101253522Y-84905328D01*
X101258007Y-84904678D01*
X101396187Y-84857772D01*
X101445234Y-84841123D01*
X101445237Y-84841121D01*
X101449531Y-84839664D01*
X101593249Y-84759179D01*
X101622039Y-84743056D01*
X101622041Y-84743055D01*
X101626001Y-84740837D01*
X101781505Y-84611505D01*
X101910837Y-84456001D01*
X102009664Y-84279531D01*
X102074678Y-84088007D01*
X102103700Y-83887842D01*
X102105215Y-83830000D01*
X102100253Y-83775996D01*
X106113814Y-83775996D01*
X106114032Y-83780707D01*
X106114032Y-83780708D01*
X106116314Y-83830000D01*
X106123523Y-83985767D01*
X106124628Y-83990351D01*
X106149084Y-84091826D01*
X106172724Y-84189918D01*
X106174674Y-84194206D01*
X106174674Y-84194207D01*
X106178692Y-84203045D01*
X106259640Y-84381081D01*
X106381137Y-84552360D01*
X106439271Y-84608011D01*
X106529427Y-84694317D01*
X106529431Y-84694320D01*
X106532831Y-84697575D01*
X106709246Y-84811485D01*
X106713623Y-84813249D01*
X106884521Y-84882123D01*
X106904019Y-84889981D01*
X106908643Y-84890884D01*
X107106627Y-84929548D01*
X107106634Y-84929549D01*
X107110122Y-84930230D01*
X107115643Y-84930500D01*
X107670469Y-84930500D01*
X107766540Y-84921334D01*
X107822353Y-84916009D01*
X107822355Y-84916009D01*
X107827046Y-84915561D01*
X108028549Y-84856447D01*
X108215239Y-84760295D01*
X108355235Y-84650327D01*
X108376672Y-84633488D01*
X108376673Y-84633487D01*
X108380379Y-84630576D01*
X108518010Y-84471971D01*
X108623166Y-84290201D01*
X108639300Y-84243741D01*
X108690509Y-84096273D01*
X108690510Y-84096271D01*
X108692053Y-84091826D01*
X108692729Y-84087164D01*
X108721509Y-83888674D01*
X108721509Y-83888673D01*
X108722186Y-83884004D01*
X108719821Y-83832913D01*
X108717187Y-83775996D01*
X128973814Y-83775996D01*
X128974032Y-83780707D01*
X128974032Y-83780708D01*
X128976314Y-83830000D01*
X128983523Y-83985767D01*
X128984628Y-83990351D01*
X129009084Y-84091826D01*
X129032724Y-84189918D01*
X129034674Y-84194206D01*
X129034674Y-84194207D01*
X129038692Y-84203045D01*
X129119640Y-84381081D01*
X129241137Y-84552360D01*
X129299271Y-84608011D01*
X129389427Y-84694317D01*
X129389431Y-84694320D01*
X129392831Y-84697575D01*
X129569246Y-84811485D01*
X129573623Y-84813249D01*
X129744521Y-84882123D01*
X129764019Y-84889981D01*
X129768643Y-84890884D01*
X129966627Y-84929548D01*
X129966634Y-84929549D01*
X129970122Y-84930230D01*
X129975643Y-84930500D01*
X130530469Y-84930500D01*
X130626540Y-84921334D01*
X130682353Y-84916009D01*
X130682355Y-84916009D01*
X130687046Y-84915561D01*
X130888549Y-84856447D01*
X131075239Y-84760295D01*
X131215235Y-84650327D01*
X131236672Y-84633488D01*
X131236673Y-84633487D01*
X131240379Y-84630576D01*
X131378010Y-84471971D01*
X131483166Y-84290201D01*
X131499300Y-84243741D01*
X131550509Y-84096273D01*
X131550510Y-84096271D01*
X131552053Y-84091826D01*
X131552729Y-84087164D01*
X131581509Y-83888674D01*
X131581509Y-83888673D01*
X131582186Y-83884004D01*
X131579821Y-83832913D01*
X131578347Y-83801069D01*
X143397164Y-83801069D01*
X143410392Y-84002894D01*
X143460178Y-84198928D01*
X143544856Y-84382607D01*
X143661588Y-84547780D01*
X143806466Y-84688913D01*
X143974637Y-84801282D01*
X144160470Y-84881122D01*
X144357740Y-84925760D01*
X144559842Y-84933700D01*
X144569651Y-84932278D01*
X144755519Y-84905329D01*
X144755522Y-84905328D01*
X144760007Y-84904678D01*
X144898187Y-84857772D01*
X144947234Y-84841123D01*
X144947237Y-84841121D01*
X144951531Y-84839664D01*
X145095249Y-84759179D01*
X145124039Y-84743056D01*
X145124041Y-84743055D01*
X145128001Y-84740837D01*
X145283505Y-84611505D01*
X145412837Y-84456001D01*
X145511664Y-84279531D01*
X145576678Y-84088007D01*
X145605700Y-83887842D01*
X145607215Y-83830000D01*
X145604557Y-83801069D01*
X146445164Y-83801069D01*
X146458392Y-84002894D01*
X146508178Y-84198928D01*
X146592856Y-84382607D01*
X146709588Y-84547780D01*
X146854466Y-84688913D01*
X147022637Y-84801282D01*
X147208470Y-84881122D01*
X147405740Y-84925760D01*
X147607842Y-84933700D01*
X147617651Y-84932278D01*
X147803519Y-84905329D01*
X147803522Y-84905328D01*
X147808007Y-84904678D01*
X147946187Y-84857772D01*
X147995234Y-84841123D01*
X147995237Y-84841121D01*
X147999531Y-84839664D01*
X148143249Y-84759179D01*
X148172039Y-84743056D01*
X148172041Y-84743055D01*
X148176001Y-84740837D01*
X148331505Y-84611505D01*
X148460837Y-84456001D01*
X148559664Y-84279531D01*
X148624678Y-84088007D01*
X148653700Y-83887842D01*
X148655215Y-83830000D01*
X148636708Y-83628591D01*
X148581807Y-83433926D01*
X148492351Y-83252527D01*
X148371335Y-83090467D01*
X148222812Y-82953174D01*
X148214709Y-82948061D01*
X148055594Y-82847667D01*
X148051757Y-82845246D01*
X147863898Y-82770298D01*
X147665526Y-82730839D01*
X147565930Y-82729535D01*
X147467826Y-82728251D01*
X147467821Y-82728251D01*
X147463286Y-82728192D01*
X147458813Y-82728961D01*
X147458808Y-82728961D01*
X147371340Y-82743991D01*
X147263949Y-82762444D01*
X147074193Y-82832449D01*
X146900371Y-82935862D01*
X146896956Y-82938857D01*
X146896953Y-82938859D01*
X146824539Y-83002365D01*
X146748305Y-83069220D01*
X146745497Y-83072782D01*
X146657451Y-83184469D01*
X146623089Y-83228057D01*
X146528914Y-83407053D01*
X146527569Y-83411384D01*
X146527568Y-83411387D01*
X146477438Y-83572836D01*
X146468937Y-83600213D01*
X146445164Y-83801069D01*
X145604557Y-83801069D01*
X145588708Y-83628591D01*
X145533807Y-83433926D01*
X145444351Y-83252527D01*
X145323335Y-83090467D01*
X145174812Y-82953174D01*
X145166709Y-82948061D01*
X145007594Y-82847667D01*
X145003757Y-82845246D01*
X144815898Y-82770298D01*
X144617526Y-82730839D01*
X144517930Y-82729535D01*
X144419826Y-82728251D01*
X144419821Y-82728251D01*
X144415286Y-82728192D01*
X144410813Y-82728961D01*
X144410808Y-82728961D01*
X144323340Y-82743991D01*
X144215949Y-82762444D01*
X144026193Y-82832449D01*
X143852371Y-82935862D01*
X143848956Y-82938857D01*
X143848953Y-82938859D01*
X143776539Y-83002365D01*
X143700305Y-83069220D01*
X143697497Y-83072782D01*
X143609451Y-83184469D01*
X143575089Y-83228057D01*
X143480914Y-83407053D01*
X143479569Y-83411384D01*
X143479568Y-83411387D01*
X143429438Y-83572836D01*
X143420937Y-83600213D01*
X143397164Y-83801069D01*
X131578347Y-83801069D01*
X131572695Y-83678941D01*
X131572695Y-83678940D01*
X131572477Y-83674233D01*
X131548040Y-83572836D01*
X131524381Y-83474665D01*
X131524379Y-83474660D01*
X131523276Y-83470082D01*
X131436360Y-83278919D01*
X131314863Y-83107640D01*
X131230115Y-83026512D01*
X131166573Y-82965683D01*
X131166569Y-82965680D01*
X131163169Y-82962425D01*
X130986754Y-82848515D01*
X130926793Y-82824350D01*
X130796356Y-82771782D01*
X130796354Y-82771781D01*
X130791981Y-82770019D01*
X130786687Y-82768985D01*
X130589373Y-82730452D01*
X130589366Y-82730451D01*
X130585878Y-82729770D01*
X130580357Y-82729500D01*
X130025531Y-82729500D01*
X129929460Y-82738666D01*
X129873647Y-82743991D01*
X129873645Y-82743991D01*
X129868954Y-82744439D01*
X129667451Y-82803553D01*
X129480761Y-82899705D01*
X129419201Y-82948061D01*
X129332035Y-83016531D01*
X129315621Y-83029424D01*
X129244414Y-83111483D01*
X129203802Y-83158284D01*
X129177990Y-83188029D01*
X129072834Y-83369799D01*
X129071290Y-83374244D01*
X129071290Y-83374245D01*
X129036419Y-83474665D01*
X129003947Y-83568174D01*
X129003271Y-83572836D01*
X128999302Y-83600213D01*
X128973814Y-83775996D01*
X108717187Y-83775996D01*
X108712695Y-83678941D01*
X108712695Y-83678940D01*
X108712477Y-83674233D01*
X108688040Y-83572836D01*
X108664381Y-83474665D01*
X108664379Y-83474660D01*
X108663276Y-83470082D01*
X108576360Y-83278919D01*
X108454863Y-83107640D01*
X108370115Y-83026512D01*
X108306573Y-82965683D01*
X108306569Y-82965680D01*
X108303169Y-82962425D01*
X108126754Y-82848515D01*
X108066793Y-82824350D01*
X107936356Y-82771782D01*
X107936354Y-82771781D01*
X107931981Y-82770019D01*
X107926687Y-82768985D01*
X107729373Y-82730452D01*
X107729366Y-82730451D01*
X107725878Y-82729770D01*
X107720357Y-82729500D01*
X107165531Y-82729500D01*
X107069460Y-82738666D01*
X107013647Y-82743991D01*
X107013645Y-82743991D01*
X107008954Y-82744439D01*
X106807451Y-82803553D01*
X106620761Y-82899705D01*
X106559201Y-82948061D01*
X106472035Y-83016531D01*
X106455621Y-83029424D01*
X106384414Y-83111483D01*
X106343802Y-83158284D01*
X106317990Y-83188029D01*
X106212834Y-83369799D01*
X106211290Y-83374244D01*
X106211290Y-83374245D01*
X106176419Y-83474665D01*
X106143947Y-83568174D01*
X106143271Y-83572836D01*
X106139302Y-83600213D01*
X106113814Y-83775996D01*
X102100253Y-83775996D01*
X102086708Y-83628591D01*
X102031807Y-83433926D01*
X101942351Y-83252527D01*
X101821335Y-83090467D01*
X101672812Y-82953174D01*
X101664709Y-82948061D01*
X101505594Y-82847667D01*
X101501757Y-82845246D01*
X101313898Y-82770298D01*
X101115526Y-82730839D01*
X101015930Y-82729535D01*
X100917826Y-82728251D01*
X100917821Y-82728251D01*
X100913286Y-82728192D01*
X100908813Y-82728961D01*
X100908808Y-82728961D01*
X100821340Y-82743991D01*
X100713949Y-82762444D01*
X100524193Y-82832449D01*
X100350371Y-82935862D01*
X100346956Y-82938857D01*
X100346953Y-82938859D01*
X100274539Y-83002365D01*
X100198305Y-83069220D01*
X100195497Y-83072782D01*
X100107451Y-83184469D01*
X100073089Y-83228057D01*
X99978914Y-83407053D01*
X99977569Y-83411384D01*
X99977568Y-83411387D01*
X99927438Y-83572836D01*
X99918937Y-83600213D01*
X99895164Y-83801069D01*
X97546500Y-83801069D01*
X97546500Y-83035354D01*
X97543382Y-83009154D01*
X97497939Y-82906847D01*
X97418713Y-82827759D01*
X97360964Y-82802228D01*
X97323136Y-82785504D01*
X97323134Y-82785504D01*
X97316327Y-82782494D01*
X97302322Y-82780861D01*
X97293494Y-82779832D01*
X97293493Y-82779832D01*
X97290646Y-82779500D01*
X95701354Y-82779500D01*
X95684951Y-82781452D01*
X95682531Y-82781740D01*
X95682530Y-82781740D01*
X95675154Y-82782618D01*
X95572847Y-82828061D01*
X95566390Y-82834529D01*
X95566389Y-82834530D01*
X95549874Y-82851074D01*
X95493759Y-82907287D01*
X95490064Y-82915645D01*
X95473013Y-82954214D01*
X95448494Y-83009673D01*
X95445500Y-83035354D01*
X95445500Y-84624646D01*
X90300500Y-84624646D01*
X90300500Y-77350000D01*
X106018000Y-77350000D01*
X106153936Y-77350000D01*
X106212127Y-77368907D01*
X106248091Y-77418407D01*
X106248091Y-77479593D01*
X106224001Y-77518942D01*
X106172216Y-77570818D01*
X106172214Y-77570820D01*
X106165759Y-77577287D01*
X106162064Y-77585645D01*
X106133413Y-77650452D01*
X106120494Y-77679673D01*
X106117500Y-77705354D01*
X106117500Y-79794646D01*
X106120618Y-79820846D01*
X106166061Y-79923153D01*
X106245287Y-80002241D01*
X106253645Y-80005936D01*
X106340864Y-80044496D01*
X106340866Y-80044496D01*
X106347673Y-80047506D01*
X106355067Y-80048368D01*
X106370378Y-80050153D01*
X106373354Y-80050500D01*
X106844539Y-80050500D01*
X106902730Y-80069407D01*
X106938694Y-80118907D01*
X106938694Y-80180093D01*
X106902730Y-80229593D01*
X106872409Y-80244497D01*
X106807451Y-80263553D01*
X106717904Y-80309673D01*
X106644820Y-80347314D01*
X106620761Y-80359705D01*
X106455621Y-80489424D01*
X106317990Y-80648029D01*
X106212834Y-80829799D01*
X106211290Y-80834244D01*
X106211290Y-80834245D01*
X106176419Y-80934665D01*
X106143947Y-81028174D01*
X106113814Y-81235996D01*
X106123523Y-81445767D01*
X106124628Y-81450351D01*
X106149084Y-81551826D01*
X106172724Y-81649918D01*
X106259640Y-81841081D01*
X106381137Y-82012360D01*
X106413074Y-82042933D01*
X106529427Y-82154317D01*
X106529431Y-82154320D01*
X106532831Y-82157575D01*
X106709246Y-82271485D01*
X106713623Y-82273249D01*
X106820811Y-82316447D01*
X106904019Y-82349981D01*
X106908643Y-82350884D01*
X107106627Y-82389548D01*
X107106634Y-82389549D01*
X107110122Y-82390230D01*
X107115643Y-82390500D01*
X107670469Y-82390500D01*
X107766540Y-82381334D01*
X107822353Y-82376009D01*
X107822355Y-82376009D01*
X107827046Y-82375561D01*
X108028549Y-82316447D01*
X108185426Y-82235650D01*
X108211051Y-82222452D01*
X108215239Y-82220295D01*
X108380379Y-82090576D01*
X108518010Y-81931971D01*
X108623166Y-81750201D01*
X108657990Y-81649918D01*
X108690509Y-81556273D01*
X108690510Y-81556271D01*
X108692053Y-81551826D01*
X108722186Y-81344004D01*
X108717187Y-81235996D01*
X128973814Y-81235996D01*
X128983523Y-81445767D01*
X128984628Y-81450351D01*
X129009084Y-81551826D01*
X129032724Y-81649918D01*
X129119640Y-81841081D01*
X129241137Y-82012360D01*
X129273074Y-82042933D01*
X129389427Y-82154317D01*
X129389431Y-82154320D01*
X129392831Y-82157575D01*
X129569246Y-82271485D01*
X129573623Y-82273249D01*
X129680811Y-82316447D01*
X129764019Y-82349981D01*
X129768643Y-82350884D01*
X129966627Y-82389548D01*
X129966634Y-82389549D01*
X129970122Y-82390230D01*
X129975643Y-82390500D01*
X130530469Y-82390500D01*
X130626540Y-82381334D01*
X130682353Y-82376009D01*
X130682355Y-82376009D01*
X130687046Y-82375561D01*
X130888549Y-82316447D01*
X131045426Y-82235650D01*
X131071051Y-82222452D01*
X131075239Y-82220295D01*
X131240379Y-82090576D01*
X131297590Y-82024646D01*
X168149500Y-82024646D01*
X168152618Y-82050846D01*
X168198061Y-82153153D01*
X168277287Y-82232241D01*
X168285645Y-82235936D01*
X168372864Y-82274496D01*
X168372866Y-82274496D01*
X168379673Y-82277506D01*
X168387067Y-82278368D01*
X168402378Y-82280153D01*
X168405354Y-82280500D01*
X170094646Y-82280500D01*
X170112561Y-82278368D01*
X170113469Y-82278260D01*
X170113470Y-82278260D01*
X170120846Y-82277382D01*
X170223153Y-82231939D01*
X170232624Y-82222452D01*
X170295786Y-82159179D01*
X170302241Y-82152713D01*
X170315116Y-82123591D01*
X170344496Y-82057136D01*
X170344496Y-82057134D01*
X170347506Y-82050327D01*
X170350500Y-82024646D01*
X170350500Y-80335354D01*
X170347382Y-80309154D01*
X170301939Y-80206847D01*
X170285516Y-80190452D01*
X170229179Y-80134214D01*
X170222713Y-80127759D01*
X170168995Y-80104010D01*
X170127136Y-80085504D01*
X170127134Y-80085504D01*
X170120327Y-80082494D01*
X170106322Y-80080861D01*
X170097494Y-80079832D01*
X170097493Y-80079832D01*
X170094646Y-80079500D01*
X168405354Y-80079500D01*
X168388951Y-80081452D01*
X168386531Y-80081740D01*
X168386530Y-80081740D01*
X168379154Y-80082618D01*
X168276847Y-80128061D01*
X168270390Y-80134529D01*
X168270389Y-80134530D01*
X168266900Y-80138025D01*
X168197759Y-80207287D01*
X168187709Y-80230019D01*
X168171931Y-80265709D01*
X168152494Y-80309673D01*
X168149500Y-80335354D01*
X168149500Y-82024646D01*
X131297590Y-82024646D01*
X131378010Y-81931971D01*
X131483166Y-81750201D01*
X131517990Y-81649918D01*
X131550509Y-81556273D01*
X131550510Y-81556271D01*
X131552053Y-81551826D01*
X131582186Y-81344004D01*
X131572477Y-81134233D01*
X131548040Y-81032836D01*
X131524381Y-80934665D01*
X131524379Y-80934660D01*
X131523276Y-80930082D01*
X131436360Y-80738919D01*
X131314863Y-80567640D01*
X131196807Y-80454626D01*
X131166573Y-80425683D01*
X131166569Y-80425680D01*
X131163169Y-80422425D01*
X130986754Y-80308515D01*
X130880539Y-80265709D01*
X130796356Y-80231782D01*
X130796354Y-80231781D01*
X130791981Y-80230019D01*
X130786687Y-80228985D01*
X130589373Y-80190452D01*
X130589366Y-80190451D01*
X130585878Y-80189770D01*
X130580357Y-80189500D01*
X130025531Y-80189500D01*
X129929460Y-80198666D01*
X129873647Y-80203991D01*
X129873645Y-80203991D01*
X129868954Y-80204439D01*
X129667451Y-80263553D01*
X129577904Y-80309673D01*
X129504820Y-80347314D01*
X129480761Y-80359705D01*
X129315621Y-80489424D01*
X129177990Y-80648029D01*
X129072834Y-80829799D01*
X129071290Y-80834244D01*
X129071290Y-80834245D01*
X129036419Y-80934665D01*
X129003947Y-81028174D01*
X128973814Y-81235996D01*
X108717187Y-81235996D01*
X108712477Y-81134233D01*
X108688040Y-81032836D01*
X108664381Y-80934665D01*
X108664379Y-80934660D01*
X108663276Y-80930082D01*
X108576360Y-80738919D01*
X108454863Y-80567640D01*
X108336807Y-80454626D01*
X108306573Y-80425683D01*
X108306569Y-80425680D01*
X108303169Y-80422425D01*
X108126754Y-80308515D01*
X108011902Y-80262228D01*
X107960030Y-80241323D01*
X107913125Y-80202035D01*
X107898271Y-80142680D01*
X107921142Y-80085930D01*
X107973002Y-80053462D01*
X107997036Y-80050500D01*
X108462646Y-80050500D01*
X108480561Y-80048368D01*
X108481469Y-80048260D01*
X108481470Y-80048260D01*
X108488846Y-80047382D01*
X108591153Y-80001939D01*
X108670241Y-79922713D01*
X108686821Y-79885210D01*
X108712496Y-79827136D01*
X108712496Y-79827134D01*
X108715506Y-79820327D01*
X108718500Y-79794646D01*
X108718500Y-78695996D01*
X128973814Y-78695996D01*
X128983523Y-78905767D01*
X129000320Y-78975464D01*
X129017558Y-79046988D01*
X129032724Y-79109918D01*
X129119640Y-79301081D01*
X129241137Y-79472360D01*
X129293364Y-79522356D01*
X129389427Y-79614317D01*
X129389431Y-79614320D01*
X129392831Y-79617575D01*
X129569246Y-79731485D01*
X129573623Y-79733249D01*
X129739938Y-79800276D01*
X129764019Y-79809981D01*
X129768643Y-79810884D01*
X129966627Y-79849548D01*
X129966634Y-79849549D01*
X129970122Y-79850230D01*
X129975643Y-79850500D01*
X130530469Y-79850500D01*
X130626540Y-79841334D01*
X130682353Y-79836009D01*
X130682355Y-79836009D01*
X130687046Y-79835561D01*
X130888549Y-79776447D01*
X131075239Y-79680295D01*
X131240379Y-79550576D01*
X131359722Y-79413046D01*
X131363092Y-79409163D01*
X134136338Y-79409163D01*
X134136795Y-79413111D01*
X134136795Y-79413116D01*
X134152700Y-79550576D01*
X134165478Y-79661012D01*
X134166558Y-79664830D01*
X134166559Y-79664833D01*
X134202481Y-79791779D01*
X134234509Y-79904962D01*
X134236189Y-79908565D01*
X134236191Y-79908570D01*
X134263148Y-79966379D01*
X134341655Y-80134737D01*
X134484159Y-80344426D01*
X134658355Y-80528633D01*
X134859762Y-80682621D01*
X134863266Y-80684500D01*
X134863271Y-80684503D01*
X135042024Y-80780349D01*
X135083198Y-80802426D01*
X135322915Y-80884967D01*
X135513633Y-80917910D01*
X135569669Y-80927589D01*
X135569671Y-80927589D01*
X135572744Y-80928120D01*
X135596107Y-80929181D01*
X135602031Y-80929450D01*
X135602037Y-80929450D01*
X135603135Y-80929500D01*
X135779697Y-80929500D01*
X135781671Y-80929341D01*
X135781675Y-80929341D01*
X135964752Y-80914611D01*
X135964757Y-80914610D01*
X135968712Y-80914292D01*
X135972572Y-80913344D01*
X136211057Y-80854767D01*
X136211062Y-80854765D01*
X136214923Y-80853817D01*
X136218584Y-80852263D01*
X136218587Y-80852262D01*
X136444634Y-80756311D01*
X136444636Y-80756310D01*
X136448297Y-80754756D01*
X136479549Y-80735076D01*
X136617776Y-80648029D01*
X136662832Y-80619656D01*
X136853006Y-80451994D01*
X136926421Y-80362618D01*
X137011402Y-80259161D01*
X137011405Y-80259157D01*
X137013929Y-80256084D01*
X137112961Y-80085930D01*
X137139459Y-80040403D01*
X137139461Y-80040399D01*
X137141459Y-80036966D01*
X137232316Y-79800276D01*
X137250600Y-79712754D01*
X137283347Y-79556003D01*
X137283347Y-79555999D01*
X137284161Y-79552105D01*
X137295662Y-79298837D01*
X137291033Y-79258823D01*
X137290761Y-79256469D01*
X143655500Y-79256469D01*
X143670439Y-79413046D01*
X143729553Y-79614549D01*
X143825705Y-79801239D01*
X143955424Y-79966379D01*
X144055778Y-80053462D01*
X144092853Y-80085634D01*
X144114029Y-80104010D01*
X144295799Y-80209166D01*
X144300244Y-80210710D01*
X144300245Y-80210710D01*
X144489727Y-80276509D01*
X144489729Y-80276510D01*
X144494174Y-80278053D01*
X144498836Y-80278729D01*
X144697326Y-80307509D01*
X144697327Y-80307509D01*
X144701996Y-80308186D01*
X144706707Y-80307968D01*
X144706708Y-80307968D01*
X144907059Y-80298695D01*
X144907060Y-80298695D01*
X144911767Y-80298477D01*
X144996513Y-80278053D01*
X145111335Y-80250381D01*
X145111340Y-80250379D01*
X145115918Y-80249276D01*
X145307081Y-80162360D01*
X145478360Y-80040863D01*
X145553306Y-79962573D01*
X145620317Y-79892573D01*
X145620320Y-79892569D01*
X145623575Y-79889169D01*
X145737485Y-79712754D01*
X145815981Y-79517981D01*
X145836460Y-79413116D01*
X145855548Y-79315373D01*
X145855549Y-79315366D01*
X145856230Y-79311878D01*
X145856500Y-79306357D01*
X145856500Y-79256469D01*
X146195500Y-79256469D01*
X146210439Y-79413046D01*
X146269553Y-79614549D01*
X146365705Y-79801239D01*
X146495424Y-79966379D01*
X146595778Y-80053462D01*
X146632853Y-80085634D01*
X146654029Y-80104010D01*
X146835799Y-80209166D01*
X146840244Y-80210710D01*
X146840245Y-80210710D01*
X147029727Y-80276509D01*
X147029729Y-80276510D01*
X147034174Y-80278053D01*
X147038836Y-80278729D01*
X147237326Y-80307509D01*
X147237327Y-80307509D01*
X147241996Y-80308186D01*
X147246707Y-80307968D01*
X147246708Y-80307968D01*
X147447059Y-80298695D01*
X147447060Y-80298695D01*
X147451767Y-80298477D01*
X147536513Y-80278053D01*
X147651335Y-80250381D01*
X147651340Y-80250379D01*
X147655918Y-80249276D01*
X147847081Y-80162360D01*
X148018360Y-80040863D01*
X148093306Y-79962573D01*
X148160317Y-79892573D01*
X148160320Y-79892569D01*
X148163575Y-79889169D01*
X148277485Y-79712754D01*
X148355981Y-79517981D01*
X148376460Y-79413116D01*
X148395548Y-79315373D01*
X148395549Y-79315366D01*
X148396230Y-79311878D01*
X148396500Y-79306357D01*
X148396500Y-79256469D01*
X148735500Y-79256469D01*
X148750439Y-79413046D01*
X148809553Y-79614549D01*
X148905705Y-79801239D01*
X149035424Y-79966379D01*
X149135778Y-80053462D01*
X149172853Y-80085634D01*
X149194029Y-80104010D01*
X149375799Y-80209166D01*
X149380244Y-80210710D01*
X149380245Y-80210710D01*
X149569727Y-80276509D01*
X149569729Y-80276510D01*
X149574174Y-80278053D01*
X149578836Y-80278729D01*
X149777326Y-80307509D01*
X149777327Y-80307509D01*
X149781996Y-80308186D01*
X149786707Y-80307968D01*
X149786708Y-80307968D01*
X149987059Y-80298695D01*
X149987060Y-80298695D01*
X149991767Y-80298477D01*
X150076513Y-80278053D01*
X150191335Y-80250381D01*
X150191340Y-80250379D01*
X150195918Y-80249276D01*
X150387081Y-80162360D01*
X150558360Y-80040863D01*
X150633306Y-79962573D01*
X150700317Y-79892573D01*
X150700320Y-79892569D01*
X150703575Y-79889169D01*
X150817485Y-79712754D01*
X150895981Y-79517981D01*
X150916460Y-79413116D01*
X150917232Y-79409163D01*
X154836338Y-79409163D01*
X154836795Y-79413111D01*
X154836795Y-79413116D01*
X154852700Y-79550576D01*
X154865478Y-79661012D01*
X154866558Y-79664830D01*
X154866559Y-79664833D01*
X154902481Y-79791779D01*
X154934509Y-79904962D01*
X154936189Y-79908565D01*
X154936191Y-79908570D01*
X154963148Y-79966379D01*
X155041655Y-80134737D01*
X155184159Y-80344426D01*
X155358355Y-80528633D01*
X155559762Y-80682621D01*
X155563266Y-80684500D01*
X155563271Y-80684503D01*
X155742024Y-80780349D01*
X155783198Y-80802426D01*
X156022915Y-80884967D01*
X156213633Y-80917910D01*
X156269669Y-80927589D01*
X156269671Y-80927589D01*
X156272744Y-80928120D01*
X156296107Y-80929181D01*
X156302031Y-80929450D01*
X156302037Y-80929450D01*
X156303135Y-80929500D01*
X156479697Y-80929500D01*
X156481671Y-80929341D01*
X156481675Y-80929341D01*
X156664752Y-80914611D01*
X156664757Y-80914610D01*
X156668712Y-80914292D01*
X156672572Y-80913344D01*
X156911057Y-80854767D01*
X156911062Y-80854765D01*
X156914923Y-80853817D01*
X156918584Y-80852263D01*
X156918587Y-80852262D01*
X157144634Y-80756311D01*
X157144636Y-80756310D01*
X157148297Y-80754756D01*
X157179549Y-80735076D01*
X157317776Y-80648029D01*
X157362832Y-80619656D01*
X157553006Y-80451994D01*
X157626421Y-80362618D01*
X157711402Y-80259161D01*
X157711405Y-80259157D01*
X157713929Y-80256084D01*
X157812961Y-80085930D01*
X157839459Y-80040403D01*
X157839461Y-80040399D01*
X157841459Y-80036966D01*
X157932316Y-79800276D01*
X157950600Y-79712754D01*
X157983347Y-79556003D01*
X157983347Y-79555999D01*
X157984161Y-79552105D01*
X157995662Y-79298837D01*
X157991033Y-79258823D01*
X157966979Y-79050935D01*
X157966978Y-79050931D01*
X157966522Y-79046988D01*
X157897491Y-78803038D01*
X157790345Y-78573263D01*
X157647841Y-78363574D01*
X157473645Y-78179367D01*
X157272238Y-78025379D01*
X157268734Y-78023500D01*
X157268729Y-78023497D01*
X157052308Y-77907454D01*
X157052309Y-77907454D01*
X157048802Y-77905574D01*
X156809085Y-77823033D01*
X156618367Y-77790090D01*
X156562331Y-77780411D01*
X156562329Y-77780411D01*
X156559256Y-77779880D01*
X156535893Y-77778819D01*
X156529969Y-77778550D01*
X156529963Y-77778550D01*
X156528865Y-77778500D01*
X156352303Y-77778500D01*
X156350329Y-77778659D01*
X156350325Y-77778659D01*
X156167248Y-77793389D01*
X156167243Y-77793390D01*
X156163288Y-77793708D01*
X156159429Y-77794656D01*
X156159428Y-77794656D01*
X155920943Y-77853233D01*
X155920938Y-77853235D01*
X155917077Y-77854183D01*
X155913416Y-77855737D01*
X155913413Y-77855738D01*
X155692702Y-77949424D01*
X155683703Y-77953244D01*
X155469168Y-78088344D01*
X155278994Y-78256006D01*
X155276465Y-78259085D01*
X155162385Y-78397968D01*
X155118071Y-78451916D01*
X154990541Y-78671034D01*
X154899684Y-78907724D01*
X154898872Y-78911611D01*
X154870591Y-79046988D01*
X154847839Y-79155895D01*
X154836338Y-79409163D01*
X150917232Y-79409163D01*
X150935548Y-79315373D01*
X150935549Y-79315366D01*
X150936230Y-79311878D01*
X150936500Y-79306357D01*
X150936500Y-78751531D01*
X150921561Y-78594954D01*
X150862447Y-78393451D01*
X150766295Y-78206761D01*
X150636576Y-78041621D01*
X150477971Y-77903990D01*
X150296201Y-77798834D01*
X150237645Y-77778500D01*
X150102273Y-77731491D01*
X150102271Y-77731490D01*
X150097826Y-77729947D01*
X150093164Y-77729271D01*
X149894674Y-77700491D01*
X149894673Y-77700491D01*
X149890004Y-77699814D01*
X149885293Y-77700032D01*
X149885292Y-77700032D01*
X149684941Y-77709305D01*
X149684940Y-77709305D01*
X149680233Y-77709523D01*
X149627516Y-77722228D01*
X149480665Y-77757619D01*
X149480660Y-77757621D01*
X149476082Y-77758724D01*
X149471794Y-77760674D01*
X149471793Y-77760674D01*
X149428384Y-77780411D01*
X149284919Y-77845640D01*
X149113640Y-77967137D01*
X149042337Y-78041621D01*
X148971683Y-78115427D01*
X148971680Y-78115431D01*
X148968425Y-78118831D01*
X148854515Y-78295246D01*
X148776019Y-78490019D01*
X148775116Y-78494643D01*
X148736452Y-78692627D01*
X148736451Y-78692634D01*
X148735770Y-78696122D01*
X148735500Y-78701643D01*
X148735500Y-79256469D01*
X148396500Y-79256469D01*
X148396500Y-78751531D01*
X148381561Y-78594954D01*
X148322447Y-78393451D01*
X148226295Y-78206761D01*
X148096576Y-78041621D01*
X147937971Y-77903990D01*
X147756201Y-77798834D01*
X147697645Y-77778500D01*
X147562273Y-77731491D01*
X147562271Y-77731490D01*
X147557826Y-77729947D01*
X147553164Y-77729271D01*
X147354674Y-77700491D01*
X147354673Y-77700491D01*
X147350004Y-77699814D01*
X147345293Y-77700032D01*
X147345292Y-77700032D01*
X147144941Y-77709305D01*
X147144940Y-77709305D01*
X147140233Y-77709523D01*
X147087516Y-77722228D01*
X146940665Y-77757619D01*
X146940660Y-77757621D01*
X146936082Y-77758724D01*
X146931794Y-77760674D01*
X146931793Y-77760674D01*
X146888384Y-77780411D01*
X146744919Y-77845640D01*
X146573640Y-77967137D01*
X146502337Y-78041621D01*
X146431683Y-78115427D01*
X146431680Y-78115431D01*
X146428425Y-78118831D01*
X146314515Y-78295246D01*
X146236019Y-78490019D01*
X146235116Y-78494643D01*
X146196452Y-78692627D01*
X146196451Y-78692634D01*
X146195770Y-78696122D01*
X146195500Y-78701643D01*
X146195500Y-79256469D01*
X145856500Y-79256469D01*
X145856500Y-78751531D01*
X145841561Y-78594954D01*
X145782447Y-78393451D01*
X145686295Y-78206761D01*
X145556576Y-78041621D01*
X145397971Y-77903990D01*
X145216201Y-77798834D01*
X145157645Y-77778500D01*
X145022273Y-77731491D01*
X145022271Y-77731490D01*
X145017826Y-77729947D01*
X145013164Y-77729271D01*
X144814674Y-77700491D01*
X144814673Y-77700491D01*
X144810004Y-77699814D01*
X144805293Y-77700032D01*
X144805292Y-77700032D01*
X144604941Y-77709305D01*
X144604940Y-77709305D01*
X144600233Y-77709523D01*
X144547516Y-77722228D01*
X144400665Y-77757619D01*
X144400660Y-77757621D01*
X144396082Y-77758724D01*
X144391794Y-77760674D01*
X144391793Y-77760674D01*
X144348384Y-77780411D01*
X144204919Y-77845640D01*
X144033640Y-77967137D01*
X143962337Y-78041621D01*
X143891683Y-78115427D01*
X143891680Y-78115431D01*
X143888425Y-78118831D01*
X143774515Y-78295246D01*
X143696019Y-78490019D01*
X143695116Y-78494643D01*
X143656452Y-78692627D01*
X143656451Y-78692634D01*
X143655770Y-78696122D01*
X143655500Y-78701643D01*
X143655500Y-79256469D01*
X137290761Y-79256469D01*
X137266979Y-79050935D01*
X137266978Y-79050931D01*
X137266522Y-79046988D01*
X137197491Y-78803038D01*
X137090345Y-78573263D01*
X136947841Y-78363574D01*
X136773645Y-78179367D01*
X136572238Y-78025379D01*
X136568734Y-78023500D01*
X136568729Y-78023497D01*
X136352308Y-77907454D01*
X136352309Y-77907454D01*
X136348802Y-77905574D01*
X136109085Y-77823033D01*
X135918367Y-77790090D01*
X135862331Y-77780411D01*
X135862329Y-77780411D01*
X135859256Y-77779880D01*
X135835893Y-77778819D01*
X135829969Y-77778550D01*
X135829963Y-77778550D01*
X135828865Y-77778500D01*
X135652303Y-77778500D01*
X135650329Y-77778659D01*
X135650325Y-77778659D01*
X135467248Y-77793389D01*
X135467243Y-77793390D01*
X135463288Y-77793708D01*
X135459429Y-77794656D01*
X135459428Y-77794656D01*
X135220943Y-77853233D01*
X135220938Y-77853235D01*
X135217077Y-77854183D01*
X135213416Y-77855737D01*
X135213413Y-77855738D01*
X134992702Y-77949424D01*
X134983703Y-77953244D01*
X134769168Y-78088344D01*
X134578994Y-78256006D01*
X134576465Y-78259085D01*
X134462385Y-78397968D01*
X134418071Y-78451916D01*
X134290541Y-78671034D01*
X134199684Y-78907724D01*
X134198872Y-78911611D01*
X134170591Y-79046988D01*
X134147839Y-79155895D01*
X134136338Y-79409163D01*
X131363092Y-79409163D01*
X131374921Y-79395531D01*
X131374922Y-79395530D01*
X131378010Y-79391971D01*
X131483166Y-79210201D01*
X131484710Y-79205755D01*
X131550509Y-79016273D01*
X131550510Y-79016271D01*
X131552053Y-79011826D01*
X131582186Y-78804004D01*
X131577392Y-78700422D01*
X131572695Y-78598941D01*
X131572695Y-78598940D01*
X131572477Y-78594233D01*
X131547361Y-78490019D01*
X131524381Y-78394665D01*
X131524379Y-78394660D01*
X131523276Y-78390082D01*
X131512720Y-78366864D01*
X131441830Y-78210949D01*
X131436360Y-78198919D01*
X131314863Y-78027640D01*
X131187351Y-77905574D01*
X131166573Y-77885683D01*
X131166569Y-77885680D01*
X131163169Y-77882425D01*
X130986754Y-77768515D01*
X130967298Y-77760674D01*
X130796356Y-77691782D01*
X130796354Y-77691781D01*
X130791981Y-77690019D01*
X130774120Y-77686531D01*
X130589373Y-77650452D01*
X130589366Y-77650451D01*
X130585878Y-77649770D01*
X130580357Y-77649500D01*
X130025531Y-77649500D01*
X129929460Y-77658666D01*
X129873647Y-77663991D01*
X129873645Y-77663991D01*
X129868954Y-77664439D01*
X129667451Y-77723553D01*
X129480761Y-77819705D01*
X129315621Y-77949424D01*
X129177990Y-78108029D01*
X129072834Y-78289799D01*
X129071290Y-78294244D01*
X129071290Y-78294245D01*
X129015344Y-78455355D01*
X129003947Y-78488174D01*
X129003271Y-78492836D01*
X128988465Y-78594954D01*
X128973814Y-78695996D01*
X108718500Y-78695996D01*
X108718500Y-77705354D01*
X108715382Y-77679154D01*
X108669939Y-77576847D01*
X108663471Y-77570390D01*
X108663468Y-77570386D01*
X108612057Y-77519065D01*
X108584231Y-77464572D01*
X108593750Y-77404132D01*
X108636977Y-77360830D01*
X108681999Y-77350000D01*
X131718000Y-77350000D01*
X131718000Y-70550000D01*
X106018000Y-70550000D01*
X106018000Y-77350000D01*
X90300500Y-77350000D01*
X90300500Y-74034953D01*
X90302004Y-74017761D01*
X90303632Y-74008528D01*
X90305136Y-74000000D01*
X90303441Y-73990387D01*
X90302055Y-73968334D01*
X90318076Y-73642236D01*
X90319029Y-73632568D01*
X90370871Y-73283078D01*
X90372766Y-73273549D01*
X90458617Y-72930812D01*
X90461437Y-72921515D01*
X90580470Y-72588842D01*
X90584188Y-72579866D01*
X90735254Y-72260462D01*
X90739834Y-72251894D01*
X90842231Y-72081054D01*
X90921481Y-71948834D01*
X90926873Y-71940765D01*
X91137355Y-71656964D01*
X91143518Y-71649454D01*
X91380792Y-71387662D01*
X91387662Y-71380792D01*
X91649454Y-71143518D01*
X91656964Y-71137355D01*
X91940765Y-70926873D01*
X91948834Y-70921481D01*
X92251894Y-70739834D01*
X92260462Y-70735254D01*
X92579866Y-70584188D01*
X92588842Y-70580470D01*
X92921515Y-70461437D01*
X92930812Y-70458617D01*
X93273549Y-70372766D01*
X93283078Y-70370871D01*
X93632568Y-70319029D01*
X93642236Y-70318076D01*
X93762103Y-70312187D01*
X93968338Y-70302055D01*
X93990387Y-70303441D01*
X93991470Y-70303632D01*
X93991471Y-70303632D01*
X94000000Y-70305136D01*
X94017764Y-70302004D01*
X94034953Y-70300500D01*
X185965047Y-70300500D01*
X185982236Y-70302004D01*
G37*
%TD.AperFunction*%
%TD*%
M02*
