%TF.GenerationSoftware,KiCad,Pcbnew,(6.0.5)*%
%TF.CreationDate,2022-06-04T22:01:23+02:00*%
%TF.ProjectId,SmartHarz-Thermometer,536d6172-7448-4617-927a-2d546865726d,1b1*%
%TF.SameCoordinates,Original*%
%TF.FileFunction,Soldermask,Top*%
%TF.FilePolarity,Negative*%
%FSLAX46Y46*%
G04 Gerber Fmt 4.6, Leading zero omitted, Abs format (unit mm)*
G04 Created by KiCad (PCBNEW (6.0.5)) date 2022-06-04 22:01:23*
%MOMM*%
%LPD*%
G01*
G04 APERTURE LIST*
G04 Aperture macros list*
%AMRoundRect*
0 Rectangle with rounded corners*
0 $1 Rounding radius*
0 $2 $3 $4 $5 $6 $7 $8 $9 X,Y pos of 4 corners*
0 Add a 4 corners polygon primitive as box body*
4,1,4,$2,$3,$4,$5,$6,$7,$8,$9,$2,$3,0*
0 Add four circle primitives for the rounded corners*
1,1,$1+$1,$2,$3*
1,1,$1+$1,$4,$5*
1,1,$1+$1,$6,$7*
1,1,$1+$1,$8,$9*
0 Add four rect primitives between the rounded corners*
20,1,$1+$1,$2,$3,$4,$5,0*
20,1,$1+$1,$4,$5,$6,$7,0*
20,1,$1+$1,$6,$7,$8,$9,0*
20,1,$1+$1,$8,$9,$2,$3,0*%
G04 Aperture macros list end*
%ADD10R,1.500000X1.500000*%
%ADD11C,1.500000*%
%ADD12R,1.200000X1.200000*%
%ADD13C,1.200000*%
%ADD14C,1.600000*%
%ADD15O,1.600000X1.600000*%
%ADD16RoundRect,0.300000X0.300000X-0.300000X0.300000X0.300000X-0.300000X0.300000X-0.300000X-0.300000X0*%
%ADD17R,1.600000X1.600000*%
%ADD18C,0.800000*%
%ADD19C,5.400000*%
%ADD20C,2.550000*%
%ADD21R,2.000000X2.000000*%
%ADD22O,1.600000X2.000000*%
%ADD23R,1.800000X4.400000*%
%ADD24O,1.800000X4.000000*%
%ADD25O,4.000000X1.800000*%
%ADD26O,2.000000X1.600000*%
G04 APERTURE END LIST*
%TO.C,G\u002A\u002A\u002A*%
G36*
X186032859Y-96583700D02*
G01*
X186045606Y-96630133D01*
X186057422Y-96672151D01*
X186067834Y-96708158D01*
X186076373Y-96736560D01*
X186082568Y-96755765D01*
X186085948Y-96764177D01*
X186086242Y-96764424D01*
X186090747Y-96758831D01*
X186095021Y-96746352D01*
X186098211Y-96735325D01*
X186104876Y-96713694D01*
X186114420Y-96683350D01*
X186126244Y-96646182D01*
X186139749Y-96604084D01*
X186152173Y-96565627D01*
X186204883Y-96402975D01*
X186280052Y-96402975D01*
X186338414Y-96583780D01*
X186353413Y-96629630D01*
X186367285Y-96670862D01*
X186379494Y-96705969D01*
X186389500Y-96733448D01*
X186396768Y-96751794D01*
X186400758Y-96759500D01*
X186401193Y-96759576D01*
X186404013Y-96752145D01*
X186409744Y-96733704D01*
X186417898Y-96705940D01*
X186427990Y-96670540D01*
X186439532Y-96629191D01*
X186452037Y-96583579D01*
X186452829Y-96580666D01*
X186465274Y-96535036D01*
X186476647Y-96493726D01*
X186486487Y-96458384D01*
X186494328Y-96430660D01*
X186499710Y-96412206D01*
X186502168Y-96404670D01*
X186502222Y-96404591D01*
X186509338Y-96403798D01*
X186526286Y-96403633D01*
X186549764Y-96404112D01*
X186556401Y-96404339D01*
X186608405Y-96406261D01*
X186443909Y-96922663D01*
X186398048Y-96920762D01*
X186352188Y-96918861D01*
X186299315Y-96739817D01*
X186285584Y-96693747D01*
X186272918Y-96652065D01*
X186261820Y-96616359D01*
X186252790Y-96588215D01*
X186246331Y-96569220D01*
X186242944Y-96560960D01*
X186242690Y-96560735D01*
X186239799Y-96566729D01*
X186233810Y-96583522D01*
X186225317Y-96609300D01*
X186214910Y-96642246D01*
X186203184Y-96680545D01*
X186198225Y-96697063D01*
X186185245Y-96740521D01*
X186172640Y-96782691D01*
X186161216Y-96820886D01*
X186151775Y-96852418D01*
X186145121Y-96874601D01*
X186144163Y-96877788D01*
X186130815Y-96922147D01*
X186040450Y-96922147D01*
X186033760Y-96900789D01*
X186027296Y-96880289D01*
X186017977Y-96850922D01*
X186006335Y-96814351D01*
X185992904Y-96772241D01*
X185978215Y-96726254D01*
X185962803Y-96678056D01*
X185947199Y-96629309D01*
X185931936Y-96581676D01*
X185917547Y-96536823D01*
X185904565Y-96496412D01*
X185893523Y-96462107D01*
X185884954Y-96435573D01*
X185879390Y-96418472D01*
X185877417Y-96412584D01*
X185877662Y-96407818D01*
X185884314Y-96404899D01*
X185899543Y-96403421D01*
X185925517Y-96402978D01*
X185928771Y-96402975D01*
X185983813Y-96402975D01*
X186032859Y-96583700D01*
G37*
G36*
X186855493Y-95754507D02*
G01*
X186857619Y-95927514D01*
X186875335Y-95954267D01*
X186897455Y-95978603D01*
X186922920Y-95992428D01*
X186959719Y-96000581D01*
X186993583Y-95995951D01*
X187024212Y-95978631D01*
X187047796Y-95953577D01*
X187051861Y-95947474D01*
X187055051Y-95940254D01*
X187057495Y-95930298D01*
X187059321Y-95915988D01*
X187060657Y-95895705D01*
X187061633Y-95867832D01*
X187062376Y-95830748D01*
X187063015Y-95782837D01*
X187063290Y-95758472D01*
X187065235Y-95581500D01*
X187169932Y-95581500D01*
X187168213Y-95839444D01*
X187166494Y-96097387D01*
X187115563Y-96099306D01*
X187064631Y-96101225D01*
X187064631Y-96040502D01*
X187038394Y-96062960D01*
X187017546Y-96077959D01*
X186995250Y-96089849D01*
X186986700Y-96093046D01*
X186958785Y-96098200D01*
X186925306Y-96099868D01*
X186892754Y-96098000D01*
X186871641Y-96093900D01*
X186836337Y-96077012D01*
X186804315Y-96049815D01*
X186778332Y-96015135D01*
X186763447Y-95983042D01*
X186760739Y-95968194D01*
X186758624Y-95940990D01*
X186757094Y-95901244D01*
X186756143Y-95848770D01*
X186755765Y-95783382D01*
X186755757Y-95771102D01*
X186755757Y-95581500D01*
X186853366Y-95581500D01*
X186855493Y-95754507D01*
G37*
G36*
X185314631Y-96399449D02*
G01*
X185345205Y-96407381D01*
X185372337Y-96418394D01*
X185384734Y-96425929D01*
X185389976Y-96430175D01*
X185392284Y-96434546D01*
X185390602Y-96440864D01*
X185383876Y-96450949D01*
X185371051Y-96466621D01*
X185351072Y-96489700D01*
X185341271Y-96500920D01*
X185328847Y-96514402D01*
X185320398Y-96519284D01*
X185311356Y-96516951D01*
X185303331Y-96512421D01*
X185276865Y-96503259D01*
X185245600Y-96501829D01*
X185215204Y-96507915D01*
X185197569Y-96516470D01*
X185184797Y-96525596D01*
X185174676Y-96535055D01*
X185166899Y-96546430D01*
X185161159Y-96561302D01*
X185157149Y-96581253D01*
X185154560Y-96607864D01*
X185153085Y-96642718D01*
X185152418Y-96687396D01*
X185152249Y-96743480D01*
X185152248Y-96749638D01*
X185152238Y-96922147D01*
X185047089Y-96922147D01*
X185047089Y-96402975D01*
X185152238Y-96402975D01*
X185152238Y-96456169D01*
X185176882Y-96436405D01*
X185213661Y-96413813D01*
X185254866Y-96399935D01*
X185286615Y-96396403D01*
X185314631Y-96399449D01*
G37*
G36*
X186638528Y-96697988D02*
G01*
X186660398Y-96666441D01*
X186693077Y-96641858D01*
X186710983Y-96633086D01*
X186727604Y-96626840D01*
X186745734Y-96622309D01*
X186768257Y-96619082D01*
X186798062Y-96616750D01*
X186838035Y-96614905D01*
X186839459Y-96614851D01*
X186933751Y-96611321D01*
X186931830Y-96568613D01*
X186930140Y-96544605D01*
X186926765Y-96529633D01*
X186920219Y-96519589D01*
X186911355Y-96512085D01*
X186900741Y-96505522D01*
X186888135Y-96501398D01*
X186870325Y-96499182D01*
X186844095Y-96498340D01*
X186828094Y-96498266D01*
X186797625Y-96498561D01*
X186777215Y-96499823D01*
X186763784Y-96502617D01*
X186754254Y-96507510D01*
X186747648Y-96513053D01*
X186735499Y-96523225D01*
X186727405Y-96527818D01*
X186727121Y-96527839D01*
X186719429Y-96524112D01*
X186705316Y-96514624D01*
X186688092Y-96501914D01*
X186671065Y-96488519D01*
X186657545Y-96476981D01*
X186650840Y-96469836D01*
X186650608Y-96469133D01*
X186655914Y-96459661D01*
X186669748Y-96446575D01*
X186688979Y-96432337D01*
X186710478Y-96419405D01*
X186719612Y-96414873D01*
X186736157Y-96408083D01*
X186752646Y-96403682D01*
X186772550Y-96401196D01*
X186799340Y-96400150D01*
X186828046Y-96400031D01*
X186882102Y-96402500D01*
X186925507Y-96409869D01*
X186960010Y-96422675D01*
X186987361Y-96441458D01*
X186998235Y-96452495D01*
X187008975Y-96465820D01*
X187017630Y-96479817D01*
X187024420Y-96496024D01*
X187029566Y-96515981D01*
X187033288Y-96541227D01*
X187035806Y-96573302D01*
X187037341Y-96613744D01*
X187038113Y-96664095D01*
X187038342Y-96725892D01*
X187038344Y-96732758D01*
X187038344Y-96922147D01*
X186933195Y-96922147D01*
X186933049Y-96897503D01*
X186932626Y-96881815D01*
X186930407Y-96877605D01*
X186924581Y-96883207D01*
X186921548Y-96886936D01*
X186899823Y-96904590D01*
X186868785Y-96917429D01*
X186831567Y-96924873D01*
X186791299Y-96926344D01*
X186751111Y-96921261D01*
X186744460Y-96919691D01*
X186701934Y-96903596D01*
X186667742Y-96878354D01*
X186647907Y-96854998D01*
X186636342Y-96835807D01*
X186629643Y-96815092D01*
X186626082Y-96787315D01*
X186625863Y-96784372D01*
X186626397Y-96764424D01*
X186719910Y-96764424D01*
X186725507Y-96791821D01*
X186741935Y-96811928D01*
X186765080Y-96823077D01*
X186788263Y-96827237D01*
X186818065Y-96829177D01*
X186849340Y-96828908D01*
X186876941Y-96826437D01*
X186892983Y-96822858D01*
X186913460Y-96810021D01*
X186926528Y-96787870D01*
X186932616Y-96755504D01*
X186933195Y-96738463D01*
X186933195Y-96698706D01*
X186867101Y-96698706D01*
X186816982Y-96700184D01*
X186778589Y-96704951D01*
X186750805Y-96713505D01*
X186732514Y-96726345D01*
X186722598Y-96743971D01*
X186719910Y-96764424D01*
X186626397Y-96764424D01*
X186627128Y-96737099D01*
X186638528Y-96697988D01*
G37*
G36*
X184546626Y-95678866D02*
G01*
X184575339Y-95637893D01*
X184612849Y-95606366D01*
X184640164Y-95591651D01*
X184662683Y-95582283D01*
X184681357Y-95577134D01*
X184701515Y-95575334D01*
X184728489Y-95576013D01*
X184734195Y-95576316D01*
X184788429Y-95584651D01*
X184834592Y-95603323D01*
X184872925Y-95632487D01*
X184903668Y-95672301D01*
X184914847Y-95693221D01*
X184922798Y-95711634D01*
X184928100Y-95729531D01*
X184931410Y-95750628D01*
X184933384Y-95778644D01*
X184934291Y-95803299D01*
X184936500Y-95877231D01*
X184611671Y-95877231D01*
X184615984Y-95904208D01*
X184626107Y-95940790D01*
X184644075Y-95968380D01*
X184664465Y-95985252D01*
X184700940Y-96001553D01*
X184740818Y-96006306D01*
X184781502Y-95999660D01*
X184820396Y-95981762D01*
X184829045Y-95975903D01*
X184854401Y-95957536D01*
X184925511Y-96020560D01*
X184906790Y-96040295D01*
X184890661Y-96053607D01*
X184867780Y-96068145D01*
X184847644Y-96078576D01*
X184823665Y-96088415D01*
X184801105Y-96094389D01*
X184774742Y-96097555D01*
X184748072Y-96098759D01*
X184709181Y-96098353D01*
X184677057Y-96095072D01*
X184660822Y-96091318D01*
X184613387Y-96069615D01*
X184574698Y-96038180D01*
X184545194Y-95997465D01*
X184526775Y-95952994D01*
X184519694Y-95920253D01*
X184514978Y-95879945D01*
X184513020Y-95837500D01*
X184514210Y-95798345D01*
X184515003Y-95790082D01*
X184517498Y-95777011D01*
X184613495Y-95777011D01*
X184613761Y-95782394D01*
X184615906Y-95786280D01*
X184621767Y-95788914D01*
X184633184Y-95790539D01*
X184651993Y-95791399D01*
X184680034Y-95791738D01*
X184719144Y-95791798D01*
X184725071Y-95791798D01*
X184761733Y-95791499D01*
X184793341Y-95790669D01*
X184817761Y-95789413D01*
X184832858Y-95787831D01*
X184836792Y-95786419D01*
X184833826Y-95769114D01*
X184826352Y-95746468D01*
X184816501Y-95723742D01*
X184806406Y-95706197D01*
X184802319Y-95701364D01*
X184772251Y-95680854D01*
X184738569Y-95670637D01*
X184704346Y-95670921D01*
X184672651Y-95681910D01*
X184658449Y-95691704D01*
X184640521Y-95711671D01*
X184625293Y-95737161D01*
X184615556Y-95762880D01*
X184613495Y-95777011D01*
X184517498Y-95777011D01*
X184526563Y-95729518D01*
X184546626Y-95678866D01*
G37*
G36*
X184532846Y-96698274D02*
G01*
X184549911Y-96671325D01*
X184571617Y-96650262D01*
X184599468Y-96634527D01*
X184634971Y-96623567D01*
X184679632Y-96616824D01*
X184734957Y-96613743D01*
X184762859Y-96613405D01*
X184830220Y-96613273D01*
X184830220Y-96584680D01*
X184827445Y-96550947D01*
X184818212Y-96526258D01*
X184801153Y-96509499D01*
X184774901Y-96499559D01*
X184738092Y-96495326D01*
X184720066Y-96494980D01*
X184691839Y-96495573D01*
X184672430Y-96497968D01*
X184657539Y-96503093D01*
X184643417Y-96511499D01*
X184625926Y-96521093D01*
X184613177Y-96523765D01*
X184610844Y-96523000D01*
X184601222Y-96516520D01*
X184585130Y-96505129D01*
X184572100Y-96495699D01*
X184554010Y-96480502D01*
X184546971Y-96467796D01*
X184551261Y-96455366D01*
X184567157Y-96440998D01*
X184580072Y-96432045D01*
X184619014Y-96412762D01*
X184664194Y-96400935D01*
X184712764Y-96396368D01*
X184761873Y-96398866D01*
X184808672Y-96408232D01*
X184850311Y-96424271D01*
X184883939Y-96446787D01*
X184890754Y-96453398D01*
X184900903Y-96464910D01*
X184909079Y-96476844D01*
X184915491Y-96490715D01*
X184920352Y-96508037D01*
X184923872Y-96530323D01*
X184926263Y-96559087D01*
X184927737Y-96595844D01*
X184928505Y-96642107D01*
X184928778Y-96699391D01*
X184928797Y-96725820D01*
X184928797Y-96922147D01*
X184830220Y-96922147D01*
X184830220Y-96875525D01*
X184805447Y-96895433D01*
X184771333Y-96914801D01*
X184729454Y-96925261D01*
X184682043Y-96926435D01*
X184648468Y-96921875D01*
X184603529Y-96907312D01*
X184566813Y-96883998D01*
X184539154Y-96853549D01*
X184521387Y-96817578D01*
X184514349Y-96777701D01*
X184517149Y-96751597D01*
X184612718Y-96751597D01*
X184612763Y-96774761D01*
X184621867Y-96796806D01*
X184639485Y-96814813D01*
X184662913Y-96825348D01*
X184684663Y-96828468D01*
X184712925Y-96829384D01*
X184742773Y-96828275D01*
X184769281Y-96825319D01*
X184787185Y-96820841D01*
X184805651Y-96810108D01*
X184817337Y-96794683D01*
X184823632Y-96771750D01*
X184825833Y-96742484D01*
X184826934Y-96701992D01*
X184744786Y-96702283D01*
X184706647Y-96702854D01*
X184679108Y-96704439D01*
X184659644Y-96707315D01*
X184645731Y-96711760D01*
X184641993Y-96713584D01*
X184622280Y-96730232D01*
X184612718Y-96751597D01*
X184517149Y-96751597D01*
X184518872Y-96735532D01*
X184532846Y-96698274D01*
G37*
G36*
X186033065Y-91671634D02*
G01*
X186083104Y-91671855D01*
X186130336Y-91672283D01*
X186172989Y-91672918D01*
X186209292Y-91673760D01*
X186237472Y-91674810D01*
X186255757Y-91676066D01*
X186262156Y-91677271D01*
X186266034Y-91685548D01*
X186271907Y-91706626D01*
X186279734Y-91740317D01*
X186289474Y-91786437D01*
X186301087Y-91844800D01*
X186314534Y-91915220D01*
X186318646Y-91937204D01*
X186331330Y-92004705D01*
X186342041Y-92060306D01*
X186351015Y-92105066D01*
X186358491Y-92140040D01*
X186364705Y-92166288D01*
X186369897Y-92184864D01*
X186374302Y-92196828D01*
X186378160Y-92203235D01*
X186378508Y-92203595D01*
X186387710Y-92209227D01*
X186407414Y-92218990D01*
X186435922Y-92232120D01*
X186471538Y-92247856D01*
X186512565Y-92265434D01*
X186557305Y-92284093D01*
X186561889Y-92285977D01*
X186613617Y-92307075D01*
X186654635Y-92323446D01*
X186686306Y-92335555D01*
X186709995Y-92343870D01*
X186727066Y-92348856D01*
X186738881Y-92350981D01*
X186746804Y-92350711D01*
X186749185Y-92350038D01*
X186758229Y-92345011D01*
X186776755Y-92333372D01*
X186803445Y-92315994D01*
X186836980Y-92293752D01*
X186876040Y-92267522D01*
X186919306Y-92238179D01*
X186965460Y-92206597D01*
X186966315Y-92206009D01*
X187012319Y-92174487D01*
X187055276Y-92145242D01*
X187093901Y-92119135D01*
X187126905Y-92097028D01*
X187153002Y-92079785D01*
X187170903Y-92068266D01*
X187179322Y-92063335D01*
X187179418Y-92063296D01*
X187184170Y-92063598D01*
X187191926Y-92067699D01*
X187203500Y-92076340D01*
X187219705Y-92090262D01*
X187241354Y-92110206D01*
X187269262Y-92136914D01*
X187304240Y-92171125D01*
X187347103Y-92213581D01*
X187375938Y-92242317D01*
X187422144Y-92288478D01*
X187459846Y-92326305D01*
X187489860Y-92356727D01*
X187513004Y-92380675D01*
X187530096Y-92399080D01*
X187541952Y-92412871D01*
X187549392Y-92422980D01*
X187553232Y-92430336D01*
X187554289Y-92435871D01*
X187553382Y-92440514D01*
X187552326Y-92443058D01*
X187546927Y-92452226D01*
X187534945Y-92470889D01*
X187517262Y-92497727D01*
X187494762Y-92531417D01*
X187468327Y-92570637D01*
X187438840Y-92614067D01*
X187407184Y-92660385D01*
X187406143Y-92661902D01*
X187369571Y-92715390D01*
X187339926Y-92759178D01*
X187316563Y-92794311D01*
X187298841Y-92821833D01*
X187286116Y-92842791D01*
X187277747Y-92858229D01*
X187273090Y-92869194D01*
X187271503Y-92876729D01*
X187271830Y-92880353D01*
X187275295Y-92890039D01*
X187283148Y-92909829D01*
X187294559Y-92937761D01*
X187308701Y-92971875D01*
X187324745Y-93010209D01*
X187341863Y-93050803D01*
X187359226Y-93091695D01*
X187376006Y-93130925D01*
X187391374Y-93166531D01*
X187404501Y-93196554D01*
X187414561Y-93219031D01*
X187418392Y-93227271D01*
X187433031Y-93246359D01*
X187451998Y-93255529D01*
X187463867Y-93258311D01*
X187486989Y-93263137D01*
X187519691Y-93269681D01*
X187560297Y-93277614D01*
X187607133Y-93286609D01*
X187658524Y-93296338D01*
X187700894Y-93304262D01*
X187753948Y-93314300D01*
X187803097Y-93323922D01*
X187846791Y-93332800D01*
X187883480Y-93340607D01*
X187911617Y-93347014D01*
X187929652Y-93351693D01*
X187935836Y-93354028D01*
X187938299Y-93362482D01*
X187940436Y-93382321D01*
X187942243Y-93411789D01*
X187943717Y-93449133D01*
X187944853Y-93492600D01*
X187945649Y-93540435D01*
X187946101Y-93590885D01*
X187946204Y-93642196D01*
X187945955Y-93692614D01*
X187945352Y-93740386D01*
X187944389Y-93783758D01*
X187943064Y-93820977D01*
X187941373Y-93850288D01*
X187939311Y-93869938D01*
X187936922Y-93878137D01*
X187928730Y-93880900D01*
X187909117Y-93885695D01*
X187879594Y-93892207D01*
X187841672Y-93900121D01*
X187796861Y-93909120D01*
X187746674Y-93918889D01*
X187695409Y-93928592D01*
X187641214Y-93938887D01*
X187590707Y-93948819D01*
X187545447Y-93958054D01*
X187506993Y-93966260D01*
X187476905Y-93973106D01*
X187456741Y-93978259D01*
X187448263Y-93981241D01*
X187442036Y-93989744D01*
X187432059Y-94008679D01*
X187419066Y-94036225D01*
X187403792Y-94070558D01*
X187386972Y-94109856D01*
X187369339Y-94152297D01*
X187351629Y-94196057D01*
X187334576Y-94239314D01*
X187318915Y-94280245D01*
X187305381Y-94317028D01*
X187294707Y-94347839D01*
X187287629Y-94370857D01*
X187284881Y-94384259D01*
X187285039Y-94386229D01*
X187289599Y-94394459D01*
X187300762Y-94412173D01*
X187317648Y-94438050D01*
X187339380Y-94470765D01*
X187365080Y-94508997D01*
X187393870Y-94551423D01*
X187420926Y-94590975D01*
X187451665Y-94635945D01*
X187480046Y-94677847D01*
X187505198Y-94715365D01*
X187526249Y-94747183D01*
X187542327Y-94771984D01*
X187552562Y-94788452D01*
X187556040Y-94795002D01*
X187554356Y-94800848D01*
X187546972Y-94811669D01*
X187533305Y-94828101D01*
X187512771Y-94850781D01*
X187484786Y-94880346D01*
X187448766Y-94917430D01*
X187404128Y-94962672D01*
X187379325Y-94987616D01*
X187332714Y-95034281D01*
X187294381Y-95072341D01*
X187263434Y-95102605D01*
X187238982Y-95125885D01*
X187220131Y-95142990D01*
X187205988Y-95154730D01*
X187195663Y-95161915D01*
X187188261Y-95165354D01*
X187182923Y-95165864D01*
X187173777Y-95161669D01*
X187155219Y-95150831D01*
X187128616Y-95134230D01*
X187095334Y-95112746D01*
X187056741Y-95087257D01*
X187014201Y-95058644D01*
X186978165Y-95034039D01*
X186920067Y-94994453D01*
X186871128Y-94961836D01*
X186831634Y-94936370D01*
X186801867Y-94918233D01*
X186782112Y-94907604D01*
X186773249Y-94904605D01*
X186761763Y-94907638D01*
X186741320Y-94915983D01*
X186714418Y-94928509D01*
X186683557Y-94944086D01*
X186669613Y-94951483D01*
X186631864Y-94971282D01*
X186604193Y-94984513D01*
X186585560Y-94991616D01*
X186574924Y-94993031D01*
X186572991Y-94992323D01*
X186568632Y-94985173D01*
X186559894Y-94967053D01*
X186547273Y-94939166D01*
X186531267Y-94902716D01*
X186512371Y-94858907D01*
X186491082Y-94808942D01*
X186467896Y-94754024D01*
X186443311Y-94695358D01*
X186417823Y-94634146D01*
X186391928Y-94571592D01*
X186366123Y-94508900D01*
X186340905Y-94447273D01*
X186316769Y-94387915D01*
X186294213Y-94332029D01*
X186273734Y-94280819D01*
X186255827Y-94235488D01*
X186240990Y-94197240D01*
X186229718Y-94167279D01*
X186222509Y-94146807D01*
X186219859Y-94137029D01*
X186219895Y-94136523D01*
X186227640Y-94126004D01*
X186242079Y-94114612D01*
X186244791Y-94112962D01*
X186272526Y-94094925D01*
X186305500Y-94070644D01*
X186339768Y-94043278D01*
X186371386Y-94015985D01*
X186396408Y-93991925D01*
X186397906Y-93990341D01*
X186447374Y-93929287D01*
X186488561Y-93861331D01*
X186519515Y-93789919D01*
X186529517Y-93757826D01*
X186536305Y-93723839D01*
X186541135Y-93681344D01*
X186543816Y-93634862D01*
X186544157Y-93588909D01*
X186541967Y-93548003D01*
X186539260Y-93527187D01*
X186518542Y-93445454D01*
X186486138Y-93369103D01*
X186442736Y-93299076D01*
X186389021Y-93236317D01*
X186325680Y-93181769D01*
X186255803Y-93137655D01*
X186181975Y-93105427D01*
X186104008Y-93084905D01*
X186023739Y-93076090D01*
X185943006Y-93078982D01*
X185863645Y-93093580D01*
X185787493Y-93119885D01*
X185750769Y-93137655D01*
X185678759Y-93183351D01*
X185615710Y-93238172D01*
X185562309Y-93301174D01*
X185519242Y-93371414D01*
X185487196Y-93447949D01*
X185467311Y-93527187D01*
X185463459Y-93562704D01*
X185462256Y-93606065D01*
X185463511Y-93652753D01*
X185467033Y-93698249D01*
X185472632Y-93738035D01*
X185477054Y-93757826D01*
X185502810Y-93829669D01*
X185539669Y-93899594D01*
X185585680Y-93964155D01*
X185608665Y-93990341D01*
X185633035Y-94014032D01*
X185664295Y-94041192D01*
X185698501Y-94068663D01*
X185731709Y-94093284D01*
X185759973Y-94111898D01*
X185761781Y-94112962D01*
X185776840Y-94124024D01*
X185786064Y-94135029D01*
X185786676Y-94136523D01*
X185784834Y-94144402D01*
X185778351Y-94163175D01*
X185767722Y-94191638D01*
X185753444Y-94228589D01*
X185736014Y-94272822D01*
X185715929Y-94323136D01*
X185693685Y-94378326D01*
X185669778Y-94437189D01*
X185644706Y-94498522D01*
X185618964Y-94561120D01*
X185593050Y-94623780D01*
X185567459Y-94685299D01*
X185542689Y-94744474D01*
X185519236Y-94800100D01*
X185497596Y-94850974D01*
X185478267Y-94895893D01*
X185461744Y-94933653D01*
X185448525Y-94963051D01*
X185439105Y-94982882D01*
X185433982Y-94991945D01*
X185433581Y-94992323D01*
X185425357Y-94992691D01*
X185409480Y-94987515D01*
X185384910Y-94976357D01*
X185350604Y-94958776D01*
X185336958Y-94951483D01*
X185305160Y-94934937D01*
X185276240Y-94920953D01*
X185252697Y-94910661D01*
X185237030Y-94905192D01*
X185233322Y-94904605D01*
X185222585Y-94908498D01*
X185201586Y-94920057D01*
X185170611Y-94939103D01*
X185129942Y-94965456D01*
X185079865Y-94998937D01*
X185028406Y-95034039D01*
X184983690Y-95064522D01*
X184941825Y-95092585D01*
X184904175Y-95117350D01*
X184872109Y-95137937D01*
X184846992Y-95153465D01*
X184830191Y-95163056D01*
X184823648Y-95165864D01*
X184818266Y-95165341D01*
X184810847Y-95161878D01*
X184800497Y-95154664D01*
X184786325Y-95142889D01*
X184767437Y-95125743D01*
X184742942Y-95102416D01*
X184711946Y-95072099D01*
X184673558Y-95033981D01*
X184627246Y-94987616D01*
X184578239Y-94938210D01*
X184538133Y-94897268D01*
X184506342Y-94864153D01*
X184482285Y-94838229D01*
X184465376Y-94818861D01*
X184455032Y-94805411D01*
X184450669Y-94797243D01*
X184450531Y-94795002D01*
X184454908Y-94786946D01*
X184465896Y-94769400D01*
X184482622Y-94743681D01*
X184504215Y-94711104D01*
X184529804Y-94672985D01*
X184558517Y-94630642D01*
X184585646Y-94590975D01*
X184616421Y-94545963D01*
X184644875Y-94503987D01*
X184670129Y-94466368D01*
X184691306Y-94434431D01*
X184707528Y-94409498D01*
X184717917Y-94392892D01*
X184721532Y-94386229D01*
X184720338Y-94376318D01*
X184714576Y-94356202D01*
X184704981Y-94327705D01*
X184692289Y-94292649D01*
X184677234Y-94252857D01*
X184660549Y-94210151D01*
X184642971Y-94166354D01*
X184625233Y-94123289D01*
X184608071Y-94082778D01*
X184592218Y-94046644D01*
X184578409Y-94016710D01*
X184567379Y-93994799D01*
X184559863Y-93982732D01*
X184558309Y-93981241D01*
X184548777Y-93977961D01*
X184527870Y-93972679D01*
X184497147Y-93965728D01*
X184458167Y-93957439D01*
X184412490Y-93948144D01*
X184361675Y-93938177D01*
X184311163Y-93928592D01*
X184257268Y-93918384D01*
X184207314Y-93908646D01*
X184162815Y-93899694D01*
X184125279Y-93891844D01*
X184096218Y-93885410D01*
X184077143Y-93880709D01*
X184069649Y-93878137D01*
X184067221Y-93869689D01*
X184065166Y-93849856D01*
X184063481Y-93820393D01*
X184062163Y-93783053D01*
X184061206Y-93739590D01*
X184060609Y-93691756D01*
X184060366Y-93641308D01*
X184060476Y-93589996D01*
X184060933Y-93539577D01*
X184061735Y-93491803D01*
X184062877Y-93448428D01*
X184064357Y-93411205D01*
X184066169Y-93381889D01*
X184068312Y-93362234D01*
X184070735Y-93354028D01*
X184079220Y-93351030D01*
X184099091Y-93346032D01*
X184128800Y-93339363D01*
X184166797Y-93331350D01*
X184211533Y-93322321D01*
X184261459Y-93312604D01*
X184305677Y-93304262D01*
X184359469Y-93294187D01*
X184410017Y-93284589D01*
X184455646Y-93275796D01*
X184494684Y-93268136D01*
X184525455Y-93261936D01*
X184546284Y-93257524D01*
X184554574Y-93255529D01*
X184576131Y-93244181D01*
X184588180Y-93227271D01*
X184596260Y-93209629D01*
X184607852Y-93183393D01*
X184622126Y-93150525D01*
X184638255Y-93112986D01*
X184655410Y-93072737D01*
X184672762Y-93031739D01*
X184689483Y-92991953D01*
X184704745Y-92955340D01*
X184717718Y-92923860D01*
X184727576Y-92899475D01*
X184733488Y-92884146D01*
X184734743Y-92880347D01*
X184734855Y-92874417D01*
X184732292Y-92865755D01*
X184726400Y-92853289D01*
X184716522Y-92835949D01*
X184702004Y-92812665D01*
X184682190Y-92782367D01*
X184656424Y-92743984D01*
X184624051Y-92696446D01*
X184605964Y-92670049D01*
X184567395Y-92613828D01*
X184535633Y-92567434D01*
X184510058Y-92529850D01*
X184490049Y-92500060D01*
X184474985Y-92477049D01*
X184464245Y-92459799D01*
X184457209Y-92447294D01*
X184453255Y-92438518D01*
X184451763Y-92432455D01*
X184452112Y-92428089D01*
X184453682Y-92424402D01*
X184454739Y-92422480D01*
X184460751Y-92415289D01*
X184475039Y-92399949D01*
X184496537Y-92377557D01*
X184524177Y-92349206D01*
X184556890Y-92315990D01*
X184593609Y-92279006D01*
X184633266Y-92239346D01*
X184638046Y-92234584D01*
X184684707Y-92188261D01*
X184723033Y-92150578D01*
X184753870Y-92120769D01*
X184778065Y-92098068D01*
X184796465Y-92081711D01*
X184809916Y-92070931D01*
X184819266Y-92064964D01*
X184825359Y-92063043D01*
X184827443Y-92063359D01*
X184835598Y-92068085D01*
X184853268Y-92079431D01*
X184879162Y-92096533D01*
X184911990Y-92118527D01*
X184950463Y-92144549D01*
X184993291Y-92173733D01*
X185039183Y-92205216D01*
X185040317Y-92205997D01*
X185086458Y-92237619D01*
X185129746Y-92267019D01*
X185168859Y-92293321D01*
X185202478Y-92315646D01*
X185229279Y-92333118D01*
X185247941Y-92344858D01*
X185257143Y-92349989D01*
X185257187Y-92350005D01*
X185263894Y-92351163D01*
X185273761Y-92350180D01*
X185288164Y-92346584D01*
X185308481Y-92339907D01*
X185336089Y-92329679D01*
X185372365Y-92315430D01*
X185418686Y-92296691D01*
X185444683Y-92286049D01*
X185489711Y-92267317D01*
X185531202Y-92249577D01*
X185567459Y-92233595D01*
X185596781Y-92220134D01*
X185617468Y-92209959D01*
X185627823Y-92203834D01*
X185628219Y-92203479D01*
X185632042Y-92197634D01*
X185636334Y-92186584D01*
X185641339Y-92169252D01*
X185647297Y-92144558D01*
X185654453Y-92111424D01*
X185663047Y-92068770D01*
X185673322Y-92015520D01*
X185685520Y-91950593D01*
X185688032Y-91937078D01*
X185702085Y-91862515D01*
X185714254Y-91800366D01*
X185724515Y-91750741D01*
X185732845Y-91713749D01*
X185739220Y-91689501D01*
X185743616Y-91678107D01*
X185744366Y-91677301D01*
X185753064Y-91675871D01*
X185773131Y-91674647D01*
X185802796Y-91673629D01*
X185840286Y-91672817D01*
X185883831Y-91672211D01*
X185931656Y-91671812D01*
X185981992Y-91671620D01*
X186033065Y-91671634D01*
G37*
G36*
X187419561Y-96398886D02*
G01*
X187443388Y-96405131D01*
X187466447Y-96413803D01*
X187485305Y-96423501D01*
X187496530Y-96432827D01*
X187498210Y-96437175D01*
X187493992Y-96445811D01*
X187482948Y-96461088D01*
X187467250Y-96480062D01*
X187463015Y-96484858D01*
X187427979Y-96524023D01*
X187410831Y-96512788D01*
X187389702Y-96504672D01*
X187362444Y-96501547D01*
X187334669Y-96503407D01*
X187311986Y-96510250D01*
X187307607Y-96512851D01*
X187293149Y-96524020D01*
X187281592Y-96536288D01*
X187272617Y-96551203D01*
X187265908Y-96570310D01*
X187261146Y-96595156D01*
X187258014Y-96627289D01*
X187256195Y-96668254D01*
X187255370Y-96719598D01*
X187255213Y-96768033D01*
X187255213Y-96922147D01*
X187156636Y-96922147D01*
X187156636Y-96402975D01*
X187255213Y-96402975D01*
X187255213Y-96429262D01*
X187256574Y-96447986D01*
X187261562Y-96454371D01*
X187271535Y-96448931D01*
X187281437Y-96439187D01*
X187301888Y-96423928D01*
X187330688Y-96410566D01*
X187363041Y-96400853D01*
X187394154Y-96396541D01*
X187398396Y-96396468D01*
X187419561Y-96398886D01*
G37*
G36*
X187526002Y-96549934D02*
G01*
X187543932Y-96502419D01*
X187544322Y-96501651D01*
X187556182Y-96483659D01*
X187573546Y-96463101D01*
X187585426Y-96451213D01*
X187626227Y-96421973D01*
X187671445Y-96404059D01*
X187719007Y-96397366D01*
X187766840Y-96401788D01*
X187812871Y-96417222D01*
X187855029Y-96443563D01*
X187878969Y-96466040D01*
X187900691Y-96493005D01*
X187916281Y-96520956D01*
X187926842Y-96553057D01*
X187933479Y-96592468D01*
X187936704Y-96631345D01*
X187940661Y-96698706D01*
X187775375Y-96698706D01*
X187722057Y-96698851D01*
X187680681Y-96699326D01*
X187650049Y-96700190D01*
X187628962Y-96701503D01*
X187616223Y-96703324D01*
X187610632Y-96705714D01*
X187610127Y-96706921D01*
X187613223Y-96726482D01*
X187620923Y-96751092D01*
X187631045Y-96774545D01*
X187638116Y-96786548D01*
X187662070Y-96809533D01*
X187693421Y-96823853D01*
X187729522Y-96829322D01*
X187767727Y-96825755D01*
X187805391Y-96812966D01*
X187827969Y-96799870D01*
X187853124Y-96782437D01*
X187889554Y-96813561D01*
X187908022Y-96829855D01*
X187917764Y-96841733D01*
X187918285Y-96851783D01*
X187909090Y-96862591D01*
X187889683Y-96876744D01*
X187875655Y-96886108D01*
X187828915Y-96909710D01*
X187776557Y-96923384D01*
X187722330Y-96926421D01*
X187685666Y-96921923D01*
X187639544Y-96907252D01*
X187598452Y-96883937D01*
X187565070Y-96853843D01*
X187544400Y-96823624D01*
X187526317Y-96776241D01*
X187515435Y-96721529D01*
X187511754Y-96663140D01*
X187514761Y-96613273D01*
X187610419Y-96613273D01*
X187833532Y-96613273D01*
X187833532Y-96598236D01*
X187828929Y-96576618D01*
X187817035Y-96551555D01*
X187800720Y-96527940D01*
X187782857Y-96510662D01*
X187781628Y-96509820D01*
X187753905Y-96498302D01*
X187720929Y-96494884D01*
X187687894Y-96499692D01*
X187669134Y-96507135D01*
X187647562Y-96524771D01*
X187629117Y-96551230D01*
X187616589Y-96582193D01*
X187614364Y-96591914D01*
X187610419Y-96613273D01*
X187514761Y-96613273D01*
X187515276Y-96604724D01*
X187526002Y-96549934D01*
G37*
G36*
X187915348Y-95580908D02*
G01*
X187940077Y-95588025D01*
X187961168Y-95597735D01*
X187984836Y-95611286D01*
X188007885Y-95626501D01*
X188027121Y-95641202D01*
X188039349Y-95653210D01*
X188041792Y-95657379D01*
X188038264Y-95664715D01*
X188026884Y-95677675D01*
X188010010Y-95693608D01*
X188007826Y-95695509D01*
X187971622Y-95726766D01*
X187946561Y-95706627D01*
X187913095Y-95687086D01*
X187875467Y-95677192D01*
X187837039Y-95677067D01*
X187801173Y-95686835D01*
X187778346Y-95700436D01*
X187758173Y-95720259D01*
X187744294Y-95744236D01*
X187735876Y-95774819D01*
X187732088Y-95814457D01*
X187731669Y-95837801D01*
X187732003Y-95870152D01*
X187733401Y-95892925D01*
X187736458Y-95909678D01*
X187741769Y-95923968D01*
X187748098Y-95936123D01*
X187772544Y-95967641D01*
X187803553Y-95988946D01*
X187839005Y-95999697D01*
X187876781Y-95999548D01*
X187914761Y-95988157D01*
X187946936Y-95968351D01*
X187971622Y-95948835D01*
X188007826Y-95980092D01*
X188025180Y-95996197D01*
X188037312Y-96009633D01*
X188041861Y-96017750D01*
X188041792Y-96018223D01*
X188034064Y-96028163D01*
X188017794Y-96041842D01*
X187996178Y-96057082D01*
X187972408Y-96071704D01*
X187949681Y-96083530D01*
X187940077Y-96087576D01*
X187900157Y-96097425D01*
X187854584Y-96100395D01*
X187808917Y-96096464D01*
X187775732Y-96088224D01*
X187731015Y-96066019D01*
X187692518Y-96033203D01*
X187661745Y-95991430D01*
X187640199Y-95942358D01*
X187638633Y-95937192D01*
X187631682Y-95901648D01*
X187628357Y-95858584D01*
X187628640Y-95813109D01*
X187632516Y-95770333D01*
X187639269Y-95737659D01*
X187659670Y-95688618D01*
X187689124Y-95646444D01*
X187725997Y-95612879D01*
X187768654Y-95589669D01*
X187782440Y-95584955D01*
X187825247Y-95576764D01*
X187871401Y-95575452D01*
X187915348Y-95580908D01*
G37*
G36*
X188108403Y-95682595D02*
G01*
X188135431Y-95641259D01*
X188170503Y-95609643D01*
X188213333Y-95588160D01*
X188263639Y-95577221D01*
X188274674Y-95576328D01*
X188325089Y-95577527D01*
X188368759Y-95588300D01*
X188408849Y-95609584D01*
X188423485Y-95620371D01*
X188456630Y-95654319D01*
X188480881Y-95696919D01*
X188496412Y-95748628D01*
X188503396Y-95809906D01*
X188503855Y-95832436D01*
X188503855Y-95877231D01*
X188176091Y-95877231D01*
X188179891Y-95901876D01*
X188190075Y-95938038D01*
X188209265Y-95966727D01*
X188221330Y-95978139D01*
X188253314Y-95996926D01*
X188290211Y-96005413D01*
X188328977Y-96003759D01*
X188366571Y-95992125D01*
X188399947Y-95970673D01*
X188402284Y-95968591D01*
X188409600Y-95962683D01*
X188416347Y-95961318D01*
X188425447Y-95965583D01*
X188439819Y-95976566D01*
X188452907Y-95987432D01*
X188490093Y-96018525D01*
X188469126Y-96040164D01*
X188451012Y-96055437D01*
X188427253Y-96071189D01*
X188412151Y-96079419D01*
X188376518Y-96091717D01*
X188333652Y-96098730D01*
X188288452Y-96100231D01*
X188245814Y-96095994D01*
X188217096Y-96088417D01*
X188172109Y-96065991D01*
X188136254Y-96035216D01*
X188109218Y-95995578D01*
X188090689Y-95946563D01*
X188080351Y-95887656D01*
X188078421Y-95860802D01*
X188079614Y-95792778D01*
X188081019Y-95784488D01*
X188177251Y-95784488D01*
X188180304Y-95787520D01*
X188188416Y-95789579D01*
X188203345Y-95790850D01*
X188226850Y-95791518D01*
X188260689Y-95791770D01*
X188286543Y-95791798D01*
X188327508Y-95791697D01*
X188357138Y-95791269D01*
X188377241Y-95790329D01*
X188389623Y-95788692D01*
X188396094Y-95786172D01*
X188398461Y-95782584D01*
X188398670Y-95780297D01*
X188392496Y-95746452D01*
X188375835Y-95715542D01*
X188351145Y-95690450D01*
X188320883Y-95674060D01*
X188304667Y-95670064D01*
X188269791Y-95670852D01*
X188237384Y-95682531D01*
X188210237Y-95703251D01*
X188191141Y-95731161D01*
X188184949Y-95749482D01*
X188180708Y-95767592D01*
X188177497Y-95780297D01*
X188177251Y-95784488D01*
X188081019Y-95784488D01*
X188089702Y-95733239D01*
X188108403Y-95682595D01*
G37*
G36*
X183507400Y-95783237D02*
G01*
X183508339Y-95774902D01*
X183518656Y-95720115D01*
X183535406Y-95675752D01*
X183559599Y-95640266D01*
X183592247Y-95612108D01*
X183627137Y-95592899D01*
X183649764Y-95583293D01*
X183668405Y-95577785D01*
X183688152Y-95575503D01*
X183714098Y-95575573D01*
X183725714Y-95575996D01*
X183780194Y-95583453D01*
X183826551Y-95601190D01*
X183865085Y-95629400D01*
X183896099Y-95668274D01*
X183909568Y-95693221D01*
X183915907Y-95707366D01*
X183920442Y-95720342D01*
X183923475Y-95734701D01*
X183925306Y-95752993D01*
X183926236Y-95777767D01*
X183926564Y-95811574D01*
X183926597Y-95837801D01*
X183926489Y-95878390D01*
X183925963Y-95908387D01*
X183924719Y-95930341D01*
X183922457Y-95946802D01*
X183918876Y-95960322D01*
X183913676Y-95973449D01*
X183909568Y-95982380D01*
X183882889Y-96024731D01*
X183847033Y-96060276D01*
X183811591Y-96082797D01*
X183790772Y-96091049D01*
X183766450Y-96096149D01*
X183734458Y-96098873D01*
X183722872Y-96099339D01*
X183693088Y-96099906D01*
X183671791Y-96098718D01*
X183654358Y-96094976D01*
X183636165Y-96087882D01*
X183624235Y-96082298D01*
X183580494Y-96054311D01*
X183545848Y-96016837D01*
X183529149Y-95989236D01*
X183518537Y-95960035D01*
X183510720Y-95921378D01*
X183506035Y-95876722D01*
X183505030Y-95837801D01*
X183611151Y-95837801D01*
X183611387Y-95874984D01*
X183612308Y-95901699D01*
X183614231Y-95920618D01*
X183617473Y-95934410D01*
X183622354Y-95945747D01*
X183624445Y-95949521D01*
X183642297Y-95970057D01*
X183668049Y-95987604D01*
X183696457Y-95999163D01*
X183716300Y-96002096D01*
X183734482Y-95999058D01*
X183756651Y-95991402D01*
X183765454Y-95987309D01*
X183785562Y-95974831D01*
X183802261Y-95960750D01*
X183806745Y-95955542D01*
X183816898Y-95933602D01*
X183823876Y-95902358D01*
X183827679Y-95865258D01*
X183828307Y-95825754D01*
X183825757Y-95787295D01*
X183820030Y-95753331D01*
X183811126Y-95727313D01*
X183806788Y-95720059D01*
X183785138Y-95699459D01*
X183756216Y-95684076D01*
X183725199Y-95676126D01*
X183704508Y-95676245D01*
X183668189Y-95686947D01*
X183639336Y-95706298D01*
X183622971Y-95727432D01*
X183617958Y-95738890D01*
X183614545Y-95753346D01*
X183612457Y-95773372D01*
X183611417Y-95801540D01*
X183611151Y-95837801D01*
X183505030Y-95837801D01*
X183504816Y-95829523D01*
X183507400Y-95783237D01*
G37*
G36*
X184127037Y-95581500D02*
G01*
X184127037Y-95605303D01*
X184127496Y-95620694D01*
X184130510Y-95625093D01*
X184138535Y-95620650D01*
X184141824Y-95618255D01*
X184186181Y-95592404D01*
X184231586Y-95578162D01*
X184276396Y-95575202D01*
X184318964Y-95583195D01*
X184357647Y-95601813D01*
X184390799Y-95630727D01*
X184416775Y-95669609D01*
X184418666Y-95673506D01*
X184423420Y-95684519D01*
X184426959Y-95695983D01*
X184429460Y-95709980D01*
X184431100Y-95728594D01*
X184432056Y-95753907D01*
X184432506Y-95788002D01*
X184432625Y-95832962D01*
X184432626Y-95837801D01*
X184432446Y-95887528D01*
X184431631Y-95926261D01*
X184429768Y-95956146D01*
X184426445Y-95979332D01*
X184421249Y-95997964D01*
X184413768Y-96014190D01*
X184403589Y-96030157D01*
X184392881Y-96044640D01*
X184364263Y-96071898D01*
X184328475Y-96090169D01*
X184288069Y-96099310D01*
X184245600Y-96099177D01*
X184203620Y-96089626D01*
X184164682Y-96070514D01*
X184148396Y-96058388D01*
X184127037Y-96040358D01*
X184127037Y-96458009D01*
X184145718Y-96440111D01*
X184170473Y-96422592D01*
X184202761Y-96408100D01*
X184237005Y-96398756D01*
X184260659Y-96396403D01*
X184306516Y-96402803D01*
X184349091Y-96421442D01*
X184383650Y-96448665D01*
X184397557Y-96463157D01*
X184408755Y-96476975D01*
X184417537Y-96491709D01*
X184424195Y-96508945D01*
X184429022Y-96530273D01*
X184432309Y-96557281D01*
X184434348Y-96591557D01*
X184435433Y-96634690D01*
X184435855Y-96688267D01*
X184435912Y-96732736D01*
X184435912Y-96922147D01*
X184338463Y-96922147D01*
X184336256Y-96749638D01*
X184335521Y-96697093D01*
X184334732Y-96656003D01*
X184333753Y-96624676D01*
X184332448Y-96601423D01*
X184330681Y-96584555D01*
X184328317Y-96572382D01*
X184325220Y-96563214D01*
X184321254Y-96555361D01*
X184320550Y-96554149D01*
X184298143Y-96527085D01*
X184270015Y-96509497D01*
X184238761Y-96501382D01*
X184206978Y-96502740D01*
X184177260Y-96513568D01*
X184152203Y-96533866D01*
X184138548Y-96554258D01*
X184135012Y-96562649D01*
X184132272Y-96573145D01*
X184130230Y-96587414D01*
X184128789Y-96607125D01*
X184127849Y-96633950D01*
X184127312Y-96669557D01*
X184127081Y-96715616D01*
X184127048Y-96749638D01*
X184127037Y-96922147D01*
X184021889Y-96922147D01*
X184021889Y-95838340D01*
X184127527Y-95838340D01*
X184128566Y-95873498D01*
X184131173Y-95904677D01*
X184135301Y-95927837D01*
X184136559Y-95931884D01*
X184154216Y-95965481D01*
X184178971Y-95988142D01*
X184210181Y-95999553D01*
X184247204Y-95999403D01*
X184266563Y-95995213D01*
X184292546Y-95981412D01*
X184312608Y-95956619D01*
X184326482Y-95921706D01*
X184333904Y-95877545D01*
X184334609Y-95825008D01*
X184330948Y-95783595D01*
X184323184Y-95742996D01*
X184310904Y-95713462D01*
X184293071Y-95693383D01*
X184268650Y-95681149D01*
X184264127Y-95679830D01*
X184227073Y-95675713D01*
X184193145Y-95683003D01*
X184164494Y-95700548D01*
X184143269Y-95727198D01*
X184134323Y-95749390D01*
X184130356Y-95772247D01*
X184128108Y-95803244D01*
X184127527Y-95838340D01*
X184021889Y-95838340D01*
X184021889Y-95581500D01*
X184127037Y-95581500D01*
G37*
G36*
X186013091Y-95578898D02*
G01*
X186061505Y-95589711D01*
X186105073Y-95606317D01*
X186140223Y-95627592D01*
X186146014Y-95632384D01*
X186151798Y-95638589D01*
X186153000Y-95645214D01*
X186148532Y-95654609D01*
X186137305Y-95669120D01*
X186119421Y-95689745D01*
X186097548Y-95714565D01*
X186063561Y-95697420D01*
X186026722Y-95682460D01*
X185989255Y-95673591D01*
X185953386Y-95670676D01*
X185921339Y-95673582D01*
X185895340Y-95682173D01*
X185877613Y-95696313D01*
X185871400Y-95709102D01*
X185868253Y-95733007D01*
X185873026Y-95751497D01*
X185886807Y-95765358D01*
X185910681Y-95775375D01*
X185945737Y-95782332D01*
X185977587Y-95785809D01*
X186010739Y-95789365D01*
X186042484Y-95793996D01*
X186068409Y-95799000D01*
X186080094Y-95802134D01*
X186114204Y-95819642D01*
X186140517Y-95845620D01*
X186158808Y-95877798D01*
X186168849Y-95913902D01*
X186170417Y-95951661D01*
X186163284Y-95988803D01*
X186147226Y-96023056D01*
X186122017Y-96052147D01*
X186106090Y-96063933D01*
X186066428Y-96082616D01*
X186018936Y-96094903D01*
X185967468Y-96100417D01*
X185915877Y-96098783D01*
X185868019Y-96089625D01*
X185861992Y-96087771D01*
X185817475Y-96069555D01*
X185774353Y-96045186D01*
X185748641Y-96026423D01*
X185730581Y-96011479D01*
X185766572Y-95975936D01*
X185802563Y-95940392D01*
X185817510Y-95954435D01*
X185831467Y-95964644D01*
X185852532Y-95976898D01*
X185871741Y-95986461D01*
X185908472Y-95998967D01*
X185947853Y-96005178D01*
X185985945Y-96004964D01*
X186018808Y-95998192D01*
X186032859Y-95991841D01*
X186054496Y-95973966D01*
X186066820Y-95952659D01*
X186069323Y-95930713D01*
X186061496Y-95910916D01*
X186049637Y-95899857D01*
X186037095Y-95895252D01*
X186014745Y-95890421D01*
X185985892Y-95885993D01*
X185963368Y-95883447D01*
X185920745Y-95878774D01*
X185888389Y-95873663D01*
X185863424Y-95867370D01*
X185842978Y-95859150D01*
X185824175Y-95848259D01*
X185822078Y-95846862D01*
X185794072Y-95820633D01*
X185775410Y-95787618D01*
X185766206Y-95750387D01*
X185766576Y-95711513D01*
X185776636Y-95673569D01*
X185796500Y-95639127D01*
X185811998Y-95622283D01*
X185843807Y-95599198D01*
X185881401Y-95584131D01*
X185926948Y-95576405D01*
X185963405Y-95575000D01*
X186013091Y-95578898D01*
G37*
G36*
X185406975Y-96573424D02*
G01*
X185409796Y-96540082D01*
X185414517Y-96513933D01*
X185421583Y-96492999D01*
X185431439Y-96475300D01*
X185444531Y-96458858D01*
X185455148Y-96447744D01*
X185491341Y-96420290D01*
X185532540Y-96403715D01*
X185576324Y-96398054D01*
X185620272Y-96403344D01*
X185661960Y-96419620D01*
X185696054Y-96444160D01*
X185710841Y-96457841D01*
X185710841Y-96192678D01*
X185815989Y-96192678D01*
X185815989Y-96922147D01*
X185710841Y-96922147D01*
X185710841Y-96867282D01*
X185695972Y-96881250D01*
X185664726Y-96902693D01*
X185626035Y-96917370D01*
X185584273Y-96924264D01*
X185543816Y-96922356D01*
X185531249Y-96919554D01*
X185487635Y-96901485D01*
X185452745Y-96873647D01*
X185426083Y-96835639D01*
X185425050Y-96833647D01*
X185405252Y-96794945D01*
X185405252Y-96669607D01*
X185405277Y-96665847D01*
X185507296Y-96665847D01*
X185507834Y-96702414D01*
X185509590Y-96729054D01*
X185512957Y-96748960D01*
X185518326Y-96765321D01*
X185520021Y-96769217D01*
X185539294Y-96797863D01*
X185566297Y-96815887D01*
X185601061Y-96823308D01*
X185608978Y-96823521D01*
X185643760Y-96818850D01*
X185663577Y-96810266D01*
X185681794Y-96795844D01*
X185694965Y-96776799D01*
X185703720Y-96751148D01*
X185708692Y-96716908D01*
X185710511Y-96672094D01*
X185710552Y-96662561D01*
X185710096Y-96625215D01*
X185708502Y-96598015D01*
X185705427Y-96577990D01*
X185700531Y-96562166D01*
X185698481Y-96557412D01*
X185684906Y-96532339D01*
X185669833Y-96516571D01*
X185649879Y-96508128D01*
X185621661Y-96505028D01*
X185608719Y-96504838D01*
X185583046Y-96505292D01*
X185566339Y-96507442D01*
X185554430Y-96512465D01*
X185543153Y-96521542D01*
X185540364Y-96524180D01*
X185527360Y-96539056D01*
X185518123Y-96556408D01*
X185512088Y-96578652D01*
X185508692Y-96608207D01*
X185507371Y-96647488D01*
X185507296Y-96665847D01*
X185405277Y-96665847D01*
X185405609Y-96615939D01*
X185406975Y-96573424D01*
G37*
G36*
X187555274Y-95577645D02*
G01*
X187584546Y-95584156D01*
X187608802Y-95593591D01*
X187624370Y-95604790D01*
X187626211Y-95607288D01*
X187624273Y-95614786D01*
X187616038Y-95629010D01*
X187603725Y-95647015D01*
X187589551Y-95665860D01*
X187575733Y-95682601D01*
X187564491Y-95694294D01*
X187558040Y-95697997D01*
X187557906Y-95697933D01*
X187550130Y-95694123D01*
X187535005Y-95687091D01*
X187528427Y-95684087D01*
X187495484Y-95675669D01*
X187463073Y-95678994D01*
X187433754Y-95692820D01*
X187410085Y-95715905D01*
X187394626Y-95747007D01*
X187393935Y-95749390D01*
X187391604Y-95764689D01*
X187389651Y-95791498D01*
X187388140Y-95828187D01*
X187387135Y-95873127D01*
X187386699Y-95924687D01*
X187386686Y-95934735D01*
X187386649Y-96094101D01*
X187288072Y-96094101D01*
X187288072Y-95581500D01*
X187386649Y-95581500D01*
X187386649Y-95635243D01*
X187408008Y-95617213D01*
X187445442Y-95592134D01*
X187485962Y-95578583D01*
X187524657Y-95575217D01*
X187555274Y-95577645D01*
G37*
G36*
X185282062Y-95576339D02*
G01*
X185321147Y-95581946D01*
X185352617Y-95593855D01*
X185381341Y-95614249D01*
X185394807Y-95626915D01*
X185407261Y-95640129D01*
X185417284Y-95653297D01*
X185425138Y-95667981D01*
X185431084Y-95685740D01*
X185435386Y-95708136D01*
X185438303Y-95736729D01*
X185440099Y-95773081D01*
X185441034Y-95818750D01*
X185441371Y-95875300D01*
X185441397Y-95904689D01*
X185441397Y-96094101D01*
X185343616Y-96094101D01*
X185341575Y-95921591D01*
X185340800Y-95865152D01*
X185339743Y-95820246D01*
X185338080Y-95785261D01*
X185335487Y-95758588D01*
X185331639Y-95738615D01*
X185326212Y-95723731D01*
X185318882Y-95712326D01*
X185309324Y-95702789D01*
X185297214Y-95693509D01*
X185295392Y-95692206D01*
X185276975Y-95682226D01*
X185255031Y-95677707D01*
X185236481Y-95677011D01*
X185204222Y-95680372D01*
X185178748Y-95691849D01*
X185156011Y-95713536D01*
X185149358Y-95722023D01*
X185145292Y-95728130D01*
X185142100Y-95735361D01*
X185139652Y-95745336D01*
X185137820Y-95759671D01*
X185136474Y-95779987D01*
X185135484Y-95807901D01*
X185134722Y-95845032D01*
X185134058Y-95892998D01*
X185133773Y-95917128D01*
X185131738Y-96094101D01*
X185027374Y-96094101D01*
X185027374Y-95581500D01*
X185132522Y-95581500D01*
X185132522Y-95635436D01*
X185154833Y-95615848D01*
X185191492Y-95591272D01*
X185232984Y-95578220D01*
X185280743Y-95576248D01*
X185282062Y-95576339D01*
G37*
G36*
X186240505Y-95767214D02*
G01*
X186241749Y-95745260D01*
X186244011Y-95728799D01*
X186247592Y-95715279D01*
X186252792Y-95702152D01*
X186256900Y-95693221D01*
X186284379Y-95648430D01*
X186319549Y-95614290D01*
X186362317Y-95590862D01*
X186412586Y-95578208D01*
X186437024Y-95576071D01*
X186492157Y-95579197D01*
X186540938Y-95593371D01*
X186582685Y-95618235D01*
X186616719Y-95653434D01*
X186632553Y-95678256D01*
X186646493Y-95713402D01*
X186656092Y-95758031D01*
X186661004Y-95809105D01*
X186660884Y-95863587D01*
X186657789Y-95900730D01*
X186647581Y-95955759D01*
X186630645Y-96000465D01*
X186606036Y-96036325D01*
X186572813Y-96064818D01*
X186542233Y-96081980D01*
X186518724Y-96092038D01*
X186497893Y-96097659D01*
X186474044Y-96099970D01*
X186450168Y-96100204D01*
X186421264Y-96098795D01*
X186394019Y-96095507D01*
X186373882Y-96091020D01*
X186372373Y-96090496D01*
X186327152Y-96067135D01*
X186289532Y-96033139D01*
X186259840Y-95988820D01*
X186254426Y-95977763D01*
X186248945Y-95964765D01*
X186245032Y-95951625D01*
X186242428Y-95935850D01*
X186240873Y-95914951D01*
X186240109Y-95886435D01*
X186239876Y-95847812D01*
X186239870Y-95837801D01*
X186239879Y-95834515D01*
X186338604Y-95834515D01*
X186339633Y-95878364D01*
X186343248Y-95911719D01*
X186350092Y-95937083D01*
X186360806Y-95956961D01*
X186373787Y-95971751D01*
X186404010Y-95992293D01*
X186438179Y-96000794D01*
X186474487Y-95997029D01*
X186499557Y-95987309D01*
X186521184Y-95974116D01*
X186536690Y-95958326D01*
X186547114Y-95937550D01*
X186553497Y-95909403D01*
X186556878Y-95871497D01*
X186557590Y-95854102D01*
X186557907Y-95820212D01*
X186556809Y-95788968D01*
X186554496Y-95764391D01*
X186552599Y-95754477D01*
X186537675Y-95721643D01*
X186514237Y-95696980D01*
X186484701Y-95681350D01*
X186451479Y-95675619D01*
X186416985Y-95680652D01*
X186386827Y-95695111D01*
X186367238Y-95711422D01*
X186353415Y-95731602D01*
X186344565Y-95757945D01*
X186339893Y-95792742D01*
X186338604Y-95834515D01*
X186239879Y-95834515D01*
X186239979Y-95797211D01*
X186240505Y-95767214D01*
G37*
%TD*%
D10*
%TO.C,U2*%
X96496000Y-83830000D03*
D11*
X96496000Y-86370000D03*
X96496000Y-88910000D03*
X96496000Y-91450000D03*
%TD*%
D12*
%TO.C,C2*%
X169250000Y-94577401D03*
D13*
X169250000Y-96077401D03*
%TD*%
D14*
%TO.C,R2*%
X144502000Y-91450000D03*
D15*
X144502000Y-83830000D03*
%TD*%
D16*
%TO.C,U3*%
X169250000Y-90110000D03*
D13*
X169250000Y-87570000D03*
X169250000Y-85030000D03*
%TD*%
D17*
%TO.C,C1*%
X169250000Y-81180000D03*
D14*
X169250000Y-79180000D03*
%TD*%
D18*
%TO.C,H3*%
X184568109Y-75431891D03*
X187431891Y-72568109D03*
X183975000Y-74000000D03*
X186000000Y-76025000D03*
D19*
X186000000Y-74000000D03*
D18*
X188025000Y-74000000D03*
X184568109Y-72568109D03*
X186000000Y-71975000D03*
X187431891Y-75431891D03*
%TD*%
D14*
%TO.C,R3*%
X147550000Y-91450000D03*
D15*
X147550000Y-83830000D03*
%TD*%
D20*
%TO.C,J2*%
X156416000Y-79354000D03*
X135716000Y-102554000D03*
X156416000Y-102554000D03*
X135716000Y-79354000D03*
D21*
X142216000Y-79004000D03*
D22*
X144756000Y-79004000D03*
X147296000Y-79004000D03*
X149836000Y-79004000D03*
%TD*%
D23*
%TO.C,J1*%
X175900000Y-85400000D03*
D24*
X181700000Y-85400000D03*
D25*
X178900000Y-80600000D03*
%TD*%
D18*
%TO.C,H1*%
X92568109Y-72568109D03*
X94000000Y-71975000D03*
X92568109Y-75431891D03*
X94000000Y-76025000D03*
X96025000Y-74000000D03*
D19*
X94000000Y-74000000D03*
D18*
X91975000Y-74000000D03*
X95431891Y-75431891D03*
X95431891Y-72568109D03*
%TD*%
D21*
%TO.C,U1*%
X107418000Y-78750000D03*
D26*
X107418000Y-81290000D03*
X107418000Y-83830000D03*
X107418000Y-86370000D03*
X107418000Y-88910000D03*
X107418000Y-91450000D03*
X107418000Y-93990000D03*
X107418000Y-96530000D03*
X130278000Y-96530000D03*
X130278000Y-93990000D03*
X130278000Y-91450000D03*
X130278000Y-88910000D03*
X130278000Y-86370000D03*
X130278000Y-83830000D03*
X130278000Y-81290000D03*
X130278000Y-78750000D03*
%TD*%
D18*
%TO.C,H4*%
X184568109Y-102431891D03*
X184568109Y-99568109D03*
X186000000Y-103025000D03*
X187431891Y-99568109D03*
X183975000Y-101000000D03*
X188025000Y-101000000D03*
X186000000Y-98975000D03*
D19*
X186000000Y-101000000D03*
D18*
X187431891Y-102431891D03*
%TD*%
D19*
%TO.C,H2*%
X94000000Y-101000000D03*
D18*
X95431891Y-99568109D03*
X94000000Y-98975000D03*
X95431891Y-102431891D03*
X92568109Y-102431891D03*
X96025000Y-101000000D03*
X92568109Y-99568109D03*
X91975000Y-101000000D03*
X94000000Y-103025000D03*
%TD*%
D14*
%TO.C,R1*%
X101000000Y-83830000D03*
D15*
X101000000Y-91450000D03*
%TD*%
M02*
