%TF.GenerationSoftware,KiCad,Pcbnew,6.0.7-f9a2dced07~116~ubuntu22.04.1*%
%TF.CreationDate,2022-09-18T17:51:17+02:00*%
%TF.ProjectId,SmartHarz-Thermometer,536d6172-7448-4617-927a-2d546865726d,1b1*%
%TF.SameCoordinates,Original*%
%TF.FileFunction,Copper,L1,Top*%
%TF.FilePolarity,Positive*%
%FSLAX46Y46*%
G04 Gerber Fmt 4.6, Leading zero omitted, Abs format (unit mm)*
G04 Created by KiCad (PCBNEW 6.0.7-f9a2dced07~116~ubuntu22.04.1) date 2022-09-18 17:51:17*
%MOMM*%
%LPD*%
G01*
G04 APERTURE LIST*
G04 Aperture macros list*
%AMRoundRect*
0 Rectangle with rounded corners*
0 $1 Rounding radius*
0 $2 $3 $4 $5 $6 $7 $8 $9 X,Y pos of 4 corners*
0 Add a 4 corners polygon primitive as box body*
4,1,4,$2,$3,$4,$5,$6,$7,$8,$9,$2,$3,0*
0 Add four circle primitives for the rounded corners*
1,1,$1+$1,$2,$3*
1,1,$1+$1,$4,$5*
1,1,$1+$1,$6,$7*
1,1,$1+$1,$8,$9*
0 Add four rect primitives between the rounded corners*
20,1,$1+$1,$2,$3,$4,$5,0*
20,1,$1+$1,$4,$5,$6,$7,0*
20,1,$1+$1,$6,$7,$8,$9,0*
20,1,$1+$1,$8,$9,$2,$3,0*%
G04 Aperture macros list end*
%TA.AperFunction,EtchedComponent*%
%ADD10C,0.010000*%
%TD*%
%TA.AperFunction,ComponentPad*%
%ADD11R,1.500000X1.500000*%
%TD*%
%TA.AperFunction,ComponentPad*%
%ADD12C,1.500000*%
%TD*%
%TA.AperFunction,ComponentPad*%
%ADD13R,1.200000X1.200000*%
%TD*%
%TA.AperFunction,ComponentPad*%
%ADD14C,1.200000*%
%TD*%
%TA.AperFunction,ComponentPad*%
%ADD15C,1.600000*%
%TD*%
%TA.AperFunction,ComponentPad*%
%ADD16O,1.600000X1.600000*%
%TD*%
%TA.AperFunction,ComponentPad*%
%ADD17RoundRect,0.300000X0.300000X-0.300000X0.300000X0.300000X-0.300000X0.300000X-0.300000X-0.300000X0*%
%TD*%
%TA.AperFunction,ComponentPad*%
%ADD18R,1.600000X1.600000*%
%TD*%
%TA.AperFunction,ComponentPad*%
%ADD19C,0.800000*%
%TD*%
%TA.AperFunction,ComponentPad*%
%ADD20C,5.400000*%
%TD*%
%TA.AperFunction,ComponentPad*%
%ADD21R,2.000000X2.000000*%
%TD*%
%TA.AperFunction,ComponentPad*%
%ADD22O,1.600000X2.000000*%
%TD*%
%TA.AperFunction,ComponentPad*%
%ADD23R,1.800000X4.400000*%
%TD*%
%TA.AperFunction,ComponentPad*%
%ADD24O,1.800000X4.000000*%
%TD*%
%TA.AperFunction,ComponentPad*%
%ADD25O,4.000000X1.800000*%
%TD*%
%TA.AperFunction,ComponentPad*%
%ADD26O,2.000000X1.600000*%
%TD*%
%TA.AperFunction,Conductor*%
%ADD27C,1.000000*%
%TD*%
%TA.AperFunction,Conductor*%
%ADD28C,0.300000*%
%TD*%
%TA.AperFunction,Conductor*%
%ADD29C,0.500000*%
%TD*%
G04 APERTURE END LIST*
%TO.C,REF\u002A\u002A*%
G36*
X33815287Y14319797D02*
G01*
X33893994Y14319418D01*
X33955085Y14318627D01*
X34001039Y14317290D01*
X34034336Y14315277D01*
X34057458Y14312454D01*
X34072884Y14308691D01*
X34083093Y14303855D01*
X34088035Y14300138D01*
X34113679Y14267602D01*
X34116781Y14233822D01*
X34100933Y14203134D01*
X34090570Y14190871D01*
X34079418Y14182510D01*
X34063257Y14177303D01*
X34037864Y14174503D01*
X33999020Y14173364D01*
X33942502Y14173139D01*
X33931402Y14173138D01*
X33785466Y14173138D01*
X33785466Y13902204D01*
X33785370Y13816806D01*
X33784933Y13751096D01*
X33783934Y13702186D01*
X33782150Y13667187D01*
X33779359Y13643211D01*
X33775339Y13627367D01*
X33769867Y13616769D01*
X33762888Y13608693D01*
X33729956Y13588848D01*
X33695576Y13590412D01*
X33664398Y13613054D01*
X33662108Y13615860D01*
X33654651Y13626468D01*
X33648969Y13638879D01*
X33644823Y13656110D01*
X33641972Y13681176D01*
X33640176Y13717093D01*
X33639194Y13766877D01*
X33638786Y13833543D01*
X33638711Y13909371D01*
X33638711Y14173138D01*
X33499349Y14173138D01*
X33439544Y14173542D01*
X33398140Y14175120D01*
X33370970Y14178413D01*
X33353868Y14183968D01*
X33342665Y14192329D01*
X33341305Y14193782D01*
X33324947Y14227021D01*
X33326394Y14264598D01*
X33345200Y14297315D01*
X33352472Y14303662D01*
X33361849Y14308694D01*
X33375831Y14312564D01*
X33396918Y14315423D01*
X33427611Y14317425D01*
X33470411Y14318721D01*
X33527817Y14319462D01*
X33602332Y14319802D01*
X33696455Y14319892D01*
X33716482Y14319893D01*
X33815287Y14319797D01*
G37*
D10*
X33815287Y14319797D02*
X33893994Y14319418D01*
X33955085Y14318627D01*
X34001039Y14317290D01*
X34034336Y14315277D01*
X34057458Y14312454D01*
X34072884Y14308691D01*
X34083093Y14303855D01*
X34088035Y14300138D01*
X34113679Y14267602D01*
X34116781Y14233822D01*
X34100933Y14203134D01*
X34090570Y14190871D01*
X34079418Y14182510D01*
X34063257Y14177303D01*
X34037864Y14174503D01*
X33999020Y14173364D01*
X33942502Y14173139D01*
X33931402Y14173138D01*
X33785466Y14173138D01*
X33785466Y13902204D01*
X33785370Y13816806D01*
X33784933Y13751096D01*
X33783934Y13702186D01*
X33782150Y13667187D01*
X33779359Y13643211D01*
X33775339Y13627367D01*
X33769867Y13616769D01*
X33762888Y13608693D01*
X33729956Y13588848D01*
X33695576Y13590412D01*
X33664398Y13613054D01*
X33662108Y13615860D01*
X33654651Y13626468D01*
X33648969Y13638879D01*
X33644823Y13656110D01*
X33641972Y13681176D01*
X33640176Y13717093D01*
X33639194Y13766877D01*
X33638786Y13833543D01*
X33638711Y13909371D01*
X33638711Y14173138D01*
X33499349Y14173138D01*
X33439544Y14173542D01*
X33398140Y14175120D01*
X33370970Y14178413D01*
X33353868Y14183968D01*
X33342665Y14192329D01*
X33341305Y14193782D01*
X33324947Y14227021D01*
X33326394Y14264598D01*
X33345200Y14297315D01*
X33352472Y14303662D01*
X33361849Y14308694D01*
X33375831Y14312564D01*
X33396918Y14315423D01*
X33427611Y14317425D01*
X33470411Y14318721D01*
X33527817Y14319462D01*
X33602332Y14319802D01*
X33696455Y14319892D01*
X33716482Y14319893D01*
X33815287Y14319797D01*
G36*
X29082565Y14319700D02*
G01*
X29158923Y14318786D01*
X29217439Y14316649D01*
X29260477Y14312785D01*
X29290405Y14306693D01*
X29309590Y14297870D01*
X29320398Y14285814D01*
X29325195Y14270021D01*
X29326349Y14249990D01*
X29326355Y14247625D01*
X29325353Y14224968D01*
X29320618Y14207457D01*
X29309555Y14194386D01*
X29289570Y14185047D01*
X29258068Y14178733D01*
X29212454Y14174738D01*
X29150135Y14172354D01*
X29068515Y14170874D01*
X29043499Y14170546D01*
X28801422Y14167493D01*
X28798036Y14102582D01*
X28794651Y14037671D01*
X28962798Y14037671D01*
X29028488Y14037429D01*
X29075394Y14036404D01*
X29107305Y14034149D01*
X29128013Y14030218D01*
X29141306Y14024162D01*
X29150977Y14015536D01*
X29151039Y14015467D01*
X29168578Y13981848D01*
X29167944Y13945512D01*
X29149536Y13914537D01*
X29145893Y13911353D01*
X29132963Y13903148D01*
X29115246Y13897439D01*
X29088792Y13893798D01*
X29049654Y13891793D01*
X28993884Y13890996D01*
X28958216Y13890915D01*
X28795777Y13890915D01*
X28795777Y13732871D01*
X29042383Y13732871D01*
X29123802Y13732729D01*
X29185632Y13732146D01*
X29230859Y13730892D01*
X29262470Y13728733D01*
X29283453Y13725437D01*
X29296795Y13720771D01*
X29305483Y13714503D01*
X29307672Y13712227D01*
X29323836Y13680680D01*
X29325019Y13644792D01*
X29311758Y13613675D01*
X29301265Y13603689D01*
X29290351Y13598191D01*
X29273439Y13593938D01*
X29247855Y13590780D01*
X29210923Y13588568D01*
X29159968Y13587154D01*
X29092316Y13586388D01*
X29005291Y13586122D01*
X28985616Y13586115D01*
X28897133Y13586173D01*
X28828449Y13586493D01*
X28776786Y13587293D01*
X28739367Y13588793D01*
X28713412Y13591211D01*
X28696144Y13594766D01*
X28684784Y13599678D01*
X28676554Y13606165D01*
X28672039Y13610822D01*
X28665243Y13619071D01*
X28659934Y13629291D01*
X28655928Y13644160D01*
X28653043Y13666358D01*
X28651096Y13698567D01*
X28649903Y13743464D01*
X28649283Y13803732D01*
X28649051Y13882049D01*
X28649022Y13947966D01*
X28649093Y14040332D01*
X28649430Y14112843D01*
X28650220Y14168223D01*
X28651648Y14209195D01*
X28653901Y14238482D01*
X28657165Y14258807D01*
X28661626Y14272894D01*
X28667470Y14283465D01*
X28672419Y14290149D01*
X28695816Y14319893D01*
X28985996Y14319893D01*
X29082565Y14319700D01*
G37*
X29082565Y14319700D02*
X29158923Y14318786D01*
X29217439Y14316649D01*
X29260477Y14312785D01*
X29290405Y14306693D01*
X29309590Y14297870D01*
X29320398Y14285814D01*
X29325195Y14270021D01*
X29326349Y14249990D01*
X29326355Y14247625D01*
X29325353Y14224968D01*
X29320618Y14207457D01*
X29309555Y14194386D01*
X29289570Y14185047D01*
X29258068Y14178733D01*
X29212454Y14174738D01*
X29150135Y14172354D01*
X29068515Y14170874D01*
X29043499Y14170546D01*
X28801422Y14167493D01*
X28798036Y14102582D01*
X28794651Y14037671D01*
X28962798Y14037671D01*
X29028488Y14037429D01*
X29075394Y14036404D01*
X29107305Y14034149D01*
X29128013Y14030218D01*
X29141306Y14024162D01*
X29150977Y14015536D01*
X29151039Y14015467D01*
X29168578Y13981848D01*
X29167944Y13945512D01*
X29149536Y13914537D01*
X29145893Y13911353D01*
X29132963Y13903148D01*
X29115246Y13897439D01*
X29088792Y13893798D01*
X29049654Y13891793D01*
X28993884Y13890996D01*
X28958216Y13890915D01*
X28795777Y13890915D01*
X28795777Y13732871D01*
X29042383Y13732871D01*
X29123802Y13732729D01*
X29185632Y13732146D01*
X29230859Y13730892D01*
X29262470Y13728733D01*
X29283453Y13725437D01*
X29296795Y13720771D01*
X29305483Y13714503D01*
X29307672Y13712227D01*
X29323836Y13680680D01*
X29325019Y13644792D01*
X29311758Y13613675D01*
X29301265Y13603689D01*
X29290351Y13598191D01*
X29273439Y13593938D01*
X29247855Y13590780D01*
X29210923Y13588568D01*
X29159968Y13587154D01*
X29092316Y13586388D01*
X29005291Y13586122D01*
X28985616Y13586115D01*
X28897133Y13586173D01*
X28828449Y13586493D01*
X28776786Y13587293D01*
X28739367Y13588793D01*
X28713412Y13591211D01*
X28696144Y13594766D01*
X28684784Y13599678D01*
X28676554Y13606165D01*
X28672039Y13610822D01*
X28665243Y13619071D01*
X28659934Y13629291D01*
X28655928Y13644160D01*
X28653043Y13666358D01*
X28651096Y13698567D01*
X28649903Y13743464D01*
X28649283Y13803732D01*
X28649051Y13882049D01*
X28649022Y13947966D01*
X28649093Y14040332D01*
X28649430Y14112843D01*
X28650220Y14168223D01*
X28651648Y14209195D01*
X28653901Y14238482D01*
X28657165Y14258807D01*
X28661626Y14272894D01*
X28667470Y14283465D01*
X28672419Y14290149D01*
X28695816Y14319893D01*
X28985996Y14319893D01*
X29082565Y14319700D01*
G36*
X22581224Y14243905D02*
G01*
X22589392Y14277182D01*
X22602666Y14299201D01*
X22622248Y14312221D01*
X22649339Y14318503D01*
X22685140Y14320307D01*
X22730851Y14319894D01*
X22770333Y14319493D01*
X22886022Y14316701D01*
X22982911Y14308410D01*
X23064303Y14293728D01*
X23133499Y14271767D01*
X23193802Y14241638D01*
X23248514Y14202450D01*
X23268055Y14185428D01*
X23300472Y14145597D01*
X23329702Y14091547D01*
X23352231Y14031637D01*
X23364543Y13974221D01*
X23365822Y13953004D01*
X23357805Y13894191D01*
X23336323Y13829947D01*
X23305223Y13769139D01*
X23268356Y13720630D01*
X23262368Y13714778D01*
X23211643Y13673639D01*
X23156097Y13641525D01*
X23092526Y13617595D01*
X23017728Y13601007D01*
X22928500Y13590919D01*
X22821640Y13586491D01*
X22772694Y13586115D01*
X22710460Y13586415D01*
X22666694Y13587668D01*
X22637291Y13590406D01*
X22618143Y13595159D01*
X22605145Y13602459D01*
X22598177Y13608693D01*
X22591596Y13616266D01*
X22586434Y13626036D01*
X22582519Y13640620D01*
X22579679Y13662634D01*
X22577742Y13694696D01*
X22576714Y13732871D01*
X22722355Y13732871D01*
X22815488Y13732956D01*
X22871529Y13734564D01*
X22930223Y13738704D01*
X22979194Y13744496D01*
X22980684Y13744734D01*
X23059830Y13763870D01*
X23121220Y13793673D01*
X23167917Y13836082D01*
X23197587Y13881999D01*
X23215869Y13932934D01*
X23214451Y13980760D01*
X23193234Y14032027D01*
X23151733Y14085061D01*
X23094224Y14124360D01*
X23019472Y14150629D01*
X22969514Y14159925D01*
X22912806Y14166453D01*
X22852703Y14171178D01*
X22801583Y14173143D01*
X22798555Y14173152D01*
X22722355Y14173138D01*
X22722355Y13732871D01*
X22576714Y13732871D01*
X22576538Y13739424D01*
X22575894Y13799434D01*
X22575639Y13877343D01*
X22575600Y13953004D01*
X22575352Y14053919D01*
X22575405Y14134533D01*
X22576365Y14173138D01*
X22576962Y14197109D01*
X22581224Y14243905D01*
G37*
X22581224Y14243905D02*
X22589392Y14277182D01*
X22602666Y14299201D01*
X22622248Y14312221D01*
X22649339Y14318503D01*
X22685140Y14320307D01*
X22730851Y14319894D01*
X22770333Y14319493D01*
X22886022Y14316701D01*
X22982911Y14308410D01*
X23064303Y14293728D01*
X23133499Y14271767D01*
X23193802Y14241638D01*
X23248514Y14202450D01*
X23268055Y14185428D01*
X23300472Y14145597D01*
X23329702Y14091547D01*
X23352231Y14031637D01*
X23364543Y13974221D01*
X23365822Y13953004D01*
X23357805Y13894191D01*
X23336323Y13829947D01*
X23305223Y13769139D01*
X23268356Y13720630D01*
X23262368Y13714778D01*
X23211643Y13673639D01*
X23156097Y13641525D01*
X23092526Y13617595D01*
X23017728Y13601007D01*
X22928500Y13590919D01*
X22821640Y13586491D01*
X22772694Y13586115D01*
X22710460Y13586415D01*
X22666694Y13587668D01*
X22637291Y13590406D01*
X22618143Y13595159D01*
X22605145Y13602459D01*
X22598177Y13608693D01*
X22591596Y13616266D01*
X22586434Y13626036D01*
X22582519Y13640620D01*
X22579679Y13662634D01*
X22577742Y13694696D01*
X22576714Y13732871D01*
X22722355Y13732871D01*
X22815488Y13732956D01*
X22871529Y13734564D01*
X22930223Y13738704D01*
X22979194Y13744496D01*
X22980684Y13744734D01*
X23059830Y13763870D01*
X23121220Y13793673D01*
X23167917Y13836082D01*
X23197587Y13881999D01*
X23215869Y13932934D01*
X23214451Y13980760D01*
X23193234Y14032027D01*
X23151733Y14085061D01*
X23094224Y14124360D01*
X23019472Y14150629D01*
X22969514Y14159925D01*
X22912806Y14166453D01*
X22852703Y14171178D01*
X22801583Y14173143D01*
X22798555Y14173152D01*
X22722355Y14173138D01*
X22722355Y13732871D01*
X22576714Y13732871D01*
X22576538Y13739424D01*
X22575894Y13799434D01*
X22575639Y13877343D01*
X22575600Y13953004D01*
X22575352Y14053919D01*
X22575405Y14134533D01*
X22576365Y14173138D01*
X22576962Y14197109D01*
X22581224Y14243905D01*
G36*
X25928400Y14297315D02*
G01*
X25934980Y14289742D01*
X25940143Y14279973D01*
X25944058Y14265389D01*
X25946898Y14243375D01*
X25948835Y14211312D01*
X25950039Y14166585D01*
X25950683Y14106575D01*
X25950938Y14028666D01*
X25950977Y13953004D01*
X25950908Y13859158D01*
X25950584Y13785271D01*
X25949836Y13728728D01*
X25948490Y13686911D01*
X25946376Y13657203D01*
X25943322Y13636987D01*
X25939156Y13623646D01*
X25933706Y13614562D01*
X25928400Y13608693D01*
X25895396Y13589013D01*
X25860231Y13590779D01*
X25828767Y13612243D01*
X25821538Y13620623D01*
X25815888Y13630346D01*
X25811623Y13644099D01*
X25808549Y13664571D01*
X25806470Y13694448D01*
X25805192Y13736419D01*
X25804521Y13793171D01*
X25804263Y13867393D01*
X25804222Y13951423D01*
X25804222Y14264475D01*
X25831931Y14292184D01*
X25866085Y14315497D01*
X25899216Y14316337D01*
X25928400Y14297315D01*
G37*
X25928400Y14297315D02*
X25934980Y14289742D01*
X25940143Y14279973D01*
X25944058Y14265389D01*
X25946898Y14243375D01*
X25948835Y14211312D01*
X25950039Y14166585D01*
X25950683Y14106575D01*
X25950938Y14028666D01*
X25950977Y13953004D01*
X25950908Y13859158D01*
X25950584Y13785271D01*
X25949836Y13728728D01*
X25948490Y13686911D01*
X25946376Y13657203D01*
X25943322Y13636987D01*
X25939156Y13623646D01*
X25933706Y13614562D01*
X25928400Y13608693D01*
X25895396Y13589013D01*
X25860231Y13590779D01*
X25828767Y13612243D01*
X25821538Y13620623D01*
X25815888Y13630346D01*
X25811623Y13644099D01*
X25808549Y13664571D01*
X25806470Y13694448D01*
X25805192Y13736419D01*
X25804521Y13793171D01*
X25804263Y13867393D01*
X25804222Y13951423D01*
X25804222Y14264475D01*
X25831931Y14292184D01*
X25866085Y14315497D01*
X25899216Y14316337D01*
X25928400Y14297315D01*
G36*
X24139428Y14319814D02*
G01*
X24208836Y14319442D01*
X24261225Y14318575D01*
X24299375Y14317014D01*
X24326063Y14314557D01*
X24344069Y14311003D01*
X24356173Y14306150D01*
X24365153Y14299799D01*
X24368404Y14296876D01*
X24388179Y14265818D01*
X24391740Y14230132D01*
X24378731Y14198450D01*
X24372716Y14192047D01*
X24362987Y14185839D01*
X24347321Y14181050D01*
X24322814Y14177446D01*
X24286561Y14174796D01*
X24235657Y14172865D01*
X24167196Y14171421D01*
X24104605Y14170542D01*
X23856888Y14167493D01*
X23853503Y14102582D01*
X23850117Y14037671D01*
X24018264Y14037671D01*
X24091263Y14037041D01*
X24144705Y14034407D01*
X24181594Y14028651D01*
X24204934Y14018656D01*
X24217728Y14003304D01*
X24222980Y13981478D01*
X24223777Y13961222D01*
X24221299Y13936368D01*
X24211945Y13918054D01*
X24192839Y13905323D01*
X24161104Y13897219D01*
X24113863Y13892784D01*
X24048239Y13891061D01*
X24012421Y13890915D01*
X23851244Y13890915D01*
X23851244Y13732871D01*
X24099600Y13732871D01*
X24181009Y13732758D01*
X24242880Y13732248D01*
X24288254Y13731090D01*
X24320168Y13729030D01*
X24341663Y13725814D01*
X24355779Y13721188D01*
X24365554Y13714901D01*
X24370533Y13710293D01*
X24387612Y13683400D01*
X24393111Y13659493D01*
X24385259Y13630293D01*
X24370533Y13608693D01*
X24362676Y13601894D01*
X24352534Y13596614D01*
X24337378Y13592662D01*
X24314481Y13589847D01*
X24281113Y13587978D01*
X24234547Y13586862D01*
X24172055Y13586309D01*
X24090908Y13586127D01*
X24048800Y13586115D01*
X23958624Y13586195D01*
X23888298Y13586562D01*
X23835093Y13587408D01*
X23796282Y13588924D01*
X23769135Y13591301D01*
X23750924Y13594731D01*
X23738922Y13599406D01*
X23730400Y13605516D01*
X23727066Y13608693D01*
X23720467Y13616290D01*
X23715295Y13626090D01*
X23711376Y13640721D01*
X23708538Y13662808D01*
X23706607Y13694978D01*
X23705410Y13739857D01*
X23704774Y13800071D01*
X23704525Y13878247D01*
X23704488Y13951037D01*
X23704522Y14044253D01*
X23704757Y14117529D01*
X23705392Y14173502D01*
X23706628Y14214809D01*
X23708666Y14244088D01*
X23711705Y14263976D01*
X23715945Y14277110D01*
X23721587Y14286128D01*
X23728831Y14293667D01*
X23730616Y14295348D01*
X23739277Y14302788D01*
X23749340Y14308551D01*
X23763597Y14312848D01*
X23784839Y14315896D01*
X23815858Y14317909D01*
X23859445Y14319100D01*
X23918391Y14319685D01*
X23995488Y14319877D01*
X24050221Y14319893D01*
X24139428Y14319814D01*
G37*
X24139428Y14319814D02*
X24208836Y14319442D01*
X24261225Y14318575D01*
X24299375Y14317014D01*
X24326063Y14314557D01*
X24344069Y14311003D01*
X24356173Y14306150D01*
X24365153Y14299799D01*
X24368404Y14296876D01*
X24388179Y14265818D01*
X24391740Y14230132D01*
X24378731Y14198450D01*
X24372716Y14192047D01*
X24362987Y14185839D01*
X24347321Y14181050D01*
X24322814Y14177446D01*
X24286561Y14174796D01*
X24235657Y14172865D01*
X24167196Y14171421D01*
X24104605Y14170542D01*
X23856888Y14167493D01*
X23853503Y14102582D01*
X23850117Y14037671D01*
X24018264Y14037671D01*
X24091263Y14037041D01*
X24144705Y14034407D01*
X24181594Y14028651D01*
X24204934Y14018656D01*
X24217728Y14003304D01*
X24222980Y13981478D01*
X24223777Y13961222D01*
X24221299Y13936368D01*
X24211945Y13918054D01*
X24192839Y13905323D01*
X24161104Y13897219D01*
X24113863Y13892784D01*
X24048239Y13891061D01*
X24012421Y13890915D01*
X23851244Y13890915D01*
X23851244Y13732871D01*
X24099600Y13732871D01*
X24181009Y13732758D01*
X24242880Y13732248D01*
X24288254Y13731090D01*
X24320168Y13729030D01*
X24341663Y13725814D01*
X24355779Y13721188D01*
X24365554Y13714901D01*
X24370533Y13710293D01*
X24387612Y13683400D01*
X24393111Y13659493D01*
X24385259Y13630293D01*
X24370533Y13608693D01*
X24362676Y13601894D01*
X24352534Y13596614D01*
X24337378Y13592662D01*
X24314481Y13589847D01*
X24281113Y13587978D01*
X24234547Y13586862D01*
X24172055Y13586309D01*
X24090908Y13586127D01*
X24048800Y13586115D01*
X23958624Y13586195D01*
X23888298Y13586562D01*
X23835093Y13587408D01*
X23796282Y13588924D01*
X23769135Y13591301D01*
X23750924Y13594731D01*
X23738922Y13599406D01*
X23730400Y13605516D01*
X23727066Y13608693D01*
X23720467Y13616290D01*
X23715295Y13626090D01*
X23711376Y13640721D01*
X23708538Y13662808D01*
X23706607Y13694978D01*
X23705410Y13739857D01*
X23704774Y13800071D01*
X23704525Y13878247D01*
X23704488Y13951037D01*
X23704522Y14044253D01*
X23704757Y14117529D01*
X23705392Y14173502D01*
X23706628Y14214809D01*
X23708666Y14244088D01*
X23711705Y14263976D01*
X23715945Y14277110D01*
X23721587Y14286128D01*
X23728831Y14293667D01*
X23730616Y14295348D01*
X23739277Y14302788D01*
X23749340Y14308551D01*
X23763597Y14312848D01*
X23784839Y14315896D01*
X23815858Y14317909D01*
X23859445Y14319100D01*
X23918391Y14319685D01*
X23995488Y14319877D01*
X24050221Y14319893D01*
X24139428Y14319814D01*
G36*
X26114435Y20918662D02*
G01*
X26217541Y20882914D01*
X26313536Y20826645D01*
X26399267Y20749864D01*
X26471584Y20652579D01*
X26504069Y20591260D01*
X26532182Y20505492D01*
X26545809Y20406475D01*
X26544300Y20304681D01*
X26527545Y20212438D01*
X26481751Y20099720D01*
X26415346Y20001945D01*
X26331705Y19921037D01*
X26234202Y19858920D01*
X26126214Y19817518D01*
X26011115Y19798755D01*
X25892280Y19804554D01*
X25833703Y19816946D01*
X25719542Y19861355D01*
X25618149Y19929119D01*
X25531969Y20018151D01*
X25463448Y20126361D01*
X25457650Y20138179D01*
X25437610Y20182524D01*
X25425027Y20219872D01*
X25418195Y20259272D01*
X25415409Y20309771D01*
X25414946Y20364719D01*
X25415711Y20430737D01*
X25419162Y20478463D01*
X25427037Y20517049D01*
X25441071Y20555646D01*
X25458394Y20593726D01*
X25523009Y20701824D01*
X25602580Y20789349D01*
X25693954Y20856311D01*
X25793978Y20902716D01*
X25899502Y20928571D01*
X26007372Y20933884D01*
X26114435Y20918662D01*
G37*
X26114435Y20918662D02*
X26217541Y20882914D01*
X26313536Y20826645D01*
X26399267Y20749864D01*
X26471584Y20652579D01*
X26504069Y20591260D01*
X26532182Y20505492D01*
X26545809Y20406475D01*
X26544300Y20304681D01*
X26527545Y20212438D01*
X26481751Y20099720D01*
X26415346Y20001945D01*
X26331705Y19921037D01*
X26234202Y19858920D01*
X26126214Y19817518D01*
X26011115Y19798755D01*
X25892280Y19804554D01*
X25833703Y19816946D01*
X25719542Y19861355D01*
X25618149Y19929119D01*
X25531969Y20018151D01*
X25463448Y20126361D01*
X25457650Y20138179D01*
X25437610Y20182524D01*
X25425027Y20219872D01*
X25418195Y20259272D01*
X25415409Y20309771D01*
X25414946Y20364719D01*
X25415711Y20430737D01*
X25419162Y20478463D01*
X25427037Y20517049D01*
X25441071Y20555646D01*
X25458394Y20593726D01*
X25523009Y20701824D01*
X25602580Y20789349D01*
X25693954Y20856311D01*
X25793978Y20902716D01*
X25899502Y20928571D01*
X26007372Y20933884D01*
X26114435Y20918662D01*
G36*
X29665272Y13814649D02*
G01*
X29665047Y13893434D01*
X29665022Y13955040D01*
X29665022Y14264475D01*
X29692731Y14292184D01*
X29705028Y14303416D01*
X29718325Y14311107D01*
X29736894Y14315920D01*
X29765008Y14318514D01*
X29806939Y14319550D01*
X29866959Y14319690D01*
X29870531Y14319685D01*
X29999510Y14315324D01*
X30109213Y14302099D01*
X30201448Y14279219D01*
X30278024Y14245890D01*
X30340749Y14201322D01*
X30391434Y14144724D01*
X30431885Y14075302D01*
X30432681Y14073609D01*
X30456823Y14011477D01*
X30465425Y13956451D01*
X30458453Y13901073D01*
X30435876Y13837887D01*
X30431594Y13828271D01*
X30402394Y13771994D01*
X30369578Y13728509D01*
X30327224Y13691543D01*
X30269412Y13654825D01*
X30266053Y13652908D01*
X30215726Y13628733D01*
X30158843Y13610678D01*
X30091749Y13598121D01*
X30010787Y13590438D01*
X29912304Y13587007D01*
X29877508Y13586709D01*
X29711816Y13586115D01*
X29688419Y13615860D01*
X29681479Y13625641D01*
X29676064Y13637063D01*
X29671987Y13652865D01*
X29669059Y13675785D01*
X29667089Y13708564D01*
X29666447Y13732871D01*
X29823066Y13732871D01*
X29916948Y13732871D01*
X29971886Y13734477D01*
X30028282Y13738705D01*
X30074567Y13744668D01*
X30077361Y13745170D01*
X30159570Y13767224D01*
X30223336Y13800360D01*
X30270674Y13846113D01*
X30303604Y13906021D01*
X30309330Y13921899D01*
X30314943Y13946627D01*
X30312513Y13971058D01*
X30300689Y14003560D01*
X30293562Y14019526D01*
X30270222Y14061954D01*
X30242102Y14091720D01*
X30211162Y14112449D01*
X30149188Y14139423D01*
X30069873Y14158962D01*
X29977475Y14170214D01*
X29910555Y14172690D01*
X29823066Y14173138D01*
X29823066Y13732871D01*
X29666447Y13732871D01*
X29665890Y13753939D01*
X29665272Y13814649D01*
G37*
X29665272Y13814649D02*
X29665047Y13893434D01*
X29665022Y13955040D01*
X29665022Y14264475D01*
X29692731Y14292184D01*
X29705028Y14303416D01*
X29718325Y14311107D01*
X29736894Y14315920D01*
X29765008Y14318514D01*
X29806939Y14319550D01*
X29866959Y14319690D01*
X29870531Y14319685D01*
X29999510Y14315324D01*
X30109213Y14302099D01*
X30201448Y14279219D01*
X30278024Y14245890D01*
X30340749Y14201322D01*
X30391434Y14144724D01*
X30431885Y14075302D01*
X30432681Y14073609D01*
X30456823Y14011477D01*
X30465425Y13956451D01*
X30458453Y13901073D01*
X30435876Y13837887D01*
X30431594Y13828271D01*
X30402394Y13771994D01*
X30369578Y13728509D01*
X30327224Y13691543D01*
X30269412Y13654825D01*
X30266053Y13652908D01*
X30215726Y13628733D01*
X30158843Y13610678D01*
X30091749Y13598121D01*
X30010787Y13590438D01*
X29912304Y13587007D01*
X29877508Y13586709D01*
X29711816Y13586115D01*
X29688419Y13615860D01*
X29681479Y13625641D01*
X29676064Y13637063D01*
X29671987Y13652865D01*
X29669059Y13675785D01*
X29667089Y13708564D01*
X29666447Y13732871D01*
X29823066Y13732871D01*
X29916948Y13732871D01*
X29971886Y13734477D01*
X30028282Y13738705D01*
X30074567Y13744668D01*
X30077361Y13745170D01*
X30159570Y13767224D01*
X30223336Y13800360D01*
X30270674Y13846113D01*
X30303604Y13906021D01*
X30309330Y13921899D01*
X30314943Y13946627D01*
X30312513Y13971058D01*
X30300689Y14003560D01*
X30293562Y14019526D01*
X30270222Y14061954D01*
X30242102Y14091720D01*
X30211162Y14112449D01*
X30149188Y14139423D01*
X30069873Y14158962D01*
X29977475Y14170214D01*
X29910555Y14172690D01*
X29823066Y14173138D01*
X29823066Y13732871D01*
X29666447Y13732871D01*
X29665890Y13753939D01*
X29665272Y13814649D01*
G36*
X33510161Y17309099D02*
G01*
X33533434Y17512960D01*
X33569018Y17697639D01*
X33617527Y17866104D01*
X33679574Y18021326D01*
X33701715Y18067344D01*
X33790899Y18217413D01*
X33898673Y18350775D01*
X34022504Y18465275D01*
X34159856Y18558763D01*
X34308197Y18629084D01*
X34397118Y18658092D01*
X34484447Y18675312D01*
X34589525Y18685558D01*
X34703543Y18688834D01*
X34817691Y18685143D01*
X34923162Y18674492D01*
X35007848Y18657782D01*
X35108642Y18625012D01*
X35206336Y18582873D01*
X35291810Y18535633D01*
X35337303Y18503571D01*
X35368683Y18479730D01*
X35390656Y18465213D01*
X35395655Y18463152D01*
X35397204Y18476434D01*
X35398649Y18514489D01*
X35399957Y18574633D01*
X35401097Y18654179D01*
X35402035Y18750441D01*
X35402740Y18860733D01*
X35403181Y18982371D01*
X35403325Y19106267D01*
X35403244Y19264956D01*
X35402849Y19398744D01*
X35401909Y19510192D01*
X35400194Y19601857D01*
X35397471Y19676299D01*
X35393511Y19736077D01*
X35388083Y19783750D01*
X35380955Y19821878D01*
X35371898Y19853018D01*
X35360681Y19879731D01*
X35347072Y19904575D01*
X35330842Y19930109D01*
X35328754Y19933271D01*
X35307820Y19966342D01*
X35295181Y19989083D01*
X35293487Y19993880D01*
X35306730Y19995393D01*
X35344516Y19996624D01*
X35403930Y19997553D01*
X35482056Y19998160D01*
X35575979Y19998425D01*
X35682784Y19998327D01*
X35799555Y19997848D01*
X35839243Y19997607D01*
X36385000Y19994017D01*
X36391865Y17900233D01*
X36392772Y17616310D01*
X36393576Y17358512D01*
X36394329Y17125506D01*
X36395083Y16915958D01*
X36395889Y16728534D01*
X36396799Y16561902D01*
X36397865Y16414727D01*
X36399138Y16285675D01*
X36400670Y16173413D01*
X36402512Y16076608D01*
X36404717Y15993926D01*
X36407336Y15924033D01*
X36410420Y15865595D01*
X36414022Y15817280D01*
X36418192Y15777752D01*
X36422983Y15745679D01*
X36428445Y15719728D01*
X36434632Y15698563D01*
X36441594Y15680853D01*
X36449383Y15665263D01*
X36458051Y15650459D01*
X36467649Y15635108D01*
X36478229Y15617876D01*
X36480398Y15614206D01*
X36516782Y15552121D01*
X35990945Y15555718D01*
X35465108Y15559314D01*
X35458243Y15674821D01*
X35454506Y15730253D01*
X35450611Y15762301D01*
X35445325Y15775017D01*
X35437417Y15772456D01*
X35430784Y15765128D01*
X35401888Y15738438D01*
X35354793Y15704131D01*
X35296134Y15666306D01*
X35232545Y15629062D01*
X35170663Y15596499D01*
X35123148Y15575075D01*
X35011830Y15539869D01*
X34884110Y15514930D01*
X34749415Y15501211D01*
X34617177Y15499666D01*
X34496822Y15511246D01*
X34494840Y15511578D01*
X34330155Y15552902D01*
X34175993Y15618740D01*
X34033842Y15707678D01*
X33905189Y15818300D01*
X33791521Y15949191D01*
X33694324Y16098936D01*
X33615086Y16266119D01*
X33571944Y16389962D01*
X33543493Y16493571D01*
X33522394Y16593900D01*
X33508002Y16697043D01*
X33499672Y16809095D01*
X33496759Y16936151D01*
X33498049Y17039900D01*
X34511164Y17039900D01*
X34515958Y16865930D01*
X34531082Y16716257D01*
X34556999Y16589555D01*
X34594177Y16484494D01*
X34643079Y16399746D01*
X34704172Y16333983D01*
X34774691Y16287493D01*
X34811385Y16270138D01*
X34843210Y16259733D01*
X34878691Y16254973D01*
X34926355Y16254551D01*
X34977703Y16256404D01*
X35078683Y16265311D01*
X35158549Y16282754D01*
X35183649Y16291491D01*
X35240962Y16317295D01*
X35301411Y16349699D01*
X35327811Y16365919D01*
X35396460Y16410947D01*
X35396460Y17838170D01*
X35320946Y17883434D01*
X35215635Y17934580D01*
X35108039Y17964828D01*
X35002095Y17974357D01*
X34901738Y17963345D01*
X34810901Y17931971D01*
X34733521Y17880412D01*
X34708553Y17855664D01*
X34648370Y17774575D01*
X34599659Y17676418D01*
X34562013Y17559509D01*
X34535026Y17422167D01*
X34518289Y17262708D01*
X34511397Y17079452D01*
X34511164Y17039900D01*
X33498049Y17039900D01*
X33498587Y17083085D01*
X33510161Y17309099D01*
G37*
X33510161Y17309099D02*
X33533434Y17512960D01*
X33569018Y17697639D01*
X33617527Y17866104D01*
X33679574Y18021326D01*
X33701715Y18067344D01*
X33790899Y18217413D01*
X33898673Y18350775D01*
X34022504Y18465275D01*
X34159856Y18558763D01*
X34308197Y18629084D01*
X34397118Y18658092D01*
X34484447Y18675312D01*
X34589525Y18685558D01*
X34703543Y18688834D01*
X34817691Y18685143D01*
X34923162Y18674492D01*
X35007848Y18657782D01*
X35108642Y18625012D01*
X35206336Y18582873D01*
X35291810Y18535633D01*
X35337303Y18503571D01*
X35368683Y18479730D01*
X35390656Y18465213D01*
X35395655Y18463152D01*
X35397204Y18476434D01*
X35398649Y18514489D01*
X35399957Y18574633D01*
X35401097Y18654179D01*
X35402035Y18750441D01*
X35402740Y18860733D01*
X35403181Y18982371D01*
X35403325Y19106267D01*
X35403244Y19264956D01*
X35402849Y19398744D01*
X35401909Y19510192D01*
X35400194Y19601857D01*
X35397471Y19676299D01*
X35393511Y19736077D01*
X35388083Y19783750D01*
X35380955Y19821878D01*
X35371898Y19853018D01*
X35360681Y19879731D01*
X35347072Y19904575D01*
X35330842Y19930109D01*
X35328754Y19933271D01*
X35307820Y19966342D01*
X35295181Y19989083D01*
X35293487Y19993880D01*
X35306730Y19995393D01*
X35344516Y19996624D01*
X35403930Y19997553D01*
X35482056Y19998160D01*
X35575979Y19998425D01*
X35682784Y19998327D01*
X35799555Y19997848D01*
X35839243Y19997607D01*
X36385000Y19994017D01*
X36391865Y17900233D01*
X36392772Y17616310D01*
X36393576Y17358512D01*
X36394329Y17125506D01*
X36395083Y16915958D01*
X36395889Y16728534D01*
X36396799Y16561902D01*
X36397865Y16414727D01*
X36399138Y16285675D01*
X36400670Y16173413D01*
X36402512Y16076608D01*
X36404717Y15993926D01*
X36407336Y15924033D01*
X36410420Y15865595D01*
X36414022Y15817280D01*
X36418192Y15777752D01*
X36422983Y15745679D01*
X36428445Y15719728D01*
X36434632Y15698563D01*
X36441594Y15680853D01*
X36449383Y15665263D01*
X36458051Y15650459D01*
X36467649Y15635108D01*
X36478229Y15617876D01*
X36480398Y15614206D01*
X36516782Y15552121D01*
X35990945Y15555718D01*
X35465108Y15559314D01*
X35458243Y15674821D01*
X35454506Y15730253D01*
X35450611Y15762301D01*
X35445325Y15775017D01*
X35437417Y15772456D01*
X35430784Y15765128D01*
X35401888Y15738438D01*
X35354793Y15704131D01*
X35296134Y15666306D01*
X35232545Y15629062D01*
X35170663Y15596499D01*
X35123148Y15575075D01*
X35011830Y15539869D01*
X34884110Y15514930D01*
X34749415Y15501211D01*
X34617177Y15499666D01*
X34496822Y15511246D01*
X34494840Y15511578D01*
X34330155Y15552902D01*
X34175993Y15618740D01*
X34033842Y15707678D01*
X33905189Y15818300D01*
X33791521Y15949191D01*
X33694324Y16098936D01*
X33615086Y16266119D01*
X33571944Y16389962D01*
X33543493Y16493571D01*
X33522394Y16593900D01*
X33508002Y16697043D01*
X33499672Y16809095D01*
X33496759Y16936151D01*
X33498049Y17039900D01*
X34511164Y17039900D01*
X34515958Y16865930D01*
X34531082Y16716257D01*
X34556999Y16589555D01*
X34594177Y16484494D01*
X34643079Y16399746D01*
X34704172Y16333983D01*
X34774691Y16287493D01*
X34811385Y16270138D01*
X34843210Y16259733D01*
X34878691Y16254973D01*
X34926355Y16254551D01*
X34977703Y16256404D01*
X35078683Y16265311D01*
X35158549Y16282754D01*
X35183649Y16291491D01*
X35240962Y16317295D01*
X35301411Y16349699D01*
X35327811Y16365919D01*
X35396460Y16410947D01*
X35396460Y17838170D01*
X35320946Y17883434D01*
X35215635Y17934580D01*
X35108039Y17964828D01*
X35002095Y17974357D01*
X34901738Y17963345D01*
X34810901Y17931971D01*
X34733521Y17880412D01*
X34708553Y17855664D01*
X34648370Y17774575D01*
X34599659Y17676418D01*
X34562013Y17559509D01*
X34535026Y17422167D01*
X34518289Y17262708D01*
X34511397Y17079452D01*
X34511164Y17039900D01*
X33498049Y17039900D01*
X33498587Y17083085D01*
X33510161Y17309099D01*
G36*
X29280476Y19794653D02*
G01*
X29428528Y19778445D01*
X29571966Y19749434D01*
X29716624Y19706107D01*
X29868338Y19646951D01*
X30032942Y19570452D01*
X30062585Y19555635D01*
X30130612Y19522121D01*
X30194770Y19491944D01*
X30248729Y19467986D01*
X30286154Y19453128D01*
X30291903Y19451257D01*
X30347000Y19434750D01*
X30100365Y19075951D01*
X30040066Y18988259D01*
X29984936Y18908140D01*
X29936850Y18838316D01*
X29897682Y18781505D01*
X29869308Y18740429D01*
X29853601Y18717806D01*
X29851050Y18714224D01*
X29840685Y18721714D01*
X29815174Y18744234D01*
X29779077Y18777691D01*
X29759156Y18796602D01*
X29646287Y18886374D01*
X29519528Y18954591D01*
X29410297Y18991957D01*
X29344728Y19003692D01*
X29262630Y19010844D01*
X29173658Y19013278D01*
X29087470Y19010864D01*
X29013719Y19003469D01*
X28984290Y18997805D01*
X28851647Y18952170D01*
X28732120Y18882489D01*
X28625797Y18788892D01*
X28532767Y18671503D01*
X28453119Y18530452D01*
X28386940Y18365866D01*
X28334320Y18177872D01*
X28303047Y18016935D01*
X28294888Y17945889D01*
X28289329Y17854106D01*
X28286316Y17748184D01*
X28285795Y17634718D01*
X28287714Y17520303D01*
X28292017Y17411535D01*
X28298651Y17315009D01*
X28307563Y17237321D01*
X28309493Y17225335D01*
X28352013Y17032260D01*
X28409947Y16861379D01*
X28483647Y16711928D01*
X28573465Y16583141D01*
X28637221Y16513513D01*
X28751800Y16418979D01*
X28877456Y16348906D01*
X29012071Y16303675D01*
X29153525Y16283668D01*
X29299697Y16289267D01*
X29448469Y16320852D01*
X29536425Y16351758D01*
X29658143Y16413646D01*
X29783594Y16502423D01*
X29853867Y16562458D01*
X29893325Y16597205D01*
X29924326Y16622698D01*
X29941972Y16634982D01*
X29944162Y16635357D01*
X29952038Y16622805D01*
X29972446Y16589636D01*
X30003646Y16538694D01*
X30043900Y16472821D01*
X30091471Y16394863D01*
X30144618Y16307662D01*
X30174201Y16259085D01*
X30400162Y15887937D01*
X30118041Y15748513D01*
X30016036Y15698433D01*
X29933403Y15658942D01*
X29865092Y15628079D01*
X29806051Y15603884D01*
X29751228Y15584394D01*
X29695574Y15567649D01*
X29634037Y15551687D01*
X29575054Y15537670D01*
X29522629Y15526823D01*
X29467802Y15518626D01*
X29405086Y15512624D01*
X29328991Y15508362D01*
X29234030Y15505385D01*
X29170027Y15504100D01*
X29078706Y15503222D01*
X28991141Y15503665D01*
X28913126Y15505300D01*
X28850456Y15508003D01*
X28808927Y15511647D01*
X28806466Y15512010D01*
X28590817Y15558665D01*
X28388307Y15629423D01*
X28199009Y15724238D01*
X28022993Y15843063D01*
X27860330Y15985852D01*
X27711092Y16152558D01*
X27603010Y16300719D01*
X27487948Y16494650D01*
X27394937Y16699453D01*
X27323527Y16916769D01*
X27273270Y17148240D01*
X27243715Y17395509D01*
X27234403Y17646593D01*
X27242062Y17889482D01*
X27266127Y18113582D01*
X27307366Y18322675D01*
X27366541Y18520539D01*
X27444418Y18710956D01*
X27453717Y18730684D01*
X27556162Y18915093D01*
X27681986Y19090576D01*
X27827626Y19253502D01*
X27989515Y19400238D01*
X28164090Y19527151D01*
X28326758Y19620247D01*
X28491087Y19693161D01*
X28655765Y19745978D01*
X28827166Y19780137D01*
X29011667Y19797074D01*
X29121973Y19799572D01*
X29280476Y19794653D01*
G37*
X29280476Y19794653D02*
X29428528Y19778445D01*
X29571966Y19749434D01*
X29716624Y19706107D01*
X29868338Y19646951D01*
X30032942Y19570452D01*
X30062585Y19555635D01*
X30130612Y19522121D01*
X30194770Y19491944D01*
X30248729Y19467986D01*
X30286154Y19453128D01*
X30291903Y19451257D01*
X30347000Y19434750D01*
X30100365Y19075951D01*
X30040066Y18988259D01*
X29984936Y18908140D01*
X29936850Y18838316D01*
X29897682Y18781505D01*
X29869308Y18740429D01*
X29853601Y18717806D01*
X29851050Y18714224D01*
X29840685Y18721714D01*
X29815174Y18744234D01*
X29779077Y18777691D01*
X29759156Y18796602D01*
X29646287Y18886374D01*
X29519528Y18954591D01*
X29410297Y18991957D01*
X29344728Y19003692D01*
X29262630Y19010844D01*
X29173658Y19013278D01*
X29087470Y19010864D01*
X29013719Y19003469D01*
X28984290Y18997805D01*
X28851647Y18952170D01*
X28732120Y18882489D01*
X28625797Y18788892D01*
X28532767Y18671503D01*
X28453119Y18530452D01*
X28386940Y18365866D01*
X28334320Y18177872D01*
X28303047Y18016935D01*
X28294888Y17945889D01*
X28289329Y17854106D01*
X28286316Y17748184D01*
X28285795Y17634718D01*
X28287714Y17520303D01*
X28292017Y17411535D01*
X28298651Y17315009D01*
X28307563Y17237321D01*
X28309493Y17225335D01*
X28352013Y17032260D01*
X28409947Y16861379D01*
X28483647Y16711928D01*
X28573465Y16583141D01*
X28637221Y16513513D01*
X28751800Y16418979D01*
X28877456Y16348906D01*
X29012071Y16303675D01*
X29153525Y16283668D01*
X29299697Y16289267D01*
X29448469Y16320852D01*
X29536425Y16351758D01*
X29658143Y16413646D01*
X29783594Y16502423D01*
X29853867Y16562458D01*
X29893325Y16597205D01*
X29924326Y16622698D01*
X29941972Y16634982D01*
X29944162Y16635357D01*
X29952038Y16622805D01*
X29972446Y16589636D01*
X30003646Y16538694D01*
X30043900Y16472821D01*
X30091471Y16394863D01*
X30144618Y16307662D01*
X30174201Y16259085D01*
X30400162Y15887937D01*
X30118041Y15748513D01*
X30016036Y15698433D01*
X29933403Y15658942D01*
X29865092Y15628079D01*
X29806051Y15603884D01*
X29751228Y15584394D01*
X29695574Y15567649D01*
X29634037Y15551687D01*
X29575054Y15537670D01*
X29522629Y15526823D01*
X29467802Y15518626D01*
X29405086Y15512624D01*
X29328991Y15508362D01*
X29234030Y15505385D01*
X29170027Y15504100D01*
X29078706Y15503222D01*
X28991141Y15503665D01*
X28913126Y15505300D01*
X28850456Y15508003D01*
X28808927Y15511647D01*
X28806466Y15512010D01*
X28590817Y15558665D01*
X28388307Y15629423D01*
X28199009Y15724238D01*
X28022993Y15843063D01*
X27860330Y15985852D01*
X27711092Y16152558D01*
X27603010Y16300719D01*
X27487948Y16494650D01*
X27394937Y16699453D01*
X27323527Y16916769D01*
X27273270Y17148240D01*
X27243715Y17395509D01*
X27234403Y17646593D01*
X27242062Y17889482D01*
X27266127Y18113582D01*
X27307366Y18322675D01*
X27366541Y18520539D01*
X27444418Y18710956D01*
X27453717Y18730684D01*
X27556162Y18915093D01*
X27681986Y19090576D01*
X27827626Y19253502D01*
X27989515Y19400238D01*
X28164090Y19527151D01*
X28326758Y19620247D01*
X28491087Y19693161D01*
X28655765Y19745978D01*
X28827166Y19780137D01*
X29011667Y19797074D01*
X29121973Y19799572D01*
X29280476Y19794653D01*
G36*
X27552108Y14315512D02*
G01*
X27575674Y14301687D01*
X27606487Y14279079D01*
X27646144Y14246622D01*
X27696242Y14203252D01*
X27758379Y14147902D01*
X27834150Y14079509D01*
X27920888Y14000876D01*
X28101511Y13837082D01*
X28107155Y14056931D01*
X28109193Y14132609D01*
X28111159Y14188966D01*
X28113488Y14229254D01*
X28116616Y14256725D01*
X28120977Y14274631D01*
X28127006Y14286223D01*
X28135138Y14294752D01*
X28139450Y14298337D01*
X28173981Y14317290D01*
X28206839Y14314519D01*
X28232904Y14298327D01*
X28259555Y14276761D01*
X28262870Y13961809D01*
X28263787Y13869181D01*
X28264254Y13796416D01*
X28264109Y13740799D01*
X28263190Y13699618D01*
X28261335Y13670157D01*
X28258383Y13649705D01*
X28254172Y13635547D01*
X28248540Y13624969D01*
X28242295Y13616486D01*
X28228783Y13600753D01*
X28215339Y13590324D01*
X28200098Y13586321D01*
X28181196Y13589866D01*
X28156767Y13602081D01*
X28124949Y13624089D01*
X28083874Y13657011D01*
X28031680Y13701969D01*
X27966500Y13760085D01*
X27892666Y13826861D01*
X27627377Y14067502D01*
X27621733Y13848371D01*
X27619691Y13772832D01*
X27617720Y13716606D01*
X27615383Y13676436D01*
X27612241Y13649064D01*
X27607858Y13631232D01*
X27601798Y13619681D01*
X27593622Y13611153D01*
X27589438Y13607678D01*
X27552457Y13588588D01*
X27517514Y13591467D01*
X27487086Y13615860D01*
X27480125Y13625674D01*
X27474699Y13637134D01*
X27470619Y13652992D01*
X27467693Y13675997D01*
X27465730Y13708898D01*
X27464539Y13754444D01*
X27463930Y13815387D01*
X27463711Y13894474D01*
X27463688Y13953004D01*
X27463762Y14044553D01*
X27464109Y14116273D01*
X27464921Y14170915D01*
X27466389Y14211228D01*
X27468703Y14239962D01*
X27472055Y14259867D01*
X27476634Y14273692D01*
X27482633Y14284188D01*
X27487086Y14290149D01*
X27498372Y14304269D01*
X27508921Y14314931D01*
X27520329Y14321068D01*
X27534192Y14321617D01*
X27552108Y14315512D01*
G37*
X27552108Y14315512D02*
X27575674Y14301687D01*
X27606487Y14279079D01*
X27646144Y14246622D01*
X27696242Y14203252D01*
X27758379Y14147902D01*
X27834150Y14079509D01*
X27920888Y14000876D01*
X28101511Y13837082D01*
X28107155Y14056931D01*
X28109193Y14132609D01*
X28111159Y14188966D01*
X28113488Y14229254D01*
X28116616Y14256725D01*
X28120977Y14274631D01*
X28127006Y14286223D01*
X28135138Y14294752D01*
X28139450Y14298337D01*
X28173981Y14317290D01*
X28206839Y14314519D01*
X28232904Y14298327D01*
X28259555Y14276761D01*
X28262870Y13961809D01*
X28263787Y13869181D01*
X28264254Y13796416D01*
X28264109Y13740799D01*
X28263190Y13699618D01*
X28261335Y13670157D01*
X28258383Y13649705D01*
X28254172Y13635547D01*
X28248540Y13624969D01*
X28242295Y13616486D01*
X28228783Y13600753D01*
X28215339Y13590324D01*
X28200098Y13586321D01*
X28181196Y13589866D01*
X28156767Y13602081D01*
X28124949Y13624089D01*
X28083874Y13657011D01*
X28031680Y13701969D01*
X27966500Y13760085D01*
X27892666Y13826861D01*
X27627377Y14067502D01*
X27621733Y13848371D01*
X27619691Y13772832D01*
X27617720Y13716606D01*
X27615383Y13676436D01*
X27612241Y13649064D01*
X27607858Y13631232D01*
X27601798Y13619681D01*
X27593622Y13611153D01*
X27589438Y13607678D01*
X27552457Y13588588D01*
X27517514Y13591467D01*
X27487086Y13615860D01*
X27480125Y13625674D01*
X27474699Y13637134D01*
X27470619Y13652992D01*
X27467693Y13675997D01*
X27465730Y13708898D01*
X27464539Y13754444D01*
X27463930Y13815387D01*
X27463711Y13894474D01*
X27463688Y13953004D01*
X27463762Y14044553D01*
X27464109Y14116273D01*
X27464921Y14170915D01*
X27466389Y14211228D01*
X27468703Y14239962D01*
X27472055Y14259867D01*
X27476634Y14273692D01*
X27482633Y14284188D01*
X27487086Y14290149D01*
X27498372Y14304269D01*
X27508921Y14314931D01*
X27520329Y14321068D01*
X27534192Y14321617D01*
X27552108Y14315512D01*
G36*
X33040836Y14313083D02*
G01*
X33064549Y14298313D01*
X33091200Y14276733D01*
X33091200Y13955187D01*
X33091115Y13861130D01*
X33090751Y13787028D01*
X33089946Y13730256D01*
X33088535Y13688192D01*
X33086355Y13658212D01*
X33083243Y13637693D01*
X33079036Y13624011D01*
X33073570Y13614544D01*
X33069694Y13609878D01*
X33038256Y13589385D01*
X33002455Y13590221D01*
X32971095Y13607696D01*
X32944444Y13629276D01*
X32944444Y14276733D01*
X32971095Y14298313D01*
X32996816Y14314011D01*
X33017822Y14319893D01*
X33040836Y14313083D01*
G37*
X33040836Y14313083D02*
X33064549Y14298313D01*
X33091200Y14276733D01*
X33091200Y13955187D01*
X33091115Y13861130D01*
X33090751Y13787028D01*
X33089946Y13730256D01*
X33088535Y13688192D01*
X33086355Y13658212D01*
X33083243Y13637693D01*
X33079036Y13624011D01*
X33073570Y13614544D01*
X33069694Y13609878D01*
X33038256Y13589385D01*
X33002455Y13590221D01*
X32971095Y13607696D01*
X32944444Y13629276D01*
X32944444Y14276733D01*
X32971095Y14298313D01*
X32996816Y14314011D01*
X33017822Y14319893D01*
X33040836Y14313083D01*
G36*
X26902141Y14314361D02*
G01*
X26970657Y14302865D01*
X27023279Y14284993D01*
X27057514Y14261461D01*
X27066843Y14248036D01*
X27076329Y14216812D01*
X27069945Y14188565D01*
X27049792Y14161778D01*
X27018477Y14149247D01*
X26973039Y14150264D01*
X26937896Y14157054D01*
X26859803Y14169989D01*
X26779996Y14171218D01*
X26690667Y14160719D01*
X26665993Y14156270D01*
X26582931Y14132852D01*
X26517949Y14098015D01*
X26471761Y14052356D01*
X26445077Y13996466D01*
X26439559Y13967572D01*
X26443171Y13908948D01*
X26466493Y13857081D01*
X26507398Y13812982D01*
X26563763Y13777661D01*
X26633462Y13752131D01*
X26714370Y13737401D01*
X26804362Y13734482D01*
X26901312Y13744385D01*
X26906786Y13745319D01*
X26945347Y13752501D01*
X26966728Y13759439D01*
X26975995Y13769733D01*
X26978216Y13786984D01*
X26978266Y13796119D01*
X26978266Y13834471D01*
X26909791Y13834471D01*
X26849322Y13838613D01*
X26808057Y13851813D01*
X26784047Y13875230D01*
X26775345Y13910024D01*
X26775239Y13914566D01*
X26780330Y13944306D01*
X26797789Y13965541D01*
X26830283Y13979594D01*
X26880479Y13987787D01*
X26929099Y13990799D01*
X26999766Y13992527D01*
X27051024Y13989890D01*
X27085983Y13980160D01*
X27107752Y13960607D01*
X27119442Y13928504D01*
X27124162Y13881122D01*
X27125022Y13818889D01*
X27123613Y13749425D01*
X27119374Y13702174D01*
X27112286Y13676948D01*
X27110911Y13674972D01*
X27071994Y13643452D01*
X27014936Y13618490D01*
X26943353Y13600620D01*
X26860864Y13590374D01*
X26771083Y13588287D01*
X26677630Y13594892D01*
X26622666Y13603004D01*
X26536456Y13627406D01*
X26456330Y13667298D01*
X26389245Y13719073D01*
X26379049Y13729421D01*
X26345920Y13772925D01*
X26316028Y13826842D01*
X26292865Y13883368D01*
X26279924Y13934701D01*
X26278364Y13954416D01*
X26285004Y13995541D01*
X26302654Y14046708D01*
X26327925Y14100566D01*
X26357433Y14149765D01*
X26383503Y14182626D01*
X26444457Y14231508D01*
X26523253Y14270415D01*
X26617065Y14298466D01*
X26723072Y14314781D01*
X26820222Y14318768D01*
X26902141Y14314361D01*
G37*
X26902141Y14314361D02*
X26970657Y14302865D01*
X27023279Y14284993D01*
X27057514Y14261461D01*
X27066843Y14248036D01*
X27076329Y14216812D01*
X27069945Y14188565D01*
X27049792Y14161778D01*
X27018477Y14149247D01*
X26973039Y14150264D01*
X26937896Y14157054D01*
X26859803Y14169989D01*
X26779996Y14171218D01*
X26690667Y14160719D01*
X26665993Y14156270D01*
X26582931Y14132852D01*
X26517949Y14098015D01*
X26471761Y14052356D01*
X26445077Y13996466D01*
X26439559Y13967572D01*
X26443171Y13908948D01*
X26466493Y13857081D01*
X26507398Y13812982D01*
X26563763Y13777661D01*
X26633462Y13752131D01*
X26714370Y13737401D01*
X26804362Y13734482D01*
X26901312Y13744385D01*
X26906786Y13745319D01*
X26945347Y13752501D01*
X26966728Y13759439D01*
X26975995Y13769733D01*
X26978216Y13786984D01*
X26978266Y13796119D01*
X26978266Y13834471D01*
X26909791Y13834471D01*
X26849322Y13838613D01*
X26808057Y13851813D01*
X26784047Y13875230D01*
X26775345Y13910024D01*
X26775239Y13914566D01*
X26780330Y13944306D01*
X26797789Y13965541D01*
X26830283Y13979594D01*
X26880479Y13987787D01*
X26929099Y13990799D01*
X26999766Y13992527D01*
X27051024Y13989890D01*
X27085983Y13980160D01*
X27107752Y13960607D01*
X27119442Y13928504D01*
X27124162Y13881122D01*
X27125022Y13818889D01*
X27123613Y13749425D01*
X27119374Y13702174D01*
X27112286Y13676948D01*
X27110911Y13674972D01*
X27071994Y13643452D01*
X27014936Y13618490D01*
X26943353Y13600620D01*
X26860864Y13590374D01*
X26771083Y13588287D01*
X26677630Y13594892D01*
X26622666Y13603004D01*
X26536456Y13627406D01*
X26456330Y13667298D01*
X26389245Y13719073D01*
X26379049Y13729421D01*
X26345920Y13772925D01*
X26316028Y13826842D01*
X26292865Y13883368D01*
X26279924Y13934701D01*
X26278364Y13954416D01*
X26285004Y13995541D01*
X26302654Y14046708D01*
X26327925Y14100566D01*
X26357433Y14149765D01*
X26383503Y14182626D01*
X26444457Y14231508D01*
X26523253Y14270415D01*
X26617065Y14298466D01*
X26723072Y14314781D01*
X26820222Y14318768D01*
X26902141Y14314361D01*
G36*
X21180621Y15787062D02*
G01*
X21180016Y15944613D01*
X21179609Y16121461D01*
X21179364Y16318742D01*
X21179247Y16537592D01*
X21179219Y16779145D01*
X21179247Y17044537D01*
X21179294Y17334903D01*
X21179324Y17651379D01*
X21179325Y17714206D01*
X21179342Y18034015D01*
X21179402Y18327491D01*
X21179512Y18595762D01*
X21179681Y18839954D01*
X21179917Y19061195D01*
X21180230Y19260612D01*
X21180629Y19439332D01*
X21181121Y19598481D01*
X21181717Y19739186D01*
X21182424Y19862576D01*
X21183251Y19969776D01*
X21184207Y20061914D01*
X21185301Y20140117D01*
X21186541Y20205511D01*
X21187936Y20259224D01*
X21189496Y20302383D01*
X21191228Y20336115D01*
X21193142Y20361547D01*
X21195246Y20379805D01*
X21197548Y20392018D01*
X21200059Y20399311D01*
X21200151Y20399493D01*
X21205322Y20410634D01*
X21209629Y20420721D01*
X21214393Y20429806D01*
X21220936Y20437940D01*
X21230579Y20445176D01*
X21244643Y20451566D01*
X21264451Y20457163D01*
X21291323Y20462019D01*
X21326581Y20466186D01*
X21371546Y20469716D01*
X21427540Y20472661D01*
X21495885Y20475075D01*
X21577900Y20477008D01*
X21674909Y20478514D01*
X21788232Y20479644D01*
X21919191Y20480450D01*
X22069107Y20480986D01*
X22239301Y20481303D01*
X22431096Y20481453D01*
X22645812Y20481489D01*
X22884771Y20481463D01*
X23149294Y20481427D01*
X23272426Y20481422D01*
X25243325Y20481422D01*
X25243325Y20365242D01*
X25255725Y20223861D01*
X25293150Y20093468D01*
X25355937Y19973290D01*
X25444420Y19862550D01*
X25474357Y19832641D01*
X25582048Y19747804D01*
X25700789Y19685931D01*
X25827054Y19646993D01*
X25957317Y19630962D01*
X26088049Y19637810D01*
X26215726Y19667509D01*
X26336819Y19720032D01*
X26447802Y19795349D01*
X26497646Y19840789D01*
X26590531Y19952200D01*
X26658641Y20074717D01*
X26701385Y20206937D01*
X26718167Y20347460D01*
X26718390Y20361285D01*
X26719270Y20481418D01*
X26772071Y20481420D01*
X26818910Y20475063D01*
X26861697Y20459596D01*
X26864525Y20457998D01*
X26874189Y20452984D01*
X26883063Y20449079D01*
X26891179Y20445145D01*
X26898571Y20440046D01*
X26905269Y20432644D01*
X26911306Y20421801D01*
X26916713Y20406380D01*
X26921524Y20385243D01*
X26925769Y20357253D01*
X26929482Y20321273D01*
X26932693Y20276165D01*
X26935436Y20220792D01*
X26937742Y20154015D01*
X26939643Y20074699D01*
X26941172Y19981705D01*
X26942360Y19873895D01*
X26943240Y19750133D01*
X26943844Y19609281D01*
X26944203Y19450202D01*
X26944349Y19271757D01*
X26944316Y19072810D01*
X26944134Y18852223D01*
X26943837Y18608859D01*
X26943455Y18341580D01*
X26943022Y18049249D01*
X26942569Y17730728D01*
X26942516Y17691922D01*
X26942110Y17371370D01*
X26941765Y17077140D01*
X26941445Y16808096D01*
X26941114Y16563100D01*
X26940735Y16341015D01*
X26940271Y16140705D01*
X26939686Y15961033D01*
X26938944Y15800862D01*
X26938008Y15659054D01*
X26936841Y15534473D01*
X26935407Y15425982D01*
X26933670Y15332445D01*
X26931592Y15252723D01*
X26929138Y15185680D01*
X26926270Y15130179D01*
X26922953Y15085084D01*
X26919150Y15049257D01*
X26914824Y15021561D01*
X26909939Y15000859D01*
X26904459Y14986015D01*
X26898346Y14975892D01*
X26891564Y14969352D01*
X26884077Y14965259D01*
X26875848Y14962476D01*
X26866841Y14959865D01*
X26857019Y14956290D01*
X26854620Y14955202D01*
X26847079Y14952756D01*
X26834458Y14950510D01*
X26815655Y14948454D01*
X26789567Y14946580D01*
X26755092Y14944881D01*
X26711129Y14943349D01*
X26656575Y14941975D01*
X26590329Y14940752D01*
X26511288Y14939671D01*
X26418351Y14938725D01*
X26310415Y14937905D01*
X26186378Y14937205D01*
X26045138Y14936614D01*
X25885593Y14936127D01*
X25706642Y14935733D01*
X25507182Y14935427D01*
X25286110Y14935199D01*
X25042326Y14935042D01*
X24774727Y14934947D01*
X24482211Y14934907D01*
X24163675Y14934914D01*
X24060493Y14934924D01*
X23734891Y14934976D01*
X23435633Y14935061D01*
X23161605Y14935189D01*
X22911690Y14935367D01*
X22684774Y14935604D01*
X22479741Y14935910D01*
X22295476Y14936292D01*
X22130864Y14936760D01*
X21984789Y14937322D01*
X21856138Y14937987D01*
X21743793Y14938764D01*
X21646640Y14939661D01*
X21563564Y14940687D01*
X21493450Y14941851D01*
X21435182Y14943161D01*
X21387645Y14944627D01*
X21349724Y14946256D01*
X21320304Y14948059D01*
X21298269Y14950042D01*
X21282504Y14952216D01*
X21271894Y14954589D01*
X21266110Y14956761D01*
X21255830Y14961096D01*
X21246392Y14964293D01*
X21237759Y14967487D01*
X21229895Y14971814D01*
X21222766Y14978408D01*
X21216335Y14988405D01*
X21210567Y15002940D01*
X21205425Y15023149D01*
X21200874Y15050167D01*
X21196879Y15085129D01*
X21193403Y15129171D01*
X21190412Y15183428D01*
X21187868Y15249035D01*
X21185737Y15327128D01*
X21183982Y15418842D01*
X21182569Y15525312D01*
X21182199Y15566179D01*
X21548630Y15566179D01*
X22843780Y15566179D01*
X22818859Y15603935D01*
X22794067Y15642735D01*
X22773074Y15679683D01*
X22755579Y15717364D01*
X22741284Y15758364D01*
X22729891Y15805269D01*
X22721101Y15860665D01*
X22714616Y15927136D01*
X22710137Y16007269D01*
X22707364Y16103650D01*
X22706001Y16218863D01*
X22705747Y16355495D01*
X22706305Y16516132D01*
X22706621Y16575770D01*
X22710189Y17215111D01*
X23115216Y16663703D01*
X23229960Y16507276D01*
X23329371Y16371064D01*
X23414524Y16253262D01*
X23486492Y16152068D01*
X23546348Y16065675D01*
X23595166Y15992278D01*
X23634019Y15930075D01*
X23663980Y15877259D01*
X23686123Y15832027D01*
X23701521Y15792574D01*
X23711248Y15757094D01*
X23716377Y15723784D01*
X23717982Y15690839D01*
X23717135Y15656455D01*
X23716919Y15652133D01*
X23712460Y15566121D01*
X25131822Y15566179D01*
X25026249Y15672630D01*
X24997601Y15701746D01*
X24970424Y15730076D01*
X24943525Y15759184D01*
X24915711Y15790632D01*
X24885789Y15825983D01*
X24852568Y15866798D01*
X24814853Y15914641D01*
X24771454Y15971073D01*
X24721176Y16037658D01*
X24662826Y16115957D01*
X24595214Y16207533D01*
X24517145Y16313948D01*
X24427426Y16436765D01*
X24324866Y16577547D01*
X24208272Y16737855D01*
X24112705Y16869354D01*
X23992765Y17034556D01*
X23888134Y17179000D01*
X23797866Y17304058D01*
X23721011Y17411100D01*
X23656623Y17501498D01*
X23603753Y17576623D01*
X23561454Y17637848D01*
X23528778Y17686542D01*
X23504776Y17724078D01*
X23488501Y17751827D01*
X23479006Y17771160D01*
X23475341Y17783449D01*
X23476443Y17789910D01*
X23489790Y17807104D01*
X23518648Y17843497D01*
X23561274Y17896928D01*
X23615929Y17965233D01*
X23680870Y18046249D01*
X23754356Y18137812D01*
X23834646Y18237760D01*
X23919999Y18343928D01*
X24008674Y18454155D01*
X24098928Y18566276D01*
X24148570Y18627908D01*
X25381141Y18627908D01*
X25432368Y18535233D01*
X25483595Y18442557D01*
X25483595Y15751530D01*
X25432368Y15658854D01*
X25381141Y15566179D01*
X25987118Y15566179D01*
X26131780Y15566221D01*
X26251270Y15566411D01*
X26347872Y15566844D01*
X26423872Y15567616D01*
X26481557Y15568822D01*
X26523213Y15570558D01*
X26551125Y15572920D01*
X26567579Y15576002D01*
X26574862Y15579901D01*
X26575259Y15584712D01*
X26571056Y15590530D01*
X26571013Y15590578D01*
X26553701Y15615620D01*
X26530778Y15656337D01*
X26510533Y15696984D01*
X26472135Y15778990D01*
X26464303Y18627908D01*
X25381141Y18627908D01*
X24148570Y18627908D01*
X24189021Y18678128D01*
X24277212Y18787548D01*
X24361760Y18892374D01*
X24440922Y18990441D01*
X24512958Y19079586D01*
X24576127Y19157647D01*
X24628687Y19222460D01*
X24668897Y19271862D01*
X24692514Y19300665D01*
X24784224Y19408374D01*
X24872454Y19505572D01*
X24954111Y19589076D01*
X25026104Y19655704D01*
X25077195Y19696553D01*
X25137607Y19740017D01*
X23748216Y19740017D01*
X23748606Y19658486D01*
X23744723Y19598546D01*
X23730124Y19542975D01*
X23707526Y19490297D01*
X23692836Y19460537D01*
X23677042Y19431049D01*
X23658700Y19399876D01*
X23636369Y19365059D01*
X23608605Y19324642D01*
X23573965Y19276666D01*
X23531007Y19219174D01*
X23478287Y19150209D01*
X23414363Y19067813D01*
X23337793Y18970028D01*
X23247133Y18854897D01*
X23140940Y18720462D01*
X23128946Y18705293D01*
X22710189Y18175740D01*
X22706136Y18762230D01*
X22705319Y18937901D01*
X22705493Y19086620D01*
X22706665Y19208877D01*
X22708845Y19305163D01*
X22712040Y19375969D01*
X22716258Y19421783D01*
X22717676Y19430473D01*
X22739923Y19522017D01*
X22769071Y19604544D01*
X22802332Y19670899D01*
X22822314Y19699042D01*
X22856792Y19740017D01*
X22202600Y19740017D01*
X22046545Y19739883D01*
X21916047Y19739449D01*
X21809204Y19738663D01*
X21724116Y19737476D01*
X21658879Y19735835D01*
X21611593Y19733691D01*
X21580357Y19730993D01*
X21563268Y19727690D01*
X21558426Y19723731D01*
X21558761Y19722854D01*
X21572629Y19701921D01*
X21595782Y19668740D01*
X21607760Y19651959D01*
X21620145Y19635212D01*
X21631277Y19620237D01*
X21641226Y19605558D01*
X21650063Y19589703D01*
X21657857Y19571197D01*
X21664679Y19548567D01*
X21670598Y19520339D01*
X21675685Y19485039D01*
X21680010Y19441194D01*
X21683643Y19387330D01*
X21686654Y19321972D01*
X21689113Y19243648D01*
X21691091Y19150884D01*
X21692656Y19042205D01*
X21693880Y18916139D01*
X21694833Y18771210D01*
X21695584Y18605946D01*
X21696203Y18418873D01*
X21696762Y18208517D01*
X21697329Y17973404D01*
X21697859Y17757411D01*
X21698359Y17516617D01*
X21698619Y17286878D01*
X21698646Y17069659D01*
X21698447Y16866430D01*
X21698028Y16678656D01*
X21697396Y16507807D01*
X21696558Y16355349D01*
X21695522Y16222749D01*
X21694294Y16111476D01*
X21692881Y16022996D01*
X21691289Y15958777D01*
X21689527Y15920287D01*
X21689193Y15916219D01*
X21677048Y15822904D01*
X21658087Y15747962D01*
X21629212Y15682558D01*
X21587324Y15617859D01*
X21582085Y15610800D01*
X21548630Y15566179D01*
X21182199Y15566179D01*
X21181460Y15647673D01*
X21180621Y15787062D01*
G37*
X21180621Y15787062D02*
X21180016Y15944613D01*
X21179609Y16121461D01*
X21179364Y16318742D01*
X21179247Y16537592D01*
X21179219Y16779145D01*
X21179247Y17044537D01*
X21179294Y17334903D01*
X21179324Y17651379D01*
X21179325Y17714206D01*
X21179342Y18034015D01*
X21179402Y18327491D01*
X21179512Y18595762D01*
X21179681Y18839954D01*
X21179917Y19061195D01*
X21180230Y19260612D01*
X21180629Y19439332D01*
X21181121Y19598481D01*
X21181717Y19739186D01*
X21182424Y19862576D01*
X21183251Y19969776D01*
X21184207Y20061914D01*
X21185301Y20140117D01*
X21186541Y20205511D01*
X21187936Y20259224D01*
X21189496Y20302383D01*
X21191228Y20336115D01*
X21193142Y20361547D01*
X21195246Y20379805D01*
X21197548Y20392018D01*
X21200059Y20399311D01*
X21200151Y20399493D01*
X21205322Y20410634D01*
X21209629Y20420721D01*
X21214393Y20429806D01*
X21220936Y20437940D01*
X21230579Y20445176D01*
X21244643Y20451566D01*
X21264451Y20457163D01*
X21291323Y20462019D01*
X21326581Y20466186D01*
X21371546Y20469716D01*
X21427540Y20472661D01*
X21495885Y20475075D01*
X21577900Y20477008D01*
X21674909Y20478514D01*
X21788232Y20479644D01*
X21919191Y20480450D01*
X22069107Y20480986D01*
X22239301Y20481303D01*
X22431096Y20481453D01*
X22645812Y20481489D01*
X22884771Y20481463D01*
X23149294Y20481427D01*
X23272426Y20481422D01*
X25243325Y20481422D01*
X25243325Y20365242D01*
X25255725Y20223861D01*
X25293150Y20093468D01*
X25355937Y19973290D01*
X25444420Y19862550D01*
X25474357Y19832641D01*
X25582048Y19747804D01*
X25700789Y19685931D01*
X25827054Y19646993D01*
X25957317Y19630962D01*
X26088049Y19637810D01*
X26215726Y19667509D01*
X26336819Y19720032D01*
X26447802Y19795349D01*
X26497646Y19840789D01*
X26590531Y19952200D01*
X26658641Y20074717D01*
X26701385Y20206937D01*
X26718167Y20347460D01*
X26718390Y20361285D01*
X26719270Y20481418D01*
X26772071Y20481420D01*
X26818910Y20475063D01*
X26861697Y20459596D01*
X26864525Y20457998D01*
X26874189Y20452984D01*
X26883063Y20449079D01*
X26891179Y20445145D01*
X26898571Y20440046D01*
X26905269Y20432644D01*
X26911306Y20421801D01*
X26916713Y20406380D01*
X26921524Y20385243D01*
X26925769Y20357253D01*
X26929482Y20321273D01*
X26932693Y20276165D01*
X26935436Y20220792D01*
X26937742Y20154015D01*
X26939643Y20074699D01*
X26941172Y19981705D01*
X26942360Y19873895D01*
X26943240Y19750133D01*
X26943844Y19609281D01*
X26944203Y19450202D01*
X26944349Y19271757D01*
X26944316Y19072810D01*
X26944134Y18852223D01*
X26943837Y18608859D01*
X26943455Y18341580D01*
X26943022Y18049249D01*
X26942569Y17730728D01*
X26942516Y17691922D01*
X26942110Y17371370D01*
X26941765Y17077140D01*
X26941445Y16808096D01*
X26941114Y16563100D01*
X26940735Y16341015D01*
X26940271Y16140705D01*
X26939686Y15961033D01*
X26938944Y15800862D01*
X26938008Y15659054D01*
X26936841Y15534473D01*
X26935407Y15425982D01*
X26933670Y15332445D01*
X26931592Y15252723D01*
X26929138Y15185680D01*
X26926270Y15130179D01*
X26922953Y15085084D01*
X26919150Y15049257D01*
X26914824Y15021561D01*
X26909939Y15000859D01*
X26904459Y14986015D01*
X26898346Y14975892D01*
X26891564Y14969352D01*
X26884077Y14965259D01*
X26875848Y14962476D01*
X26866841Y14959865D01*
X26857019Y14956290D01*
X26854620Y14955202D01*
X26847079Y14952756D01*
X26834458Y14950510D01*
X26815655Y14948454D01*
X26789567Y14946580D01*
X26755092Y14944881D01*
X26711129Y14943349D01*
X26656575Y14941975D01*
X26590329Y14940752D01*
X26511288Y14939671D01*
X26418351Y14938725D01*
X26310415Y14937905D01*
X26186378Y14937205D01*
X26045138Y14936614D01*
X25885593Y14936127D01*
X25706642Y14935733D01*
X25507182Y14935427D01*
X25286110Y14935199D01*
X25042326Y14935042D01*
X24774727Y14934947D01*
X24482211Y14934907D01*
X24163675Y14934914D01*
X24060493Y14934924D01*
X23734891Y14934976D01*
X23435633Y14935061D01*
X23161605Y14935189D01*
X22911690Y14935367D01*
X22684774Y14935604D01*
X22479741Y14935910D01*
X22295476Y14936292D01*
X22130864Y14936760D01*
X21984789Y14937322D01*
X21856138Y14937987D01*
X21743793Y14938764D01*
X21646640Y14939661D01*
X21563564Y14940687D01*
X21493450Y14941851D01*
X21435182Y14943161D01*
X21387645Y14944627D01*
X21349724Y14946256D01*
X21320304Y14948059D01*
X21298269Y14950042D01*
X21282504Y14952216D01*
X21271894Y14954589D01*
X21266110Y14956761D01*
X21255830Y14961096D01*
X21246392Y14964293D01*
X21237759Y14967487D01*
X21229895Y14971814D01*
X21222766Y14978408D01*
X21216335Y14988405D01*
X21210567Y15002940D01*
X21205425Y15023149D01*
X21200874Y15050167D01*
X21196879Y15085129D01*
X21193403Y15129171D01*
X21190412Y15183428D01*
X21187868Y15249035D01*
X21185737Y15327128D01*
X21183982Y15418842D01*
X21182569Y15525312D01*
X21182199Y15566179D01*
X21548630Y15566179D01*
X22843780Y15566179D01*
X22818859Y15603935D01*
X22794067Y15642735D01*
X22773074Y15679683D01*
X22755579Y15717364D01*
X22741284Y15758364D01*
X22729891Y15805269D01*
X22721101Y15860665D01*
X22714616Y15927136D01*
X22710137Y16007269D01*
X22707364Y16103650D01*
X22706001Y16218863D01*
X22705747Y16355495D01*
X22706305Y16516132D01*
X22706621Y16575770D01*
X22710189Y17215111D01*
X23115216Y16663703D01*
X23229960Y16507276D01*
X23329371Y16371064D01*
X23414524Y16253262D01*
X23486492Y16152068D01*
X23546348Y16065675D01*
X23595166Y15992278D01*
X23634019Y15930075D01*
X23663980Y15877259D01*
X23686123Y15832027D01*
X23701521Y15792574D01*
X23711248Y15757094D01*
X23716377Y15723784D01*
X23717982Y15690839D01*
X23717135Y15656455D01*
X23716919Y15652133D01*
X23712460Y15566121D01*
X25131822Y15566179D01*
X25026249Y15672630D01*
X24997601Y15701746D01*
X24970424Y15730076D01*
X24943525Y15759184D01*
X24915711Y15790632D01*
X24885789Y15825983D01*
X24852568Y15866798D01*
X24814853Y15914641D01*
X24771454Y15971073D01*
X24721176Y16037658D01*
X24662826Y16115957D01*
X24595214Y16207533D01*
X24517145Y16313948D01*
X24427426Y16436765D01*
X24324866Y16577547D01*
X24208272Y16737855D01*
X24112705Y16869354D01*
X23992765Y17034556D01*
X23888134Y17179000D01*
X23797866Y17304058D01*
X23721011Y17411100D01*
X23656623Y17501498D01*
X23603753Y17576623D01*
X23561454Y17637848D01*
X23528778Y17686542D01*
X23504776Y17724078D01*
X23488501Y17751827D01*
X23479006Y17771160D01*
X23475341Y17783449D01*
X23476443Y17789910D01*
X23489790Y17807104D01*
X23518648Y17843497D01*
X23561274Y17896928D01*
X23615929Y17965233D01*
X23680870Y18046249D01*
X23754356Y18137812D01*
X23834646Y18237760D01*
X23919999Y18343928D01*
X24008674Y18454155D01*
X24098928Y18566276D01*
X24148570Y18627908D01*
X25381141Y18627908D01*
X25432368Y18535233D01*
X25483595Y18442557D01*
X25483595Y15751530D01*
X25432368Y15658854D01*
X25381141Y15566179D01*
X25987118Y15566179D01*
X26131780Y15566221D01*
X26251270Y15566411D01*
X26347872Y15566844D01*
X26423872Y15567616D01*
X26481557Y15568822D01*
X26523213Y15570558D01*
X26551125Y15572920D01*
X26567579Y15576002D01*
X26574862Y15579901D01*
X26575259Y15584712D01*
X26571056Y15590530D01*
X26571013Y15590578D01*
X26553701Y15615620D01*
X26530778Y15656337D01*
X26510533Y15696984D01*
X26472135Y15778990D01*
X26464303Y18627908D01*
X25381141Y18627908D01*
X24148570Y18627908D01*
X24189021Y18678128D01*
X24277212Y18787548D01*
X24361760Y18892374D01*
X24440922Y18990441D01*
X24512958Y19079586D01*
X24576127Y19157647D01*
X24628687Y19222460D01*
X24668897Y19271862D01*
X24692514Y19300665D01*
X24784224Y19408374D01*
X24872454Y19505572D01*
X24954111Y19589076D01*
X25026104Y19655704D01*
X25077195Y19696553D01*
X25137607Y19740017D01*
X23748216Y19740017D01*
X23748606Y19658486D01*
X23744723Y19598546D01*
X23730124Y19542975D01*
X23707526Y19490297D01*
X23692836Y19460537D01*
X23677042Y19431049D01*
X23658700Y19399876D01*
X23636369Y19365059D01*
X23608605Y19324642D01*
X23573965Y19276666D01*
X23531007Y19219174D01*
X23478287Y19150209D01*
X23414363Y19067813D01*
X23337793Y18970028D01*
X23247133Y18854897D01*
X23140940Y18720462D01*
X23128946Y18705293D01*
X22710189Y18175740D01*
X22706136Y18762230D01*
X22705319Y18937901D01*
X22705493Y19086620D01*
X22706665Y19208877D01*
X22708845Y19305163D01*
X22712040Y19375969D01*
X22716258Y19421783D01*
X22717676Y19430473D01*
X22739923Y19522017D01*
X22769071Y19604544D01*
X22802332Y19670899D01*
X22822314Y19699042D01*
X22856792Y19740017D01*
X22202600Y19740017D01*
X22046545Y19739883D01*
X21916047Y19739449D01*
X21809204Y19738663D01*
X21724116Y19737476D01*
X21658879Y19735835D01*
X21611593Y19733691D01*
X21580357Y19730993D01*
X21563268Y19727690D01*
X21558426Y19723731D01*
X21558761Y19722854D01*
X21572629Y19701921D01*
X21595782Y19668740D01*
X21607760Y19651959D01*
X21620145Y19635212D01*
X21631277Y19620237D01*
X21641226Y19605558D01*
X21650063Y19589703D01*
X21657857Y19571197D01*
X21664679Y19548567D01*
X21670598Y19520339D01*
X21675685Y19485039D01*
X21680010Y19441194D01*
X21683643Y19387330D01*
X21686654Y19321972D01*
X21689113Y19243648D01*
X21691091Y19150884D01*
X21692656Y19042205D01*
X21693880Y18916139D01*
X21694833Y18771210D01*
X21695584Y18605946D01*
X21696203Y18418873D01*
X21696762Y18208517D01*
X21697329Y17973404D01*
X21697859Y17757411D01*
X21698359Y17516617D01*
X21698619Y17286878D01*
X21698646Y17069659D01*
X21698447Y16866430D01*
X21698028Y16678656D01*
X21697396Y16507807D01*
X21696558Y16355349D01*
X21695522Y16222749D01*
X21694294Y16111476D01*
X21692881Y16022996D01*
X21691289Y15958777D01*
X21689527Y15920287D01*
X21689193Y15916219D01*
X21677048Y15822904D01*
X21658087Y15747962D01*
X21629212Y15682558D01*
X21587324Y15617859D01*
X21582085Y15610800D01*
X21548630Y15566179D01*
X21182199Y15566179D01*
X21181460Y15647673D01*
X21180621Y15787062D01*
G36*
X32596887Y14317926D02*
G01*
X32616477Y14310925D01*
X32617232Y14310583D01*
X32643835Y14290282D01*
X32658492Y14269399D01*
X32661360Y14259608D01*
X32661218Y14246599D01*
X32657183Y14228065D01*
X32648368Y14201703D01*
X32633891Y14165208D01*
X32612867Y14116273D01*
X32584410Y14052595D01*
X32547637Y13971867D01*
X32527397Y13927744D01*
X32490847Y13848975D01*
X32456537Y13776537D01*
X32425774Y13713080D01*
X32399870Y13661252D01*
X32380132Y13623701D01*
X32367872Y13603076D01*
X32365446Y13600227D01*
X32334405Y13587658D01*
X32299343Y13589341D01*
X32271222Y13604628D01*
X32270076Y13605871D01*
X32258890Y13622806D01*
X32240126Y13655790D01*
X32216097Y13700580D01*
X32189119Y13752928D01*
X32179423Y13772218D01*
X32106236Y13918810D01*
X32026462Y13759567D01*
X31997989Y13704545D01*
X31971572Y13656828D01*
X31949370Y13620067D01*
X31933541Y13597916D01*
X31928176Y13593219D01*
X31886479Y13586858D01*
X31852071Y13600227D01*
X31841950Y13614514D01*
X31824436Y13646268D01*
X31800957Y13692363D01*
X31772942Y13749675D01*
X31741821Y13815080D01*
X31709021Y13885453D01*
X31675972Y13957669D01*
X31644103Y14028605D01*
X31614841Y14095135D01*
X31589617Y14154134D01*
X31569858Y14202479D01*
X31556994Y14237045D01*
X31552453Y14254707D01*
X31552499Y14255347D01*
X31563548Y14277572D01*
X31585632Y14300207D01*
X31586932Y14301192D01*
X31614075Y14316535D01*
X31639180Y14316386D01*
X31648590Y14313494D01*
X31660056Y14307242D01*
X31672232Y14294946D01*
X31686579Y14274052D01*
X31704558Y14242011D01*
X31727629Y14196272D01*
X31757252Y14134283D01*
X31783967Y14077062D01*
X31814702Y14010734D01*
X31842243Y13951086D01*
X31865160Y13901235D01*
X31882020Y13864296D01*
X31891395Y13843387D01*
X31892762Y13840115D01*
X31898911Y13845463D01*
X31913044Y13867851D01*
X31933279Y13904014D01*
X31957737Y13950683D01*
X31967470Y13969938D01*
X32000439Y14034956D01*
X32025865Y14082306D01*
X32045834Y14114741D01*
X32062432Y14135014D01*
X32077746Y14145878D01*
X32093862Y14150085D01*
X32104365Y14150560D01*
X32122892Y14148918D01*
X32139126Y14142129D01*
X32155257Y14127394D01*
X32173473Y14101916D01*
X32195961Y14062899D01*
X32224911Y14007546D01*
X32240884Y13976057D01*
X32266792Y13925873D01*
X32289389Y13884256D01*
X32306680Y13854718D01*
X32316672Y13840771D01*
X32318031Y13840190D01*
X32324483Y13851167D01*
X32338930Y13879670D01*
X32359925Y13922716D01*
X32386019Y13977322D01*
X32415768Y14040506D01*
X32430402Y14071889D01*
X32468472Y14152882D01*
X32499127Y14215204D01*
X32523959Y14260889D01*
X32544559Y14291971D01*
X32562520Y14310482D01*
X32579432Y14318456D01*
X32596887Y14317926D01*
G37*
X32596887Y14317926D02*
X32616477Y14310925D01*
X32617232Y14310583D01*
X32643835Y14290282D01*
X32658492Y14269399D01*
X32661360Y14259608D01*
X32661218Y14246599D01*
X32657183Y14228065D01*
X32648368Y14201703D01*
X32633891Y14165208D01*
X32612867Y14116273D01*
X32584410Y14052595D01*
X32547637Y13971867D01*
X32527397Y13927744D01*
X32490847Y13848975D01*
X32456537Y13776537D01*
X32425774Y13713080D01*
X32399870Y13661252D01*
X32380132Y13623701D01*
X32367872Y13603076D01*
X32365446Y13600227D01*
X32334405Y13587658D01*
X32299343Y13589341D01*
X32271222Y13604628D01*
X32270076Y13605871D01*
X32258890Y13622806D01*
X32240126Y13655790D01*
X32216097Y13700580D01*
X32189119Y13752928D01*
X32179423Y13772218D01*
X32106236Y13918810D01*
X32026462Y13759567D01*
X31997989Y13704545D01*
X31971572Y13656828D01*
X31949370Y13620067D01*
X31933541Y13597916D01*
X31928176Y13593219D01*
X31886479Y13586858D01*
X31852071Y13600227D01*
X31841950Y13614514D01*
X31824436Y13646268D01*
X31800957Y13692363D01*
X31772942Y13749675D01*
X31741821Y13815080D01*
X31709021Y13885453D01*
X31675972Y13957669D01*
X31644103Y14028605D01*
X31614841Y14095135D01*
X31589617Y14154134D01*
X31569858Y14202479D01*
X31556994Y14237045D01*
X31552453Y14254707D01*
X31552499Y14255347D01*
X31563548Y14277572D01*
X31585632Y14300207D01*
X31586932Y14301192D01*
X31614075Y14316535D01*
X31639180Y14316386D01*
X31648590Y14313494D01*
X31660056Y14307242D01*
X31672232Y14294946D01*
X31686579Y14274052D01*
X31704558Y14242011D01*
X31727629Y14196272D01*
X31757252Y14134283D01*
X31783967Y14077062D01*
X31814702Y14010734D01*
X31842243Y13951086D01*
X31865160Y13901235D01*
X31882020Y13864296D01*
X31891395Y13843387D01*
X31892762Y13840115D01*
X31898911Y13845463D01*
X31913044Y13867851D01*
X31933279Y13904014D01*
X31957737Y13950683D01*
X31967470Y13969938D01*
X32000439Y14034956D01*
X32025865Y14082306D01*
X32045834Y14114741D01*
X32062432Y14135014D01*
X32077746Y14145878D01*
X32093862Y14150085D01*
X32104365Y14150560D01*
X32122892Y14148918D01*
X32139126Y14142129D01*
X32155257Y14127394D01*
X32173473Y14101916D01*
X32195961Y14062899D01*
X32224911Y14007546D01*
X32240884Y13976057D01*
X32266792Y13925873D01*
X32289389Y13884256D01*
X32306680Y13854718D01*
X32316672Y13840771D01*
X32318031Y13840190D01*
X32324483Y13851167D01*
X32338930Y13879670D01*
X32359925Y13922716D01*
X32386019Y13977322D01*
X32415768Y14040506D01*
X32430402Y14071889D01*
X32468472Y14152882D01*
X32499127Y14215204D01*
X32523959Y14260889D01*
X32544559Y14291971D01*
X32562520Y14310482D01*
X32579432Y14318456D01*
X32596887Y14317926D01*
G36*
X25160519Y14318609D02*
G01*
X25235334Y14313379D01*
X25304916Y14305210D01*
X25365220Y14294410D01*
X25412202Y14281287D01*
X25441816Y14266147D01*
X25446362Y14261691D01*
X25462168Y14227110D01*
X25457375Y14191609D01*
X25432858Y14161235D01*
X25431688Y14160364D01*
X25417268Y14151006D01*
X25402214Y14146084D01*
X25381217Y14145487D01*
X25348965Y14149099D01*
X25300149Y14156806D01*
X25296222Y14157455D01*
X25223483Y14166391D01*
X25145005Y14170799D01*
X25066295Y14170841D01*
X24992861Y14166681D01*
X24930211Y14158481D01*
X24883852Y14146403D01*
X24880806Y14145189D01*
X24847174Y14126345D01*
X24835358Y14107275D01*
X24844608Y14088521D01*
X24874175Y14070623D01*
X24923311Y14054123D01*
X24991265Y14039564D01*
X25036577Y14032554D01*
X25130766Y14019071D01*
X25205678Y14006746D01*
X25264505Y13994511D01*
X25310437Y13981299D01*
X25346667Y13966043D01*
X25376384Y13947675D01*
X25402780Y13925129D01*
X25423992Y13902989D01*
X25449157Y13872141D01*
X25461541Y13845615D01*
X25465414Y13812934D01*
X25465555Y13800965D01*
X25462646Y13761248D01*
X25451020Y13731701D01*
X25430899Y13705474D01*
X25390006Y13665384D01*
X25344405Y13634811D01*
X25290709Y13612757D01*
X25225530Y13598225D01*
X25145478Y13590219D01*
X25047165Y13587742D01*
X25030933Y13587783D01*
X24965373Y13589142D01*
X24900356Y13592230D01*
X24842970Y13596604D01*
X24800300Y13601820D01*
X24796850Y13602419D01*
X24754426Y13612469D01*
X24718442Y13625164D01*
X24698072Y13636770D01*
X24679115Y13667388D01*
X24677795Y13703042D01*
X24694137Y13734816D01*
X24697793Y13738409D01*
X24712907Y13749084D01*
X24731807Y13753684D01*
X24761060Y13752901D01*
X24796571Y13748833D01*
X24836252Y13745198D01*
X24891877Y13742132D01*
X24956816Y13739907D01*
X25024437Y13738796D01*
X25042222Y13738723D01*
X25110094Y13738996D01*
X25159768Y13740314D01*
X25195612Y13743133D01*
X25221998Y13747910D01*
X25243296Y13755103D01*
X25256096Y13761093D01*
X25284222Y13777727D01*
X25302154Y13792792D01*
X25304775Y13797063D01*
X25299246Y13814697D01*
X25272962Y13831768D01*
X25227744Y13847502D01*
X25165414Y13861122D01*
X25147051Y13864156D01*
X25051132Y13879222D01*
X24974581Y13891814D01*
X24914442Y13902849D01*
X24867762Y13913240D01*
X24831585Y13923904D01*
X24802957Y13935755D01*
X24778924Y13949709D01*
X24756530Y13966679D01*
X24732820Y13987582D01*
X24724842Y13994911D01*
X24696869Y14022261D01*
X24682062Y14043931D01*
X24676270Y14068728D01*
X24675333Y14099977D01*
X24685647Y14161255D01*
X24716470Y14213320D01*
X24767627Y14256002D01*
X24838939Y14289135D01*
X24889822Y14303996D01*
X24945122Y14313594D01*
X25011369Y14319024D01*
X25084516Y14320593D01*
X25160519Y14318609D01*
G37*
X25160519Y14318609D02*
X25235334Y14313379D01*
X25304916Y14305210D01*
X25365220Y14294410D01*
X25412202Y14281287D01*
X25441816Y14266147D01*
X25446362Y14261691D01*
X25462168Y14227110D01*
X25457375Y14191609D01*
X25432858Y14161235D01*
X25431688Y14160364D01*
X25417268Y14151006D01*
X25402214Y14146084D01*
X25381217Y14145487D01*
X25348965Y14149099D01*
X25300149Y14156806D01*
X25296222Y14157455D01*
X25223483Y14166391D01*
X25145005Y14170799D01*
X25066295Y14170841D01*
X24992861Y14166681D01*
X24930211Y14158481D01*
X24883852Y14146403D01*
X24880806Y14145189D01*
X24847174Y14126345D01*
X24835358Y14107275D01*
X24844608Y14088521D01*
X24874175Y14070623D01*
X24923311Y14054123D01*
X24991265Y14039564D01*
X25036577Y14032554D01*
X25130766Y14019071D01*
X25205678Y14006746D01*
X25264505Y13994511D01*
X25310437Y13981299D01*
X25346667Y13966043D01*
X25376384Y13947675D01*
X25402780Y13925129D01*
X25423992Y13902989D01*
X25449157Y13872141D01*
X25461541Y13845615D01*
X25465414Y13812934D01*
X25465555Y13800965D01*
X25462646Y13761248D01*
X25451020Y13731701D01*
X25430899Y13705474D01*
X25390006Y13665384D01*
X25344405Y13634811D01*
X25290709Y13612757D01*
X25225530Y13598225D01*
X25145478Y13590219D01*
X25047165Y13587742D01*
X25030933Y13587783D01*
X24965373Y13589142D01*
X24900356Y13592230D01*
X24842970Y13596604D01*
X24800300Y13601820D01*
X24796850Y13602419D01*
X24754426Y13612469D01*
X24718442Y13625164D01*
X24698072Y13636770D01*
X24679115Y13667388D01*
X24677795Y13703042D01*
X24694137Y13734816D01*
X24697793Y13738409D01*
X24712907Y13749084D01*
X24731807Y13753684D01*
X24761060Y13752901D01*
X24796571Y13748833D01*
X24836252Y13745198D01*
X24891877Y13742132D01*
X24956816Y13739907D01*
X25024437Y13738796D01*
X25042222Y13738723D01*
X25110094Y13738996D01*
X25159768Y13740314D01*
X25195612Y13743133D01*
X25221998Y13747910D01*
X25243296Y13755103D01*
X25256096Y13761093D01*
X25284222Y13777727D01*
X25302154Y13792792D01*
X25304775Y13797063D01*
X25299246Y13814697D01*
X25272962Y13831768D01*
X25227744Y13847502D01*
X25165414Y13861122D01*
X25147051Y13864156D01*
X25051132Y13879222D01*
X24974581Y13891814D01*
X24914442Y13902849D01*
X24867762Y13913240D01*
X24831585Y13923904D01*
X24802957Y13935755D01*
X24778924Y13949709D01*
X24756530Y13966679D01*
X24732820Y13987582D01*
X24724842Y13994911D01*
X24696869Y14022261D01*
X24682062Y14043931D01*
X24676270Y14068728D01*
X24675333Y14099977D01*
X24685647Y14161255D01*
X24716470Y14213320D01*
X24767627Y14256002D01*
X24838939Y14289135D01*
X24889822Y14303996D01*
X24945122Y14313594D01*
X25011369Y14319024D01*
X25084516Y14320593D01*
X25160519Y14318609D01*
G36*
X30404046Y16710616D02*
G01*
X30411291Y16750047D01*
X30457553Y16896451D01*
X30527898Y17031157D01*
X30620998Y17152872D01*
X30735526Y17260305D01*
X30870154Y17352164D01*
X31023554Y17427156D01*
X31153973Y17472694D01*
X31241137Y17496619D01*
X31324510Y17515209D01*
X31409490Y17529068D01*
X31501479Y17538801D01*
X31605876Y17545011D01*
X31728082Y17548301D01*
X31838569Y17549228D01*
X32166191Y17550125D01*
X32159915Y17648605D01*
X32142093Y17755457D01*
X32104181Y17847300D01*
X32047794Y17921842D01*
X31974545Y17976788D01*
X31910049Y18003600D01*
X31817637Y18020498D01*
X31707625Y18022925D01*
X31585170Y18011774D01*
X31455428Y17987942D01*
X31323556Y17952322D01*
X31194712Y17905809D01*
X31101080Y17863269D01*
X31056031Y17841424D01*
X31021670Y17826168D01*
X31004195Y17820215D01*
X31003247Y17820406D01*
X30997217Y17833740D01*
X30982159Y17869084D01*
X30959491Y17923051D01*
X30930629Y17992256D01*
X30896991Y18073312D01*
X30862798Y18156034D01*
X30726100Y18487349D01*
X30823334Y18503319D01*
X30865478Y18511332D01*
X30928833Y18524791D01*
X31007971Y18542473D01*
X31097465Y18563156D01*
X31191887Y18585620D01*
X31229487Y18594749D01*
X31392151Y18632478D01*
X31534564Y18660764D01*
X31662041Y18680180D01*
X31779898Y18691298D01*
X31893452Y18694688D01*
X32008019Y18690923D01*
X32076045Y18685774D01*
X32270677Y18659879D01*
X32443043Y18618577D01*
X32593984Y18561299D01*
X32724339Y18487478D01*
X32834948Y18396544D01*
X32926649Y18287930D01*
X33000284Y18161067D01*
X33054053Y18023800D01*
X33067701Y17980015D01*
X33079587Y17939011D01*
X33089848Y17898583D01*
X33098627Y17856522D01*
X33106062Y17810621D01*
X33112294Y17758672D01*
X33117464Y17698467D01*
X33121710Y17627800D01*
X33125174Y17544463D01*
X33127995Y17446247D01*
X33130314Y17330947D01*
X33132271Y17196353D01*
X33134005Y17040259D01*
X33135657Y16860457D01*
X33136838Y16719476D01*
X33144784Y15751530D01*
X33196270Y15658382D01*
X33220651Y15613507D01*
X33238794Y15578651D01*
X33247449Y15560098D01*
X33247757Y15558841D01*
X33234528Y15557403D01*
X33196840Y15556078D01*
X33137697Y15554903D01*
X33060100Y15553915D01*
X32967050Y15553153D01*
X32861549Y15552652D01*
X32746598Y15552451D01*
X32732892Y15552449D01*
X32218027Y15552449D01*
X32218027Y15669152D01*
X32217149Y15721892D01*
X32214806Y15762226D01*
X32211435Y15783852D01*
X32209945Y15785854D01*
X32196318Y15777469D01*
X32168271Y15755460D01*
X32131817Y15724551D01*
X32130999Y15723836D01*
X32064476Y15674309D01*
X31980462Y15624577D01*
X31888451Y15579526D01*
X31797935Y15544042D01*
X31758081Y15531916D01*
X31678769Y15516515D01*
X31581449Y15506687D01*
X31475030Y15502572D01*
X31368421Y15504311D01*
X31270531Y15512044D01*
X31202027Y15523171D01*
X31034034Y15572504D01*
X30882795Y15642810D01*
X30749296Y15733219D01*
X30634520Y15842857D01*
X30539451Y15970853D01*
X30465074Y16116334D01*
X30432988Y16204611D01*
X30412879Y16290413D01*
X30399552Y16393416D01*
X30393386Y16504118D01*
X30393588Y16520227D01*
X31322162Y16520227D01*
X31329862Y16437968D01*
X31355503Y16369606D01*
X31402892Y16306182D01*
X31421093Y16287585D01*
X31485796Y16237306D01*
X31560580Y16205096D01*
X31650176Y16189504D01*
X31744526Y16188356D01*
X31834015Y16195936D01*
X31902532Y16210763D01*
X31932289Y16221899D01*
X31985922Y16252248D01*
X32042749Y16294931D01*
X32094596Y16342835D01*
X32133292Y16388851D01*
X32143568Y16405731D01*
X32151556Y16429370D01*
X32157235Y16466984D01*
X32160870Y16522167D01*
X32162725Y16598512D01*
X32163108Y16671171D01*
X32162849Y16755882D01*
X32161801Y16817134D01*
X32159559Y16858925D01*
X32155720Y16885253D01*
X32149879Y16900117D01*
X32141632Y16907513D01*
X32139081Y16908691D01*
X32116914Y16912319D01*
X32073194Y16915286D01*
X32013825Y16917325D01*
X31944710Y16918169D01*
X31929703Y16918170D01*
X31837319Y16916695D01*
X31765946Y16912310D01*
X31709233Y16904414D01*
X31662386Y16892882D01*
X31546183Y16848937D01*
X31455057Y16794909D01*
X31388219Y16729933D01*
X31344879Y16653147D01*
X31324248Y16563685D01*
X31322162Y16520227D01*
X30393588Y16520227D01*
X30394758Y16613019D01*
X30404046Y16710616D01*
G37*
X30404046Y16710616D02*
X30411291Y16750047D01*
X30457553Y16896451D01*
X30527898Y17031157D01*
X30620998Y17152872D01*
X30735526Y17260305D01*
X30870154Y17352164D01*
X31023554Y17427156D01*
X31153973Y17472694D01*
X31241137Y17496619D01*
X31324510Y17515209D01*
X31409490Y17529068D01*
X31501479Y17538801D01*
X31605876Y17545011D01*
X31728082Y17548301D01*
X31838569Y17549228D01*
X32166191Y17550125D01*
X32159915Y17648605D01*
X32142093Y17755457D01*
X32104181Y17847300D01*
X32047794Y17921842D01*
X31974545Y17976788D01*
X31910049Y18003600D01*
X31817637Y18020498D01*
X31707625Y18022925D01*
X31585170Y18011774D01*
X31455428Y17987942D01*
X31323556Y17952322D01*
X31194712Y17905809D01*
X31101080Y17863269D01*
X31056031Y17841424D01*
X31021670Y17826168D01*
X31004195Y17820215D01*
X31003247Y17820406D01*
X30997217Y17833740D01*
X30982159Y17869084D01*
X30959491Y17923051D01*
X30930629Y17992256D01*
X30896991Y18073312D01*
X30862798Y18156034D01*
X30726100Y18487349D01*
X30823334Y18503319D01*
X30865478Y18511332D01*
X30928833Y18524791D01*
X31007971Y18542473D01*
X31097465Y18563156D01*
X31191887Y18585620D01*
X31229487Y18594749D01*
X31392151Y18632478D01*
X31534564Y18660764D01*
X31662041Y18680180D01*
X31779898Y18691298D01*
X31893452Y18694688D01*
X32008019Y18690923D01*
X32076045Y18685774D01*
X32270677Y18659879D01*
X32443043Y18618577D01*
X32593984Y18561299D01*
X32724339Y18487478D01*
X32834948Y18396544D01*
X32926649Y18287930D01*
X33000284Y18161067D01*
X33054053Y18023800D01*
X33067701Y17980015D01*
X33079587Y17939011D01*
X33089848Y17898583D01*
X33098627Y17856522D01*
X33106062Y17810621D01*
X33112294Y17758672D01*
X33117464Y17698467D01*
X33121710Y17627800D01*
X33125174Y17544463D01*
X33127995Y17446247D01*
X33130314Y17330947D01*
X33132271Y17196353D01*
X33134005Y17040259D01*
X33135657Y16860457D01*
X33136838Y16719476D01*
X33144784Y15751530D01*
X33196270Y15658382D01*
X33220651Y15613507D01*
X33238794Y15578651D01*
X33247449Y15560098D01*
X33247757Y15558841D01*
X33234528Y15557403D01*
X33196840Y15556078D01*
X33137697Y15554903D01*
X33060100Y15553915D01*
X32967050Y15553153D01*
X32861549Y15552652D01*
X32746598Y15552451D01*
X32732892Y15552449D01*
X32218027Y15552449D01*
X32218027Y15669152D01*
X32217149Y15721892D01*
X32214806Y15762226D01*
X32211435Y15783852D01*
X32209945Y15785854D01*
X32196318Y15777469D01*
X32168271Y15755460D01*
X32131817Y15724551D01*
X32130999Y15723836D01*
X32064476Y15674309D01*
X31980462Y15624577D01*
X31888451Y15579526D01*
X31797935Y15544042D01*
X31758081Y15531916D01*
X31678769Y15516515D01*
X31581449Y15506687D01*
X31475030Y15502572D01*
X31368421Y15504311D01*
X31270531Y15512044D01*
X31202027Y15523171D01*
X31034034Y15572504D01*
X30882795Y15642810D01*
X30749296Y15733219D01*
X30634520Y15842857D01*
X30539451Y15970853D01*
X30465074Y16116334D01*
X30432988Y16204611D01*
X30412879Y16290413D01*
X30399552Y16393416D01*
X30393386Y16504118D01*
X30393588Y16520227D01*
X31322162Y16520227D01*
X31329862Y16437968D01*
X31355503Y16369606D01*
X31402892Y16306182D01*
X31421093Y16287585D01*
X31485796Y16237306D01*
X31560580Y16205096D01*
X31650176Y16189504D01*
X31744526Y16188356D01*
X31834015Y16195936D01*
X31902532Y16210763D01*
X31932289Y16221899D01*
X31985922Y16252248D01*
X32042749Y16294931D01*
X32094596Y16342835D01*
X32133292Y16388851D01*
X32143568Y16405731D01*
X32151556Y16429370D01*
X32157235Y16466984D01*
X32160870Y16522167D01*
X32162725Y16598512D01*
X32163108Y16671171D01*
X32162849Y16755882D01*
X32161801Y16817134D01*
X32159559Y16858925D01*
X32155720Y16885253D01*
X32149879Y16900117D01*
X32141632Y16907513D01*
X32139081Y16908691D01*
X32116914Y16912319D01*
X32073194Y16915286D01*
X32013825Y16917325D01*
X31944710Y16918169D01*
X31929703Y16918170D01*
X31837319Y16916695D01*
X31765946Y16912310D01*
X31709233Y16904414D01*
X31662386Y16892882D01*
X31546183Y16848937D01*
X31455057Y16794909D01*
X31388219Y16729933D01*
X31344879Y16653147D01*
X31324248Y16563685D01*
X31322162Y16520227D01*
X30393588Y16520227D01*
X30394758Y16613019D01*
X30404046Y16710616D01*
G36*
X35081045Y14314427D02*
G01*
X35112424Y14292184D01*
X35140133Y14264475D01*
X35140133Y13955040D01*
X35140060Y13863161D01*
X35139717Y13791120D01*
X35138914Y13736180D01*
X35137463Y13695600D01*
X35135174Y13666643D01*
X35131858Y13646569D01*
X35127327Y13632639D01*
X35121391Y13622115D01*
X35116736Y13615860D01*
X35086005Y13591287D01*
X35050718Y13588619D01*
X35018467Y13603689D01*
X35007810Y13612586D01*
X35000686Y13624403D01*
X34996389Y13643434D01*
X34994213Y13673968D01*
X34993450Y13720298D01*
X34993377Y13756089D01*
X34993377Y13890915D01*
X34496666Y13890915D01*
X34496666Y13768260D01*
X34496153Y13712173D01*
X34494098Y13673627D01*
X34489730Y13647599D01*
X34482278Y13629063D01*
X34473269Y13615860D01*
X34442366Y13591356D01*
X34407418Y13588454D01*
X34373960Y13605871D01*
X34364826Y13615001D01*
X34358374Y13627105D01*
X34354119Y13645959D01*
X34351574Y13675340D01*
X34350251Y13719023D01*
X34349665Y13780785D01*
X34349597Y13794960D01*
X34349113Y13911329D01*
X34348863Y14007233D01*
X34348945Y14084783D01*
X34349453Y14146091D01*
X34350484Y14193270D01*
X34352135Y14228430D01*
X34354501Y14253684D01*
X34357679Y14271143D01*
X34361766Y14282919D01*
X34366856Y14291125D01*
X34372488Y14297315D01*
X34404350Y14317116D01*
X34437579Y14314427D01*
X34468957Y14292184D01*
X34481655Y14277834D01*
X34489748Y14261982D01*
X34494264Y14239406D01*
X34496228Y14204882D01*
X34496666Y14153184D01*
X34496666Y14037671D01*
X34993377Y14037671D01*
X34993377Y14156204D01*
X34993884Y14210812D01*
X34995920Y14247685D01*
X35000257Y14271653D01*
X35007669Y14287545D01*
X35015955Y14297315D01*
X35047816Y14317116D01*
X35081045Y14314427D01*
G37*
X35081045Y14314427D02*
X35112424Y14292184D01*
X35140133Y14264475D01*
X35140133Y13955040D01*
X35140060Y13863161D01*
X35139717Y13791120D01*
X35138914Y13736180D01*
X35137463Y13695600D01*
X35135174Y13666643D01*
X35131858Y13646569D01*
X35127327Y13632639D01*
X35121391Y13622115D01*
X35116736Y13615860D01*
X35086005Y13591287D01*
X35050718Y13588619D01*
X35018467Y13603689D01*
X35007810Y13612586D01*
X35000686Y13624403D01*
X34996389Y13643434D01*
X34994213Y13673968D01*
X34993450Y13720298D01*
X34993377Y13756089D01*
X34993377Y13890915D01*
X34496666Y13890915D01*
X34496666Y13768260D01*
X34496153Y13712173D01*
X34494098Y13673627D01*
X34489730Y13647599D01*
X34482278Y13629063D01*
X34473269Y13615860D01*
X34442366Y13591356D01*
X34407418Y13588454D01*
X34373960Y13605871D01*
X34364826Y13615001D01*
X34358374Y13627105D01*
X34354119Y13645959D01*
X34351574Y13675340D01*
X34350251Y13719023D01*
X34349665Y13780785D01*
X34349597Y13794960D01*
X34349113Y13911329D01*
X34348863Y14007233D01*
X34348945Y14084783D01*
X34349453Y14146091D01*
X34350484Y14193270D01*
X34352135Y14228430D01*
X34354501Y14253684D01*
X34357679Y14271143D01*
X34361766Y14282919D01*
X34366856Y14291125D01*
X34372488Y14297315D01*
X34404350Y14317116D01*
X34437579Y14314427D01*
X34468957Y14292184D01*
X34481655Y14277834D01*
X34489748Y14261982D01*
X34494264Y14239406D01*
X34496228Y14204882D01*
X34496666Y14153184D01*
X34496666Y14037671D01*
X34993377Y14037671D01*
X34993377Y14156204D01*
X34993884Y14210812D01*
X34995920Y14247685D01*
X35000257Y14271653D01*
X35007669Y14287545D01*
X35015955Y14297315D01*
X35047816Y14317116D01*
X35081045Y14314427D01*
%TO.C,G\u002A\u002A\u002A*%
G36*
X97915348Y9319092D02*
G01*
X97940077Y9311975D01*
X97961168Y9302265D01*
X97984836Y9288714D01*
X98007885Y9273499D01*
X98027121Y9258798D01*
X98039349Y9246790D01*
X98041792Y9242621D01*
X98038264Y9235285D01*
X98026884Y9222325D01*
X98010010Y9206392D01*
X98007826Y9204491D01*
X97971622Y9173234D01*
X97946561Y9193373D01*
X97913095Y9212914D01*
X97875467Y9222808D01*
X97837039Y9222933D01*
X97801173Y9213165D01*
X97778346Y9199564D01*
X97758173Y9179741D01*
X97744294Y9155764D01*
X97735876Y9125181D01*
X97732088Y9085543D01*
X97731669Y9062199D01*
X97732003Y9029848D01*
X97733401Y9007075D01*
X97736458Y8990322D01*
X97741769Y8976032D01*
X97748098Y8963877D01*
X97772544Y8932359D01*
X97803553Y8911054D01*
X97839005Y8900303D01*
X97876781Y8900452D01*
X97914761Y8911843D01*
X97946936Y8931649D01*
X97971622Y8951165D01*
X98007826Y8919908D01*
X98025180Y8903803D01*
X98037312Y8890367D01*
X98041861Y8882250D01*
X98041792Y8881777D01*
X98034064Y8871837D01*
X98017794Y8858158D01*
X97996178Y8842918D01*
X97972408Y8828296D01*
X97949681Y8816470D01*
X97940077Y8812424D01*
X97900157Y8802575D01*
X97854584Y8799605D01*
X97808917Y8803536D01*
X97775732Y8811776D01*
X97731015Y8833981D01*
X97692518Y8866797D01*
X97661745Y8908570D01*
X97640199Y8957642D01*
X97638633Y8962808D01*
X97631682Y8998352D01*
X97628357Y9041416D01*
X97628640Y9086891D01*
X97632516Y9129667D01*
X97639269Y9162341D01*
X97659670Y9211382D01*
X97689124Y9253556D01*
X97725997Y9287121D01*
X97768654Y9310331D01*
X97782440Y9315045D01*
X97825247Y9323236D01*
X97871401Y9324548D01*
X97915348Y9319092D01*
G37*
G36*
X97419561Y8501114D02*
G01*
X97443388Y8494869D01*
X97466447Y8486197D01*
X97485305Y8476499D01*
X97496530Y8467173D01*
X97498210Y8462825D01*
X97493992Y8454189D01*
X97482948Y8438912D01*
X97467250Y8419938D01*
X97463015Y8415142D01*
X97427979Y8375977D01*
X97410831Y8387212D01*
X97389702Y8395328D01*
X97362444Y8398453D01*
X97334669Y8396593D01*
X97311986Y8389750D01*
X97307607Y8387149D01*
X97293149Y8375980D01*
X97281592Y8363712D01*
X97272617Y8348797D01*
X97265908Y8329690D01*
X97261146Y8304844D01*
X97258014Y8272711D01*
X97256195Y8231746D01*
X97255370Y8180402D01*
X97255213Y8131967D01*
X97255213Y7977853D01*
X97156636Y7977853D01*
X97156636Y8497025D01*
X97255213Y8497025D01*
X97255213Y8470738D01*
X97256574Y8452014D01*
X97261562Y8445629D01*
X97271535Y8451069D01*
X97281437Y8460813D01*
X97301888Y8476072D01*
X97330688Y8489434D01*
X97363041Y8499147D01*
X97394154Y8503459D01*
X97398396Y8503532D01*
X97419561Y8501114D01*
G37*
G36*
X97526002Y8350066D02*
G01*
X97543932Y8397581D01*
X97544322Y8398349D01*
X97556182Y8416341D01*
X97573546Y8436899D01*
X97585426Y8448787D01*
X97626227Y8478027D01*
X97671445Y8495941D01*
X97719007Y8502634D01*
X97766840Y8498212D01*
X97812871Y8482778D01*
X97855029Y8456437D01*
X97878969Y8433960D01*
X97900691Y8406995D01*
X97916281Y8379044D01*
X97926842Y8346943D01*
X97933479Y8307532D01*
X97936704Y8268655D01*
X97940661Y8201294D01*
X97775375Y8201294D01*
X97722057Y8201149D01*
X97680681Y8200674D01*
X97650049Y8199810D01*
X97628962Y8198497D01*
X97616223Y8196676D01*
X97610632Y8194286D01*
X97610127Y8193079D01*
X97613223Y8173518D01*
X97620923Y8148908D01*
X97631045Y8125455D01*
X97638116Y8113452D01*
X97662070Y8090467D01*
X97693421Y8076147D01*
X97729522Y8070678D01*
X97767727Y8074245D01*
X97805391Y8087034D01*
X97827969Y8100130D01*
X97853124Y8117563D01*
X97889554Y8086439D01*
X97908022Y8070145D01*
X97917764Y8058267D01*
X97918285Y8048217D01*
X97909090Y8037409D01*
X97889683Y8023256D01*
X97875655Y8013892D01*
X97828915Y7990290D01*
X97776557Y7976616D01*
X97722330Y7973579D01*
X97685666Y7978077D01*
X97639544Y7992748D01*
X97598452Y8016063D01*
X97565070Y8046157D01*
X97544400Y8076376D01*
X97526317Y8123759D01*
X97515435Y8178471D01*
X97511754Y8236860D01*
X97514761Y8286727D01*
X97610419Y8286727D01*
X97833532Y8286727D01*
X97833532Y8301764D01*
X97828929Y8323382D01*
X97817035Y8348445D01*
X97800720Y8372060D01*
X97782857Y8389338D01*
X97781628Y8390180D01*
X97753905Y8401698D01*
X97720929Y8405116D01*
X97687894Y8400308D01*
X97669134Y8392865D01*
X97647562Y8375229D01*
X97629117Y8348770D01*
X97616589Y8317807D01*
X97614364Y8308086D01*
X97610419Y8286727D01*
X97514761Y8286727D01*
X97515276Y8295276D01*
X97526002Y8350066D01*
G37*
G36*
X94127037Y9318500D02*
G01*
X94127037Y9294697D01*
X94127496Y9279306D01*
X94130510Y9274907D01*
X94138535Y9279350D01*
X94141824Y9281745D01*
X94186181Y9307596D01*
X94231586Y9321838D01*
X94276396Y9324798D01*
X94318964Y9316805D01*
X94357647Y9298187D01*
X94390799Y9269273D01*
X94416775Y9230391D01*
X94418666Y9226494D01*
X94423420Y9215481D01*
X94426959Y9204017D01*
X94429460Y9190020D01*
X94431100Y9171406D01*
X94432056Y9146093D01*
X94432506Y9111998D01*
X94432625Y9067038D01*
X94432626Y9062199D01*
X94432446Y9012472D01*
X94431631Y8973739D01*
X94429768Y8943854D01*
X94426445Y8920668D01*
X94421249Y8902036D01*
X94413768Y8885810D01*
X94403589Y8869843D01*
X94392881Y8855360D01*
X94364263Y8828102D01*
X94328475Y8809831D01*
X94288069Y8800690D01*
X94245600Y8800823D01*
X94203620Y8810374D01*
X94164682Y8829486D01*
X94148396Y8841612D01*
X94127037Y8859642D01*
X94127037Y8441991D01*
X94145718Y8459889D01*
X94170473Y8477408D01*
X94202761Y8491900D01*
X94237005Y8501244D01*
X94260659Y8503597D01*
X94306516Y8497197D01*
X94349091Y8478558D01*
X94383650Y8451335D01*
X94397557Y8436843D01*
X94408755Y8423025D01*
X94417537Y8408291D01*
X94424195Y8391055D01*
X94429022Y8369727D01*
X94432309Y8342719D01*
X94434348Y8308443D01*
X94435433Y8265310D01*
X94435855Y8211733D01*
X94435912Y8167264D01*
X94435912Y7977853D01*
X94338463Y7977853D01*
X94336256Y8150362D01*
X94335521Y8202907D01*
X94334732Y8243997D01*
X94333753Y8275324D01*
X94332448Y8298577D01*
X94330681Y8315445D01*
X94328317Y8327618D01*
X94325220Y8336786D01*
X94321254Y8344639D01*
X94320550Y8345851D01*
X94298143Y8372915D01*
X94270015Y8390503D01*
X94238761Y8398618D01*
X94206978Y8397260D01*
X94177260Y8386432D01*
X94152203Y8366134D01*
X94138548Y8345742D01*
X94135012Y8337351D01*
X94132272Y8326855D01*
X94130230Y8312586D01*
X94128789Y8292875D01*
X94127849Y8266050D01*
X94127312Y8230443D01*
X94127081Y8184384D01*
X94127048Y8150362D01*
X94127037Y7977853D01*
X94021889Y7977853D01*
X94021889Y9061660D01*
X94127527Y9061660D01*
X94128566Y9026502D01*
X94131173Y8995323D01*
X94135301Y8972163D01*
X94136559Y8968116D01*
X94154216Y8934519D01*
X94178971Y8911858D01*
X94210181Y8900447D01*
X94247204Y8900597D01*
X94266563Y8904787D01*
X94292546Y8918588D01*
X94312608Y8943381D01*
X94326482Y8978294D01*
X94333904Y9022455D01*
X94334609Y9074992D01*
X94330948Y9116405D01*
X94323184Y9157004D01*
X94310904Y9186538D01*
X94293071Y9206617D01*
X94268650Y9218851D01*
X94264127Y9220170D01*
X94227073Y9224287D01*
X94193145Y9216997D01*
X94164494Y9199452D01*
X94143269Y9172802D01*
X94134323Y9150610D01*
X94130356Y9127753D01*
X94128108Y9096756D01*
X94127527Y9061660D01*
X94021889Y9061660D01*
X94021889Y9318500D01*
X94127037Y9318500D01*
G37*
G36*
X98108403Y9217405D02*
G01*
X98135431Y9258741D01*
X98170503Y9290357D01*
X98213333Y9311840D01*
X98263639Y9322779D01*
X98274674Y9323672D01*
X98325089Y9322473D01*
X98368759Y9311700D01*
X98408849Y9290416D01*
X98423485Y9279629D01*
X98456630Y9245681D01*
X98480881Y9203081D01*
X98496412Y9151372D01*
X98503396Y9090094D01*
X98503855Y9067564D01*
X98503855Y9022769D01*
X98176091Y9022769D01*
X98179891Y8998124D01*
X98190075Y8961962D01*
X98209265Y8933273D01*
X98221330Y8921861D01*
X98253314Y8903074D01*
X98290211Y8894587D01*
X98328977Y8896241D01*
X98366571Y8907875D01*
X98399947Y8929327D01*
X98402284Y8931409D01*
X98409600Y8937317D01*
X98416347Y8938682D01*
X98425447Y8934417D01*
X98439819Y8923434D01*
X98452907Y8912568D01*
X98490093Y8881475D01*
X98469126Y8859836D01*
X98451012Y8844563D01*
X98427253Y8828811D01*
X98412151Y8820581D01*
X98376518Y8808283D01*
X98333652Y8801270D01*
X98288452Y8799769D01*
X98245814Y8804006D01*
X98217096Y8811583D01*
X98172109Y8834009D01*
X98136254Y8864784D01*
X98109218Y8904422D01*
X98090689Y8953437D01*
X98080351Y9012344D01*
X98078421Y9039198D01*
X98079614Y9107222D01*
X98081019Y9115512D01*
X98177251Y9115512D01*
X98180304Y9112480D01*
X98188416Y9110421D01*
X98203345Y9109150D01*
X98226850Y9108482D01*
X98260689Y9108230D01*
X98286543Y9108202D01*
X98327508Y9108303D01*
X98357138Y9108731D01*
X98377241Y9109671D01*
X98389623Y9111308D01*
X98396094Y9113828D01*
X98398461Y9117416D01*
X98398670Y9119703D01*
X98392496Y9153548D01*
X98375835Y9184458D01*
X98351145Y9209550D01*
X98320883Y9225940D01*
X98304667Y9229936D01*
X98269791Y9229148D01*
X98237384Y9217469D01*
X98210237Y9196749D01*
X98191141Y9168839D01*
X98184949Y9150518D01*
X98180708Y9132408D01*
X98177497Y9119703D01*
X98177251Y9115512D01*
X98081019Y9115512D01*
X98089702Y9166761D01*
X98108403Y9217405D01*
G37*
G36*
X95314631Y8500551D02*
G01*
X95345205Y8492619D01*
X95372337Y8481606D01*
X95384734Y8474071D01*
X95389976Y8469825D01*
X95392284Y8465454D01*
X95390602Y8459136D01*
X95383876Y8449051D01*
X95371051Y8433379D01*
X95351072Y8410300D01*
X95341271Y8399080D01*
X95328847Y8385598D01*
X95320398Y8380716D01*
X95311356Y8383049D01*
X95303331Y8387579D01*
X95276865Y8396741D01*
X95245600Y8398171D01*
X95215204Y8392085D01*
X95197569Y8383530D01*
X95184797Y8374404D01*
X95174676Y8364945D01*
X95166899Y8353570D01*
X95161159Y8338698D01*
X95157149Y8318747D01*
X95154560Y8292136D01*
X95153085Y8257282D01*
X95152418Y8212604D01*
X95152249Y8156520D01*
X95152248Y8150362D01*
X95152238Y7977853D01*
X95047089Y7977853D01*
X95047089Y8497025D01*
X95152238Y8497025D01*
X95152238Y8443831D01*
X95176882Y8463595D01*
X95213661Y8486187D01*
X95254866Y8500065D01*
X95286615Y8503597D01*
X95314631Y8500551D01*
G37*
G36*
X96033065Y13228366D02*
G01*
X96083104Y13228145D01*
X96130336Y13227717D01*
X96172989Y13227082D01*
X96209292Y13226240D01*
X96237472Y13225190D01*
X96255757Y13223934D01*
X96262156Y13222729D01*
X96266034Y13214452D01*
X96271907Y13193374D01*
X96279734Y13159683D01*
X96289474Y13113563D01*
X96301087Y13055200D01*
X96314534Y12984780D01*
X96318646Y12962796D01*
X96331330Y12895295D01*
X96342041Y12839694D01*
X96351015Y12794934D01*
X96358491Y12759960D01*
X96364705Y12733712D01*
X96369897Y12715136D01*
X96374302Y12703172D01*
X96378160Y12696765D01*
X96378508Y12696405D01*
X96387710Y12690773D01*
X96407414Y12681010D01*
X96435922Y12667880D01*
X96471538Y12652144D01*
X96512565Y12634566D01*
X96557305Y12615907D01*
X96561889Y12614023D01*
X96613617Y12592925D01*
X96654635Y12576554D01*
X96686306Y12564445D01*
X96709995Y12556130D01*
X96727066Y12551144D01*
X96738881Y12549019D01*
X96746804Y12549289D01*
X96749185Y12549962D01*
X96758229Y12554989D01*
X96776755Y12566628D01*
X96803445Y12584006D01*
X96836980Y12606248D01*
X96876040Y12632478D01*
X96919306Y12661821D01*
X96965460Y12693403D01*
X96966315Y12693991D01*
X97012319Y12725513D01*
X97055276Y12754758D01*
X97093901Y12780865D01*
X97126905Y12802972D01*
X97153002Y12820215D01*
X97170903Y12831734D01*
X97179322Y12836665D01*
X97179418Y12836704D01*
X97184170Y12836402D01*
X97191926Y12832301D01*
X97203500Y12823660D01*
X97219705Y12809738D01*
X97241354Y12789794D01*
X97269262Y12763086D01*
X97304240Y12728875D01*
X97347103Y12686419D01*
X97375938Y12657683D01*
X97422144Y12611522D01*
X97459846Y12573695D01*
X97489860Y12543273D01*
X97513004Y12519325D01*
X97530096Y12500920D01*
X97541952Y12487129D01*
X97549392Y12477020D01*
X97553232Y12469664D01*
X97554289Y12464129D01*
X97553382Y12459486D01*
X97552326Y12456942D01*
X97546927Y12447774D01*
X97534945Y12429111D01*
X97517262Y12402273D01*
X97494762Y12368583D01*
X97468327Y12329363D01*
X97438840Y12285933D01*
X97407184Y12239615D01*
X97406143Y12238098D01*
X97369571Y12184610D01*
X97339926Y12140822D01*
X97316563Y12105689D01*
X97298841Y12078167D01*
X97286116Y12057209D01*
X97277747Y12041771D01*
X97273090Y12030806D01*
X97271503Y12023271D01*
X97271830Y12019647D01*
X97275295Y12009961D01*
X97283148Y11990171D01*
X97294559Y11962239D01*
X97308701Y11928125D01*
X97324745Y11889791D01*
X97341863Y11849197D01*
X97359226Y11808305D01*
X97376006Y11769075D01*
X97391374Y11733469D01*
X97404501Y11703446D01*
X97414561Y11680969D01*
X97418392Y11672729D01*
X97433031Y11653641D01*
X97451998Y11644471D01*
X97463867Y11641689D01*
X97486989Y11636863D01*
X97519691Y11630319D01*
X97560297Y11622386D01*
X97607133Y11613391D01*
X97658524Y11603662D01*
X97700894Y11595738D01*
X97753948Y11585700D01*
X97803097Y11576078D01*
X97846791Y11567200D01*
X97883480Y11559393D01*
X97911617Y11552986D01*
X97929652Y11548307D01*
X97935836Y11545972D01*
X97938299Y11537518D01*
X97940436Y11517679D01*
X97942243Y11488211D01*
X97943717Y11450867D01*
X97944853Y11407400D01*
X97945649Y11359565D01*
X97946101Y11309115D01*
X97946204Y11257804D01*
X97945955Y11207386D01*
X97945352Y11159614D01*
X97944389Y11116242D01*
X97943064Y11079023D01*
X97941373Y11049712D01*
X97939311Y11030062D01*
X97936922Y11021863D01*
X97928730Y11019100D01*
X97909117Y11014305D01*
X97879594Y11007793D01*
X97841672Y10999879D01*
X97796861Y10990880D01*
X97746674Y10981111D01*
X97695409Y10971408D01*
X97641214Y10961113D01*
X97590707Y10951181D01*
X97545447Y10941946D01*
X97506993Y10933740D01*
X97476905Y10926894D01*
X97456741Y10921741D01*
X97448263Y10918759D01*
X97442036Y10910256D01*
X97432059Y10891321D01*
X97419066Y10863775D01*
X97403792Y10829442D01*
X97386972Y10790144D01*
X97369339Y10747703D01*
X97351629Y10703943D01*
X97334576Y10660686D01*
X97318915Y10619755D01*
X97305381Y10582972D01*
X97294707Y10552161D01*
X97287629Y10529143D01*
X97284881Y10515741D01*
X97285039Y10513771D01*
X97289599Y10505541D01*
X97300762Y10487827D01*
X97317648Y10461950D01*
X97339380Y10429235D01*
X97365080Y10391003D01*
X97393870Y10348577D01*
X97420926Y10309025D01*
X97451665Y10264055D01*
X97480046Y10222153D01*
X97505198Y10184635D01*
X97526249Y10152817D01*
X97542327Y10128016D01*
X97552562Y10111548D01*
X97556040Y10104998D01*
X97554356Y10099152D01*
X97546972Y10088331D01*
X97533305Y10071899D01*
X97512771Y10049219D01*
X97484786Y10019654D01*
X97448766Y9982570D01*
X97404128Y9937328D01*
X97379325Y9912384D01*
X97332714Y9865719D01*
X97294381Y9827659D01*
X97263434Y9797395D01*
X97238982Y9774115D01*
X97220131Y9757010D01*
X97205988Y9745270D01*
X97195663Y9738085D01*
X97188261Y9734646D01*
X97182923Y9734136D01*
X97173777Y9738331D01*
X97155219Y9749169D01*
X97128616Y9765770D01*
X97095334Y9787254D01*
X97056741Y9812743D01*
X97014201Y9841356D01*
X96978165Y9865961D01*
X96920067Y9905547D01*
X96871128Y9938164D01*
X96831634Y9963630D01*
X96801867Y9981767D01*
X96782112Y9992396D01*
X96773249Y9995395D01*
X96761763Y9992362D01*
X96741320Y9984017D01*
X96714418Y9971491D01*
X96683557Y9955914D01*
X96669613Y9948517D01*
X96631864Y9928718D01*
X96604193Y9915487D01*
X96585560Y9908384D01*
X96574924Y9906969D01*
X96572991Y9907677D01*
X96568632Y9914827D01*
X96559894Y9932947D01*
X96547273Y9960834D01*
X96531267Y9997284D01*
X96512371Y10041093D01*
X96491082Y10091058D01*
X96467896Y10145976D01*
X96443311Y10204642D01*
X96417823Y10265854D01*
X96391928Y10328408D01*
X96366123Y10391100D01*
X96340905Y10452727D01*
X96316769Y10512085D01*
X96294213Y10567971D01*
X96273734Y10619181D01*
X96255827Y10664512D01*
X96240990Y10702760D01*
X96229718Y10732721D01*
X96222509Y10753193D01*
X96219859Y10762971D01*
X96219895Y10763477D01*
X96227640Y10773996D01*
X96242079Y10785388D01*
X96244791Y10787038D01*
X96272526Y10805075D01*
X96305500Y10829356D01*
X96339768Y10856722D01*
X96371386Y10884015D01*
X96396408Y10908075D01*
X96397906Y10909659D01*
X96447374Y10970713D01*
X96488561Y11038669D01*
X96519515Y11110081D01*
X96529517Y11142174D01*
X96536305Y11176161D01*
X96541135Y11218656D01*
X96543816Y11265138D01*
X96544157Y11311091D01*
X96541967Y11351997D01*
X96539260Y11372813D01*
X96518542Y11454546D01*
X96486138Y11530897D01*
X96442736Y11600924D01*
X96389021Y11663683D01*
X96325680Y11718231D01*
X96255803Y11762345D01*
X96181975Y11794573D01*
X96104008Y11815095D01*
X96023739Y11823910D01*
X95943006Y11821018D01*
X95863645Y11806420D01*
X95787493Y11780115D01*
X95750769Y11762345D01*
X95678759Y11716649D01*
X95615710Y11661828D01*
X95562309Y11598826D01*
X95519242Y11528586D01*
X95487196Y11452051D01*
X95467311Y11372813D01*
X95463459Y11337296D01*
X95462256Y11293935D01*
X95463511Y11247247D01*
X95467033Y11201751D01*
X95472632Y11161965D01*
X95477054Y11142174D01*
X95502810Y11070331D01*
X95539669Y11000406D01*
X95585680Y10935845D01*
X95608665Y10909659D01*
X95633035Y10885968D01*
X95664295Y10858808D01*
X95698501Y10831337D01*
X95731709Y10806716D01*
X95759973Y10788102D01*
X95761781Y10787038D01*
X95776840Y10775976D01*
X95786064Y10764971D01*
X95786676Y10763477D01*
X95784834Y10755598D01*
X95778351Y10736825D01*
X95767722Y10708362D01*
X95753444Y10671411D01*
X95736014Y10627178D01*
X95715929Y10576864D01*
X95693685Y10521674D01*
X95669778Y10462811D01*
X95644706Y10401478D01*
X95618964Y10338880D01*
X95593050Y10276220D01*
X95567459Y10214701D01*
X95542689Y10155526D01*
X95519236Y10099900D01*
X95497596Y10049026D01*
X95478267Y10004107D01*
X95461744Y9966347D01*
X95448525Y9936949D01*
X95439105Y9917118D01*
X95433982Y9908055D01*
X95433581Y9907677D01*
X95425357Y9907309D01*
X95409480Y9912485D01*
X95384910Y9923643D01*
X95350604Y9941224D01*
X95336958Y9948517D01*
X95305160Y9965063D01*
X95276240Y9979047D01*
X95252697Y9989339D01*
X95237030Y9994808D01*
X95233322Y9995395D01*
X95222585Y9991502D01*
X95201586Y9979943D01*
X95170611Y9960897D01*
X95129942Y9934544D01*
X95079865Y9901063D01*
X95028406Y9865961D01*
X94983690Y9835478D01*
X94941825Y9807415D01*
X94904175Y9782650D01*
X94872109Y9762063D01*
X94846992Y9746535D01*
X94830191Y9736944D01*
X94823648Y9734136D01*
X94818266Y9734659D01*
X94810847Y9738122D01*
X94800497Y9745336D01*
X94786325Y9757111D01*
X94767437Y9774257D01*
X94742942Y9797584D01*
X94711946Y9827901D01*
X94673558Y9866019D01*
X94627246Y9912384D01*
X94578239Y9961790D01*
X94538133Y10002732D01*
X94506342Y10035847D01*
X94482285Y10061771D01*
X94465376Y10081139D01*
X94455032Y10094589D01*
X94450669Y10102757D01*
X94450531Y10104998D01*
X94454908Y10113054D01*
X94465896Y10130600D01*
X94482622Y10156319D01*
X94504215Y10188896D01*
X94529804Y10227015D01*
X94558517Y10269358D01*
X94585646Y10309025D01*
X94616421Y10354037D01*
X94644875Y10396013D01*
X94670129Y10433632D01*
X94691306Y10465569D01*
X94707528Y10490502D01*
X94717917Y10507108D01*
X94721532Y10513771D01*
X94720338Y10523682D01*
X94714576Y10543798D01*
X94704981Y10572295D01*
X94692289Y10607351D01*
X94677234Y10647143D01*
X94660549Y10689849D01*
X94642971Y10733646D01*
X94625233Y10776711D01*
X94608071Y10817222D01*
X94592218Y10853356D01*
X94578409Y10883290D01*
X94567379Y10905201D01*
X94559863Y10917268D01*
X94558309Y10918759D01*
X94548777Y10922039D01*
X94527870Y10927321D01*
X94497147Y10934272D01*
X94458167Y10942561D01*
X94412490Y10951856D01*
X94361675Y10961823D01*
X94311163Y10971408D01*
X94257268Y10981616D01*
X94207314Y10991354D01*
X94162815Y11000306D01*
X94125279Y11008156D01*
X94096218Y11014590D01*
X94077143Y11019291D01*
X94069649Y11021863D01*
X94067221Y11030311D01*
X94065166Y11050144D01*
X94063481Y11079607D01*
X94062163Y11116947D01*
X94061206Y11160410D01*
X94060609Y11208244D01*
X94060366Y11258692D01*
X94060476Y11310004D01*
X94060933Y11360423D01*
X94061735Y11408197D01*
X94062877Y11451572D01*
X94064357Y11488795D01*
X94066169Y11518111D01*
X94068312Y11537766D01*
X94070735Y11545972D01*
X94079220Y11548970D01*
X94099091Y11553968D01*
X94128800Y11560637D01*
X94166797Y11568650D01*
X94211533Y11577679D01*
X94261459Y11587396D01*
X94305677Y11595738D01*
X94359469Y11605813D01*
X94410017Y11615411D01*
X94455646Y11624204D01*
X94494684Y11631864D01*
X94525455Y11638064D01*
X94546284Y11642476D01*
X94554574Y11644471D01*
X94576131Y11655819D01*
X94588180Y11672729D01*
X94596260Y11690371D01*
X94607852Y11716607D01*
X94622126Y11749475D01*
X94638255Y11787014D01*
X94655410Y11827263D01*
X94672762Y11868261D01*
X94689483Y11908047D01*
X94704745Y11944660D01*
X94717718Y11976140D01*
X94727576Y12000525D01*
X94733488Y12015854D01*
X94734743Y12019653D01*
X94734855Y12025583D01*
X94732292Y12034245D01*
X94726400Y12046711D01*
X94716522Y12064051D01*
X94702004Y12087335D01*
X94682190Y12117633D01*
X94656424Y12156016D01*
X94624051Y12203554D01*
X94605964Y12229951D01*
X94567395Y12286172D01*
X94535633Y12332566D01*
X94510058Y12370150D01*
X94490049Y12399940D01*
X94474985Y12422951D01*
X94464245Y12440201D01*
X94457209Y12452706D01*
X94453255Y12461482D01*
X94451763Y12467545D01*
X94452112Y12471911D01*
X94453682Y12475598D01*
X94454739Y12477520D01*
X94460751Y12484711D01*
X94475039Y12500051D01*
X94496537Y12522443D01*
X94524177Y12550794D01*
X94556890Y12584010D01*
X94593609Y12620994D01*
X94633266Y12660654D01*
X94638046Y12665416D01*
X94684707Y12711739D01*
X94723033Y12749422D01*
X94753870Y12779231D01*
X94778065Y12801932D01*
X94796465Y12818289D01*
X94809916Y12829069D01*
X94819266Y12835036D01*
X94825359Y12836957D01*
X94827443Y12836641D01*
X94835598Y12831915D01*
X94853268Y12820569D01*
X94879162Y12803467D01*
X94911990Y12781473D01*
X94950463Y12755451D01*
X94993291Y12726267D01*
X95039183Y12694784D01*
X95040317Y12694003D01*
X95086458Y12662381D01*
X95129746Y12632981D01*
X95168859Y12606679D01*
X95202478Y12584354D01*
X95229279Y12566882D01*
X95247941Y12555142D01*
X95257143Y12550011D01*
X95257187Y12549995D01*
X95263894Y12548837D01*
X95273761Y12549820D01*
X95288164Y12553416D01*
X95308481Y12560093D01*
X95336089Y12570321D01*
X95372365Y12584570D01*
X95418686Y12603309D01*
X95444683Y12613951D01*
X95489711Y12632683D01*
X95531202Y12650423D01*
X95567459Y12666405D01*
X95596781Y12679866D01*
X95617468Y12690041D01*
X95627823Y12696166D01*
X95628219Y12696521D01*
X95632042Y12702366D01*
X95636334Y12713416D01*
X95641339Y12730748D01*
X95647297Y12755442D01*
X95654453Y12788576D01*
X95663047Y12831230D01*
X95673322Y12884480D01*
X95685520Y12949407D01*
X95688032Y12962922D01*
X95702085Y13037485D01*
X95714254Y13099634D01*
X95724515Y13149259D01*
X95732845Y13186251D01*
X95739220Y13210499D01*
X95743616Y13221893D01*
X95744366Y13222699D01*
X95753064Y13224129D01*
X95773131Y13225353D01*
X95802796Y13226371D01*
X95840286Y13227183D01*
X95883831Y13227789D01*
X95931656Y13228188D01*
X95981992Y13228380D01*
X96033065Y13228366D01*
G37*
G36*
X93507400Y9116763D02*
G01*
X93508339Y9125098D01*
X93518656Y9179885D01*
X93535406Y9224248D01*
X93559599Y9259734D01*
X93592247Y9287892D01*
X93627137Y9307101D01*
X93649764Y9316707D01*
X93668405Y9322215D01*
X93688152Y9324497D01*
X93714098Y9324427D01*
X93725714Y9324004D01*
X93780194Y9316547D01*
X93826551Y9298810D01*
X93865085Y9270600D01*
X93896099Y9231726D01*
X93909568Y9206779D01*
X93915907Y9192634D01*
X93920442Y9179658D01*
X93923475Y9165299D01*
X93925306Y9147007D01*
X93926236Y9122233D01*
X93926564Y9088426D01*
X93926597Y9062199D01*
X93926489Y9021610D01*
X93925963Y8991613D01*
X93924719Y8969659D01*
X93922457Y8953198D01*
X93918876Y8939678D01*
X93913676Y8926551D01*
X93909568Y8917620D01*
X93882889Y8875269D01*
X93847033Y8839724D01*
X93811591Y8817203D01*
X93790772Y8808951D01*
X93766450Y8803851D01*
X93734458Y8801127D01*
X93722872Y8800661D01*
X93693088Y8800094D01*
X93671791Y8801282D01*
X93654358Y8805024D01*
X93636165Y8812118D01*
X93624235Y8817702D01*
X93580494Y8845689D01*
X93545848Y8883163D01*
X93529149Y8910764D01*
X93518537Y8939965D01*
X93510720Y8978622D01*
X93506035Y9023278D01*
X93505030Y9062199D01*
X93611151Y9062199D01*
X93611387Y9025016D01*
X93612308Y8998301D01*
X93614231Y8979382D01*
X93617473Y8965590D01*
X93622354Y8954253D01*
X93624445Y8950479D01*
X93642297Y8929943D01*
X93668049Y8912396D01*
X93696457Y8900837D01*
X93716300Y8897904D01*
X93734482Y8900942D01*
X93756651Y8908598D01*
X93765454Y8912691D01*
X93785562Y8925169D01*
X93802261Y8939250D01*
X93806745Y8944458D01*
X93816898Y8966398D01*
X93823876Y8997642D01*
X93827679Y9034742D01*
X93828307Y9074246D01*
X93825757Y9112705D01*
X93820030Y9146669D01*
X93811126Y9172687D01*
X93806788Y9179941D01*
X93785138Y9200541D01*
X93756216Y9215924D01*
X93725199Y9223874D01*
X93704508Y9223755D01*
X93668189Y9213053D01*
X93639336Y9193702D01*
X93622971Y9172568D01*
X93617958Y9161110D01*
X93614545Y9146654D01*
X93612457Y9126628D01*
X93611417Y9098460D01*
X93611151Y9062199D01*
X93505030Y9062199D01*
X93504816Y9070477D01*
X93507400Y9116763D01*
G37*
G36*
X96032859Y8316300D02*
G01*
X96045606Y8269867D01*
X96057422Y8227849D01*
X96067834Y8191842D01*
X96076373Y8163440D01*
X96082568Y8144235D01*
X96085948Y8135823D01*
X96086242Y8135576D01*
X96090747Y8141169D01*
X96095021Y8153648D01*
X96098211Y8164675D01*
X96104876Y8186306D01*
X96114420Y8216650D01*
X96126244Y8253818D01*
X96139749Y8295916D01*
X96152173Y8334373D01*
X96204883Y8497025D01*
X96280052Y8497025D01*
X96338414Y8316220D01*
X96353413Y8270370D01*
X96367285Y8229138D01*
X96379494Y8194031D01*
X96389500Y8166552D01*
X96396768Y8148206D01*
X96400758Y8140500D01*
X96401193Y8140424D01*
X96404013Y8147855D01*
X96409744Y8166296D01*
X96417898Y8194060D01*
X96427990Y8229460D01*
X96439532Y8270809D01*
X96452037Y8316421D01*
X96452829Y8319334D01*
X96465274Y8364964D01*
X96476647Y8406274D01*
X96486487Y8441616D01*
X96494328Y8469340D01*
X96499710Y8487794D01*
X96502168Y8495330D01*
X96502222Y8495409D01*
X96509338Y8496202D01*
X96526286Y8496367D01*
X96549764Y8495888D01*
X96556401Y8495661D01*
X96608405Y8493739D01*
X96443909Y7977337D01*
X96398048Y7979238D01*
X96352188Y7981139D01*
X96299315Y8160183D01*
X96285584Y8206253D01*
X96272918Y8247935D01*
X96261820Y8283641D01*
X96252790Y8311785D01*
X96246331Y8330780D01*
X96242944Y8339040D01*
X96242690Y8339265D01*
X96239799Y8333271D01*
X96233810Y8316478D01*
X96225317Y8290700D01*
X96214910Y8257754D01*
X96203184Y8219455D01*
X96198225Y8202937D01*
X96185245Y8159479D01*
X96172640Y8117309D01*
X96161216Y8079114D01*
X96151775Y8047582D01*
X96145121Y8025399D01*
X96144163Y8022212D01*
X96130815Y7977853D01*
X96040450Y7977853D01*
X96033760Y7999211D01*
X96027296Y8019711D01*
X96017977Y8049078D01*
X96006335Y8085649D01*
X95992904Y8127759D01*
X95978215Y8173746D01*
X95962803Y8221944D01*
X95947199Y8270691D01*
X95931936Y8318324D01*
X95917547Y8363177D01*
X95904565Y8403588D01*
X95893523Y8437893D01*
X95884954Y8464427D01*
X95879390Y8481528D01*
X95877417Y8487416D01*
X95877662Y8492182D01*
X95884314Y8495101D01*
X95899543Y8496579D01*
X95925517Y8497022D01*
X95928771Y8497025D01*
X95983813Y8497025D01*
X96032859Y8316300D01*
G37*
G36*
X95282062Y9323661D02*
G01*
X95321147Y9318054D01*
X95352617Y9306145D01*
X95381341Y9285751D01*
X95394807Y9273085D01*
X95407261Y9259871D01*
X95417284Y9246703D01*
X95425138Y9232019D01*
X95431084Y9214260D01*
X95435386Y9191864D01*
X95438303Y9163271D01*
X95440099Y9126919D01*
X95441034Y9081250D01*
X95441371Y9024700D01*
X95441397Y8995311D01*
X95441397Y8805899D01*
X95343616Y8805899D01*
X95341575Y8978409D01*
X95340800Y9034848D01*
X95339743Y9079754D01*
X95338080Y9114739D01*
X95335487Y9141412D01*
X95331639Y9161385D01*
X95326212Y9176269D01*
X95318882Y9187674D01*
X95309324Y9197211D01*
X95297214Y9206491D01*
X95295392Y9207794D01*
X95276975Y9217774D01*
X95255031Y9222293D01*
X95236481Y9222989D01*
X95204222Y9219628D01*
X95178748Y9208151D01*
X95156011Y9186464D01*
X95149358Y9177977D01*
X95145292Y9171870D01*
X95142100Y9164639D01*
X95139652Y9154664D01*
X95137820Y9140329D01*
X95136474Y9120013D01*
X95135484Y9092099D01*
X95134722Y9054968D01*
X95134058Y9007002D01*
X95133773Y8982872D01*
X95131738Y8805899D01*
X95027374Y8805899D01*
X95027374Y9318500D01*
X95132522Y9318500D01*
X95132522Y9264564D01*
X95154833Y9284152D01*
X95191492Y9308728D01*
X95232984Y9321780D01*
X95280743Y9323752D01*
X95282062Y9323661D01*
G37*
G36*
X96638528Y8202012D02*
G01*
X96660398Y8233559D01*
X96693077Y8258142D01*
X96710983Y8266914D01*
X96727604Y8273160D01*
X96745734Y8277691D01*
X96768257Y8280918D01*
X96798062Y8283250D01*
X96838035Y8285095D01*
X96839459Y8285149D01*
X96933751Y8288679D01*
X96931830Y8331387D01*
X96930140Y8355395D01*
X96926765Y8370367D01*
X96920219Y8380411D01*
X96911355Y8387915D01*
X96900741Y8394478D01*
X96888135Y8398602D01*
X96870325Y8400818D01*
X96844095Y8401660D01*
X96828094Y8401734D01*
X96797625Y8401439D01*
X96777215Y8400177D01*
X96763784Y8397383D01*
X96754254Y8392490D01*
X96747648Y8386947D01*
X96735499Y8376775D01*
X96727405Y8372182D01*
X96727121Y8372161D01*
X96719429Y8375888D01*
X96705316Y8385376D01*
X96688092Y8398086D01*
X96671065Y8411481D01*
X96657545Y8423019D01*
X96650840Y8430164D01*
X96650608Y8430867D01*
X96655914Y8440339D01*
X96669748Y8453425D01*
X96688979Y8467663D01*
X96710478Y8480595D01*
X96719612Y8485127D01*
X96736157Y8491917D01*
X96752646Y8496318D01*
X96772550Y8498804D01*
X96799340Y8499850D01*
X96828046Y8499969D01*
X96882102Y8497500D01*
X96925507Y8490131D01*
X96960010Y8477325D01*
X96987361Y8458542D01*
X96998235Y8447505D01*
X97008975Y8434180D01*
X97017630Y8420183D01*
X97024420Y8403976D01*
X97029566Y8384019D01*
X97033288Y8358773D01*
X97035806Y8326698D01*
X97037341Y8286256D01*
X97038113Y8235905D01*
X97038342Y8174108D01*
X97038344Y8167242D01*
X97038344Y7977853D01*
X96933195Y7977853D01*
X96933049Y8002497D01*
X96932626Y8018185D01*
X96930407Y8022395D01*
X96924581Y8016793D01*
X96921548Y8013064D01*
X96899823Y7995410D01*
X96868785Y7982571D01*
X96831567Y7975127D01*
X96791299Y7973656D01*
X96751111Y7978739D01*
X96744460Y7980309D01*
X96701934Y7996404D01*
X96667742Y8021646D01*
X96647907Y8045002D01*
X96636342Y8064193D01*
X96629643Y8084908D01*
X96626082Y8112685D01*
X96625863Y8115628D01*
X96626397Y8135576D01*
X96719910Y8135576D01*
X96725507Y8108179D01*
X96741935Y8088072D01*
X96765080Y8076923D01*
X96788263Y8072763D01*
X96818065Y8070823D01*
X96849340Y8071092D01*
X96876941Y8073563D01*
X96892983Y8077142D01*
X96913460Y8089979D01*
X96926528Y8112130D01*
X96932616Y8144496D01*
X96933195Y8161537D01*
X96933195Y8201294D01*
X96867101Y8201294D01*
X96816982Y8199816D01*
X96778589Y8195049D01*
X96750805Y8186495D01*
X96732514Y8173655D01*
X96722598Y8156029D01*
X96719910Y8135576D01*
X96626397Y8135576D01*
X96627128Y8162901D01*
X96638528Y8202012D01*
G37*
G36*
X96855493Y9145493D02*
G01*
X96857619Y8972486D01*
X96875335Y8945733D01*
X96897455Y8921397D01*
X96922920Y8907572D01*
X96959719Y8899419D01*
X96993583Y8904049D01*
X97024212Y8921369D01*
X97047796Y8946423D01*
X97051861Y8952526D01*
X97055051Y8959746D01*
X97057495Y8969702D01*
X97059321Y8984012D01*
X97060657Y9004295D01*
X97061633Y9032168D01*
X97062376Y9069252D01*
X97063015Y9117163D01*
X97063290Y9141528D01*
X97065235Y9318500D01*
X97169932Y9318500D01*
X97168213Y9060556D01*
X97166494Y8802613D01*
X97115563Y8800694D01*
X97064631Y8798775D01*
X97064631Y8859498D01*
X97038394Y8837040D01*
X97017546Y8822041D01*
X96995250Y8810151D01*
X96986700Y8806954D01*
X96958785Y8801800D01*
X96925306Y8800132D01*
X96892754Y8802000D01*
X96871641Y8806100D01*
X96836337Y8822988D01*
X96804315Y8850185D01*
X96778332Y8884865D01*
X96763447Y8916958D01*
X96760739Y8931806D01*
X96758624Y8959010D01*
X96757094Y8998756D01*
X96756143Y9051230D01*
X96755765Y9116618D01*
X96755757Y9128898D01*
X96755757Y9318500D01*
X96853366Y9318500D01*
X96855493Y9145493D01*
G37*
G36*
X94546626Y9221134D02*
G01*
X94575339Y9262107D01*
X94612849Y9293634D01*
X94640164Y9308349D01*
X94662683Y9317717D01*
X94681357Y9322866D01*
X94701515Y9324666D01*
X94728489Y9323987D01*
X94734195Y9323684D01*
X94788429Y9315349D01*
X94834592Y9296677D01*
X94872925Y9267513D01*
X94903668Y9227699D01*
X94914847Y9206779D01*
X94922798Y9188366D01*
X94928100Y9170469D01*
X94931410Y9149372D01*
X94933384Y9121356D01*
X94934291Y9096701D01*
X94936500Y9022769D01*
X94611671Y9022769D01*
X94615984Y8995792D01*
X94626107Y8959210D01*
X94644075Y8931620D01*
X94664465Y8914748D01*
X94700940Y8898447D01*
X94740818Y8893694D01*
X94781502Y8900340D01*
X94820396Y8918238D01*
X94829045Y8924097D01*
X94854401Y8942464D01*
X94925511Y8879440D01*
X94906790Y8859705D01*
X94890661Y8846393D01*
X94867780Y8831855D01*
X94847644Y8821424D01*
X94823665Y8811585D01*
X94801105Y8805611D01*
X94774742Y8802445D01*
X94748072Y8801241D01*
X94709181Y8801647D01*
X94677057Y8804928D01*
X94660822Y8808682D01*
X94613387Y8830385D01*
X94574698Y8861820D01*
X94545194Y8902535D01*
X94526775Y8947006D01*
X94519694Y8979747D01*
X94514978Y9020055D01*
X94513020Y9062500D01*
X94514210Y9101655D01*
X94515003Y9109918D01*
X94517498Y9122989D01*
X94613495Y9122989D01*
X94613761Y9117606D01*
X94615906Y9113720D01*
X94621767Y9111086D01*
X94633184Y9109461D01*
X94651993Y9108601D01*
X94680034Y9108262D01*
X94719144Y9108202D01*
X94725071Y9108202D01*
X94761733Y9108501D01*
X94793341Y9109331D01*
X94817761Y9110587D01*
X94832858Y9112169D01*
X94836792Y9113581D01*
X94833826Y9130886D01*
X94826352Y9153532D01*
X94816501Y9176258D01*
X94806406Y9193803D01*
X94802319Y9198636D01*
X94772251Y9219146D01*
X94738569Y9229363D01*
X94704346Y9229079D01*
X94672651Y9218090D01*
X94658449Y9208296D01*
X94640521Y9188329D01*
X94625293Y9162839D01*
X94615556Y9137120D01*
X94613495Y9122989D01*
X94517498Y9122989D01*
X94526563Y9170482D01*
X94546626Y9221134D01*
G37*
G36*
X96240505Y9132786D02*
G01*
X96241749Y9154740D01*
X96244011Y9171201D01*
X96247592Y9184721D01*
X96252792Y9197848D01*
X96256900Y9206779D01*
X96284379Y9251570D01*
X96319549Y9285710D01*
X96362317Y9309138D01*
X96412586Y9321792D01*
X96437024Y9323929D01*
X96492157Y9320803D01*
X96540938Y9306629D01*
X96582685Y9281765D01*
X96616719Y9246566D01*
X96632553Y9221744D01*
X96646493Y9186598D01*
X96656092Y9141969D01*
X96661004Y9090895D01*
X96660884Y9036413D01*
X96657789Y8999270D01*
X96647581Y8944241D01*
X96630645Y8899535D01*
X96606036Y8863675D01*
X96572813Y8835182D01*
X96542233Y8818020D01*
X96518724Y8807962D01*
X96497893Y8802341D01*
X96474044Y8800030D01*
X96450168Y8799796D01*
X96421264Y8801205D01*
X96394019Y8804493D01*
X96373882Y8808980D01*
X96372373Y8809504D01*
X96327152Y8832865D01*
X96289532Y8866861D01*
X96259840Y8911180D01*
X96254426Y8922237D01*
X96248945Y8935235D01*
X96245032Y8948375D01*
X96242428Y8964150D01*
X96240873Y8985049D01*
X96240109Y9013565D01*
X96239876Y9052188D01*
X96239870Y9062199D01*
X96239879Y9065485D01*
X96338604Y9065485D01*
X96339633Y9021636D01*
X96343248Y8988281D01*
X96350092Y8962917D01*
X96360806Y8943039D01*
X96373787Y8928249D01*
X96404010Y8907707D01*
X96438179Y8899206D01*
X96474487Y8902971D01*
X96499557Y8912691D01*
X96521184Y8925884D01*
X96536690Y8941674D01*
X96547114Y8962450D01*
X96553497Y8990597D01*
X96556878Y9028503D01*
X96557590Y9045898D01*
X96557907Y9079788D01*
X96556809Y9111032D01*
X96554496Y9135609D01*
X96552599Y9145523D01*
X96537675Y9178357D01*
X96514237Y9203020D01*
X96484701Y9218650D01*
X96451479Y9224381D01*
X96416985Y9219348D01*
X96386827Y9204889D01*
X96367238Y9188578D01*
X96353415Y9168398D01*
X96344565Y9142055D01*
X96339893Y9107258D01*
X96338604Y9065485D01*
X96239879Y9065485D01*
X96239979Y9102789D01*
X96240505Y9132786D01*
G37*
G36*
X94532846Y8201726D02*
G01*
X94549911Y8228675D01*
X94571617Y8249738D01*
X94599468Y8265473D01*
X94634971Y8276433D01*
X94679632Y8283176D01*
X94734957Y8286257D01*
X94762859Y8286595D01*
X94830220Y8286727D01*
X94830220Y8315320D01*
X94827445Y8349053D01*
X94818212Y8373742D01*
X94801153Y8390501D01*
X94774901Y8400441D01*
X94738092Y8404674D01*
X94720066Y8405020D01*
X94691839Y8404427D01*
X94672430Y8402032D01*
X94657539Y8396907D01*
X94643417Y8388501D01*
X94625926Y8378907D01*
X94613177Y8376235D01*
X94610844Y8377000D01*
X94601222Y8383480D01*
X94585130Y8394871D01*
X94572100Y8404301D01*
X94554010Y8419498D01*
X94546971Y8432204D01*
X94551261Y8444634D01*
X94567157Y8459002D01*
X94580072Y8467955D01*
X94619014Y8487238D01*
X94664194Y8499065D01*
X94712764Y8503632D01*
X94761873Y8501134D01*
X94808672Y8491768D01*
X94850311Y8475729D01*
X94883939Y8453213D01*
X94890754Y8446602D01*
X94900903Y8435090D01*
X94909079Y8423156D01*
X94915491Y8409285D01*
X94920352Y8391963D01*
X94923872Y8369677D01*
X94926263Y8340913D01*
X94927737Y8304156D01*
X94928505Y8257893D01*
X94928778Y8200609D01*
X94928797Y8174180D01*
X94928797Y7977853D01*
X94830220Y7977853D01*
X94830220Y8024475D01*
X94805447Y8004567D01*
X94771333Y7985199D01*
X94729454Y7974739D01*
X94682043Y7973565D01*
X94648468Y7978125D01*
X94603529Y7992688D01*
X94566813Y8016002D01*
X94539154Y8046451D01*
X94521387Y8082422D01*
X94514349Y8122299D01*
X94517149Y8148403D01*
X94612718Y8148403D01*
X94612763Y8125239D01*
X94621867Y8103194D01*
X94639485Y8085187D01*
X94662913Y8074652D01*
X94684663Y8071532D01*
X94712925Y8070616D01*
X94742773Y8071725D01*
X94769281Y8074681D01*
X94787185Y8079159D01*
X94805651Y8089892D01*
X94817337Y8105317D01*
X94823632Y8128250D01*
X94825833Y8157516D01*
X94826934Y8198008D01*
X94744786Y8197717D01*
X94706647Y8197146D01*
X94679108Y8195561D01*
X94659644Y8192685D01*
X94645731Y8188240D01*
X94641993Y8186416D01*
X94622280Y8169768D01*
X94612718Y8148403D01*
X94517149Y8148403D01*
X94518872Y8164468D01*
X94532846Y8201726D01*
G37*
G36*
X95406975Y8326576D02*
G01*
X95409796Y8359918D01*
X95414517Y8386067D01*
X95421583Y8407001D01*
X95431439Y8424700D01*
X95444531Y8441142D01*
X95455148Y8452256D01*
X95491341Y8479710D01*
X95532540Y8496285D01*
X95576324Y8501946D01*
X95620272Y8496656D01*
X95661960Y8480380D01*
X95696054Y8455840D01*
X95710841Y8442159D01*
X95710841Y8707322D01*
X95815989Y8707322D01*
X95815989Y7977853D01*
X95710841Y7977853D01*
X95710841Y8032718D01*
X95695972Y8018750D01*
X95664726Y7997307D01*
X95626035Y7982630D01*
X95584273Y7975736D01*
X95543816Y7977644D01*
X95531249Y7980446D01*
X95487635Y7998515D01*
X95452745Y8026353D01*
X95426083Y8064361D01*
X95425050Y8066353D01*
X95405252Y8105055D01*
X95405252Y8230393D01*
X95405277Y8234153D01*
X95507296Y8234153D01*
X95507834Y8197586D01*
X95509590Y8170946D01*
X95512957Y8151040D01*
X95518326Y8134679D01*
X95520021Y8130783D01*
X95539294Y8102137D01*
X95566297Y8084113D01*
X95601061Y8076692D01*
X95608978Y8076479D01*
X95643760Y8081150D01*
X95663577Y8089734D01*
X95681794Y8104156D01*
X95694965Y8123201D01*
X95703720Y8148852D01*
X95708692Y8183092D01*
X95710511Y8227906D01*
X95710552Y8237439D01*
X95710096Y8274785D01*
X95708502Y8301985D01*
X95705427Y8322010D01*
X95700531Y8337834D01*
X95698481Y8342588D01*
X95684906Y8367661D01*
X95669833Y8383429D01*
X95649879Y8391872D01*
X95621661Y8394972D01*
X95608719Y8395162D01*
X95583046Y8394708D01*
X95566339Y8392558D01*
X95554430Y8387535D01*
X95543153Y8378458D01*
X95540364Y8375820D01*
X95527360Y8360944D01*
X95518123Y8343592D01*
X95512088Y8321348D01*
X95508692Y8291793D01*
X95507371Y8252512D01*
X95507296Y8234153D01*
X95405277Y8234153D01*
X95405609Y8284061D01*
X95406975Y8326576D01*
G37*
G36*
X96013091Y9321102D02*
G01*
X96061505Y9310289D01*
X96105073Y9293683D01*
X96140223Y9272408D01*
X96146014Y9267616D01*
X96151798Y9261411D01*
X96153000Y9254786D01*
X96148532Y9245391D01*
X96137305Y9230880D01*
X96119421Y9210255D01*
X96097548Y9185435D01*
X96063561Y9202580D01*
X96026722Y9217540D01*
X95989255Y9226409D01*
X95953386Y9229324D01*
X95921339Y9226418D01*
X95895340Y9217827D01*
X95877613Y9203687D01*
X95871400Y9190898D01*
X95868253Y9166993D01*
X95873026Y9148503D01*
X95886807Y9134642D01*
X95910681Y9124625D01*
X95945737Y9117668D01*
X95977587Y9114191D01*
X96010739Y9110635D01*
X96042484Y9106004D01*
X96068409Y9101000D01*
X96080094Y9097866D01*
X96114204Y9080358D01*
X96140517Y9054380D01*
X96158808Y9022202D01*
X96168849Y8986098D01*
X96170417Y8948339D01*
X96163284Y8911197D01*
X96147226Y8876944D01*
X96122017Y8847853D01*
X96106090Y8836067D01*
X96066428Y8817384D01*
X96018936Y8805097D01*
X95967468Y8799583D01*
X95915877Y8801217D01*
X95868019Y8810375D01*
X95861992Y8812229D01*
X95817475Y8830445D01*
X95774353Y8854814D01*
X95748641Y8873577D01*
X95730581Y8888521D01*
X95766572Y8924064D01*
X95802563Y8959608D01*
X95817510Y8945565D01*
X95831467Y8935356D01*
X95852532Y8923102D01*
X95871741Y8913539D01*
X95908472Y8901033D01*
X95947853Y8894822D01*
X95985945Y8895036D01*
X96018808Y8901808D01*
X96032859Y8908159D01*
X96054496Y8926034D01*
X96066820Y8947341D01*
X96069323Y8969287D01*
X96061496Y8989084D01*
X96049637Y9000143D01*
X96037095Y9004748D01*
X96014745Y9009579D01*
X95985892Y9014007D01*
X95963368Y9016553D01*
X95920745Y9021226D01*
X95888389Y9026337D01*
X95863424Y9032630D01*
X95842978Y9040850D01*
X95824175Y9051741D01*
X95822078Y9053138D01*
X95794072Y9079367D01*
X95775410Y9112382D01*
X95766206Y9149613D01*
X95766576Y9188487D01*
X95776636Y9226431D01*
X95796500Y9260873D01*
X95811998Y9277717D01*
X95843807Y9300802D01*
X95881401Y9315869D01*
X95926948Y9323595D01*
X95963405Y9325000D01*
X96013091Y9321102D01*
G37*
G36*
X97555274Y9322355D02*
G01*
X97584546Y9315844D01*
X97608802Y9306409D01*
X97624370Y9295210D01*
X97626211Y9292712D01*
X97624273Y9285214D01*
X97616038Y9270990D01*
X97603725Y9252985D01*
X97589551Y9234140D01*
X97575733Y9217399D01*
X97564491Y9205706D01*
X97558040Y9202003D01*
X97557906Y9202067D01*
X97550130Y9205877D01*
X97535005Y9212909D01*
X97528427Y9215913D01*
X97495484Y9224331D01*
X97463073Y9221006D01*
X97433754Y9207180D01*
X97410085Y9184095D01*
X97394626Y9152993D01*
X97393935Y9150610D01*
X97391604Y9135311D01*
X97389651Y9108502D01*
X97388140Y9071813D01*
X97387135Y9026873D01*
X97386699Y8975313D01*
X97386686Y8965265D01*
X97386649Y8805899D01*
X97288072Y8805899D01*
X97288072Y9318500D01*
X97386649Y9318500D01*
X97386649Y9264757D01*
X97408008Y9282787D01*
X97445442Y9307866D01*
X97485962Y9321417D01*
X97524657Y9324783D01*
X97555274Y9322355D01*
G37*
%TD*%
D11*
%TO.P,U2,1,VCC*%
%TO.N,+5V*%
X6496000Y21070000D03*
D12*
%TO.P,U2,2,IO*%
%TO.N,/DHT_IO*%
X6496000Y18530000D03*
%TO.P,U2,3,NC*%
%TO.N,unconnected-(U2-Pad3)*%
X6496000Y15990000D03*
%TO.P,U2,4,GND*%
%TO.N,GND*%
X6496000Y13450000D03*
%TD*%
D13*
%TO.P,C2,1*%
%TO.N,+5V*%
X79250000Y10322599D03*
D14*
%TO.P,C2,2*%
%TO.N,GND*%
X79250000Y8822599D03*
%TD*%
D15*
%TO.P,R2,1*%
%TO.N,+3V3*%
X54502000Y13450000D03*
D16*
%TO.P,R2,2*%
%TO.N,/I2C_SCL*%
X54502000Y21070000D03*
%TD*%
D17*
%TO.P,U3,1,VO*%
%TO.N,+5V*%
X79250000Y14790000D03*
D14*
%TO.P,U3,2,GND*%
%TO.N,GND*%
X79250000Y17330000D03*
%TO.P,U3,3,VI*%
%TO.N,+9V*%
X79250000Y19870000D03*
%TD*%
D18*
%TO.P,C1,1*%
%TO.N,+9V*%
X79250000Y23720000D03*
D15*
%TO.P,C1,2*%
%TO.N,GND*%
X79250000Y25720000D03*
%TD*%
D19*
%TO.P,H3,1,1*%
%TO.N,unconnected-(H3-Pad1)*%
X94568109Y29468109D03*
X97431891Y32331891D03*
X93975000Y30900000D03*
X96000000Y28875000D03*
D20*
X96000000Y30900000D03*
D19*
X98025000Y30900000D03*
X94568109Y32331891D03*
X96000000Y32925000D03*
X97431891Y29468109D03*
%TD*%
D15*
%TO.P,R3,1*%
%TO.N,+3V3*%
X57550000Y13450000D03*
D16*
%TO.P,R3,2*%
%TO.N,/I2C_SDA*%
X57550000Y21070000D03*
%TD*%
D21*
%TO.P,J2,1,Pin_1*%
%TO.N,GND*%
X52216000Y25896000D03*
D22*
%TO.P,J2,2,Pin_2*%
%TO.N,+3V3*%
X54756000Y25896000D03*
%TO.P,J2,3,Pin_3*%
%TO.N,/I2C_SCL*%
X57296000Y25896000D03*
%TO.P,J2,4,Pin_4*%
%TO.N,/I2C_SDA*%
X59836000Y25896000D03*
%TD*%
D23*
%TO.P,J1,1*%
%TO.N,+9V*%
X85900000Y19500000D03*
D24*
%TO.P,J1,2*%
%TO.N,GND*%
X91700000Y19500000D03*
D25*
%TO.P,J1,3*%
X88900000Y24300000D03*
%TD*%
D19*
%TO.P,H1,1,1*%
%TO.N,unconnected-(H1-Pad1)*%
X2568109Y32331891D03*
X4000000Y32925000D03*
X2568109Y29468109D03*
X4000000Y28875000D03*
X6025000Y30900000D03*
D20*
X4000000Y30900000D03*
D19*
X1975000Y30900000D03*
X5431891Y29468109D03*
X5431891Y32331891D03*
%TD*%
D21*
%TO.P,U1,1,~{RST}*%
%TO.N,unconnected-(U1-Pad1)*%
X17418000Y26150000D03*
D26*
%TO.P,U1,2,A0*%
%TO.N,unconnected-(U1-Pad2)*%
X17418000Y23610000D03*
%TO.P,U1,3,D0*%
%TO.N,unconnected-(U1-Pad3)*%
X17418000Y21070000D03*
%TO.P,U1,4,SCK/D5*%
%TO.N,/DHT_IO*%
X17418000Y18530000D03*
%TO.P,U1,5,MISO/D6*%
%TO.N,unconnected-(U1-Pad5)*%
X17418000Y15990000D03*
%TO.P,U1,6,MOSI/D7*%
%TO.N,unconnected-(U1-Pad6)*%
X17418000Y13450000D03*
%TO.P,U1,7,CS/D8*%
%TO.N,unconnected-(U1-Pad7)*%
X17418000Y10910000D03*
%TO.P,U1,8,3V3*%
%TO.N,+3V3*%
X17418000Y8370000D03*
%TO.P,U1,9,5V*%
%TO.N,+5V*%
X40278000Y8370000D03*
%TO.P,U1,10,GND*%
%TO.N,GND*%
X40278000Y10910000D03*
%TO.P,U1,11,D4*%
%TO.N,unconnected-(U1-Pad11)*%
X40278000Y13450000D03*
%TO.P,U1,12,D3*%
%TO.N,unconnected-(U1-Pad12)*%
X40278000Y15990000D03*
%TO.P,U1,13,SDA/D2*%
%TO.N,/I2C_SDA*%
X40278000Y18530000D03*
%TO.P,U1,14,SCL/D1*%
%TO.N,/I2C_SCL*%
X40278000Y21070000D03*
%TO.P,U1,15,RX*%
%TO.N,unconnected-(U1-Pad15)*%
X40278000Y23610000D03*
%TO.P,U1,16,TX*%
%TO.N,unconnected-(U1-Pad16)*%
X40278000Y26150000D03*
%TD*%
D19*
%TO.P,H4,1,1*%
%TO.N,unconnected-(H4-Pad1)*%
X94568109Y2468109D03*
X94568109Y5331891D03*
X96000000Y1875000D03*
X97431891Y5331891D03*
X93975000Y3900000D03*
X98025000Y3900000D03*
X96000000Y5925000D03*
D20*
X96000000Y3900000D03*
D19*
X97431891Y2468109D03*
%TD*%
D20*
%TO.P,H2,1,1*%
%TO.N,unconnected-(H2-Pad1)*%
X4000000Y3900000D03*
D19*
X5431891Y5331891D03*
X4000000Y5925000D03*
X5431891Y2468109D03*
X2568109Y2468109D03*
X6025000Y3900000D03*
X2568109Y5331891D03*
X1975000Y3900000D03*
X4000000Y1875000D03*
%TD*%
D15*
%TO.P,R1,1*%
%TO.N,+5V*%
X11000000Y21070000D03*
D16*
%TO.P,R1,2*%
%TO.N,/DHT_IO*%
X11000000Y13450000D03*
%TD*%
D27*
%TO.N,+5V*%
X37008000Y5100000D02*
X12052000Y5100000D01*
X63900000Y8370000D02*
X40278000Y8370000D01*
X4464000Y12688000D02*
X4464000Y19038000D01*
X68380000Y12850000D02*
X63900000Y8370000D01*
X12052000Y5100000D02*
X4464000Y12688000D01*
X74500000Y12850000D02*
X68380000Y12850000D01*
X4464000Y19038000D02*
X6496000Y21070000D01*
X40278000Y8370000D02*
X37008000Y5100000D01*
X6496000Y21070000D02*
X11000000Y21070000D01*
D28*
%TO.N,/I2C_SDA*%
X59836000Y23356000D02*
X59836000Y25896000D01*
X55010000Y18530000D02*
X59836000Y23356000D01*
X40278000Y18530000D02*
X55010000Y18530000D01*
%TO.N,/I2C_SCL*%
X54502000Y21070000D02*
X57296000Y23864000D01*
X57296000Y23864000D02*
X57296000Y25896000D01*
X40278000Y21070000D02*
X54502000Y21070000D01*
D29*
%TO.N,+3V3*%
X54700000Y25840000D02*
X54700000Y25536978D01*
X54756000Y25896000D02*
X54756000Y25696000D01*
D28*
%TO.N,/DHT_IO*%
X17418000Y18530000D02*
X16080000Y18530000D01*
X11000000Y13450000D02*
X6496000Y17954000D01*
X16080000Y18530000D02*
X11000000Y13450000D01*
X6496000Y17954000D02*
X6496000Y18530000D01*
%TD*%
%TA.AperFunction,Conductor*%
%TO.N,+5V*%
G36*
X79504843Y15949523D02*
G01*
X79685388Y15931741D01*
X79704418Y15927955D01*
X79788887Y15902332D01*
X79873353Y15876710D01*
X79891283Y15869283D01*
X80046969Y15786067D01*
X80063106Y15775285D01*
X80199573Y15663290D01*
X80213290Y15649573D01*
X80280102Y15568163D01*
X80325285Y15513106D01*
X80336067Y15496969D01*
X80419283Y15341283D01*
X80426710Y15323353D01*
X80477955Y15154420D01*
X80481741Y15135386D01*
X80499523Y14954843D01*
X80500000Y14945139D01*
X80500000Y10604861D01*
X80499523Y10595157D01*
X80481741Y10414614D01*
X80477955Y10395580D01*
X80426710Y10226647D01*
X80419283Y10208717D01*
X80336067Y10053031D01*
X80325285Y10036894D01*
X80213290Y9900427D01*
X80199573Y9886710D01*
X80118163Y9819898D01*
X80063106Y9774715D01*
X80046969Y9763933D01*
X79891283Y9680717D01*
X79873353Y9673290D01*
X79818085Y9656525D01*
X79718285Y9626251D01*
X79657113Y9627452D01*
X79649295Y9630541D01*
X79529803Y9683743D01*
X79524733Y9684821D01*
X79524732Y9684821D01*
X79487390Y9692758D01*
X79344646Y9723099D01*
X79155354Y9723099D01*
X79012610Y9692758D01*
X78975268Y9684821D01*
X78975267Y9684821D01*
X78970197Y9683743D01*
X78965461Y9681634D01*
X78965460Y9681634D01*
X78801333Y9608559D01*
X78761066Y9600000D01*
X77131076Y9600000D01*
X77121289Y9600485D01*
X77087756Y9603817D01*
X76939176Y9618580D01*
X76919986Y9622431D01*
X76749709Y9674565D01*
X76731657Y9682116D01*
X76570623Y9769083D01*
X76562245Y9774159D01*
X75340000Y10600000D01*
X73168299Y12067365D01*
X73160568Y12073158D01*
X73030416Y12180988D01*
X73016822Y12194695D01*
X72913144Y12321962D01*
X72902468Y12338047D01*
X72825457Y12483024D01*
X72818108Y12500870D01*
X72770697Y12658038D01*
X72766951Y12676973D01*
X72751026Y12839531D01*
X72751198Y12860453D01*
X72768907Y13015011D01*
X72774005Y13036967D01*
X72825943Y13182745D01*
X72835876Y13202978D01*
X72919437Y13333222D01*
X72933688Y13350684D01*
X73044549Y13458657D01*
X73062382Y13472443D01*
X73199654Y13555482D01*
X73209630Y13560765D01*
X78216681Y15856767D01*
X78226573Y15860674D01*
X78414895Y15923596D01*
X78435647Y15928128D01*
X78633054Y15949429D01*
X78643675Y15950000D01*
X79495139Y15950000D01*
X79504843Y15949523D01*
G37*
%TD.AperFunction*%
%TD*%
%TA.AperFunction,Conductor*%
%TO.N,+9V*%
G36*
X80030576Y24896338D02*
G01*
X80228202Y24878760D01*
X80260835Y24872121D01*
X80449623Y24811085D01*
X80465180Y24805074D01*
X86405546Y22118815D01*
X86418214Y22112341D01*
X86565147Y22028174D01*
X86588346Y22011762D01*
X86711209Y21905898D01*
X86730870Y21885381D01*
X86831403Y21758112D01*
X86846807Y21734240D01*
X86921346Y21590202D01*
X86931941Y21563831D01*
X86977777Y21408260D01*
X86983172Y21380360D01*
X86999321Y21211799D01*
X87000000Y21197589D01*
X87000000Y18107325D01*
X86999282Y18092720D01*
X86982222Y17919510D01*
X86976524Y17890863D01*
X86928140Y17731360D01*
X86916962Y17704374D01*
X86838390Y17557376D01*
X86822163Y17533089D01*
X86716417Y17404237D01*
X86695763Y17383583D01*
X86566911Y17277837D01*
X86542624Y17261610D01*
X86395626Y17183038D01*
X86368641Y17171861D01*
X86277525Y17144221D01*
X86209137Y17123476D01*
X86180490Y17117778D01*
X86007280Y17100718D01*
X85992675Y17100000D01*
X84905926Y17100000D01*
X84894818Y17100415D01*
X84856436Y17103285D01*
X84762783Y17110286D01*
X84740819Y17113588D01*
X84611697Y17142988D01*
X84600962Y17145858D01*
X78931624Y18890270D01*
X78917296Y18895495D01*
X78866782Y18916906D01*
X78750178Y18966328D01*
X78723495Y18981021D01*
X78580595Y19079988D01*
X78557461Y19099796D01*
X78437662Y19225769D01*
X78419041Y19249869D01*
X78327375Y19397562D01*
X78314044Y19424942D01*
X78254327Y19588202D01*
X78246842Y19617730D01*
X78220463Y19797306D01*
X78219022Y19812489D01*
X78044645Y23823175D01*
X78044737Y23837976D01*
X78054600Y24013975D01*
X78059180Y24043202D01*
X78101738Y24206559D01*
X78112001Y24234305D01*
X78185997Y24386041D01*
X78201535Y24411205D01*
X78304054Y24545338D01*
X78324260Y24566939D01*
X78451253Y24678168D01*
X78475330Y24695353D01*
X78539077Y24731891D01*
X78621790Y24779300D01*
X78648788Y24791389D01*
X78719153Y24814831D01*
X78796143Y24819439D01*
X78834463Y24805198D01*
X78834471Y24805217D01*
X78834805Y24805071D01*
X78838933Y24803537D01*
X78841141Y24802303D01*
X78841151Y24802299D01*
X78847513Y24798743D01*
X79034118Y24738111D01*
X79107397Y24729373D01*
X79221715Y24715741D01*
X79221718Y24715741D01*
X79228946Y24714879D01*
X79340443Y24723458D01*
X79417314Y24729373D01*
X79417316Y24729373D01*
X79424576Y24729932D01*
X79613556Y24782697D01*
X79620062Y24785984D01*
X79620066Y24785985D01*
X79782183Y24867876D01*
X79782188Y24867879D01*
X79788177Y24870904D01*
X79788179Y24870905D01*
X79788689Y24871163D01*
X79788734Y24871074D01*
X79862209Y24893352D01*
X79887651Y24893944D01*
X80013918Y24896884D01*
X80030576Y24896338D01*
G37*
%TD.AperFunction*%
%TD*%
M02*
