M48
; DRILL file {KiCad (6.0.5)} date Sat Jun  4 22:27:33 2022
; FORMAT={-:-/ absolute / inch / decimal}
; #@! TF.CreationDate,2022-06-04T22:27:33+02:00
; #@! TF.GenerationSoftware,Kicad,Pcbnew,(6.0.5)
; #@! TF.FileFunction,Plated,1,2,PTH
FMAT,2
INCH
; #@! TA.AperFunction,Plated,PTH,ComponentDrill
T1C0.0197
; #@! TA.AperFunction,Plated,PTH,ComponentDrill
T2C0.0236
; #@! TA.AperFunction,Plated,PTH,ComponentDrill
T3C0.0315
; #@! TA.AperFunction,Plated,PTH,ComponentDrill
T4C0.0394
; #@! TA.AperFunction,Plated,PTH,ComponentDrill
T5C0.1063
%
G90
G05
T1
X3.6211Y-2.9134
X3.6211Y-3.9764
X3.6444Y-2.857
X3.6444Y-2.9698
X3.6444Y-3.92
X3.6444Y-4.0328
X3.7008Y-2.8337
X3.7008Y-2.9931
X3.7008Y-3.8967
X3.7008Y-4.0561
X3.7572Y-2.857
X3.7572Y-2.9698
X3.7572Y-3.92
X3.7572Y-4.0328
X3.7805Y-2.9134
X3.7805Y-3.9764
X7.2431Y-2.9134
X7.2431Y-3.9764
X7.2665Y-2.857
X7.2665Y-2.9698
X7.2665Y-3.92
X7.2665Y-4.0328
X7.3228Y-2.8337
X7.3228Y-2.9931
X7.3228Y-3.8967
X7.3228Y-4.0561
X7.3792Y-2.857
X7.3792Y-2.9698
X7.3792Y-3.92
X7.3792Y-4.0328
X7.4026Y-2.9134
X7.4026Y-3.9764
T2
X6.6634Y-3.7235
X6.6634Y-3.7826
T3
X3.7991Y-3.3004
X3.7991Y-3.4004
X3.7991Y-3.5004
X3.7991Y-3.6004
X3.9764Y-3.3004
X3.9764Y-3.6004
X5.6891Y-3.3004
X5.6891Y-3.6004
X5.8091Y-3.3004
X5.8091Y-3.6004
X6.6634Y-3.1173
X6.6634Y-3.1961
X6.6634Y-3.3476
X6.6634Y-3.4476
X6.6634Y-3.5476
T4
X4.2291Y-3.1004
X4.2291Y-3.2004
X4.2291Y-3.3004
X4.2291Y-3.4004
X4.2291Y-3.5004
X4.2291Y-3.6004
X4.2291Y-3.7004
X4.2291Y-3.8004
X5.1291Y-3.1004
X5.1291Y-3.2004
X5.1291Y-3.3004
X5.1291Y-3.4004
X5.1291Y-3.5004
X5.1291Y-3.6004
X5.1291Y-3.7004
X5.1291Y-3.8004
X5.5991Y-3.1104
X5.6991Y-3.1104
X5.7991Y-3.1104
X5.8991Y-3.1104
T5
X3.7008Y-2.9134
X3.7008Y-3.9764
X7.3228Y-2.9134
X7.3228Y-3.9764
T3
G00X6.9252Y-3.4134
M15
G01X6.9252Y-3.311
M16
G05
G00X7.0866Y-3.1732
M15
G01X7.0Y-3.1732
M16
G05
G00X7.1535Y-3.4055
M15
G01X7.1535Y-3.3189
M16
G05
T0
M30
