%TF.GenerationSoftware,KiCad,Pcbnew,(6.0.5)*%
%TF.CreationDate,2022-06-04T22:27:33+02:00*%
%TF.ProjectId,SmartHarz-Thermometer,536d6172-7448-4617-927a-2d546865726d,1b1*%
%TF.SameCoordinates,Original*%
%TF.FileFunction,Legend,Top*%
%TF.FilePolarity,Positive*%
%FSLAX46Y46*%
G04 Gerber Fmt 4.6, Leading zero omitted, Abs format (unit mm)*
G04 Created by KiCad (PCBNEW (6.0.5)) date 2022-06-04 22:27:33*
%MOMM*%
%LPD*%
G01*
G04 APERTURE LIST*
%ADD10C,0.100000*%
%ADD11C,0.036000*%
%ADD12C,0.300000*%
%ADD13C,0.150000*%
%ADD14C,0.120000*%
G04 APERTURE END LIST*
D10*
X188616666Y-88533333D02*
X189116666Y-88533333D01*
X189216666Y-88566666D01*
X189283333Y-88633333D01*
X189316666Y-88733333D01*
X189316666Y-88800000D01*
X189316666Y-87866666D02*
X189316666Y-88200000D01*
X188616666Y-88200000D01*
X189250000Y-87233333D02*
X189283333Y-87266666D01*
X189316666Y-87366666D01*
X189316666Y-87433333D01*
X189283333Y-87533333D01*
X189216666Y-87600000D01*
X189150000Y-87633333D01*
X189016666Y-87666666D01*
X188916666Y-87666666D01*
X188783333Y-87633333D01*
X188716666Y-87600000D01*
X188650000Y-87533333D01*
X188616666Y-87433333D01*
X188616666Y-87366666D01*
X188650000Y-87266666D01*
X188683333Y-87233333D01*
X188616666Y-86733333D02*
X189116666Y-86733333D01*
X189216666Y-86766666D01*
X189283333Y-86833333D01*
X189316666Y-86933333D01*
X189316666Y-87000000D01*
X189316666Y-86066666D02*
X189316666Y-86400000D01*
X188616666Y-86400000D01*
X189250000Y-85433333D02*
X189283333Y-85466666D01*
X189316666Y-85566666D01*
X189316666Y-85633333D01*
X189283333Y-85733333D01*
X189216666Y-85800000D01*
X189150000Y-85833333D01*
X189016666Y-85866666D01*
X188916666Y-85866666D01*
X188783333Y-85833333D01*
X188716666Y-85800000D01*
X188650000Y-85733333D01*
X188616666Y-85633333D01*
X188616666Y-85566666D01*
X188650000Y-85466666D01*
X188683333Y-85433333D01*
X188616666Y-84933333D02*
X189116666Y-84933333D01*
X189216666Y-84966666D01*
X189283333Y-85033333D01*
X189316666Y-85133333D01*
X189316666Y-85200000D01*
X189316666Y-84266666D02*
X189316666Y-84600000D01*
X188616666Y-84600000D01*
X189250000Y-83633333D02*
X189283333Y-83666666D01*
X189316666Y-83766666D01*
X189316666Y-83833333D01*
X189283333Y-83933333D01*
X189216666Y-84000000D01*
X189150000Y-84033333D01*
X189016666Y-84066666D01*
X188916666Y-84066666D01*
X188783333Y-84033333D01*
X188716666Y-84000000D01*
X188650000Y-83933333D01*
X188616666Y-83833333D01*
X188616666Y-83766666D01*
X188650000Y-83666666D01*
X188683333Y-83633333D01*
X188616666Y-83133333D02*
X189116666Y-83133333D01*
X189216666Y-83166666D01*
X189283333Y-83233333D01*
X189316666Y-83333333D01*
X189316666Y-83400000D01*
X189316666Y-82466666D02*
X189316666Y-82800000D01*
X188616666Y-82800000D01*
X189250000Y-81833333D02*
X189283333Y-81866666D01*
X189316666Y-81966666D01*
X189316666Y-82033333D01*
X189283333Y-82133333D01*
X189216666Y-82200000D01*
X189150000Y-82233333D01*
X189016666Y-82266666D01*
X188916666Y-82266666D01*
X188783333Y-82233333D01*
X188716666Y-82200000D01*
X188650000Y-82133333D01*
X188616666Y-82033333D01*
X188616666Y-81966666D01*
X188650000Y-81866666D01*
X188683333Y-81833333D01*
D11*
G36*
X145137986Y-74611054D02*
G01*
X145971900Y-74611054D01*
X145971900Y-73800000D01*
X146374807Y-73800000D01*
X146374332Y-75813109D01*
X145971900Y-75813109D01*
X145971900Y-74973480D01*
X145137986Y-74973480D01*
X145137986Y-75813109D01*
X144735555Y-75813109D01*
X144735555Y-73800000D01*
X145137986Y-73800000D01*
X145137986Y-74611054D01*
G37*
X145137986Y-74611054D02*
X145971900Y-74611054D01*
X145971900Y-73800000D01*
X146374807Y-73800000D01*
X146374332Y-75813109D01*
X145971900Y-75813109D01*
X145971900Y-74973480D01*
X145137986Y-74973480D01*
X145137986Y-75813109D01*
X144735555Y-75813109D01*
X144735555Y-73800000D01*
X145137986Y-73800000D01*
X145137986Y-74611054D01*
G36*
X154133213Y-72537354D02*
G01*
X154147604Y-72538448D01*
X154161786Y-72540251D01*
X154175740Y-72542743D01*
X154189450Y-72545907D01*
X154202897Y-72549725D01*
X154216063Y-72554180D01*
X154228931Y-72559254D01*
X154241483Y-72564929D01*
X154253702Y-72571187D01*
X154265568Y-72578010D01*
X154277066Y-72585380D01*
X154288175Y-72593281D01*
X154298880Y-72601693D01*
X154309162Y-72610600D01*
X154319003Y-72619982D01*
X154328386Y-72629824D01*
X154337293Y-72640105D01*
X154345705Y-72650810D01*
X154353605Y-72661920D01*
X154360976Y-72673417D01*
X154367799Y-72685284D01*
X154374057Y-72697502D01*
X154379732Y-72710054D01*
X154384806Y-72722923D01*
X154389261Y-72736089D01*
X154393079Y-72749536D01*
X154396243Y-72763246D01*
X154398735Y-72777200D01*
X154400537Y-72791381D01*
X154401632Y-72805772D01*
X154402000Y-72820354D01*
X154401632Y-72834936D01*
X154400537Y-72849327D01*
X154398735Y-72863509D01*
X154396243Y-72877463D01*
X154393079Y-72891173D01*
X154389261Y-72904619D01*
X154384806Y-72917786D01*
X154379732Y-72930654D01*
X154374057Y-72943206D01*
X154367799Y-72955425D01*
X154360976Y-72967291D01*
X154353605Y-72978788D01*
X154345705Y-72989898D01*
X154337293Y-73000603D01*
X154328386Y-73010885D01*
X154319003Y-73020726D01*
X154309162Y-73030109D01*
X154298880Y-73039015D01*
X154288175Y-73047428D01*
X154277066Y-73055328D01*
X154265568Y-73062699D01*
X154253702Y-73069522D01*
X154241483Y-73075780D01*
X154228931Y-73081454D01*
X154216063Y-73086528D01*
X154202897Y-73090983D01*
X154189450Y-73094802D01*
X154175740Y-73097966D01*
X154161786Y-73100458D01*
X154147604Y-73102260D01*
X154133213Y-73103354D01*
X154118631Y-73103723D01*
X154104049Y-73103354D01*
X154089659Y-73102260D01*
X154075477Y-73100458D01*
X154061523Y-73097966D01*
X154047813Y-73094802D01*
X154034366Y-73090983D01*
X154021200Y-73086528D01*
X154008331Y-73081454D01*
X153995779Y-73075780D01*
X153983561Y-73069522D01*
X153971694Y-73062699D01*
X153960197Y-73055328D01*
X153949087Y-73047428D01*
X153938382Y-73039015D01*
X153928100Y-73030109D01*
X153918259Y-73020726D01*
X153908877Y-73010885D01*
X153899970Y-73000603D01*
X153891558Y-72989898D01*
X153883657Y-72978788D01*
X153876287Y-72967291D01*
X153869463Y-72955425D01*
X153863206Y-72943206D01*
X153857531Y-72930654D01*
X153852457Y-72917786D01*
X153848002Y-72904619D01*
X153844184Y-72891173D01*
X153841019Y-72877463D01*
X153838527Y-72863509D01*
X153836725Y-72849327D01*
X153835631Y-72834936D01*
X153835262Y-72820354D01*
X153835631Y-72805772D01*
X153836725Y-72791381D01*
X153838527Y-72777200D01*
X153841019Y-72763246D01*
X153844184Y-72749536D01*
X153848002Y-72736089D01*
X153852457Y-72722923D01*
X153857531Y-72710054D01*
X153863206Y-72697502D01*
X153869463Y-72685284D01*
X153876287Y-72673417D01*
X153883657Y-72661920D01*
X153891558Y-72650810D01*
X153899970Y-72640105D01*
X153908877Y-72629824D01*
X153918259Y-72619982D01*
X153928100Y-72610600D01*
X153938382Y-72601693D01*
X153949087Y-72593281D01*
X153960197Y-72585380D01*
X153971694Y-72578010D01*
X153983561Y-72571187D01*
X153995779Y-72564929D01*
X154008331Y-72559254D01*
X154021200Y-72554180D01*
X154034366Y-72549725D01*
X154047813Y-72545907D01*
X154061523Y-72542743D01*
X154075477Y-72540251D01*
X154089659Y-72538448D01*
X154104049Y-72537354D01*
X154118631Y-72536985D01*
X154133213Y-72537354D01*
G37*
X154133213Y-72537354D02*
X154147604Y-72538448D01*
X154161786Y-72540251D01*
X154175740Y-72542743D01*
X154189450Y-72545907D01*
X154202897Y-72549725D01*
X154216063Y-72554180D01*
X154228931Y-72559254D01*
X154241483Y-72564929D01*
X154253702Y-72571187D01*
X154265568Y-72578010D01*
X154277066Y-72585380D01*
X154288175Y-72593281D01*
X154298880Y-72601693D01*
X154309162Y-72610600D01*
X154319003Y-72619982D01*
X154328386Y-72629824D01*
X154337293Y-72640105D01*
X154345705Y-72650810D01*
X154353605Y-72661920D01*
X154360976Y-72673417D01*
X154367799Y-72685284D01*
X154374057Y-72697502D01*
X154379732Y-72710054D01*
X154384806Y-72722923D01*
X154389261Y-72736089D01*
X154393079Y-72749536D01*
X154396243Y-72763246D01*
X154398735Y-72777200D01*
X154400537Y-72791381D01*
X154401632Y-72805772D01*
X154402000Y-72820354D01*
X154401632Y-72834936D01*
X154400537Y-72849327D01*
X154398735Y-72863509D01*
X154396243Y-72877463D01*
X154393079Y-72891173D01*
X154389261Y-72904619D01*
X154384806Y-72917786D01*
X154379732Y-72930654D01*
X154374057Y-72943206D01*
X154367799Y-72955425D01*
X154360976Y-72967291D01*
X154353605Y-72978788D01*
X154345705Y-72989898D01*
X154337293Y-73000603D01*
X154328386Y-73010885D01*
X154319003Y-73020726D01*
X154309162Y-73030109D01*
X154298880Y-73039015D01*
X154288175Y-73047428D01*
X154277066Y-73055328D01*
X154265568Y-73062699D01*
X154253702Y-73069522D01*
X154241483Y-73075780D01*
X154228931Y-73081454D01*
X154216063Y-73086528D01*
X154202897Y-73090983D01*
X154189450Y-73094802D01*
X154175740Y-73097966D01*
X154161786Y-73100458D01*
X154147604Y-73102260D01*
X154133213Y-73103354D01*
X154118631Y-73103723D01*
X154104049Y-73103354D01*
X154089659Y-73102260D01*
X154075477Y-73100458D01*
X154061523Y-73097966D01*
X154047813Y-73094802D01*
X154034366Y-73090983D01*
X154021200Y-73086528D01*
X154008331Y-73081454D01*
X153995779Y-73075780D01*
X153983561Y-73069522D01*
X153971694Y-73062699D01*
X153960197Y-73055328D01*
X153949087Y-73047428D01*
X153938382Y-73039015D01*
X153928100Y-73030109D01*
X153918259Y-73020726D01*
X153908877Y-73010885D01*
X153899970Y-73000603D01*
X153891558Y-72989898D01*
X153883657Y-72978788D01*
X153876287Y-72967291D01*
X153869463Y-72955425D01*
X153863206Y-72943206D01*
X153857531Y-72930654D01*
X153852457Y-72917786D01*
X153848002Y-72904619D01*
X153844184Y-72891173D01*
X153841019Y-72877463D01*
X153838527Y-72863509D01*
X153836725Y-72849327D01*
X153835631Y-72834936D01*
X153835262Y-72820354D01*
X153835631Y-72805772D01*
X153836725Y-72791381D01*
X153838527Y-72777200D01*
X153841019Y-72763246D01*
X153844184Y-72749536D01*
X153848002Y-72736089D01*
X153852457Y-72722923D01*
X153857531Y-72710054D01*
X153863206Y-72697502D01*
X153869463Y-72685284D01*
X153876287Y-72673417D01*
X153883657Y-72661920D01*
X153891558Y-72650810D01*
X153899970Y-72640105D01*
X153908877Y-72629824D01*
X153918259Y-72619982D01*
X153928100Y-72610600D01*
X153938382Y-72601693D01*
X153949087Y-72593281D01*
X153960197Y-72585380D01*
X153971694Y-72578010D01*
X153983561Y-72571187D01*
X153995779Y-72564929D01*
X154008331Y-72559254D01*
X154021200Y-72554180D01*
X154034366Y-72549725D01*
X154047813Y-72545907D01*
X154061523Y-72542743D01*
X154075477Y-72540251D01*
X154089659Y-72538448D01*
X154104049Y-72537354D01*
X154118631Y-72536985D01*
X154133213Y-72537354D01*
G36*
X149641406Y-73797619D02*
G01*
X149683216Y-73798007D01*
X149723981Y-73799699D01*
X149763682Y-73802687D01*
X149802301Y-73806961D01*
X149839818Y-73812511D01*
X149876217Y-73819328D01*
X149911477Y-73827402D01*
X149945581Y-73836724D01*
X149978511Y-73847284D01*
X150010247Y-73859073D01*
X150040771Y-73872081D01*
X150070065Y-73886299D01*
X150098110Y-73901718D01*
X150124888Y-73918327D01*
X150150380Y-73936117D01*
X150174568Y-73955079D01*
X150197433Y-73975204D01*
X150218957Y-73996481D01*
X150239122Y-74018901D01*
X150257908Y-74042455D01*
X150275297Y-74067134D01*
X150291272Y-74092927D01*
X150305813Y-74119825D01*
X150318901Y-74147819D01*
X150330519Y-74176899D01*
X150340648Y-74207056D01*
X150349270Y-74238280D01*
X150356365Y-74270562D01*
X150361916Y-74303892D01*
X150365903Y-74338261D01*
X150368309Y-74373659D01*
X150369116Y-74410077D01*
X150369117Y-74410553D01*
X150368554Y-74440148D01*
X150366959Y-74469013D01*
X150364341Y-74497149D01*
X150360711Y-74524553D01*
X150356078Y-74551226D01*
X150350450Y-74577166D01*
X150343837Y-74602373D01*
X150336249Y-74626845D01*
X150327694Y-74650582D01*
X150318183Y-74673582D01*
X150307724Y-74695846D01*
X150296327Y-74717371D01*
X150284001Y-74738158D01*
X150270755Y-74758205D01*
X150256599Y-74777512D01*
X150241542Y-74796077D01*
X150225594Y-74813900D01*
X150208763Y-74830980D01*
X150191059Y-74847316D01*
X150172492Y-74862907D01*
X150153071Y-74877752D01*
X150132805Y-74891850D01*
X150111703Y-74905201D01*
X150089775Y-74917804D01*
X150067030Y-74929657D01*
X150043477Y-74940760D01*
X150019126Y-74951112D01*
X149993986Y-74960713D01*
X149941377Y-74977654D01*
X149885724Y-74991578D01*
X150449128Y-75814062D01*
X149974782Y-75814062D01*
X149546157Y-75175410D01*
X149535672Y-75159145D01*
X149525589Y-75142713D01*
X149515819Y-75125901D01*
X149506272Y-75108497D01*
X149496858Y-75090290D01*
X149487490Y-75071067D01*
X149478077Y-75050616D01*
X149468529Y-75028725D01*
X149393758Y-75028725D01*
X149393758Y-75813585D01*
X148991326Y-75813585D01*
X148991326Y-74665346D01*
X149394233Y-74665346D01*
X149618546Y-74665346D01*
X149638761Y-74665086D01*
X149658416Y-74664306D01*
X149677504Y-74663010D01*
X149696021Y-74661200D01*
X149713962Y-74658878D01*
X149731320Y-74656048D01*
X149748092Y-74652711D01*
X149764271Y-74648871D01*
X149779852Y-74644530D01*
X149794830Y-74639691D01*
X149809199Y-74634356D01*
X149822955Y-74628528D01*
X149836091Y-74622210D01*
X149848603Y-74615404D01*
X149860485Y-74608112D01*
X149871732Y-74600338D01*
X149882339Y-74592085D01*
X149892299Y-74583353D01*
X149901609Y-74574147D01*
X149910263Y-74564469D01*
X149918254Y-74554321D01*
X149925579Y-74543707D01*
X149932231Y-74532628D01*
X149938206Y-74521088D01*
X149943498Y-74509088D01*
X149948101Y-74496632D01*
X149952011Y-74483722D01*
X149955222Y-74470361D01*
X149957728Y-74456552D01*
X149959525Y-74442296D01*
X149960608Y-74427598D01*
X149960969Y-74412458D01*
X149960608Y-74397578D01*
X149959525Y-74383123D01*
X149957728Y-74369095D01*
X149955222Y-74355498D01*
X149952011Y-74342335D01*
X149948101Y-74329609D01*
X149943498Y-74317323D01*
X149938206Y-74305480D01*
X149932231Y-74294084D01*
X149925579Y-74283138D01*
X149918254Y-74272644D01*
X149910263Y-74262607D01*
X149901609Y-74253028D01*
X149892299Y-74243912D01*
X149882339Y-74235260D01*
X149871732Y-74227078D01*
X149860485Y-74219367D01*
X149848603Y-74212130D01*
X149836091Y-74205372D01*
X149822955Y-74199094D01*
X149794830Y-74187995D01*
X149764271Y-74178857D01*
X149731320Y-74171707D01*
X149696021Y-74166568D01*
X149658416Y-74163466D01*
X149618546Y-74162427D01*
X149394233Y-74162427D01*
X149394233Y-74665346D01*
X148991326Y-74665346D01*
X148991326Y-73800477D01*
X149641406Y-73797619D01*
G37*
X149641406Y-73797619D02*
X149683216Y-73798007D01*
X149723981Y-73799699D01*
X149763682Y-73802687D01*
X149802301Y-73806961D01*
X149839818Y-73812511D01*
X149876217Y-73819328D01*
X149911477Y-73827402D01*
X149945581Y-73836724D01*
X149978511Y-73847284D01*
X150010247Y-73859073D01*
X150040771Y-73872081D01*
X150070065Y-73886299D01*
X150098110Y-73901718D01*
X150124888Y-73918327D01*
X150150380Y-73936117D01*
X150174568Y-73955079D01*
X150197433Y-73975204D01*
X150218957Y-73996481D01*
X150239122Y-74018901D01*
X150257908Y-74042455D01*
X150275297Y-74067134D01*
X150291272Y-74092927D01*
X150305813Y-74119825D01*
X150318901Y-74147819D01*
X150330519Y-74176899D01*
X150340648Y-74207056D01*
X150349270Y-74238280D01*
X150356365Y-74270562D01*
X150361916Y-74303892D01*
X150365903Y-74338261D01*
X150368309Y-74373659D01*
X150369116Y-74410077D01*
X150369117Y-74410553D01*
X150368554Y-74440148D01*
X150366959Y-74469013D01*
X150364341Y-74497149D01*
X150360711Y-74524553D01*
X150356078Y-74551226D01*
X150350450Y-74577166D01*
X150343837Y-74602373D01*
X150336249Y-74626845D01*
X150327694Y-74650582D01*
X150318183Y-74673582D01*
X150307724Y-74695846D01*
X150296327Y-74717371D01*
X150284001Y-74738158D01*
X150270755Y-74758205D01*
X150256599Y-74777512D01*
X150241542Y-74796077D01*
X150225594Y-74813900D01*
X150208763Y-74830980D01*
X150191059Y-74847316D01*
X150172492Y-74862907D01*
X150153071Y-74877752D01*
X150132805Y-74891850D01*
X150111703Y-74905201D01*
X150089775Y-74917804D01*
X150067030Y-74929657D01*
X150043477Y-74940760D01*
X150019126Y-74951112D01*
X149993986Y-74960713D01*
X149941377Y-74977654D01*
X149885724Y-74991578D01*
X150449128Y-75814062D01*
X149974782Y-75814062D01*
X149546157Y-75175410D01*
X149535672Y-75159145D01*
X149525589Y-75142713D01*
X149515819Y-75125901D01*
X149506272Y-75108497D01*
X149496858Y-75090290D01*
X149487490Y-75071067D01*
X149478077Y-75050616D01*
X149468529Y-75028725D01*
X149393758Y-75028725D01*
X149393758Y-75813585D01*
X148991326Y-75813585D01*
X148991326Y-74665346D01*
X149394233Y-74665346D01*
X149618546Y-74665346D01*
X149638761Y-74665086D01*
X149658416Y-74664306D01*
X149677504Y-74663010D01*
X149696021Y-74661200D01*
X149713962Y-74658878D01*
X149731320Y-74656048D01*
X149748092Y-74652711D01*
X149764271Y-74648871D01*
X149779852Y-74644530D01*
X149794830Y-74639691D01*
X149809199Y-74634356D01*
X149822955Y-74628528D01*
X149836091Y-74622210D01*
X149848603Y-74615404D01*
X149860485Y-74608112D01*
X149871732Y-74600338D01*
X149882339Y-74592085D01*
X149892299Y-74583353D01*
X149901609Y-74574147D01*
X149910263Y-74564469D01*
X149918254Y-74554321D01*
X149925579Y-74543707D01*
X149932231Y-74532628D01*
X149938206Y-74521088D01*
X149943498Y-74509088D01*
X149948101Y-74496632D01*
X149952011Y-74483722D01*
X149955222Y-74470361D01*
X149957728Y-74456552D01*
X149959525Y-74442296D01*
X149960608Y-74427598D01*
X149960969Y-74412458D01*
X149960608Y-74397578D01*
X149959525Y-74383123D01*
X149957728Y-74369095D01*
X149955222Y-74355498D01*
X149952011Y-74342335D01*
X149948101Y-74329609D01*
X149943498Y-74317323D01*
X149938206Y-74305480D01*
X149932231Y-74294084D01*
X149925579Y-74283138D01*
X149918254Y-74272644D01*
X149910263Y-74262607D01*
X149901609Y-74253028D01*
X149892299Y-74243912D01*
X149882339Y-74235260D01*
X149871732Y-74227078D01*
X149860485Y-74219367D01*
X149848603Y-74212130D01*
X149836091Y-74205372D01*
X149822955Y-74199094D01*
X149794830Y-74187995D01*
X149764271Y-74178857D01*
X149731320Y-74171707D01*
X149696021Y-74166568D01*
X149658416Y-74163466D01*
X149618546Y-74162427D01*
X149394233Y-74162427D01*
X149394233Y-74665346D01*
X148991326Y-74665346D01*
X148991326Y-73800477D01*
X149641406Y-73797619D01*
G36*
X154024811Y-72377442D02*
G01*
X154000071Y-72383390D01*
X153975886Y-72390670D01*
X153952294Y-72399240D01*
X153929338Y-72409060D01*
X153907057Y-72420089D01*
X153885491Y-72432284D01*
X153864682Y-72445605D01*
X153844669Y-72460012D01*
X153825494Y-72475462D01*
X153807196Y-72491914D01*
X153789817Y-72509328D01*
X153773396Y-72527661D01*
X153757974Y-72546874D01*
X153743591Y-72566925D01*
X153730289Y-72587772D01*
X153718107Y-72609375D01*
X152939675Y-71413401D01*
X151646419Y-73400427D01*
X151174455Y-73400427D01*
X152445127Y-71413035D01*
X152939437Y-71413035D01*
X152939675Y-71413401D01*
X152939914Y-71413035D01*
X152939437Y-71413035D01*
X152445127Y-71413035D01*
X152925626Y-70661513D01*
X154024811Y-72377442D01*
G37*
X154024811Y-72377442D02*
X154000071Y-72383390D01*
X153975886Y-72390670D01*
X153952294Y-72399240D01*
X153929338Y-72409060D01*
X153907057Y-72420089D01*
X153885491Y-72432284D01*
X153864682Y-72445605D01*
X153844669Y-72460012D01*
X153825494Y-72475462D01*
X153807196Y-72491914D01*
X153789817Y-72509328D01*
X153773396Y-72527661D01*
X153757974Y-72546874D01*
X153743591Y-72566925D01*
X153730289Y-72587772D01*
X153718107Y-72609375D01*
X152939675Y-71413401D01*
X151646419Y-73400427D01*
X151174455Y-73400427D01*
X152445127Y-71413035D01*
X152939437Y-71413035D01*
X152939675Y-71413401D01*
X152939914Y-71413035D01*
X152939437Y-71413035D01*
X152445127Y-71413035D01*
X152925626Y-70661513D01*
X154024811Y-72377442D01*
G36*
X154454195Y-70992053D02*
G01*
X154552387Y-71005661D01*
X154649655Y-71024714D01*
X154745750Y-71049166D01*
X154840421Y-71078969D01*
X154933420Y-71114079D01*
X155024496Y-71154449D01*
X155113400Y-71200033D01*
X155199881Y-71250785D01*
X155283691Y-71306659D01*
X155364579Y-71367609D01*
X155442295Y-71433589D01*
X155516590Y-71504552D01*
X155587215Y-71580454D01*
X155653918Y-71661248D01*
X155716451Y-71746887D01*
X155773799Y-71836081D01*
X155825141Y-71927406D01*
X155870525Y-72020614D01*
X155909995Y-72115460D01*
X155943596Y-72211694D01*
X155971374Y-72309072D01*
X155993374Y-72407345D01*
X156009642Y-72506267D01*
X156020223Y-72605591D01*
X156025162Y-72705070D01*
X156024505Y-72804457D01*
X156018297Y-72903504D01*
X156006583Y-73001966D01*
X155989408Y-73099595D01*
X155966819Y-73196144D01*
X155938860Y-73291365D01*
X155673588Y-73241835D01*
X155699790Y-73159497D01*
X155721216Y-73075870D01*
X155737825Y-72991182D01*
X155749573Y-72905662D01*
X155756418Y-72819540D01*
X155758318Y-72733044D01*
X155755229Y-72646403D01*
X155747110Y-72559845D01*
X155733918Y-72473600D01*
X155715609Y-72387897D01*
X155692143Y-72302963D01*
X155663476Y-72219029D01*
X155629565Y-72136322D01*
X155590369Y-72055073D01*
X155545844Y-71975508D01*
X155495947Y-71897858D01*
X155441419Y-71823391D01*
X155383179Y-71753253D01*
X155321455Y-71687484D01*
X155256475Y-71626128D01*
X155188467Y-71569225D01*
X155117660Y-71516817D01*
X155044281Y-71468947D01*
X154968559Y-71425656D01*
X154890722Y-71386986D01*
X154810998Y-71352980D01*
X154729615Y-71323678D01*
X154646801Y-71299122D01*
X154562784Y-71279356D01*
X154477793Y-71264419D01*
X154392055Y-71254355D01*
X154305799Y-71249206D01*
X154355329Y-70983934D01*
X154454195Y-70992053D01*
G37*
X154454195Y-70992053D02*
X154552387Y-71005661D01*
X154649655Y-71024714D01*
X154745750Y-71049166D01*
X154840421Y-71078969D01*
X154933420Y-71114079D01*
X155024496Y-71154449D01*
X155113400Y-71200033D01*
X155199881Y-71250785D01*
X155283691Y-71306659D01*
X155364579Y-71367609D01*
X155442295Y-71433589D01*
X155516590Y-71504552D01*
X155587215Y-71580454D01*
X155653918Y-71661248D01*
X155716451Y-71746887D01*
X155773799Y-71836081D01*
X155825141Y-71927406D01*
X155870525Y-72020614D01*
X155909995Y-72115460D01*
X155943596Y-72211694D01*
X155971374Y-72309072D01*
X155993374Y-72407345D01*
X156009642Y-72506267D01*
X156020223Y-72605591D01*
X156025162Y-72705070D01*
X156024505Y-72804457D01*
X156018297Y-72903504D01*
X156006583Y-73001966D01*
X155989408Y-73099595D01*
X155966819Y-73196144D01*
X155938860Y-73291365D01*
X155673588Y-73241835D01*
X155699790Y-73159497D01*
X155721216Y-73075870D01*
X155737825Y-72991182D01*
X155749573Y-72905662D01*
X155756418Y-72819540D01*
X155758318Y-72733044D01*
X155755229Y-72646403D01*
X155747110Y-72559845D01*
X155733918Y-72473600D01*
X155715609Y-72387897D01*
X155692143Y-72302963D01*
X155663476Y-72219029D01*
X155629565Y-72136322D01*
X155590369Y-72055073D01*
X155545844Y-71975508D01*
X155495947Y-71897858D01*
X155441419Y-71823391D01*
X155383179Y-71753253D01*
X155321455Y-71687484D01*
X155256475Y-71626128D01*
X155188467Y-71569225D01*
X155117660Y-71516817D01*
X155044281Y-71468947D01*
X154968559Y-71425656D01*
X154890722Y-71386986D01*
X154810998Y-71352980D01*
X154729615Y-71323678D01*
X154646801Y-71299122D01*
X154562784Y-71279356D01*
X154477793Y-71264419D01*
X154392055Y-71254355D01*
X154305799Y-71249206D01*
X154355329Y-70983934D01*
X154454195Y-70992053D01*
G36*
X139930192Y-73799524D02*
G01*
X140749818Y-75812633D01*
X140312622Y-75812633D01*
X140174509Y-75430204D01*
X139334880Y-75430204D01*
X139196768Y-75812633D01*
X138759570Y-75812633D01*
X139058054Y-75082065D01*
X139466801Y-75082065D01*
X140042111Y-75082065D01*
X139826370Y-74532949D01*
X139815779Y-74504782D01*
X139805490Y-74476380D01*
X139795580Y-74447777D01*
X139786127Y-74419006D01*
X139777211Y-74390102D01*
X139768908Y-74361097D01*
X139761297Y-74332025D01*
X139754456Y-74302920D01*
X139738800Y-74361499D01*
X139730447Y-74390855D01*
X139721714Y-74420078D01*
X139712580Y-74449032D01*
X139703021Y-74477585D01*
X139693016Y-74505602D01*
X139682543Y-74532949D01*
X139466801Y-75082065D01*
X139058054Y-75082065D01*
X139582054Y-73799524D01*
X139930192Y-73799524D01*
G37*
X139930192Y-73799524D02*
X140749818Y-75812633D01*
X140312622Y-75812633D01*
X140174509Y-75430204D01*
X139334880Y-75430204D01*
X139196768Y-75812633D01*
X138759570Y-75812633D01*
X139058054Y-75082065D01*
X139466801Y-75082065D01*
X140042111Y-75082065D01*
X139826370Y-74532949D01*
X139815779Y-74504782D01*
X139805490Y-74476380D01*
X139795580Y-74447777D01*
X139786127Y-74419006D01*
X139777211Y-74390102D01*
X139768908Y-74361097D01*
X139761297Y-74332025D01*
X139754456Y-74302920D01*
X139738800Y-74361499D01*
X139730447Y-74390855D01*
X139721714Y-74420078D01*
X139712580Y-74449032D01*
X139703021Y-74477585D01*
X139693016Y-74505602D01*
X139682543Y-74532949D01*
X139466801Y-75082065D01*
X139058054Y-75082065D01*
X139582054Y-73799524D01*
X139930192Y-73799524D01*
G36*
X137097458Y-74688207D02*
G01*
X137148039Y-74796458D01*
X137190371Y-74889489D01*
X137225359Y-74969048D01*
X137253906Y-75036881D01*
X137276917Y-75094735D01*
X137295295Y-75144357D01*
X137309945Y-75187494D01*
X137321772Y-75225893D01*
X137332655Y-75187494D01*
X137346596Y-75144357D01*
X137364467Y-75094735D01*
X137387137Y-75036881D01*
X137415477Y-74969048D01*
X137450359Y-74889489D01*
X137492652Y-74796458D01*
X137543228Y-74688207D01*
X137543704Y-74688207D01*
X137963756Y-73799524D01*
X138446674Y-73799524D01*
X138446674Y-75812633D01*
X138052815Y-75812633D01*
X138052815Y-74998722D01*
X138053223Y-74902335D01*
X138054467Y-74816809D01*
X138056582Y-74740057D01*
X138059602Y-74669990D01*
X138063559Y-74604523D01*
X138068487Y-74541566D01*
X138074419Y-74479034D01*
X138081390Y-74414839D01*
X137411306Y-75812633D01*
X137215568Y-75812633D01*
X136545484Y-74414839D01*
X136552455Y-74479171D01*
X136558387Y-74541767D01*
X136563315Y-74604732D01*
X136567272Y-74670169D01*
X136570292Y-74740182D01*
X136572407Y-74816876D01*
X136573652Y-74902355D01*
X136574059Y-74998722D01*
X136574059Y-75812633D01*
X136180200Y-75812633D01*
X136180200Y-73799524D01*
X136680739Y-73799524D01*
X137097458Y-74688207D01*
G37*
X137097458Y-74688207D02*
X137148039Y-74796458D01*
X137190371Y-74889489D01*
X137225359Y-74969048D01*
X137253906Y-75036881D01*
X137276917Y-75094735D01*
X137295295Y-75144357D01*
X137309945Y-75187494D01*
X137321772Y-75225893D01*
X137332655Y-75187494D01*
X137346596Y-75144357D01*
X137364467Y-75094735D01*
X137387137Y-75036881D01*
X137415477Y-74969048D01*
X137450359Y-74889489D01*
X137492652Y-74796458D01*
X137543228Y-74688207D01*
X137543704Y-74688207D01*
X137963756Y-73799524D01*
X138446674Y-73799524D01*
X138446674Y-75812633D01*
X138052815Y-75812633D01*
X138052815Y-74998722D01*
X138053223Y-74902335D01*
X138054467Y-74816809D01*
X138056582Y-74740057D01*
X138059602Y-74669990D01*
X138063559Y-74604523D01*
X138068487Y-74541566D01*
X138074419Y-74479034D01*
X138081390Y-74414839D01*
X137411306Y-75812633D01*
X137215568Y-75812633D01*
X136545484Y-74414839D01*
X136552455Y-74479171D01*
X136558387Y-74541767D01*
X136563315Y-74604732D01*
X136567272Y-74670169D01*
X136570292Y-74740182D01*
X136572407Y-74816876D01*
X136573652Y-74902355D01*
X136574059Y-74998722D01*
X136574059Y-75812633D01*
X136180200Y-75812633D01*
X136180200Y-73799524D01*
X136680739Y-73799524D01*
X137097458Y-74688207D01*
G36*
X154256717Y-71908275D02*
G01*
X154312837Y-71912732D01*
X154368506Y-71920770D01*
X154423536Y-71932355D01*
X154477739Y-71947452D01*
X154530928Y-71966028D01*
X154582915Y-71988048D01*
X154633512Y-72013478D01*
X154682532Y-72042284D01*
X154729787Y-72074431D01*
X154775090Y-72109886D01*
X154818252Y-72148614D01*
X154859086Y-72190581D01*
X154897404Y-72235754D01*
X154933019Y-72284097D01*
X154933972Y-72284097D01*
X154966281Y-72334764D01*
X154994653Y-72386807D01*
X155019123Y-72440038D01*
X155039729Y-72494272D01*
X155056506Y-72549320D01*
X155069491Y-72604996D01*
X155078720Y-72661113D01*
X155084229Y-72717484D01*
X155086054Y-72773922D01*
X155084232Y-72830240D01*
X155078800Y-72886251D01*
X155069792Y-72941768D01*
X155057247Y-72996604D01*
X155041199Y-73050573D01*
X155021685Y-73103486D01*
X154998742Y-73155158D01*
X154721564Y-73103723D01*
X154744134Y-73065835D01*
X154763779Y-73026588D01*
X154780466Y-72986162D01*
X154794162Y-72944737D01*
X154804833Y-72902495D01*
X154812446Y-72859616D01*
X154816967Y-72816281D01*
X154818362Y-72772670D01*
X154816598Y-72728964D01*
X154811642Y-72685344D01*
X154803461Y-72641990D01*
X154792019Y-72599084D01*
X154777285Y-72556806D01*
X154759225Y-72515336D01*
X154737805Y-72474855D01*
X154712992Y-72435544D01*
X154699422Y-72416551D01*
X154685251Y-72398241D01*
X154670499Y-72380617D01*
X154655191Y-72363683D01*
X154639348Y-72347446D01*
X154622993Y-72331907D01*
X154606149Y-72317072D01*
X154588839Y-72302946D01*
X154571086Y-72289531D01*
X154552911Y-72276833D01*
X154534338Y-72264856D01*
X154515389Y-72253605D01*
X154496087Y-72243082D01*
X154476455Y-72233293D01*
X154456515Y-72224242D01*
X154436291Y-72215933D01*
X154415804Y-72208371D01*
X154395077Y-72201559D01*
X154374133Y-72195503D01*
X154352995Y-72190206D01*
X154331686Y-72185672D01*
X154310227Y-72181906D01*
X154288642Y-72178912D01*
X154266954Y-72176695D01*
X154245185Y-72175258D01*
X154223357Y-72174606D01*
X154201494Y-72174744D01*
X154179618Y-72175675D01*
X154157752Y-72177403D01*
X154135918Y-72179934D01*
X154114139Y-72183271D01*
X154092439Y-72187418D01*
X154143872Y-71910241D01*
X154200333Y-71907433D01*
X154256717Y-71908275D01*
G37*
X154256717Y-71908275D02*
X154312837Y-71912732D01*
X154368506Y-71920770D01*
X154423536Y-71932355D01*
X154477739Y-71947452D01*
X154530928Y-71966028D01*
X154582915Y-71988048D01*
X154633512Y-72013478D01*
X154682532Y-72042284D01*
X154729787Y-72074431D01*
X154775090Y-72109886D01*
X154818252Y-72148614D01*
X154859086Y-72190581D01*
X154897404Y-72235754D01*
X154933019Y-72284097D01*
X154933972Y-72284097D01*
X154966281Y-72334764D01*
X154994653Y-72386807D01*
X155019123Y-72440038D01*
X155039729Y-72494272D01*
X155056506Y-72549320D01*
X155069491Y-72604996D01*
X155078720Y-72661113D01*
X155084229Y-72717484D01*
X155086054Y-72773922D01*
X155084232Y-72830240D01*
X155078800Y-72886251D01*
X155069792Y-72941768D01*
X155057247Y-72996604D01*
X155041199Y-73050573D01*
X155021685Y-73103486D01*
X154998742Y-73155158D01*
X154721564Y-73103723D01*
X154744134Y-73065835D01*
X154763779Y-73026588D01*
X154780466Y-72986162D01*
X154794162Y-72944737D01*
X154804833Y-72902495D01*
X154812446Y-72859616D01*
X154816967Y-72816281D01*
X154818362Y-72772670D01*
X154816598Y-72728964D01*
X154811642Y-72685344D01*
X154803461Y-72641990D01*
X154792019Y-72599084D01*
X154777285Y-72556806D01*
X154759225Y-72515336D01*
X154737805Y-72474855D01*
X154712992Y-72435544D01*
X154699422Y-72416551D01*
X154685251Y-72398241D01*
X154670499Y-72380617D01*
X154655191Y-72363683D01*
X154639348Y-72347446D01*
X154622993Y-72331907D01*
X154606149Y-72317072D01*
X154588839Y-72302946D01*
X154571086Y-72289531D01*
X154552911Y-72276833D01*
X154534338Y-72264856D01*
X154515389Y-72253605D01*
X154496087Y-72243082D01*
X154476455Y-72233293D01*
X154456515Y-72224242D01*
X154436291Y-72215933D01*
X154415804Y-72208371D01*
X154395077Y-72201559D01*
X154374133Y-72195503D01*
X154352995Y-72190206D01*
X154331686Y-72185672D01*
X154310227Y-72181906D01*
X154288642Y-72178912D01*
X154266954Y-72176695D01*
X154245185Y-72175258D01*
X154223357Y-72174606D01*
X154201494Y-72174744D01*
X154179618Y-72175675D01*
X154157752Y-72177403D01*
X154135918Y-72179934D01*
X154114139Y-72183271D01*
X154092439Y-72187418D01*
X154143872Y-71910241D01*
X154200333Y-71907433D01*
X154256717Y-71908275D01*
G36*
X147858801Y-73800000D02*
G01*
X148678427Y-75813109D01*
X148241230Y-75813109D01*
X148103118Y-75430680D01*
X147263489Y-75430680D01*
X147125376Y-75813109D01*
X146688179Y-75813109D01*
X146986663Y-75082542D01*
X147395409Y-75082542D01*
X147970721Y-75082542D01*
X147754979Y-74533425D01*
X147744388Y-74505258D01*
X147734098Y-74476856D01*
X147724188Y-74448253D01*
X147714736Y-74419483D01*
X147705819Y-74390578D01*
X147697516Y-74361574D01*
X147689906Y-74332502D01*
X147683066Y-74303397D01*
X147667408Y-74361976D01*
X147659055Y-74391332D01*
X147650323Y-74420554D01*
X147641188Y-74449509D01*
X147631629Y-74478061D01*
X147621624Y-74506078D01*
X147611150Y-74533425D01*
X147395409Y-75082542D01*
X146986663Y-75082542D01*
X147510663Y-73800000D01*
X147858801Y-73800000D01*
G37*
X147858801Y-73800000D02*
X148678427Y-75813109D01*
X148241230Y-75813109D01*
X148103118Y-75430680D01*
X147263489Y-75430680D01*
X147125376Y-75813109D01*
X146688179Y-75813109D01*
X146986663Y-75082542D01*
X147395409Y-75082542D01*
X147970721Y-75082542D01*
X147754979Y-74533425D01*
X147744388Y-74505258D01*
X147734098Y-74476856D01*
X147724188Y-74448253D01*
X147714736Y-74419483D01*
X147705819Y-74390578D01*
X147697516Y-74361574D01*
X147689906Y-74332502D01*
X147683066Y-74303397D01*
X147667408Y-74361976D01*
X147659055Y-74391332D01*
X147650323Y-74420554D01*
X147641188Y-74449509D01*
X147631629Y-74478061D01*
X147621624Y-74506078D01*
X147611150Y-74533425D01*
X147395409Y-75082542D01*
X146986663Y-75082542D01*
X147510663Y-73800000D01*
X147858801Y-73800000D01*
G36*
X144324075Y-74162427D02*
G01*
X143749241Y-74162427D01*
X143749241Y-75813109D01*
X143346333Y-75813109D01*
X143346333Y-74162427D01*
X142771501Y-74162427D01*
X142771501Y-73800000D01*
X144324075Y-73800000D01*
X144324075Y-74162427D01*
G37*
X144324075Y-74162427D02*
X143749241Y-74162427D01*
X143749241Y-75813109D01*
X143346333Y-75813109D01*
X143346333Y-74162427D01*
X142771501Y-74162427D01*
X142771501Y-73800000D01*
X144324075Y-73800000D01*
X144324075Y-74162427D01*
G36*
X141712796Y-73797143D02*
G01*
X141754606Y-73797530D01*
X141795371Y-73799223D01*
X141835072Y-73802211D01*
X141873690Y-73806484D01*
X141911208Y-73812034D01*
X141947606Y-73818851D01*
X141982867Y-73826925D01*
X142016971Y-73836247D01*
X142049900Y-73846807D01*
X142081636Y-73858597D01*
X142112160Y-73871605D01*
X142141454Y-73885823D01*
X142169500Y-73901241D01*
X142196277Y-73917850D01*
X142221770Y-73935641D01*
X142245958Y-73954603D01*
X142268823Y-73974727D01*
X142290347Y-73996004D01*
X142310511Y-74018425D01*
X142329298Y-74041979D01*
X142346687Y-74066657D01*
X142362662Y-74092450D01*
X142377203Y-74119349D01*
X142390291Y-74147343D01*
X142401909Y-74176423D01*
X142412038Y-74206580D01*
X142420660Y-74237804D01*
X142427755Y-74270086D01*
X142433306Y-74303416D01*
X142437293Y-74337785D01*
X142439700Y-74373183D01*
X142440506Y-74409600D01*
X142440506Y-74410077D01*
X142439943Y-74439672D01*
X142438348Y-74468537D01*
X142435731Y-74496673D01*
X142432101Y-74524077D01*
X142427467Y-74550750D01*
X142421839Y-74576690D01*
X142415226Y-74601897D01*
X142407638Y-74626369D01*
X142399083Y-74650105D01*
X142389572Y-74673106D01*
X142379113Y-74695370D01*
X142367716Y-74716895D01*
X142355390Y-74737682D01*
X142342144Y-74757729D01*
X142327988Y-74777036D01*
X142312931Y-74795601D01*
X142296983Y-74813424D01*
X142280152Y-74830504D01*
X142262449Y-74846840D01*
X142243882Y-74862430D01*
X142224460Y-74877276D01*
X142204194Y-74891374D01*
X142183092Y-74904725D01*
X142161164Y-74917328D01*
X142138419Y-74929181D01*
X142114866Y-74940284D01*
X142090515Y-74950636D01*
X142065376Y-74960237D01*
X142012766Y-74977178D01*
X141957114Y-74991102D01*
X142520517Y-75813586D01*
X142046172Y-75813586D01*
X141617547Y-75174934D01*
X141607062Y-75158669D01*
X141596978Y-75142236D01*
X141587208Y-75125424D01*
X141577660Y-75108021D01*
X141568247Y-75089814D01*
X141558878Y-75070591D01*
X141549465Y-75050140D01*
X141539918Y-75028249D01*
X141465146Y-75028249D01*
X141465146Y-75813109D01*
X141062715Y-75813109D01*
X141062715Y-74664870D01*
X141465622Y-74664870D01*
X141689936Y-74664870D01*
X141710151Y-74664610D01*
X141729806Y-74663830D01*
X141748894Y-74662534D01*
X141767412Y-74660723D01*
X141785352Y-74658402D01*
X141802711Y-74655571D01*
X141819482Y-74652235D01*
X141835661Y-74648395D01*
X141851242Y-74644054D01*
X141866220Y-74639215D01*
X141880590Y-74633880D01*
X141894345Y-74628052D01*
X141907482Y-74621734D01*
X141919994Y-74614927D01*
X141931876Y-74607636D01*
X141943123Y-74599862D01*
X141953729Y-74591608D01*
X141963690Y-74582877D01*
X141973000Y-74573671D01*
X141981653Y-74563993D01*
X141989645Y-74553845D01*
X141996970Y-74543230D01*
X142003622Y-74532152D01*
X142009597Y-74520611D01*
X142014889Y-74508612D01*
X142019492Y-74496156D01*
X142023402Y-74483246D01*
X142026613Y-74469885D01*
X142029119Y-74456075D01*
X142030916Y-74441820D01*
X142031998Y-74427121D01*
X142032360Y-74411981D01*
X142031998Y-74397101D01*
X142030916Y-74382646D01*
X142029119Y-74368618D01*
X142026613Y-74355021D01*
X142023402Y-74341858D01*
X142019492Y-74329132D01*
X142014889Y-74316846D01*
X142009597Y-74305004D01*
X142003622Y-74293608D01*
X141996970Y-74282662D01*
X141989645Y-74272168D01*
X141981653Y-74262130D01*
X141973000Y-74252552D01*
X141963690Y-74243435D01*
X141953729Y-74234784D01*
X141943123Y-74226601D01*
X141931876Y-74218890D01*
X141919994Y-74211654D01*
X141907482Y-74204895D01*
X141894345Y-74198618D01*
X141866220Y-74187519D01*
X141835661Y-74178381D01*
X141802711Y-74171230D01*
X141767412Y-74166092D01*
X141729806Y-74162990D01*
X141689936Y-74161950D01*
X141465622Y-74161950D01*
X141465622Y-74664870D01*
X141062715Y-74664870D01*
X141062715Y-73800000D01*
X141712796Y-73797143D01*
G37*
X141712796Y-73797143D02*
X141754606Y-73797530D01*
X141795371Y-73799223D01*
X141835072Y-73802211D01*
X141873690Y-73806484D01*
X141911208Y-73812034D01*
X141947606Y-73818851D01*
X141982867Y-73826925D01*
X142016971Y-73836247D01*
X142049900Y-73846807D01*
X142081636Y-73858597D01*
X142112160Y-73871605D01*
X142141454Y-73885823D01*
X142169500Y-73901241D01*
X142196277Y-73917850D01*
X142221770Y-73935641D01*
X142245958Y-73954603D01*
X142268823Y-73974727D01*
X142290347Y-73996004D01*
X142310511Y-74018425D01*
X142329298Y-74041979D01*
X142346687Y-74066657D01*
X142362662Y-74092450D01*
X142377203Y-74119349D01*
X142390291Y-74147343D01*
X142401909Y-74176423D01*
X142412038Y-74206580D01*
X142420660Y-74237804D01*
X142427755Y-74270086D01*
X142433306Y-74303416D01*
X142437293Y-74337785D01*
X142439700Y-74373183D01*
X142440506Y-74409600D01*
X142440506Y-74410077D01*
X142439943Y-74439672D01*
X142438348Y-74468537D01*
X142435731Y-74496673D01*
X142432101Y-74524077D01*
X142427467Y-74550750D01*
X142421839Y-74576690D01*
X142415226Y-74601897D01*
X142407638Y-74626369D01*
X142399083Y-74650105D01*
X142389572Y-74673106D01*
X142379113Y-74695370D01*
X142367716Y-74716895D01*
X142355390Y-74737682D01*
X142342144Y-74757729D01*
X142327988Y-74777036D01*
X142312931Y-74795601D01*
X142296983Y-74813424D01*
X142280152Y-74830504D01*
X142262449Y-74846840D01*
X142243882Y-74862430D01*
X142224460Y-74877276D01*
X142204194Y-74891374D01*
X142183092Y-74904725D01*
X142161164Y-74917328D01*
X142138419Y-74929181D01*
X142114866Y-74940284D01*
X142090515Y-74950636D01*
X142065376Y-74960237D01*
X142012766Y-74977178D01*
X141957114Y-74991102D01*
X142520517Y-75813586D01*
X142046172Y-75813586D01*
X141617547Y-75174934D01*
X141607062Y-75158669D01*
X141596978Y-75142236D01*
X141587208Y-75125424D01*
X141577660Y-75108021D01*
X141568247Y-75089814D01*
X141558878Y-75070591D01*
X141549465Y-75050140D01*
X141539918Y-75028249D01*
X141465146Y-75028249D01*
X141465146Y-75813109D01*
X141062715Y-75813109D01*
X141062715Y-74664870D01*
X141465622Y-74664870D01*
X141689936Y-74664870D01*
X141710151Y-74664610D01*
X141729806Y-74663830D01*
X141748894Y-74662534D01*
X141767412Y-74660723D01*
X141785352Y-74658402D01*
X141802711Y-74655571D01*
X141819482Y-74652235D01*
X141835661Y-74648395D01*
X141851242Y-74644054D01*
X141866220Y-74639215D01*
X141880590Y-74633880D01*
X141894345Y-74628052D01*
X141907482Y-74621734D01*
X141919994Y-74614927D01*
X141931876Y-74607636D01*
X141943123Y-74599862D01*
X141953729Y-74591608D01*
X141963690Y-74582877D01*
X141973000Y-74573671D01*
X141981653Y-74563993D01*
X141989645Y-74553845D01*
X141996970Y-74543230D01*
X142003622Y-74532152D01*
X142009597Y-74520611D01*
X142014889Y-74508612D01*
X142019492Y-74496156D01*
X142023402Y-74483246D01*
X142026613Y-74469885D01*
X142029119Y-74456075D01*
X142030916Y-74441820D01*
X142031998Y-74427121D01*
X142032360Y-74411981D01*
X142031998Y-74397101D01*
X142030916Y-74382646D01*
X142029119Y-74368618D01*
X142026613Y-74355021D01*
X142023402Y-74341858D01*
X142019492Y-74329132D01*
X142014889Y-74316846D01*
X142009597Y-74305004D01*
X142003622Y-74293608D01*
X141996970Y-74282662D01*
X141989645Y-74272168D01*
X141981653Y-74262130D01*
X141973000Y-74252552D01*
X141963690Y-74243435D01*
X141953729Y-74234784D01*
X141943123Y-74226601D01*
X141931876Y-74218890D01*
X141919994Y-74211654D01*
X141907482Y-74204895D01*
X141894345Y-74198618D01*
X141866220Y-74187519D01*
X141835661Y-74178381D01*
X141802711Y-74171230D01*
X141767412Y-74166092D01*
X141729806Y-74162990D01*
X141689936Y-74161950D01*
X141465622Y-74161950D01*
X141465622Y-74664870D01*
X141062715Y-74664870D01*
X141062715Y-73800000D01*
X141712796Y-73797143D01*
G36*
X154315300Y-71425095D02*
G01*
X154394382Y-71433206D01*
X154472817Y-71445901D01*
X154550390Y-71463138D01*
X154626883Y-71484877D01*
X154702079Y-71511075D01*
X154775760Y-71541692D01*
X154847712Y-71576687D01*
X154917715Y-71616018D01*
X154985553Y-71659644D01*
X155051010Y-71707525D01*
X155113868Y-71759619D01*
X155173911Y-71815884D01*
X155230921Y-71876281D01*
X155284681Y-71940766D01*
X155334974Y-72009300D01*
X155334499Y-72009300D01*
X155380371Y-72080813D01*
X155421215Y-72154117D01*
X155457071Y-72228993D01*
X155487978Y-72305223D01*
X155513977Y-72382589D01*
X155535107Y-72460872D01*
X155551408Y-72539854D01*
X155562920Y-72619317D01*
X155569683Y-72699042D01*
X155571735Y-72778812D01*
X155569118Y-72858406D01*
X155561870Y-72937608D01*
X155550033Y-73016199D01*
X155533644Y-73093961D01*
X155512745Y-73170674D01*
X155487374Y-73246122D01*
X155219722Y-73196115D01*
X155243597Y-73133641D01*
X155263584Y-73069936D01*
X155279644Y-73005200D01*
X155291740Y-72939632D01*
X155299835Y-72873431D01*
X155303890Y-72806795D01*
X155303869Y-72739923D01*
X155299733Y-72673014D01*
X155291444Y-72606267D01*
X155278965Y-72539881D01*
X155262259Y-72474054D01*
X155241288Y-72408986D01*
X155216013Y-72344874D01*
X155186398Y-72281919D01*
X155152405Y-72220318D01*
X155113995Y-72160271D01*
X155093280Y-72131111D01*
X155071780Y-72102837D01*
X155026527Y-72048967D01*
X154978436Y-71998696D01*
X154927707Y-71952061D01*
X154874539Y-71909098D01*
X154819131Y-71869845D01*
X154761684Y-71834336D01*
X154702396Y-71802608D01*
X154641467Y-71774697D01*
X154579097Y-71750641D01*
X154515486Y-71730474D01*
X154450832Y-71714234D01*
X154385335Y-71701956D01*
X154319195Y-71693677D01*
X154252612Y-71689433D01*
X154185784Y-71689260D01*
X154235790Y-71421608D01*
X154315300Y-71425095D01*
G37*
X154315300Y-71425095D02*
X154394382Y-71433206D01*
X154472817Y-71445901D01*
X154550390Y-71463138D01*
X154626883Y-71484877D01*
X154702079Y-71511075D01*
X154775760Y-71541692D01*
X154847712Y-71576687D01*
X154917715Y-71616018D01*
X154985553Y-71659644D01*
X155051010Y-71707525D01*
X155113868Y-71759619D01*
X155173911Y-71815884D01*
X155230921Y-71876281D01*
X155284681Y-71940766D01*
X155334974Y-72009300D01*
X155334499Y-72009300D01*
X155380371Y-72080813D01*
X155421215Y-72154117D01*
X155457071Y-72228993D01*
X155487978Y-72305223D01*
X155513977Y-72382589D01*
X155535107Y-72460872D01*
X155551408Y-72539854D01*
X155562920Y-72619317D01*
X155569683Y-72699042D01*
X155571735Y-72778812D01*
X155569118Y-72858406D01*
X155561870Y-72937608D01*
X155550033Y-73016199D01*
X155533644Y-73093961D01*
X155512745Y-73170674D01*
X155487374Y-73246122D01*
X155219722Y-73196115D01*
X155243597Y-73133641D01*
X155263584Y-73069936D01*
X155279644Y-73005200D01*
X155291740Y-72939632D01*
X155299835Y-72873431D01*
X155303890Y-72806795D01*
X155303869Y-72739923D01*
X155299733Y-72673014D01*
X155291444Y-72606267D01*
X155278965Y-72539881D01*
X155262259Y-72474054D01*
X155241288Y-72408986D01*
X155216013Y-72344874D01*
X155186398Y-72281919D01*
X155152405Y-72220318D01*
X155113995Y-72160271D01*
X155093280Y-72131111D01*
X155071780Y-72102837D01*
X155026527Y-72048967D01*
X154978436Y-71998696D01*
X154927707Y-71952061D01*
X154874539Y-71909098D01*
X154819131Y-71869845D01*
X154761684Y-71834336D01*
X154702396Y-71802608D01*
X154641467Y-71774697D01*
X154579097Y-71750641D01*
X154515486Y-71730474D01*
X154450832Y-71714234D01*
X154385335Y-71701956D01*
X154319195Y-71693677D01*
X154252612Y-71689433D01*
X154185784Y-71689260D01*
X154235790Y-71421608D01*
X154315300Y-71425095D01*
G36*
X135108163Y-73765161D02*
G01*
X135136571Y-73766366D01*
X135164345Y-73768366D01*
X135191496Y-73771153D01*
X135218036Y-73774719D01*
X135243974Y-73779057D01*
X135269323Y-73784161D01*
X135294093Y-73790021D01*
X135318295Y-73796632D01*
X135341940Y-73803985D01*
X135365039Y-73812073D01*
X135387603Y-73820889D01*
X135409644Y-73830425D01*
X135431171Y-73840674D01*
X135452197Y-73851629D01*
X135472731Y-73863282D01*
X135492786Y-73875625D01*
X135512371Y-73888652D01*
X135531499Y-73902354D01*
X135550179Y-73916725D01*
X135568424Y-73931757D01*
X135586243Y-73947442D01*
X135620651Y-73980744D01*
X135653491Y-74016572D01*
X135684850Y-74054865D01*
X135714817Y-74095566D01*
X135743479Y-74138614D01*
X135398198Y-74351498D01*
X135379944Y-74323361D01*
X135361730Y-74297161D01*
X135343466Y-74272880D01*
X135325056Y-74250503D01*
X135306410Y-74230012D01*
X135287434Y-74211391D01*
X135268034Y-74194623D01*
X135248120Y-74179691D01*
X135227597Y-74166578D01*
X135217078Y-74160699D01*
X135206372Y-74155268D01*
X135195468Y-74150284D01*
X135184354Y-74145744D01*
X135173019Y-74141646D01*
X135161450Y-74137989D01*
X135149636Y-74134770D01*
X135137565Y-74131986D01*
X135112609Y-74127720D01*
X135086487Y-74125172D01*
X135059108Y-74124326D01*
X135044145Y-74124578D01*
X135029446Y-74125327D01*
X135015027Y-74126569D01*
X135000899Y-74128295D01*
X134987079Y-74130498D01*
X134973578Y-74133173D01*
X134960411Y-74136312D01*
X134947591Y-74139909D01*
X134935133Y-74143956D01*
X134923050Y-74148447D01*
X134911356Y-74153375D01*
X134900065Y-74158734D01*
X134889190Y-74164516D01*
X134878745Y-74170714D01*
X134868745Y-74177323D01*
X134859202Y-74184334D01*
X134850131Y-74191742D01*
X134841545Y-74199539D01*
X134833459Y-74207719D01*
X134825885Y-74216274D01*
X134818838Y-74225199D01*
X134812332Y-74234486D01*
X134806380Y-74244129D01*
X134800995Y-74254120D01*
X134796193Y-74264453D01*
X134791986Y-74275120D01*
X134788389Y-74286117D01*
X134785415Y-74297434D01*
X134783078Y-74309066D01*
X134781391Y-74321007D01*
X134780369Y-74333248D01*
X134780025Y-74345783D01*
X134780443Y-74359510D01*
X134781684Y-74372665D01*
X134783725Y-74385268D01*
X134786548Y-74397338D01*
X134790131Y-74408895D01*
X134794454Y-74419958D01*
X134799496Y-74430548D01*
X134805237Y-74440683D01*
X134811656Y-74450384D01*
X134818732Y-74459669D01*
X134826446Y-74468560D01*
X134834776Y-74477074D01*
X134853202Y-74493055D01*
X134873847Y-74507767D01*
X134896545Y-74521369D01*
X134921133Y-74534018D01*
X134947445Y-74545869D01*
X134975318Y-74557081D01*
X135004585Y-74567811D01*
X135035083Y-74578214D01*
X135099113Y-74598671D01*
X135098637Y-74598671D01*
X135194391Y-74628712D01*
X135246347Y-74645951D01*
X135299867Y-74665309D01*
X135354085Y-74687266D01*
X135408134Y-74712299D01*
X135461148Y-74740889D01*
X135486996Y-74756667D01*
X135512260Y-74773515D01*
X135536832Y-74791491D01*
X135560604Y-74810656D01*
X135583467Y-74831069D01*
X135605313Y-74852791D01*
X135626034Y-74875881D01*
X135645521Y-74900400D01*
X135663666Y-74926407D01*
X135680361Y-74953961D01*
X135695498Y-74983124D01*
X135708968Y-75013955D01*
X135720662Y-75046514D01*
X135730473Y-75080861D01*
X135738293Y-75117055D01*
X135744012Y-75155157D01*
X135747523Y-75195226D01*
X135748718Y-75237323D01*
X135747903Y-75271218D01*
X135745472Y-75304398D01*
X135741442Y-75336838D01*
X135735833Y-75368516D01*
X135728662Y-75399407D01*
X135719949Y-75429487D01*
X135709711Y-75458734D01*
X135697968Y-75487123D01*
X135684737Y-75514632D01*
X135670037Y-75541235D01*
X135653886Y-75566910D01*
X135636304Y-75591633D01*
X135617309Y-75615381D01*
X135596918Y-75638129D01*
X135575151Y-75659854D01*
X135552027Y-75680533D01*
X135527562Y-75700142D01*
X135501777Y-75718656D01*
X135474689Y-75736054D01*
X135446318Y-75752310D01*
X135416681Y-75767402D01*
X135385796Y-75781305D01*
X135353684Y-75793996D01*
X135320361Y-75805452D01*
X135285846Y-75815648D01*
X135250159Y-75824562D01*
X135213317Y-75832169D01*
X135175339Y-75838446D01*
X135136243Y-75843369D01*
X135096048Y-75846915D01*
X135012435Y-75849780D01*
X134953123Y-75848283D01*
X134894900Y-75843736D01*
X134837852Y-75836061D01*
X134782064Y-75825179D01*
X134727621Y-75811009D01*
X134700931Y-75802667D01*
X134674609Y-75793473D01*
X134648665Y-75783417D01*
X134623111Y-75772490D01*
X134597957Y-75760682D01*
X134573214Y-75747982D01*
X134548892Y-75734381D01*
X134525002Y-75719868D01*
X134501555Y-75704434D01*
X134478561Y-75688069D01*
X134456031Y-75670763D01*
X134433976Y-75652506D01*
X134412405Y-75633288D01*
X134391331Y-75613099D01*
X134370763Y-75591929D01*
X134350712Y-75569768D01*
X134331189Y-75546607D01*
X134312205Y-75522435D01*
X134293769Y-75497242D01*
X134275893Y-75471019D01*
X134258588Y-75443755D01*
X134241863Y-75415440D01*
X134590002Y-75193984D01*
X134610113Y-75231451D01*
X134631639Y-75266192D01*
X134654497Y-75298251D01*
X134678606Y-75327669D01*
X134703885Y-75354489D01*
X134730251Y-75378753D01*
X134757623Y-75400505D01*
X134785919Y-75419786D01*
X134815058Y-75436640D01*
X134844958Y-75451108D01*
X134875538Y-75463234D01*
X134906715Y-75473059D01*
X134938409Y-75480627D01*
X134970537Y-75485980D01*
X135003019Y-75489161D01*
X135035772Y-75490212D01*
X135053063Y-75489944D01*
X135069928Y-75489146D01*
X135086358Y-75487826D01*
X135102346Y-75485992D01*
X135117883Y-75483654D01*
X135132962Y-75480819D01*
X135147573Y-75477495D01*
X135161710Y-75473692D01*
X135175364Y-75469417D01*
X135188527Y-75464678D01*
X135201192Y-75459485D01*
X135213350Y-75453845D01*
X135224992Y-75447768D01*
X135236112Y-75441260D01*
X135246701Y-75434331D01*
X135256752Y-75426989D01*
X135266255Y-75419243D01*
X135275203Y-75411100D01*
X135283588Y-75402569D01*
X135291403Y-75393659D01*
X135298638Y-75384378D01*
X135305286Y-75374734D01*
X135311339Y-75364735D01*
X135316789Y-75354391D01*
X135321628Y-75343709D01*
X135325847Y-75332697D01*
X135329440Y-75321365D01*
X135332397Y-75309720D01*
X135334711Y-75297771D01*
X135336374Y-75285526D01*
X135337378Y-75272994D01*
X135337714Y-75260183D01*
X135337096Y-75241740D01*
X135335263Y-75224079D01*
X135332248Y-75207173D01*
X135328084Y-75190999D01*
X135322803Y-75175530D01*
X135316439Y-75160742D01*
X135309023Y-75146609D01*
X135300589Y-75133106D01*
X135291169Y-75120208D01*
X135280796Y-75107889D01*
X135269503Y-75096125D01*
X135257322Y-75084890D01*
X135230428Y-75063908D01*
X135200376Y-75044739D01*
X135167427Y-75027184D01*
X135131843Y-75011040D01*
X135093886Y-74996106D01*
X135053817Y-74982179D01*
X135011898Y-74969060D01*
X134968391Y-74956545D01*
X134877657Y-74932523D01*
X134820768Y-74916243D01*
X134766629Y-74897564D01*
X134715367Y-74876453D01*
X134667109Y-74852877D01*
X134621983Y-74826804D01*
X134600633Y-74812821D01*
X134580114Y-74798201D01*
X134560441Y-74782940D01*
X134541630Y-74767034D01*
X134523697Y-74750479D01*
X134506658Y-74733272D01*
X134490528Y-74715407D01*
X134475325Y-74696880D01*
X134461062Y-74677689D01*
X134447757Y-74657828D01*
X134435425Y-74637293D01*
X134424083Y-74616081D01*
X134413745Y-74594187D01*
X134404428Y-74571607D01*
X134396148Y-74548337D01*
X134388920Y-74524373D01*
X134382760Y-74499711D01*
X134377685Y-74474347D01*
X134373710Y-74448276D01*
X134370852Y-74421495D01*
X134369125Y-74394000D01*
X134368545Y-74365785D01*
X134369375Y-74332174D01*
X134371848Y-74299309D01*
X134375936Y-74267212D01*
X134381614Y-74235904D01*
X134388856Y-74205405D01*
X134397635Y-74175737D01*
X134407924Y-74146920D01*
X134419698Y-74118976D01*
X134432929Y-74091926D01*
X134447593Y-74065790D01*
X134463662Y-74040590D01*
X134481110Y-74016347D01*
X134499910Y-73993082D01*
X134520037Y-73970815D01*
X134541464Y-73949568D01*
X134564165Y-73929362D01*
X134588113Y-73910217D01*
X134613282Y-73892156D01*
X134639646Y-73875198D01*
X134667178Y-73859365D01*
X134695853Y-73844678D01*
X134725642Y-73831158D01*
X134756522Y-73818825D01*
X134788464Y-73807702D01*
X134821443Y-73797809D01*
X134855432Y-73789166D01*
X134890405Y-73781795D01*
X134926336Y-73775718D01*
X134963199Y-73770954D01*
X135000966Y-73767526D01*
X135079110Y-73764758D01*
X135108163Y-73765161D01*
G37*
X135108163Y-73765161D02*
X135136571Y-73766366D01*
X135164345Y-73768366D01*
X135191496Y-73771153D01*
X135218036Y-73774719D01*
X135243974Y-73779057D01*
X135269323Y-73784161D01*
X135294093Y-73790021D01*
X135318295Y-73796632D01*
X135341940Y-73803985D01*
X135365039Y-73812073D01*
X135387603Y-73820889D01*
X135409644Y-73830425D01*
X135431171Y-73840674D01*
X135452197Y-73851629D01*
X135472731Y-73863282D01*
X135492786Y-73875625D01*
X135512371Y-73888652D01*
X135531499Y-73902354D01*
X135550179Y-73916725D01*
X135568424Y-73931757D01*
X135586243Y-73947442D01*
X135620651Y-73980744D01*
X135653491Y-74016572D01*
X135684850Y-74054865D01*
X135714817Y-74095566D01*
X135743479Y-74138614D01*
X135398198Y-74351498D01*
X135379944Y-74323361D01*
X135361730Y-74297161D01*
X135343466Y-74272880D01*
X135325056Y-74250503D01*
X135306410Y-74230012D01*
X135287434Y-74211391D01*
X135268034Y-74194623D01*
X135248120Y-74179691D01*
X135227597Y-74166578D01*
X135217078Y-74160699D01*
X135206372Y-74155268D01*
X135195468Y-74150284D01*
X135184354Y-74145744D01*
X135173019Y-74141646D01*
X135161450Y-74137989D01*
X135149636Y-74134770D01*
X135137565Y-74131986D01*
X135112609Y-74127720D01*
X135086487Y-74125172D01*
X135059108Y-74124326D01*
X135044145Y-74124578D01*
X135029446Y-74125327D01*
X135015027Y-74126569D01*
X135000899Y-74128295D01*
X134987079Y-74130498D01*
X134973578Y-74133173D01*
X134960411Y-74136312D01*
X134947591Y-74139909D01*
X134935133Y-74143956D01*
X134923050Y-74148447D01*
X134911356Y-74153375D01*
X134900065Y-74158734D01*
X134889190Y-74164516D01*
X134878745Y-74170714D01*
X134868745Y-74177323D01*
X134859202Y-74184334D01*
X134850131Y-74191742D01*
X134841545Y-74199539D01*
X134833459Y-74207719D01*
X134825885Y-74216274D01*
X134818838Y-74225199D01*
X134812332Y-74234486D01*
X134806380Y-74244129D01*
X134800995Y-74254120D01*
X134796193Y-74264453D01*
X134791986Y-74275120D01*
X134788389Y-74286117D01*
X134785415Y-74297434D01*
X134783078Y-74309066D01*
X134781391Y-74321007D01*
X134780369Y-74333248D01*
X134780025Y-74345783D01*
X134780443Y-74359510D01*
X134781684Y-74372665D01*
X134783725Y-74385268D01*
X134786548Y-74397338D01*
X134790131Y-74408895D01*
X134794454Y-74419958D01*
X134799496Y-74430548D01*
X134805237Y-74440683D01*
X134811656Y-74450384D01*
X134818732Y-74459669D01*
X134826446Y-74468560D01*
X134834776Y-74477074D01*
X134853202Y-74493055D01*
X134873847Y-74507767D01*
X134896545Y-74521369D01*
X134921133Y-74534018D01*
X134947445Y-74545869D01*
X134975318Y-74557081D01*
X135004585Y-74567811D01*
X135035083Y-74578214D01*
X135099113Y-74598671D01*
X135098637Y-74598671D01*
X135194391Y-74628712D01*
X135246347Y-74645951D01*
X135299867Y-74665309D01*
X135354085Y-74687266D01*
X135408134Y-74712299D01*
X135461148Y-74740889D01*
X135486996Y-74756667D01*
X135512260Y-74773515D01*
X135536832Y-74791491D01*
X135560604Y-74810656D01*
X135583467Y-74831069D01*
X135605313Y-74852791D01*
X135626034Y-74875881D01*
X135645521Y-74900400D01*
X135663666Y-74926407D01*
X135680361Y-74953961D01*
X135695498Y-74983124D01*
X135708968Y-75013955D01*
X135720662Y-75046514D01*
X135730473Y-75080861D01*
X135738293Y-75117055D01*
X135744012Y-75155157D01*
X135747523Y-75195226D01*
X135748718Y-75237323D01*
X135747903Y-75271218D01*
X135745472Y-75304398D01*
X135741442Y-75336838D01*
X135735833Y-75368516D01*
X135728662Y-75399407D01*
X135719949Y-75429487D01*
X135709711Y-75458734D01*
X135697968Y-75487123D01*
X135684737Y-75514632D01*
X135670037Y-75541235D01*
X135653886Y-75566910D01*
X135636304Y-75591633D01*
X135617309Y-75615381D01*
X135596918Y-75638129D01*
X135575151Y-75659854D01*
X135552027Y-75680533D01*
X135527562Y-75700142D01*
X135501777Y-75718656D01*
X135474689Y-75736054D01*
X135446318Y-75752310D01*
X135416681Y-75767402D01*
X135385796Y-75781305D01*
X135353684Y-75793996D01*
X135320361Y-75805452D01*
X135285846Y-75815648D01*
X135250159Y-75824562D01*
X135213317Y-75832169D01*
X135175339Y-75838446D01*
X135136243Y-75843369D01*
X135096048Y-75846915D01*
X135012435Y-75849780D01*
X134953123Y-75848283D01*
X134894900Y-75843736D01*
X134837852Y-75836061D01*
X134782064Y-75825179D01*
X134727621Y-75811009D01*
X134700931Y-75802667D01*
X134674609Y-75793473D01*
X134648665Y-75783417D01*
X134623111Y-75772490D01*
X134597957Y-75760682D01*
X134573214Y-75747982D01*
X134548892Y-75734381D01*
X134525002Y-75719868D01*
X134501555Y-75704434D01*
X134478561Y-75688069D01*
X134456031Y-75670763D01*
X134433976Y-75652506D01*
X134412405Y-75633288D01*
X134391331Y-75613099D01*
X134370763Y-75591929D01*
X134350712Y-75569768D01*
X134331189Y-75546607D01*
X134312205Y-75522435D01*
X134293769Y-75497242D01*
X134275893Y-75471019D01*
X134258588Y-75443755D01*
X134241863Y-75415440D01*
X134590002Y-75193984D01*
X134610113Y-75231451D01*
X134631639Y-75266192D01*
X134654497Y-75298251D01*
X134678606Y-75327669D01*
X134703885Y-75354489D01*
X134730251Y-75378753D01*
X134757623Y-75400505D01*
X134785919Y-75419786D01*
X134815058Y-75436640D01*
X134844958Y-75451108D01*
X134875538Y-75463234D01*
X134906715Y-75473059D01*
X134938409Y-75480627D01*
X134970537Y-75485980D01*
X135003019Y-75489161D01*
X135035772Y-75490212D01*
X135053063Y-75489944D01*
X135069928Y-75489146D01*
X135086358Y-75487826D01*
X135102346Y-75485992D01*
X135117883Y-75483654D01*
X135132962Y-75480819D01*
X135147573Y-75477495D01*
X135161710Y-75473692D01*
X135175364Y-75469417D01*
X135188527Y-75464678D01*
X135201192Y-75459485D01*
X135213350Y-75453845D01*
X135224992Y-75447768D01*
X135236112Y-75441260D01*
X135246701Y-75434331D01*
X135256752Y-75426989D01*
X135266255Y-75419243D01*
X135275203Y-75411100D01*
X135283588Y-75402569D01*
X135291403Y-75393659D01*
X135298638Y-75384378D01*
X135305286Y-75374734D01*
X135311339Y-75364735D01*
X135316789Y-75354391D01*
X135321628Y-75343709D01*
X135325847Y-75332697D01*
X135329440Y-75321365D01*
X135332397Y-75309720D01*
X135334711Y-75297771D01*
X135336374Y-75285526D01*
X135337378Y-75272994D01*
X135337714Y-75260183D01*
X135337096Y-75241740D01*
X135335263Y-75224079D01*
X135332248Y-75207173D01*
X135328084Y-75190999D01*
X135322803Y-75175530D01*
X135316439Y-75160742D01*
X135309023Y-75146609D01*
X135300589Y-75133106D01*
X135291169Y-75120208D01*
X135280796Y-75107889D01*
X135269503Y-75096125D01*
X135257322Y-75084890D01*
X135230428Y-75063908D01*
X135200376Y-75044739D01*
X135167427Y-75027184D01*
X135131843Y-75011040D01*
X135093886Y-74996106D01*
X135053817Y-74982179D01*
X135011898Y-74969060D01*
X134968391Y-74956545D01*
X134877657Y-74932523D01*
X134820768Y-74916243D01*
X134766629Y-74897564D01*
X134715367Y-74876453D01*
X134667109Y-74852877D01*
X134621983Y-74826804D01*
X134600633Y-74812821D01*
X134580114Y-74798201D01*
X134560441Y-74782940D01*
X134541630Y-74767034D01*
X134523697Y-74750479D01*
X134506658Y-74733272D01*
X134490528Y-74715407D01*
X134475325Y-74696880D01*
X134461062Y-74677689D01*
X134447757Y-74657828D01*
X134435425Y-74637293D01*
X134424083Y-74616081D01*
X134413745Y-74594187D01*
X134404428Y-74571607D01*
X134396148Y-74548337D01*
X134388920Y-74524373D01*
X134382760Y-74499711D01*
X134377685Y-74474347D01*
X134373710Y-74448276D01*
X134370852Y-74421495D01*
X134369125Y-74394000D01*
X134368545Y-74365785D01*
X134369375Y-74332174D01*
X134371848Y-74299309D01*
X134375936Y-74267212D01*
X134381614Y-74235904D01*
X134388856Y-74205405D01*
X134397635Y-74175737D01*
X134407924Y-74146920D01*
X134419698Y-74118976D01*
X134432929Y-74091926D01*
X134447593Y-74065790D01*
X134463662Y-74040590D01*
X134481110Y-74016347D01*
X134499910Y-73993082D01*
X134520037Y-73970815D01*
X134541464Y-73949568D01*
X134564165Y-73929362D01*
X134588113Y-73910217D01*
X134613282Y-73892156D01*
X134639646Y-73875198D01*
X134667178Y-73859365D01*
X134695853Y-73844678D01*
X134725642Y-73831158D01*
X134756522Y-73818825D01*
X134788464Y-73807702D01*
X134821443Y-73797809D01*
X134855432Y-73789166D01*
X134890405Y-73781795D01*
X134926336Y-73775718D01*
X134963199Y-73770954D01*
X135000966Y-73767526D01*
X135079110Y-73764758D01*
X135108163Y-73765161D01*
G36*
X155218294Y-74240532D02*
G01*
X155217337Y-74241008D01*
X154195305Y-74241008D01*
X155167331Y-75812157D01*
X152533669Y-75812157D01*
X152533669Y-75814062D01*
X150911563Y-75814062D01*
X150911563Y-75812157D01*
X150726300Y-75812157D01*
X151698327Y-74241008D01*
X150629146Y-74241008D01*
X150913943Y-73801905D01*
X151384479Y-73801905D01*
X152534146Y-73800477D01*
X152508428Y-73848102D01*
X152051170Y-74630997D01*
X151744740Y-75155073D01*
X151590695Y-75410678D01*
X154274364Y-75410678D01*
X154224575Y-75331187D01*
X154118490Y-75152565D01*
X153812820Y-74629866D01*
X153355202Y-73846197D01*
X153329961Y-73802382D01*
X154493916Y-73802382D01*
X154149112Y-73272316D01*
X154174449Y-73269838D01*
X154199357Y-73266003D01*
X154223798Y-73260849D01*
X154247733Y-73254412D01*
X154271124Y-73246730D01*
X154293932Y-73237841D01*
X154316120Y-73227784D01*
X154337648Y-73216594D01*
X154358479Y-73204311D01*
X154378573Y-73190972D01*
X154397893Y-73176614D01*
X154416400Y-73161275D01*
X154434057Y-73144993D01*
X154450823Y-73127805D01*
X154466662Y-73109750D01*
X154481534Y-73090864D01*
X155218294Y-74240532D01*
G37*
X155218294Y-74240532D02*
X155217337Y-74241008D01*
X154195305Y-74241008D01*
X155167331Y-75812157D01*
X152533669Y-75812157D01*
X152533669Y-75814062D01*
X150911563Y-75814062D01*
X150911563Y-75812157D01*
X150726300Y-75812157D01*
X151698327Y-74241008D01*
X150629146Y-74241008D01*
X150913943Y-73801905D01*
X151384479Y-73801905D01*
X152534146Y-73800477D01*
X152508428Y-73848102D01*
X152051170Y-74630997D01*
X151744740Y-75155073D01*
X151590695Y-75410678D01*
X154274364Y-75410678D01*
X154224575Y-75331187D01*
X154118490Y-75152565D01*
X153812820Y-74629866D01*
X153355202Y-73846197D01*
X153329961Y-73802382D01*
X154493916Y-73802382D01*
X154149112Y-73272316D01*
X154174449Y-73269838D01*
X154199357Y-73266003D01*
X154223798Y-73260849D01*
X154247733Y-73254412D01*
X154271124Y-73246730D01*
X154293932Y-73237841D01*
X154316120Y-73227784D01*
X154337648Y-73216594D01*
X154358479Y-73204311D01*
X154378573Y-73190972D01*
X154397893Y-73176614D01*
X154416400Y-73161275D01*
X154434057Y-73144993D01*
X154450823Y-73127805D01*
X154466662Y-73109750D01*
X154481534Y-73090864D01*
X155218294Y-74240532D01*
D12*
X160685714Y-75157142D02*
X160542857Y-75157142D01*
X160257142Y-75014285D01*
X159828571Y-74585714D01*
X159114285Y-73728571D01*
X158828571Y-73300000D01*
X158685714Y-72871428D01*
X158685714Y-72585714D01*
X158828571Y-72300000D01*
X159114285Y-72157142D01*
X159257142Y-72157142D01*
X159542857Y-72300000D01*
X159685714Y-72585714D01*
X159685714Y-72728571D01*
X159542857Y-73014285D01*
X159400000Y-73157142D01*
X158542857Y-73728571D01*
X158400000Y-73871428D01*
X158257142Y-74157142D01*
X158257142Y-74585714D01*
X158400000Y-74871428D01*
X158542857Y-75014285D01*
X158828571Y-75157142D01*
X159257142Y-75157142D01*
X159542857Y-75014285D01*
X159685714Y-74871428D01*
X160114285Y-74300000D01*
X160257142Y-73871428D01*
X160257142Y-73585714D01*
D13*
%TO.C,U2*%
X96836595Y-78782380D02*
X96836595Y-79591904D01*
X96884214Y-79687142D01*
X96931833Y-79734761D01*
X97027071Y-79782380D01*
X97217547Y-79782380D01*
X97312785Y-79734761D01*
X97360404Y-79687142D01*
X97408023Y-79591904D01*
X97408023Y-78782380D01*
X97836595Y-78877619D02*
X97884214Y-78830000D01*
X97979452Y-78782380D01*
X98217547Y-78782380D01*
X98312785Y-78830000D01*
X98360404Y-78877619D01*
X98408023Y-78972857D01*
X98408023Y-79068095D01*
X98360404Y-79210952D01*
X97788976Y-79782380D01*
X98408023Y-79782380D01*
X94172309Y-96532380D02*
X94172309Y-95532380D01*
X94410404Y-95532380D01*
X94553261Y-95580000D01*
X94648500Y-95675238D01*
X94696119Y-95770476D01*
X94743738Y-95960952D01*
X94743738Y-96103809D01*
X94696119Y-96294285D01*
X94648500Y-96389523D01*
X94553261Y-96484761D01*
X94410404Y-96532380D01*
X94172309Y-96532380D01*
X95172309Y-96532380D02*
X95172309Y-95532380D01*
X95172309Y-96008571D02*
X95743738Y-96008571D01*
X95743738Y-96532380D02*
X95743738Y-95532380D01*
X96077071Y-95532380D02*
X96648500Y-95532380D01*
X96362785Y-96532380D02*
X96362785Y-95532380D01*
X96934214Y-95627619D02*
X96981833Y-95580000D01*
X97077071Y-95532380D01*
X97315166Y-95532380D01*
X97410404Y-95580000D01*
X97458023Y-95627619D01*
X97505642Y-95722857D01*
X97505642Y-95818095D01*
X97458023Y-95960952D01*
X96886595Y-96532380D01*
X97505642Y-96532380D01*
X97886595Y-95627619D02*
X97934214Y-95580000D01*
X98029452Y-95532380D01*
X98267547Y-95532380D01*
X98362785Y-95580000D01*
X98410404Y-95627619D01*
X98458023Y-95722857D01*
X98458023Y-95818095D01*
X98410404Y-95960952D01*
X97838976Y-96532380D01*
X98458023Y-96532380D01*
%TO.C,C2*%
X172857142Y-95494067D02*
X172904761Y-95541686D01*
X172952380Y-95684543D01*
X172952380Y-95779781D01*
X172904761Y-95922639D01*
X172809523Y-96017877D01*
X172714285Y-96065496D01*
X172523809Y-96113115D01*
X172380952Y-96113115D01*
X172190476Y-96065496D01*
X172095238Y-96017877D01*
X172000000Y-95922639D01*
X171952380Y-95779781D01*
X171952380Y-95684543D01*
X172000000Y-95541686D01*
X172047619Y-95494067D01*
X172047619Y-95113115D02*
X172000000Y-95065496D01*
X171952380Y-94970258D01*
X171952380Y-94732162D01*
X172000000Y-94636924D01*
X172047619Y-94589305D01*
X172142857Y-94541686D01*
X172238095Y-94541686D01*
X172380952Y-94589305D01*
X172952380Y-95160734D01*
X172952380Y-94541686D01*
%TO.C,R2*%
X141891642Y-88092380D02*
X141558309Y-87616190D01*
X141320214Y-88092380D02*
X141320214Y-87092380D01*
X141701166Y-87092380D01*
X141796404Y-87140000D01*
X141844023Y-87187619D01*
X141891642Y-87282857D01*
X141891642Y-87425714D01*
X141844023Y-87520952D01*
X141796404Y-87568571D01*
X141701166Y-87616190D01*
X141320214Y-87616190D01*
X142272595Y-87187619D02*
X142320214Y-87140000D01*
X142415452Y-87092380D01*
X142653547Y-87092380D01*
X142748785Y-87140000D01*
X142796404Y-87187619D01*
X142844023Y-87282857D01*
X142844023Y-87378095D01*
X142796404Y-87520952D01*
X142224976Y-88092380D01*
X142844023Y-88092380D01*
%TO.C,U3*%
X164980940Y-87022380D02*
X164980940Y-87831904D01*
X165028559Y-87927142D01*
X165076178Y-87974761D01*
X165171416Y-88022380D01*
X165361892Y-88022380D01*
X165457130Y-87974761D01*
X165504749Y-87927142D01*
X165552368Y-87831904D01*
X165552368Y-87022380D01*
X165933321Y-87022380D02*
X166552368Y-87022380D01*
X166219035Y-87403333D01*
X166361892Y-87403333D01*
X166457130Y-87450952D01*
X166504749Y-87498571D01*
X166552368Y-87593809D01*
X166552368Y-87831904D01*
X166504749Y-87927142D01*
X166457130Y-87974761D01*
X166361892Y-88022380D01*
X166076178Y-88022380D01*
X165980940Y-87974761D01*
X165933321Y-87927142D01*
%TO.C,C1*%
X165857142Y-80346666D02*
X165904761Y-80394285D01*
X165952380Y-80537142D01*
X165952380Y-80632380D01*
X165904761Y-80775238D01*
X165809523Y-80870476D01*
X165714285Y-80918095D01*
X165523809Y-80965714D01*
X165380952Y-80965714D01*
X165190476Y-80918095D01*
X165095238Y-80870476D01*
X165000000Y-80775238D01*
X164952380Y-80632380D01*
X164952380Y-80537142D01*
X165000000Y-80394285D01*
X165047619Y-80346666D01*
X165952380Y-79394285D02*
X165952380Y-79965714D01*
X165952380Y-79680000D02*
X164952380Y-79680000D01*
X165095238Y-79775238D01*
X165190476Y-79870476D01*
X165238095Y-79965714D01*
%TO.C,R3*%
X149827023Y-88092380D02*
X149493690Y-87616190D01*
X149255595Y-88092380D02*
X149255595Y-87092380D01*
X149636547Y-87092380D01*
X149731785Y-87140000D01*
X149779404Y-87187619D01*
X149827023Y-87282857D01*
X149827023Y-87425714D01*
X149779404Y-87520952D01*
X149731785Y-87568571D01*
X149636547Y-87616190D01*
X149255595Y-87616190D01*
X150160357Y-87092380D02*
X150779404Y-87092380D01*
X150446071Y-87473333D01*
X150588928Y-87473333D01*
X150684166Y-87520952D01*
X150731785Y-87568571D01*
X150779404Y-87663809D01*
X150779404Y-87901904D01*
X150731785Y-87997142D01*
X150684166Y-88044761D01*
X150588928Y-88092380D01*
X150303214Y-88092380D01*
X150207976Y-88044761D01*
X150160357Y-87997142D01*
%TO.C,J2*%
X145732666Y-82106380D02*
X145732666Y-82820666D01*
X145685047Y-82963523D01*
X145589809Y-83058761D01*
X145446952Y-83106380D01*
X145351714Y-83106380D01*
X146161238Y-82201619D02*
X146208857Y-82154000D01*
X146304095Y-82106380D01*
X146542190Y-82106380D01*
X146637428Y-82154000D01*
X146685047Y-82201619D01*
X146732666Y-82296857D01*
X146732666Y-82392095D01*
X146685047Y-82534952D01*
X146113619Y-83106380D01*
X146732666Y-83106380D01*
D10*
X143822666Y-80398666D02*
X144056000Y-81098666D01*
X144289333Y-80398666D01*
X144922666Y-81032000D02*
X144889333Y-81065333D01*
X144789333Y-81098666D01*
X144722666Y-81098666D01*
X144622666Y-81065333D01*
X144556000Y-80998666D01*
X144522666Y-80932000D01*
X144489333Y-80798666D01*
X144489333Y-80698666D01*
X144522666Y-80565333D01*
X144556000Y-80498666D01*
X144622666Y-80432000D01*
X144722666Y-80398666D01*
X144789333Y-80398666D01*
X144889333Y-80432000D01*
X144922666Y-80465333D01*
X145622666Y-81032000D02*
X145589333Y-81065333D01*
X145489333Y-81098666D01*
X145422666Y-81098666D01*
X145322666Y-81065333D01*
X145256000Y-80998666D01*
X145222666Y-80932000D01*
X145189333Y-80798666D01*
X145189333Y-80698666D01*
X145222666Y-80565333D01*
X145256000Y-80498666D01*
X145322666Y-80432000D01*
X145422666Y-80398666D01*
X145489333Y-80398666D01*
X145589333Y-80432000D01*
X145622666Y-80465333D01*
X141682666Y-80432000D02*
X141616000Y-80398666D01*
X141516000Y-80398666D01*
X141416000Y-80432000D01*
X141349333Y-80498666D01*
X141316000Y-80565333D01*
X141282666Y-80698666D01*
X141282666Y-80798666D01*
X141316000Y-80932000D01*
X141349333Y-80998666D01*
X141416000Y-81065333D01*
X141516000Y-81098666D01*
X141582666Y-81098666D01*
X141682666Y-81065333D01*
X141716000Y-81032000D01*
X141716000Y-80798666D01*
X141582666Y-80798666D01*
X142016000Y-81098666D02*
X142016000Y-80398666D01*
X142416000Y-81098666D01*
X142416000Y-80398666D01*
X142749333Y-81098666D02*
X142749333Y-80398666D01*
X142916000Y-80398666D01*
X143016000Y-80432000D01*
X143082666Y-80498666D01*
X143116000Y-80565333D01*
X143149333Y-80698666D01*
X143149333Y-80798666D01*
X143116000Y-80932000D01*
X143082666Y-80998666D01*
X143016000Y-81065333D01*
X142916000Y-81098666D01*
X142749333Y-81098666D01*
X146462666Y-81065333D02*
X146562666Y-81098666D01*
X146729333Y-81098666D01*
X146796000Y-81065333D01*
X146829333Y-81032000D01*
X146862666Y-80965333D01*
X146862666Y-80898666D01*
X146829333Y-80832000D01*
X146796000Y-80798666D01*
X146729333Y-80765333D01*
X146596000Y-80732000D01*
X146529333Y-80698666D01*
X146496000Y-80665333D01*
X146462666Y-80598666D01*
X146462666Y-80532000D01*
X146496000Y-80465333D01*
X146529333Y-80432000D01*
X146596000Y-80398666D01*
X146762666Y-80398666D01*
X146862666Y-80432000D01*
X147562666Y-81032000D02*
X147529333Y-81065333D01*
X147429333Y-81098666D01*
X147362666Y-81098666D01*
X147262666Y-81065333D01*
X147196000Y-80998666D01*
X147162666Y-80932000D01*
X147129333Y-80798666D01*
X147129333Y-80698666D01*
X147162666Y-80565333D01*
X147196000Y-80498666D01*
X147262666Y-80432000D01*
X147362666Y-80398666D01*
X147429333Y-80398666D01*
X147529333Y-80432000D01*
X147562666Y-80465333D01*
X148196000Y-81098666D02*
X147862666Y-81098666D01*
X147862666Y-80398666D01*
X148986000Y-81065333D02*
X149086000Y-81098666D01*
X149252666Y-81098666D01*
X149319333Y-81065333D01*
X149352666Y-81032000D01*
X149386000Y-80965333D01*
X149386000Y-80898666D01*
X149352666Y-80832000D01*
X149319333Y-80798666D01*
X149252666Y-80765333D01*
X149119333Y-80732000D01*
X149052666Y-80698666D01*
X149019333Y-80665333D01*
X148986000Y-80598666D01*
X148986000Y-80532000D01*
X149019333Y-80465333D01*
X149052666Y-80432000D01*
X149119333Y-80398666D01*
X149286000Y-80398666D01*
X149386000Y-80432000D01*
X149686000Y-81098666D02*
X149686000Y-80398666D01*
X149852666Y-80398666D01*
X149952666Y-80432000D01*
X150019333Y-80498666D01*
X150052666Y-80565333D01*
X150086000Y-80698666D01*
X150086000Y-80798666D01*
X150052666Y-80932000D01*
X150019333Y-80998666D01*
X149952666Y-81065333D01*
X149852666Y-81098666D01*
X149686000Y-81098666D01*
X150352666Y-80898666D02*
X150686000Y-80898666D01*
X150286000Y-81098666D02*
X150519333Y-80398666D01*
X150752666Y-81098666D01*
D13*
%TO.C,J1*%
X175521309Y-79252380D02*
X175521309Y-79966666D01*
X175473690Y-80109523D01*
X175378452Y-80204761D01*
X175235595Y-80252380D01*
X175140357Y-80252380D01*
X176521309Y-80252380D02*
X175949880Y-80252380D01*
X176235595Y-80252380D02*
X176235595Y-79252380D01*
X176140357Y-79395238D01*
X176045119Y-79490476D01*
X175949880Y-79538095D01*
X175283214Y-91852380D02*
X175473690Y-91852380D01*
X175568928Y-91804761D01*
X175616547Y-91757142D01*
X175711785Y-91614285D01*
X175759404Y-91423809D01*
X175759404Y-91042857D01*
X175711785Y-90947619D01*
X175664166Y-90900000D01*
X175568928Y-90852380D01*
X175378452Y-90852380D01*
X175283214Y-90900000D01*
X175235595Y-90947619D01*
X175187976Y-91042857D01*
X175187976Y-91280952D01*
X175235595Y-91376190D01*
X175283214Y-91423809D01*
X175378452Y-91471428D01*
X175568928Y-91471428D01*
X175664166Y-91423809D01*
X175711785Y-91376190D01*
X175759404Y-91280952D01*
X176045119Y-90852380D02*
X176378452Y-91852380D01*
X176711785Y-90852380D01*
%TO.C,U1*%
X106558595Y-98302380D02*
X106558595Y-99111904D01*
X106606214Y-99207142D01*
X106653833Y-99254761D01*
X106749071Y-99302380D01*
X106939547Y-99302380D01*
X107034785Y-99254761D01*
X107082404Y-99207142D01*
X107130023Y-99111904D01*
X107130023Y-98302380D01*
X108130023Y-99302380D02*
X107558595Y-99302380D01*
X107844309Y-99302380D02*
X107844309Y-98302380D01*
X107749071Y-98445238D01*
X107653833Y-98540476D01*
X107558595Y-98588095D01*
%TO.C,R1*%
X103207023Y-88092380D02*
X102873690Y-87616190D01*
X102635595Y-88092380D02*
X102635595Y-87092380D01*
X103016547Y-87092380D01*
X103111785Y-87140000D01*
X103159404Y-87187619D01*
X103207023Y-87282857D01*
X103207023Y-87425714D01*
X103159404Y-87520952D01*
X103111785Y-87568571D01*
X103016547Y-87616190D01*
X102635595Y-87616190D01*
X104159404Y-88092380D02*
X103587976Y-88092380D01*
X103873690Y-88092380D02*
X103873690Y-87092380D01*
X103778452Y-87235238D01*
X103683214Y-87330476D01*
X103587976Y-87378095D01*
D14*
%TO.C,U2*%
X98696000Y-80030000D02*
X98696000Y-95330000D01*
X90296000Y-79830000D02*
X90296000Y-81830000D01*
X90496000Y-80030000D02*
X98696000Y-80030000D01*
X98696000Y-95330000D02*
X90496000Y-95330000D01*
X90496000Y-95330000D02*
X90496000Y-80030000D01*
X90296000Y-79830000D02*
X91906000Y-79830000D01*
%TO.C,C2*%
X171329000Y-95407401D02*
X170090000Y-95407401D01*
X168410000Y-95647401D02*
X167194000Y-95647401D01*
X168410000Y-96007401D02*
X167282000Y-96007401D01*
X168410000Y-96368401D02*
X167442000Y-96368401D01*
X170728000Y-96808401D02*
X170090000Y-96808401D01*
X168410000Y-95447401D02*
X167173000Y-95447401D01*
X168410000Y-96048401D02*
X167296000Y-96048401D01*
X171139000Y-96208401D02*
X170090000Y-96208401D01*
X168410000Y-96448401D02*
X167490000Y-96448401D01*
X171300000Y-95687401D02*
X170090000Y-95687401D01*
X170802000Y-96728401D02*
X170090000Y-96728401D01*
X171330000Y-95327401D02*
X170090000Y-95327401D01*
X168410000Y-95327401D02*
X167170000Y-95327401D01*
X171330000Y-95367401D02*
X170090000Y-95367401D01*
X168410000Y-95927401D02*
X167256000Y-95927401D01*
X171080000Y-96328401D02*
X170090000Y-96328401D01*
X170330000Y-97128401D02*
X168170000Y-97128401D01*
X171255000Y-95887401D02*
X170090000Y-95887401D01*
X169914000Y-97328401D02*
X168586000Y-97328401D01*
X170645000Y-93257600D02*
X170245000Y-93257600D01*
X171312000Y-95607401D02*
X170090000Y-95607401D01*
X168410000Y-95727401D02*
X167208000Y-95727401D01*
X171101000Y-96288401D02*
X170090000Y-96288401D01*
X168410000Y-96408401D02*
X167465000Y-96408401D01*
X171010000Y-96448401D02*
X170090000Y-96448401D01*
X170930000Y-96568401D02*
X170090000Y-96568401D01*
X171317000Y-95567401D02*
X170090000Y-95567401D01*
X168410000Y-96608401D02*
X167600000Y-96608401D01*
X171284000Y-95767401D02*
X170090000Y-95767401D01*
X171157000Y-96168401D02*
X170090000Y-96168401D01*
X170190000Y-97208401D02*
X168310000Y-97208401D01*
X171232000Y-95967401D02*
X170090000Y-95967401D01*
X168410000Y-96808401D02*
X167772000Y-96808401D01*
X168410000Y-95487401D02*
X167176000Y-95487401D01*
X170985000Y-96488401D02*
X170090000Y-96488401D01*
X168410000Y-95807401D02*
X167225000Y-95807401D01*
X170109000Y-97248401D02*
X168391000Y-97248401D01*
X168410000Y-96568401D02*
X167570000Y-96568401D01*
X168410000Y-96208401D02*
X167361000Y-96208401D01*
X168410000Y-96768401D02*
X167734000Y-96768401D01*
X170646000Y-96888401D02*
X170090000Y-96888401D01*
X170392000Y-97088401D02*
X168108000Y-97088401D01*
X171174000Y-96128401D02*
X170090000Y-96128401D01*
X168410000Y-96128401D02*
X167326000Y-96128401D01*
X168410000Y-96528401D02*
X167542000Y-96528401D01*
X168410000Y-96288401D02*
X167399000Y-96288401D01*
X168410000Y-96648401D02*
X167631000Y-96648401D01*
X170018000Y-97288401D02*
X168482000Y-97288401D01*
X171321000Y-95527401D02*
X170090000Y-95527401D01*
X169787000Y-97368401D02*
X168713000Y-97368401D01*
X171035000Y-96408401D02*
X170090000Y-96408401D01*
X168410000Y-95687401D02*
X167200000Y-95687401D01*
X170766000Y-96768401D02*
X170090000Y-96768401D01*
X171058000Y-96368401D02*
X170090000Y-96368401D01*
X171327000Y-95447401D02*
X170090000Y-95447401D01*
X170837000Y-96688401D02*
X170090000Y-96688401D01*
X170504000Y-97008401D02*
X167996000Y-97008401D01*
X170445000Y-93057600D02*
X170445000Y-93457600D01*
X168410000Y-95967401D02*
X167268000Y-95967401D01*
X170263000Y-97168401D02*
X168237000Y-97168401D01*
X170688000Y-96848401D02*
X170090000Y-96848401D01*
X170958000Y-96528401D02*
X170090000Y-96528401D01*
X170900000Y-96608401D02*
X170090000Y-96608401D01*
X170450000Y-97048401D02*
X168050000Y-97048401D01*
X171324000Y-95487401D02*
X170090000Y-95487401D01*
X168410000Y-96088401D02*
X167310000Y-96088401D01*
X171218000Y-96007401D02*
X170090000Y-96007401D01*
X168410000Y-96848401D02*
X167812000Y-96848401D01*
X168410000Y-95367401D02*
X167170000Y-95367401D01*
X171266000Y-95847401D02*
X170090000Y-95847401D01*
X168410000Y-96688401D02*
X167663000Y-96688401D01*
X168410000Y-96888401D02*
X167854000Y-96888401D01*
X171204000Y-96048401D02*
X170090000Y-96048401D01*
X168410000Y-96248401D02*
X167380000Y-96248401D01*
X168410000Y-95847401D02*
X167234000Y-95847401D01*
X171275000Y-95807401D02*
X170090000Y-95807401D01*
X168410000Y-96728401D02*
X167698000Y-96728401D01*
X168410000Y-95607401D02*
X167188000Y-95607401D01*
X169620000Y-97408401D02*
X168880000Y-97408401D01*
X168410000Y-95887401D02*
X167245000Y-95887401D01*
X171292000Y-95727401D02*
X170090000Y-95727401D01*
X171244000Y-95927401D02*
X170090000Y-95927401D01*
X170869000Y-96648401D02*
X170090000Y-96648401D01*
X168410000Y-95527401D02*
X167179000Y-95527401D01*
X168410000Y-95407401D02*
X167171000Y-95407401D01*
X168410000Y-95567401D02*
X167183000Y-95567401D01*
X171120000Y-96248401D02*
X170090000Y-96248401D01*
X168410000Y-96488401D02*
X167515000Y-96488401D01*
X168410000Y-96328401D02*
X167420000Y-96328401D01*
X168410000Y-95767401D02*
X167216000Y-95767401D01*
X170601000Y-96928401D02*
X167899000Y-96928401D01*
X171190000Y-96088401D02*
X170090000Y-96088401D01*
X168410000Y-96168401D02*
X167343000Y-96168401D01*
X170554000Y-96968401D02*
X167946000Y-96968401D01*
X171306000Y-95647401D02*
X170090000Y-95647401D01*
X171370000Y-95327401D02*
G75*
G03*
X171370000Y-95327401I-2120000J0D01*
G01*
%TO.C,G\u002A\u002A\u002A*%
G36*
X174570363Y-72917644D02*
G01*
X174560790Y-73371862D01*
X174551217Y-73826081D01*
X174207973Y-73826081D01*
X174190811Y-73438647D01*
X174180236Y-73253771D01*
X174164948Y-73126889D01*
X174140709Y-73047346D01*
X174103280Y-73004490D01*
X174048424Y-72987667D01*
X174010609Y-72985660D01*
X173985017Y-72991767D01*
X173967873Y-73018088D01*
X173957526Y-73075825D01*
X173952324Y-73176182D01*
X173950618Y-73330363D01*
X173950541Y-73393354D01*
X173949157Y-73571405D01*
X173944051Y-73692162D01*
X173933790Y-73766941D01*
X173916943Y-73807059D01*
X173896247Y-73822408D01*
X173822844Y-73837313D01*
X173724707Y-73842609D01*
X173630411Y-73838472D01*
X173568530Y-73825076D01*
X173561532Y-73820360D01*
X173553729Y-73779863D01*
X173547069Y-73682933D01*
X173542047Y-73541785D01*
X173539155Y-73368630D01*
X173538649Y-73254663D01*
X173538649Y-72711848D01*
X173633041Y-72685451D01*
X173710353Y-72673338D01*
X173833716Y-72664154D01*
X173980548Y-72659396D01*
X174030432Y-72659054D01*
X174333431Y-72659054D01*
X174570363Y-72917644D01*
G37*
G36*
X165300418Y-74693583D02*
G01*
X165300811Y-74701351D01*
X165274424Y-74734356D01*
X165264461Y-74735675D01*
X165243961Y-74714647D01*
X165249325Y-74701351D01*
X165280169Y-74668606D01*
X165285675Y-74667027D01*
X165300418Y-74693583D01*
G37*
G36*
X162763156Y-73004571D02*
G01*
X162832667Y-73050902D01*
X162879754Y-73106162D01*
X162884382Y-73151198D01*
X162828285Y-73185360D01*
X162744430Y-73185941D01*
X162663983Y-73154577D01*
X162644586Y-73138601D01*
X162609951Y-73071251D01*
X162627259Y-73011902D01*
X162688899Y-72985177D01*
X162692032Y-72985135D01*
X162763156Y-73004571D01*
G37*
G36*
X165260796Y-74605722D02*
G01*
X165266487Y-74611868D01*
X165239647Y-74634000D01*
X165215000Y-74645115D01*
X165170802Y-74645828D01*
X165163514Y-74631625D01*
X165191332Y-74602124D01*
X165215000Y-74598378D01*
X165260796Y-74605722D01*
G37*
G36*
X177181002Y-72876971D02*
G01*
X177187345Y-72773777D01*
X177197812Y-72709973D01*
X177213321Y-72675809D01*
X177231321Y-72662726D01*
X177322192Y-72645362D01*
X177457105Y-72639345D01*
X177612602Y-72643529D01*
X177765223Y-72656770D01*
X177891509Y-72677924D01*
X177954230Y-72698007D01*
X178081946Y-72790996D01*
X178152319Y-72915958D01*
X178162554Y-73063184D01*
X178109858Y-73222970D01*
X178106939Y-73228484D01*
X178041445Y-73350681D01*
X178158252Y-73569300D01*
X178219586Y-73692373D01*
X178245581Y-73768844D01*
X178239333Y-73808988D01*
X178232327Y-73815056D01*
X178164187Y-73834273D01*
X178061030Y-73841364D01*
X177955355Y-73836308D01*
X177879658Y-73819082D01*
X177872644Y-73815288D01*
X177837830Y-73773144D01*
X177784369Y-73686209D01*
X177722782Y-73571837D01*
X177711707Y-73549800D01*
X177593126Y-73311216D01*
X177591023Y-73556395D01*
X177586253Y-73692908D01*
X177572918Y-73774558D01*
X177548147Y-73814895D01*
X177534626Y-73822408D01*
X177461223Y-73837313D01*
X177363086Y-73842609D01*
X177268789Y-73838472D01*
X177206909Y-73825076D01*
X177199910Y-73820360D01*
X177192202Y-73779940D01*
X177185601Y-73682915D01*
X177180583Y-73541324D01*
X177177623Y-73367210D01*
X177177027Y-73240519D01*
X177177576Y-73102753D01*
X177588919Y-73102753D01*
X177597526Y-73211388D01*
X177623825Y-73253892D01*
X177668532Y-73230652D01*
X177714482Y-73170452D01*
X177748037Y-73076231D01*
X177723719Y-72999908D01*
X177646597Y-72957133D01*
X177645308Y-72956875D01*
X177610027Y-72962745D01*
X177593112Y-73008318D01*
X177588919Y-73102753D01*
X177177576Y-73102753D01*
X177177868Y-73029302D01*
X177181002Y-72876971D01*
G37*
G36*
X164588886Y-75818044D02*
G01*
X164693004Y-75689628D01*
X164754187Y-75628336D01*
X164859726Y-75522671D01*
X164921639Y-75446943D01*
X164949139Y-75387262D01*
X164951552Y-75330725D01*
X164937134Y-75268541D01*
X164899100Y-75237860D01*
X164816892Y-75224556D01*
X164794527Y-75222823D01*
X164701800Y-75211093D01*
X164659312Y-75186265D01*
X164648676Y-75136970D01*
X164648649Y-75132634D01*
X164630140Y-75042324D01*
X164571377Y-75001146D01*
X164467501Y-75007137D01*
X164391963Y-75028947D01*
X164256776Y-75063855D01*
X164172983Y-75057866D01*
X164136292Y-75010231D01*
X164133784Y-74983888D01*
X164109828Y-74902239D01*
X164034310Y-74854938D01*
X163901756Y-74838706D01*
X163891105Y-74838648D01*
X163787311Y-74846727D01*
X163641779Y-74868344D01*
X163473064Y-74899571D01*
X163299721Y-74936479D01*
X163140303Y-74975141D01*
X163013364Y-75011626D01*
X162941603Y-75039687D01*
X162858787Y-75074941D01*
X162814233Y-75075793D01*
X162817739Y-75043314D01*
X162829460Y-75027432D01*
X162897777Y-74983349D01*
X162937619Y-74975946D01*
X163000390Y-74953376D01*
X163098687Y-74892738D01*
X163219626Y-74804635D01*
X163350321Y-74699672D01*
X163477890Y-74588452D01*
X163589446Y-74481581D01*
X163672107Y-74389662D01*
X163702101Y-74346747D01*
X163774452Y-74189497D01*
X163800942Y-74053325D01*
X163782610Y-73953720D01*
X164512106Y-73953720D01*
X164514789Y-74065177D01*
X164526380Y-74120915D01*
X164550537Y-74133665D01*
X164562838Y-74130250D01*
X164607013Y-74135764D01*
X164614325Y-74162791D01*
X164591397Y-74217329D01*
X164573282Y-74228771D01*
X164553906Y-74262951D01*
X164578833Y-74328383D01*
X164638122Y-74414244D01*
X164721831Y-74509715D01*
X164820019Y-74603972D01*
X164922744Y-74686195D01*
X165020064Y-74745561D01*
X165064636Y-74763620D01*
X165257442Y-74811309D01*
X165425057Y-74819483D01*
X165593522Y-74786328D01*
X165780629Y-74713751D01*
X165887175Y-74660218D01*
X165931300Y-74622501D01*
X165922843Y-74600970D01*
X165897250Y-74567901D01*
X165914984Y-74549156D01*
X165970622Y-74539460D01*
X165983409Y-74544488D01*
X166026775Y-74537293D01*
X166058431Y-74509573D01*
X166085412Y-74461204D01*
X166057623Y-74427809D01*
X166055378Y-74426405D01*
X165998871Y-74409408D01*
X165980355Y-74413885D01*
X165955835Y-74403337D01*
X165952973Y-74384600D01*
X165982132Y-74346226D01*
X166029770Y-74332607D01*
X166077109Y-74335287D01*
X166061193Y-74354865D01*
X166042150Y-74380485D01*
X166086753Y-74401439D01*
X166090764Y-74402507D01*
X166141159Y-74410673D01*
X166146612Y-74403008D01*
X166155737Y-74370428D01*
X166203284Y-74320664D01*
X166243814Y-74276391D01*
X166237564Y-74256352D01*
X166236149Y-74256277D01*
X166196228Y-74234120D01*
X166193244Y-74221888D01*
X166219863Y-74201909D01*
X166253311Y-74205787D01*
X166273103Y-74205934D01*
X166236530Y-74182472D01*
X166185802Y-74147801D01*
X166188958Y-74135000D01*
X166261892Y-74135000D01*
X166279054Y-74152162D01*
X166296217Y-74135000D01*
X166279054Y-74117838D01*
X166261892Y-74135000D01*
X166188958Y-74135000D01*
X166193220Y-74117714D01*
X166209203Y-74104181D01*
X166235790Y-74053349D01*
X166209105Y-73998508D01*
X166141907Y-73954424D01*
X166064353Y-73936568D01*
X165993398Y-73924023D01*
X165976952Y-73894729D01*
X166124595Y-73894729D01*
X166141757Y-73911892D01*
X166158919Y-73894729D01*
X166141757Y-73877567D01*
X166124595Y-73894729D01*
X165976952Y-73894729D01*
X165971943Y-73885807D01*
X165974248Y-73860405D01*
X166055946Y-73860405D01*
X166073109Y-73877567D01*
X166090271Y-73860405D01*
X166073109Y-73843243D01*
X166055946Y-73860405D01*
X165974248Y-73860405D01*
X165977363Y-73826081D01*
X165999636Y-73740966D01*
X166028318Y-73688784D01*
X166049300Y-73683568D01*
X166040804Y-73738750D01*
X166040394Y-73740270D01*
X166029285Y-73793930D01*
X166043338Y-73787925D01*
X166053172Y-73774594D01*
X166081114Y-73701596D01*
X166089745Y-73631347D01*
X166085566Y-73569608D01*
X166058814Y-73558473D01*
X165995879Y-73585249D01*
X165914935Y-73611259D01*
X165791454Y-73636433D01*
X165651407Y-73655528D01*
X165644054Y-73656267D01*
X165528441Y-73669994D01*
X165451884Y-73683741D01*
X165427446Y-73695005D01*
X165430960Y-73697122D01*
X165451372Y-73727460D01*
X165429221Y-73770409D01*
X165380835Y-73803307D01*
X165350408Y-73808919D01*
X165304918Y-73837448D01*
X165283649Y-73877567D01*
X165253290Y-73933026D01*
X165230927Y-73946216D01*
X165214832Y-73920637D01*
X165221547Y-73890046D01*
X165223828Y-73848846D01*
X165194727Y-73849784D01*
X165157534Y-73891921D01*
X165135874Y-73970983D01*
X165135842Y-73971305D01*
X165145291Y-74066377D01*
X165203547Y-74131702D01*
X165300564Y-74182887D01*
X165362290Y-74175384D01*
X165389369Y-74108999D01*
X165390819Y-74074932D01*
X165397548Y-73954894D01*
X165427956Y-73881860D01*
X165493518Y-73835281D01*
X165533804Y-73818845D01*
X165670178Y-73798364D01*
X165786168Y-73840105D01*
X165875724Y-73939153D01*
X165932797Y-74090594D01*
X165943525Y-74151624D01*
X165946835Y-74263232D01*
X165915474Y-74342106D01*
X165897529Y-74364778D01*
X165864159Y-74409113D01*
X165871463Y-74416004D01*
X165873372Y-74414935D01*
X165922407Y-74413141D01*
X165934691Y-74424945D01*
X165929164Y-74471523D01*
X165884704Y-74528053D01*
X165823671Y-74573573D01*
X165768428Y-74587123D01*
X165763284Y-74585618D01*
X165731180Y-74588860D01*
X165736818Y-74621281D01*
X165743024Y-74656171D01*
X165709306Y-74648659D01*
X165683583Y-74635488D01*
X165627050Y-74598789D01*
X165609730Y-74577983D01*
X165632385Y-74575747D01*
X165649358Y-74584494D01*
X165673072Y-74588529D01*
X165666262Y-74572218D01*
X165620745Y-74549729D01*
X165533225Y-74536730D01*
X165493164Y-74535450D01*
X165369191Y-74521732D01*
X165337741Y-74512567D01*
X165678379Y-74512567D01*
X165695541Y-74529729D01*
X165712703Y-74512567D01*
X165695541Y-74495405D01*
X165678379Y-74512567D01*
X165337741Y-74512567D01*
X165252739Y-74487796D01*
X165232211Y-74478268D01*
X165232153Y-74478243D01*
X165815676Y-74478243D01*
X165832838Y-74495405D01*
X165850000Y-74478243D01*
X165832838Y-74461081D01*
X165815676Y-74478243D01*
X165232153Y-74478243D01*
X165167242Y-74450452D01*
X165142213Y-74451892D01*
X165144562Y-74458186D01*
X165143781Y-74511877D01*
X165106373Y-74575421D01*
X165051665Y-74618900D01*
X165038054Y-74623036D01*
X164994699Y-74604860D01*
X164974426Y-74555840D01*
X164978046Y-74546892D01*
X164991892Y-74546892D01*
X165009054Y-74564054D01*
X165026217Y-74546892D01*
X165009054Y-74529729D01*
X164991892Y-74546892D01*
X164978046Y-74546892D01*
X164991918Y-74512597D01*
X164993391Y-74511641D01*
X165049793Y-74507429D01*
X165060148Y-74512324D01*
X165079930Y-74506904D01*
X165074595Y-74482519D01*
X165029654Y-74445320D01*
X164993103Y-74443685D01*
X164947846Y-74437931D01*
X164948336Y-74389705D01*
X164946312Y-74344932D01*
X165003556Y-74344932D01*
X165009054Y-74358108D01*
X165054524Y-74391151D01*
X165064592Y-74392432D01*
X165083202Y-74371284D01*
X165077703Y-74358108D01*
X165032233Y-74325065D01*
X165022165Y-74323784D01*
X165003556Y-74344932D01*
X164946312Y-74344932D01*
X164945906Y-74335943D01*
X164925221Y-74323784D01*
X164901005Y-74302992D01*
X164906081Y-74289459D01*
X164901074Y-74257965D01*
X164886742Y-74255135D01*
X164867236Y-74239168D01*
X164893298Y-74197222D01*
X164921902Y-74156000D01*
X164899367Y-74155135D01*
X164877788Y-74162799D01*
X164799880Y-74159666D01*
X164764904Y-74136023D01*
X164739905Y-74100675D01*
X164854595Y-74100675D01*
X164871757Y-74117838D01*
X164888919Y-74100675D01*
X164871757Y-74083513D01*
X164854595Y-74100675D01*
X164739905Y-74100675D01*
X164733757Y-74091981D01*
X164760473Y-74057585D01*
X164776967Y-74046831D01*
X164811961Y-74013682D01*
X164826827Y-73959186D01*
X164825033Y-73864191D01*
X164820192Y-73808093D01*
X164819268Y-73791756D01*
X165232163Y-73791756D01*
X165249325Y-73808919D01*
X165266487Y-73791756D01*
X165249325Y-73774594D01*
X165232163Y-73791756D01*
X164819268Y-73791756D01*
X164814374Y-73705171D01*
X164818558Y-73639618D01*
X164829217Y-73625664D01*
X164842171Y-73610127D01*
X164834645Y-73548590D01*
X164833980Y-73545781D01*
X164824988Y-73484980D01*
X164835305Y-73471364D01*
X164836262Y-73472193D01*
X164876761Y-73473051D01*
X164920650Y-73439486D01*
X164937891Y-73397035D01*
X164934777Y-73388446D01*
X164898794Y-73362595D01*
X164870544Y-73375126D01*
X164874567Y-73405608D01*
X164872634Y-73418433D01*
X164836412Y-73389945D01*
X164788455Y-73352881D01*
X164750538Y-73362411D01*
X164706992Y-73407107D01*
X164594410Y-73581763D01*
X164527586Y-73792036D01*
X164512106Y-73953720D01*
X163782610Y-73953720D01*
X163781518Y-73947785D01*
X163716126Y-73882431D01*
X163704730Y-73877567D01*
X163641458Y-73849058D01*
X163618919Y-73831294D01*
X163631627Y-73794816D01*
X163664151Y-73716345D01*
X163690281Y-73656321D01*
X163737910Y-73528808D01*
X163743156Y-73451875D01*
X163704389Y-73420860D01*
X163619982Y-73431102D01*
X163612364Y-73433231D01*
X163492821Y-73457768D01*
X163382149Y-73464274D01*
X163300606Y-73452950D01*
X163269447Y-73429826D01*
X163230022Y-73400889D01*
X163172195Y-73389511D01*
X163067683Y-73361588D01*
X163009084Y-73311216D01*
X164820271Y-73311216D01*
X164837433Y-73328378D01*
X164854595Y-73311216D01*
X164848874Y-73305495D01*
X164934685Y-73305495D01*
X164939397Y-73325901D01*
X164957568Y-73328378D01*
X164985821Y-73315819D01*
X164980451Y-73305495D01*
X164939716Y-73301387D01*
X164934685Y-73305495D01*
X164848874Y-73305495D01*
X164837433Y-73294054D01*
X164820271Y-73311216D01*
X163009084Y-73311216D01*
X162997224Y-73301021D01*
X162969993Y-73224002D01*
X162972021Y-73217777D01*
X164495113Y-73217777D01*
X164497725Y-73231126D01*
X164525875Y-73259265D01*
X164528514Y-73259729D01*
X164548552Y-73242567D01*
X164923244Y-73242567D01*
X164940406Y-73259729D01*
X164957568Y-73242567D01*
X164940406Y-73225405D01*
X164923244Y-73242567D01*
X164548552Y-73242567D01*
X164555919Y-73236257D01*
X164559303Y-73231126D01*
X164549076Y-73205850D01*
X164528514Y-73202522D01*
X164660090Y-73202522D01*
X164664802Y-73222928D01*
X164682973Y-73225405D01*
X164711226Y-73212846D01*
X164708299Y-73207218D01*
X165005278Y-73207218D01*
X165007631Y-73216910D01*
X165024800Y-73283406D01*
X165026217Y-73300533D01*
X165051323Y-73318985D01*
X165086284Y-73310034D01*
X165165311Y-73284929D01*
X165244846Y-73267539D01*
X165334406Y-73266038D01*
X165455978Y-73280555D01*
X165531379Y-73295843D01*
X165675210Y-73319910D01*
X165768766Y-73306560D01*
X165821936Y-73251441D01*
X165843858Y-73158343D01*
X165844619Y-73084008D01*
X165823918Y-73067492D01*
X165812281Y-73073044D01*
X165784056Y-73077670D01*
X165791182Y-73043351D01*
X165793713Y-72985674D01*
X165779853Y-72967046D01*
X165751715Y-72975696D01*
X165747027Y-73000271D01*
X165718806Y-73046722D01*
X165686960Y-73056196D01*
X165648520Y-73062418D01*
X165675863Y-73080793D01*
X165678379Y-73081939D01*
X165733013Y-73126916D01*
X165726912Y-73170052D01*
X165663965Y-73190975D01*
X165657544Y-73191081D01*
X165593792Y-73180226D01*
X165586564Y-73143059D01*
X165587862Y-73139480D01*
X165594753Y-73107523D01*
X165567014Y-73115623D01*
X165527031Y-73140712D01*
X165467295Y-73174365D01*
X165438611Y-73166430D01*
X165426169Y-73140826D01*
X165377380Y-73097478D01*
X165277510Y-73093272D01*
X165123828Y-73128094D01*
X165123167Y-73128292D01*
X165031962Y-73166197D01*
X165005278Y-73207218D01*
X164708299Y-73207218D01*
X164705856Y-73202522D01*
X164665121Y-73198414D01*
X164660090Y-73202522D01*
X164528514Y-73202522D01*
X164495113Y-73217777D01*
X162972021Y-73217777D01*
X162995166Y-73146724D01*
X163020010Y-73120967D01*
X163061867Y-73099744D01*
X163128348Y-73093735D01*
X163235217Y-73102782D01*
X163340782Y-73117724D01*
X163507117Y-73138946D01*
X163619134Y-73140309D01*
X163688993Y-73119084D01*
X163728851Y-73072540D01*
X163744519Y-73027070D01*
X163748233Y-72962023D01*
X163715320Y-72899729D01*
X163666173Y-72849573D01*
X164174853Y-72849573D01*
X164214106Y-72917856D01*
X164288310Y-73010234D01*
X164368056Y-73095540D01*
X164429794Y-73132543D01*
X164495043Y-73129068D01*
X164554060Y-73106858D01*
X164596115Y-73073912D01*
X164597343Y-73054076D01*
X164599590Y-73043779D01*
X164628288Y-73043779D01*
X164632953Y-73056155D01*
X164666088Y-73086591D01*
X164682302Y-73051926D01*
X164682973Y-73034596D01*
X164666086Y-72999243D01*
X164648089Y-73002643D01*
X164628288Y-73043779D01*
X164599590Y-73043779D01*
X164606194Y-73013517D01*
X164633320Y-72983614D01*
X164695368Y-72959538D01*
X164737429Y-72986315D01*
X164743613Y-73046272D01*
X164726088Y-73086788D01*
X164707733Y-73125835D01*
X164721008Y-73141067D01*
X164773785Y-73131160D01*
X164873934Y-73094791D01*
X165009054Y-73039191D01*
X165124997Y-72993842D01*
X165221827Y-72962145D01*
X165273042Y-72951625D01*
X165339398Y-72931982D01*
X165348825Y-72880644D01*
X165300820Y-72805014D01*
X165284170Y-72787511D01*
X165229500Y-72727702D01*
X165300811Y-72727702D01*
X165317973Y-72744865D01*
X165335136Y-72727702D01*
X165317973Y-72710540D01*
X165300811Y-72727702D01*
X165229500Y-72727702D01*
X165227420Y-72725426D01*
X165216732Y-72688592D01*
X165246908Y-72656597D01*
X165250212Y-72654160D01*
X165286415Y-72609086D01*
X165292419Y-72535617D01*
X165284039Y-72472576D01*
X165263805Y-72385989D01*
X165241499Y-72337044D01*
X165234628Y-72332973D01*
X165201005Y-72358496D01*
X165145624Y-72423085D01*
X165116853Y-72461689D01*
X165062570Y-72540291D01*
X165046364Y-72579581D01*
X165066008Y-72595818D01*
X165097668Y-72601827D01*
X165151327Y-72627338D01*
X165155579Y-72690900D01*
X165155169Y-72693085D01*
X165154678Y-72750902D01*
X165186035Y-72755221D01*
X165226816Y-72758244D01*
X165232163Y-72772479D01*
X165204696Y-72797184D01*
X165172095Y-72797335D01*
X165125771Y-72770408D01*
X165121152Y-72747257D01*
X165106081Y-72719172D01*
X165057150Y-72721411D01*
X164999488Y-72749183D01*
X164971388Y-72775808D01*
X164933046Y-72804570D01*
X164908366Y-72782885D01*
X164906018Y-72725355D01*
X164924019Y-72692443D01*
X164941921Y-72652434D01*
X164906110Y-72621836D01*
X164873253Y-72608136D01*
X164764471Y-72577243D01*
X164696383Y-72589199D01*
X164653292Y-72647705D01*
X164647799Y-72661288D01*
X164619453Y-72749612D01*
X164625400Y-72795897D01*
X164669911Y-72819838D01*
X164682973Y-72823459D01*
X164738714Y-72855402D01*
X164751622Y-72882952D01*
X164724628Y-72909881D01*
X164681498Y-72906155D01*
X164605327Y-72916342D01*
X164570269Y-72953638D01*
X164520087Y-73011176D01*
X164487566Y-73007797D01*
X164483319Y-72946003D01*
X164485428Y-72933648D01*
X164487505Y-72870487D01*
X164447227Y-72848981D01*
X164412200Y-72847369D01*
X164309677Y-72838709D01*
X164245338Y-72826203D01*
X164185537Y-72820193D01*
X164174853Y-72849573D01*
X163666173Y-72849573D01*
X163644232Y-72827182D01*
X163534142Y-72747862D01*
X163408640Y-72686688D01*
X163373051Y-72675228D01*
X163152516Y-72614705D01*
X162987423Y-72564801D01*
X162866359Y-72520563D01*
X162777905Y-72477034D01*
X162710648Y-72429261D01*
X162653171Y-72372288D01*
X162639791Y-72356959D01*
X162542275Y-72210001D01*
X162496957Y-72069764D01*
X162600687Y-72069764D01*
X162601531Y-72111607D01*
X162634789Y-72183377D01*
X162687476Y-72263508D01*
X162746604Y-72330434D01*
X162768253Y-72348051D01*
X162844216Y-72394679D01*
X162870760Y-72397141D01*
X162846756Y-72360062D01*
X162780810Y-72296534D01*
X162703028Y-72217768D01*
X162649118Y-72144103D01*
X162639184Y-72122326D01*
X162615429Y-72074170D01*
X162600687Y-72069764D01*
X162496957Y-72069764D01*
X162494940Y-72063521D01*
X162497858Y-71929481D01*
X162551103Y-71819841D01*
X162636134Y-71754694D01*
X162707304Y-71728979D01*
X162777195Y-71731305D01*
X162876276Y-71763025D01*
X162883210Y-71765662D01*
X163032282Y-71848428D01*
X163157843Y-71978049D01*
X163268425Y-72164028D01*
X163297959Y-72227708D01*
X163413882Y-72436402D01*
X163549391Y-72580510D01*
X163706616Y-72661839D01*
X163834768Y-72682550D01*
X163984208Y-72658281D01*
X164100226Y-72578518D01*
X164175431Y-72451290D01*
X164202431Y-72284625D01*
X164202433Y-72283191D01*
X164208073Y-72196941D01*
X164234639Y-72168055D01*
X164296595Y-72189120D01*
X164339730Y-72212838D01*
X164433843Y-72249213D01*
X164531048Y-72260413D01*
X164617221Y-72250224D01*
X164678236Y-72222432D01*
X164699970Y-72180823D01*
X164668298Y-72129183D01*
X164664360Y-72125823D01*
X164593235Y-72038655D01*
X164584144Y-72007932D01*
X164623202Y-72007932D01*
X164630076Y-72021770D01*
X164662805Y-72057257D01*
X164668826Y-72032231D01*
X164660494Y-72005411D01*
X164635223Y-71968031D01*
X164623809Y-71968803D01*
X164623202Y-72007932D01*
X164584144Y-72007932D01*
X164565077Y-71943490D01*
X164578221Y-71857872D01*
X164631000Y-71799347D01*
X164696834Y-71783783D01*
X164783960Y-71803578D01*
X164858717Y-71869331D01*
X164930678Y-71990596D01*
X164953404Y-72039797D01*
X165026845Y-72168930D01*
X165106246Y-72232506D01*
X165196455Y-72233605D01*
X165234336Y-72218402D01*
X165302528Y-72157083D01*
X165327997Y-72057678D01*
X165311625Y-71913337D01*
X165286122Y-71815727D01*
X165282386Y-71800946D01*
X165335136Y-71800946D01*
X165352298Y-71818108D01*
X165369460Y-71800946D01*
X165352298Y-71783784D01*
X165335136Y-71800946D01*
X165282386Y-71800946D01*
X165256594Y-71698904D01*
X165252925Y-71619356D01*
X165274114Y-71551183D01*
X165275755Y-71547718D01*
X165334862Y-71464844D01*
X165397231Y-71443613D01*
X165456977Y-71477628D01*
X165508214Y-71560496D01*
X165545057Y-71685821D01*
X165561620Y-71847210D01*
X165561851Y-71858563D01*
X165573272Y-72030374D01*
X165603406Y-72139929D01*
X165655524Y-72187908D01*
X165732899Y-72174991D01*
X165838802Y-72101858D01*
X165976505Y-71969189D01*
X165995830Y-71948759D01*
X166227568Y-71701842D01*
X166227568Y-71846635D01*
X166234045Y-71943161D01*
X166261135Y-71995285D01*
X166313889Y-72024248D01*
X166368614Y-72052860D01*
X166387608Y-72097339D01*
X166380209Y-72181996D01*
X166378541Y-72192583D01*
X166371281Y-72291352D01*
X166396639Y-72360645D01*
X166445119Y-72416346D01*
X166560686Y-72494094D01*
X166685961Y-72504916D01*
X166822283Y-72448666D01*
X166931984Y-72362925D01*
X167011958Y-72292575D01*
X167067542Y-72250114D01*
X167085676Y-72244158D01*
X167068540Y-72294594D01*
X167021431Y-72391001D01*
X166950803Y-72521157D01*
X166863106Y-72672844D01*
X166831435Y-72725683D01*
X166743211Y-72897430D01*
X166709597Y-73034240D01*
X166730188Y-73142238D01*
X166798548Y-73222914D01*
X166886175Y-73273179D01*
X166969665Y-73294054D01*
X167050343Y-73294054D01*
X166982327Y-73405608D01*
X166919696Y-73561147D01*
X166924913Y-73713371D01*
X166998286Y-73865271D01*
X167034190Y-73911892D01*
X167122113Y-74036611D01*
X167150847Y-74135484D01*
X167120351Y-74217509D01*
X167032437Y-74290542D01*
X166899864Y-74393821D01*
X166835824Y-74497514D01*
X166840198Y-74601812D01*
X166840918Y-74603737D01*
X166873931Y-74669465D01*
X166925839Y-74727292D01*
X167009076Y-74786824D01*
X167136076Y-74857666D01*
X167233833Y-74907297D01*
X167360266Y-74977897D01*
X167469523Y-75052456D01*
X167539997Y-75116049D01*
X167544617Y-75121954D01*
X167602924Y-75245969D01*
X167608331Y-75371320D01*
X167569728Y-75485768D01*
X167496008Y-75577073D01*
X167396061Y-75632996D01*
X167278780Y-75641298D01*
X167189180Y-75611220D01*
X167122991Y-75563346D01*
X167075736Y-75488756D01*
X167068260Y-75466609D01*
X167167978Y-75466609D01*
X167168231Y-75485391D01*
X167170857Y-75489791D01*
X167219495Y-75531425D01*
X167296506Y-75571983D01*
X167360271Y-75591082D01*
X167400097Y-75576274D01*
X167428919Y-75559459D01*
X167451694Y-75535813D01*
X167415301Y-75526477D01*
X167383757Y-75525660D01*
X167284133Y-75511639D01*
X167216575Y-75487386D01*
X167167978Y-75466609D01*
X167068260Y-75466609D01*
X167034646Y-75367023D01*
X167033158Y-75361640D01*
X166975147Y-75161872D01*
X166925103Y-75018574D01*
X166877827Y-74920841D01*
X166828123Y-74857769D01*
X166775344Y-74820755D01*
X166676824Y-74780551D01*
X166587157Y-74776307D01*
X166480409Y-74809456D01*
X166411802Y-74840851D01*
X166277205Y-74937052D01*
X166153080Y-75081947D01*
X166054527Y-75255736D01*
X166015485Y-75360460D01*
X165987499Y-75442665D01*
X165965598Y-75487824D01*
X165961535Y-75490811D01*
X165927121Y-75471811D01*
X165863914Y-75425723D01*
X165859366Y-75422162D01*
X165789751Y-75381919D01*
X165697007Y-75360561D01*
X165560079Y-75353596D01*
X165537617Y-75353513D01*
X165320937Y-75370091D01*
X165161986Y-75421544D01*
X165057918Y-75510449D01*
X165005886Y-75639382D01*
X165003044Y-75810922D01*
X165005921Y-75834859D01*
X165015748Y-75943034D01*
X165004329Y-76011913D01*
X164964875Y-76069305D01*
X164943192Y-76091820D01*
X164834851Y-76163160D01*
X164724028Y-76167524D01*
X164620797Y-76107311D01*
X164554736Y-76019873D01*
X164554388Y-76016974D01*
X164664130Y-76016974D01*
X164682973Y-76057162D01*
X164745721Y-76092472D01*
X164833055Y-76103974D01*
X164898876Y-76099640D01*
X164899593Y-76093113D01*
X164854595Y-76083905D01*
X164775962Y-76060325D01*
X164736176Y-76037093D01*
X164687265Y-76006617D01*
X164664130Y-76016974D01*
X164554388Y-76016974D01*
X164543447Y-75925788D01*
X164588886Y-75818044D01*
G37*
G36*
X164673472Y-75284530D02*
G01*
X164657298Y-75365614D01*
X164648800Y-75387473D01*
X164603397Y-75478839D01*
X164563539Y-75508819D01*
X164519760Y-75483015D01*
X164508650Y-75470393D01*
X164486376Y-75398260D01*
X164526930Y-75321456D01*
X164589229Y-75271210D01*
X164649733Y-75251015D01*
X164673472Y-75284530D01*
G37*
G36*
X166483666Y-74891220D02*
G01*
X166550832Y-74940156D01*
X166597186Y-75009695D01*
X166605136Y-75048706D01*
X166575898Y-75117609D01*
X166504283Y-75163159D01*
X166414436Y-75178952D01*
X166330500Y-75158589D01*
X166296359Y-75130577D01*
X166273208Y-75080546D01*
X166294410Y-75018689D01*
X166311319Y-74991435D01*
X166368767Y-74921822D01*
X166419630Y-74884127D01*
X166483666Y-74891220D01*
G37*
G36*
X165369460Y-73860405D02*
G01*
X165352298Y-73877567D01*
X165335136Y-73860405D01*
X165352298Y-73843243D01*
X165369460Y-73860405D01*
G37*
G36*
X165068551Y-70816008D02*
G01*
X165148053Y-70886576D01*
X165192363Y-70981605D01*
X165193090Y-71082614D01*
X165141840Y-71171125D01*
X165137771Y-71174884D01*
X165082460Y-71207660D01*
X165003404Y-71236967D01*
X164920885Y-71258009D01*
X164855187Y-71265990D01*
X164826591Y-71256113D01*
X164828868Y-71247926D01*
X164821960Y-71203547D01*
X164792972Y-71167070D01*
X164754105Y-71135321D01*
X164753696Y-71155217D01*
X164761173Y-71175651D01*
X164764868Y-71224209D01*
X164749439Y-71234594D01*
X164710603Y-71205070D01*
X164680842Y-71135681D01*
X164670285Y-71055204D01*
X164674697Y-71022265D01*
X164726675Y-70927963D01*
X164816638Y-70845065D01*
X164918545Y-70794749D01*
X164962249Y-70788378D01*
X165068551Y-70816008D01*
G37*
G36*
X162748135Y-75131340D02*
G01*
X162725196Y-75165447D01*
X162639470Y-75220182D01*
X162491586Y-75294749D01*
X162459841Y-75309557D01*
X162229076Y-75407113D01*
X162037221Y-75469333D01*
X161890171Y-75494639D01*
X161802670Y-75485181D01*
X161750914Y-75453986D01*
X161756855Y-75404747D01*
X161765111Y-75388388D01*
X161857237Y-75285789D01*
X162007409Y-75215414D01*
X162208905Y-75177292D01*
X162360139Y-75160289D01*
X162513485Y-75140904D01*
X162603134Y-75128195D01*
X162707657Y-75118657D01*
X162748135Y-75131340D01*
G37*
G36*
X167425995Y-73695695D02*
G01*
X167476022Y-73737777D01*
X167482022Y-73794190D01*
X167463244Y-73826081D01*
X167389042Y-73868451D01*
X167289516Y-73873057D01*
X167196222Y-73840573D01*
X167170132Y-73819823D01*
X167131576Y-73772595D01*
X167145916Y-73739040D01*
X167174241Y-73716850D01*
X167258855Y-73679090D01*
X167348189Y-73674085D01*
X167425995Y-73695695D01*
G37*
G36*
X174292175Y-74486891D02*
G01*
X174351276Y-74510386D01*
X174362433Y-74530742D01*
X174337431Y-74618718D01*
X174261240Y-74661822D01*
X174204301Y-74667027D01*
X174125132Y-74673360D01*
X174093316Y-74704277D01*
X174087838Y-74766327D01*
X174104330Y-74846753D01*
X174139325Y-74885385D01*
X174179092Y-74881110D01*
X174190811Y-74820409D01*
X174202114Y-74759799D01*
X174249809Y-74737647D01*
X174293784Y-74735675D01*
X174359668Y-74741044D01*
X174389058Y-74770228D01*
X174396579Y-74842848D01*
X174396757Y-74873822D01*
X174389515Y-74968045D01*
X174359413Y-75018888D01*
X174308712Y-75045444D01*
X174160215Y-75076888D01*
X174032316Y-75046552D01*
X173972332Y-75007779D01*
X173906289Y-74934657D01*
X173882813Y-74838574D01*
X173881892Y-74804640D01*
X173890507Y-74673587D01*
X173923111Y-74588790D01*
X173989842Y-74529271D01*
X174024305Y-74509922D01*
X174105511Y-74485232D01*
X174202527Y-74478031D01*
X174292175Y-74486891D01*
G37*
G36*
X165438109Y-74649865D02*
G01*
X165420946Y-74667027D01*
X165403784Y-74649865D01*
X165420946Y-74632702D01*
X165438109Y-74649865D01*
G37*
G36*
X179627289Y-72955270D02*
G01*
X179655643Y-72902897D01*
X179769429Y-72761797D01*
X179914514Y-72678185D01*
X180097739Y-72648733D01*
X180173569Y-72650695D01*
X180296650Y-72664116D01*
X180381421Y-72693106D01*
X180458170Y-72750575D01*
X180497952Y-72788960D01*
X180567650Y-72865155D01*
X180607392Y-72934869D01*
X180627629Y-73024278D01*
X180637503Y-73138468D01*
X180651781Y-73362702D01*
X179946658Y-73362702D01*
X180012045Y-73435318D01*
X180054745Y-73473943D01*
X180106814Y-73492882D01*
X180188278Y-73495617D01*
X180307549Y-73486711D01*
X180537665Y-73465488D01*
X180560172Y-73585459D01*
X180570640Y-73679371D01*
X180566092Y-73748054D01*
X180564695Y-73752293D01*
X180514677Y-73795977D01*
X180415272Y-73825838D01*
X180284476Y-73841182D01*
X180140282Y-73841314D01*
X180000686Y-73825541D01*
X179883684Y-73793166D01*
X179854894Y-73779693D01*
X179730220Y-73695501D01*
X179649836Y-73592702D01*
X179604982Y-73455047D01*
X179587573Y-73283731D01*
X179585567Y-73140282D01*
X179594841Y-73060359D01*
X179974926Y-73060359D01*
X179991356Y-73081088D01*
X180055619Y-73087644D01*
X180113066Y-73088108D01*
X180210214Y-73083929D01*
X180254274Y-73067225D01*
X180260523Y-73031748D01*
X180259871Y-73028040D01*
X180220689Y-72976360D01*
X180146350Y-72954564D01*
X180064012Y-72963728D01*
X180000830Y-73004927D01*
X179992695Y-73017455D01*
X179974926Y-73060359D01*
X179594841Y-73060359D01*
X179597283Y-73039313D01*
X179627289Y-72955270D01*
G37*
G36*
X182428649Y-72985135D02*
G01*
X182087519Y-72985135D01*
X182077881Y-73405608D01*
X182068244Y-73826081D01*
X181912506Y-73836244D01*
X181813757Y-73837398D01*
X181745734Y-73828485D01*
X181732304Y-73821942D01*
X181722738Y-73779862D01*
X181714925Y-73683590D01*
X181709686Y-73547577D01*
X181707838Y-73391306D01*
X181707838Y-72985135D01*
X181364595Y-72985135D01*
X181364595Y-72676216D01*
X182428649Y-72676216D01*
X182428649Y-72985135D01*
G37*
G36*
X166727908Y-71862351D02*
G01*
X166742433Y-71898599D01*
X166712142Y-71968589D01*
X166636985Y-72027078D01*
X166540537Y-72057222D01*
X166518781Y-72058378D01*
X166420670Y-72058378D01*
X166519325Y-71955405D01*
X166601537Y-71887491D01*
X166676191Y-71855168D01*
X166727908Y-71862351D01*
G37*
G36*
X164104581Y-75103082D02*
G01*
X164103750Y-75103415D01*
X164044089Y-75140931D01*
X163992196Y-75186182D01*
X163903268Y-75238921D01*
X163805571Y-75245424D01*
X163726517Y-75204345D01*
X163722229Y-75199460D01*
X163697689Y-75155247D01*
X163726608Y-75133711D01*
X163782704Y-75122286D01*
X163867122Y-75111336D01*
X163960689Y-75102401D01*
X164044235Y-75097020D01*
X164098590Y-75096734D01*
X164104581Y-75103082D01*
G37*
G36*
X169728143Y-72873581D02*
G01*
X169726921Y-73122177D01*
X169722172Y-73312223D01*
X169711603Y-73453806D01*
X169692924Y-73557014D01*
X169663845Y-73631933D01*
X169622075Y-73688651D01*
X169565322Y-73737256D01*
X169525708Y-73764983D01*
X169431751Y-73808176D01*
X169312889Y-73836099D01*
X169189029Y-73847627D01*
X169080076Y-73841637D01*
X169005938Y-73817007D01*
X168987312Y-73795366D01*
X168977941Y-73731280D01*
X168978429Y-73634796D01*
X168979808Y-73615163D01*
X168990384Y-73533469D01*
X169017652Y-73492262D01*
X169081522Y-73473541D01*
X169145136Y-73465675D01*
X169299595Y-73448513D01*
X169309202Y-73010878D01*
X169318808Y-72573243D01*
X169076487Y-72573243D01*
X169076487Y-72230000D01*
X169728649Y-72230000D01*
X169728143Y-72873581D01*
G37*
G36*
X170243514Y-74478243D02*
G01*
X170371530Y-74469208D01*
X170493144Y-74491878D01*
X170580643Y-74540543D01*
X170588829Y-74549388D01*
X170613624Y-74623115D01*
X170609795Y-74723277D01*
X170612872Y-74867836D01*
X170639405Y-74943868D01*
X170669776Y-75011925D01*
X170662194Y-75044224D01*
X170625647Y-75060308D01*
X170527589Y-75064365D01*
X170450730Y-75005219D01*
X170409811Y-74930574D01*
X170363876Y-74821486D01*
X170346601Y-74941621D01*
X170320450Y-75031945D01*
X170270436Y-75069626D01*
X170259264Y-75071785D01*
X170191059Y-75069489D01*
X170164872Y-75057484D01*
X170153308Y-75013727D01*
X170144722Y-74919904D01*
X170140670Y-74794586D01*
X170140541Y-74767006D01*
X170140541Y-74701351D01*
X170346487Y-74701351D01*
X170360861Y-74757127D01*
X170380811Y-74770000D01*
X170408699Y-74741251D01*
X170415136Y-74701351D01*
X170400761Y-74645575D01*
X170380811Y-74632702D01*
X170352923Y-74661451D01*
X170346487Y-74701351D01*
X170140541Y-74701351D01*
X170140541Y-74500860D01*
X170243514Y-74478243D01*
G37*
G36*
X164820271Y-73036621D02*
G01*
X164803109Y-73053784D01*
X164785946Y-73036621D01*
X164803109Y-73019459D01*
X164820271Y-73036621D01*
G37*
G36*
X166044147Y-74482109D02*
G01*
X166038784Y-74495405D01*
X166007940Y-74528150D01*
X166002434Y-74529729D01*
X165987691Y-74503173D01*
X165987298Y-74495405D01*
X166013685Y-74462400D01*
X166023648Y-74461081D01*
X166044147Y-74482109D01*
G37*
G36*
X178420405Y-73222851D02*
G01*
X178420405Y-73222836D01*
X178424106Y-73002297D01*
X178824595Y-73002297D01*
X178834165Y-73066685D01*
X178877212Y-73084667D01*
X178918987Y-73081807D01*
X178992606Y-73056808D01*
X179013379Y-73002297D01*
X178990653Y-72946141D01*
X178918987Y-72922787D01*
X178850584Y-72924079D01*
X178826627Y-72962536D01*
X178824595Y-73002297D01*
X178424106Y-73002297D01*
X178429865Y-72659054D01*
X178813623Y-72659054D01*
X178986916Y-72660542D01*
X179106818Y-72666528D01*
X179188552Y-72679294D01*
X179247340Y-72701123D01*
X179294164Y-72731112D01*
X179371621Y-72827590D01*
X179405031Y-72953020D01*
X179389702Y-73080105D01*
X179363424Y-73134030D01*
X179334510Y-73191903D01*
X179351978Y-73234017D01*
X179395520Y-73270306D01*
X179449984Y-73328503D01*
X179473413Y-73410251D01*
X179476757Y-73486079D01*
X179447701Y-73636624D01*
X179363360Y-73747875D01*
X179227978Y-73814734D01*
X179197384Y-73821888D01*
X179102730Y-73833512D01*
X178972751Y-73840222D01*
X178826262Y-73842209D01*
X178682081Y-73839662D01*
X178559025Y-73832771D01*
X178475911Y-73821725D01*
X178454729Y-73814405D01*
X178437705Y-73785874D01*
X178426218Y-73720339D01*
X178419811Y-73609914D01*
X178418209Y-73463501D01*
X178824595Y-73463501D01*
X178833643Y-73536507D01*
X178870810Y-73564880D01*
X178951126Y-73556192D01*
X178989436Y-73546543D01*
X179053583Y-73507556D01*
X179063907Y-73452769D01*
X179025992Y-73400780D01*
X178945426Y-73370189D01*
X178936149Y-73369109D01*
X178859733Y-73367619D01*
X178829660Y-73395751D01*
X178824595Y-73463501D01*
X178418209Y-73463501D01*
X178418025Y-73446713D01*
X178420405Y-73222851D01*
G37*
G36*
X173480806Y-74496475D02*
G01*
X173557561Y-74502896D01*
X173594589Y-74519490D01*
X173606351Y-74551076D01*
X173607298Y-74581216D01*
X173593000Y-74646658D01*
X173537314Y-74666720D01*
X173523200Y-74667027D01*
X173475436Y-74672510D01*
X173448830Y-74699886D01*
X173435532Y-74765541D01*
X173428808Y-74864058D01*
X173414297Y-74990966D01*
X173383119Y-75057965D01*
X173328801Y-75073034D01*
X173272636Y-75056581D01*
X173245076Y-75010657D01*
X173231046Y-74907755D01*
X173229730Y-74852950D01*
X173226658Y-74744862D01*
X173213411Y-74688931D01*
X173183947Y-74668791D01*
X173161081Y-74667027D01*
X173107250Y-74646915D01*
X173092433Y-74581216D01*
X173095641Y-74537569D01*
X173114906Y-74511984D01*
X173164688Y-74499641D01*
X173259446Y-74495721D01*
X173349865Y-74495405D01*
X173480806Y-74496475D01*
G37*
G36*
X165506757Y-74615540D02*
G01*
X165489595Y-74632702D01*
X165472433Y-74615540D01*
X165489595Y-74598378D01*
X165506757Y-74615540D01*
G37*
G36*
X167486800Y-73559654D02*
G01*
X167470533Y-73512774D01*
X167510143Y-73442186D01*
X167606938Y-73341992D01*
X167613778Y-73335661D01*
X167809800Y-73184171D01*
X167999504Y-73095285D01*
X168178983Y-73070181D01*
X168344330Y-73110037D01*
X168351223Y-73113303D01*
X168448702Y-73191184D01*
X168484918Y-73298532D01*
X168458590Y-73431424D01*
X168456692Y-73436077D01*
X168373278Y-73552452D01*
X168241486Y-73631121D01*
X168072248Y-73668942D01*
X167876499Y-73662772D01*
X167755000Y-73637764D01*
X167644595Y-73609479D01*
X167589845Y-73596409D01*
X168070250Y-73596409D01*
X168112641Y-73600108D01*
X168117426Y-73600263D01*
X168213103Y-73582432D01*
X168271886Y-73551958D01*
X168311598Y-73518859D01*
X168299230Y-73514257D01*
X168235541Y-73532104D01*
X168124298Y-73566678D01*
X168071668Y-73586689D01*
X168070250Y-73596409D01*
X167589845Y-73596409D01*
X167557636Y-73588720D01*
X167486800Y-73559654D01*
G37*
G36*
X181210136Y-72659054D02*
G01*
X181219596Y-73222836D01*
X181221975Y-73446702D01*
X181220191Y-73609906D01*
X181213783Y-73720334D01*
X181202297Y-73785871D01*
X181185272Y-73814404D01*
X181185271Y-73814405D01*
X181119379Y-73832674D01*
X181019042Y-73839391D01*
X180917585Y-73833936D01*
X180858311Y-73820511D01*
X180841449Y-73794433D01*
X180829223Y-73727189D01*
X180821139Y-73611844D01*
X180816699Y-73441464D01*
X180815406Y-73220832D01*
X180815406Y-72638466D01*
X181210136Y-72659054D01*
G37*
G36*
X171676554Y-74502542D02*
G01*
X171811057Y-74509298D01*
X171890850Y-74519765D01*
X171929871Y-74538064D01*
X171942059Y-74568318D01*
X171942568Y-74581216D01*
X171914524Y-74642598D01*
X171865338Y-74660833D01*
X171820172Y-74674712D01*
X171797060Y-74711663D01*
X171788857Y-74789613D01*
X171788109Y-74854525D01*
X171781637Y-74973307D01*
X171759821Y-75037947D01*
X171733815Y-75058084D01*
X171655130Y-75077743D01*
X171606809Y-75057760D01*
X171605045Y-75056036D01*
X171592190Y-75011347D01*
X171583888Y-74921376D01*
X171582163Y-74850090D01*
X171579769Y-74744029D01*
X171567263Y-74689541D01*
X171536656Y-74669585D01*
X171496352Y-74667027D01*
X171431394Y-74653156D01*
X171411012Y-74598122D01*
X171410541Y-74579772D01*
X171413086Y-74536074D01*
X171430202Y-74510760D01*
X171476108Y-74499702D01*
X171565025Y-74498773D01*
X171676554Y-74502542D01*
G37*
G36*
X166036786Y-75623936D02*
G01*
X166084920Y-75698873D01*
X166117524Y-75795314D01*
X166124595Y-75858853D01*
X166108347Y-75944984D01*
X166064239Y-75971668D01*
X165999231Y-75935103D01*
X165994163Y-75930162D01*
X165970323Y-75877447D01*
X165956714Y-75793057D01*
X165953976Y-75701400D01*
X165962748Y-75626881D01*
X165983669Y-75593908D01*
X165985351Y-75593784D01*
X166036786Y-75623936D01*
G37*
G36*
X164163872Y-71913791D02*
G01*
X164196720Y-71967632D01*
X164190315Y-72042993D01*
X164143197Y-72070526D01*
X164090879Y-72054535D01*
X164040635Y-71994735D01*
X164030811Y-71951312D01*
X164054404Y-71902556D01*
X164107566Y-71890916D01*
X164163872Y-71913791D01*
G37*
G36*
X176059827Y-73229137D02*
G01*
X176090315Y-73196244D01*
X176221637Y-73113491D01*
X176394783Y-73063855D01*
X176524639Y-73052692D01*
X176601787Y-73049806D01*
X176619017Y-73037051D01*
X176585052Y-73005291D01*
X176576352Y-72998532D01*
X176512848Y-72967399D01*
X176420528Y-72958933D01*
X176311390Y-72966885D01*
X176200303Y-72977080D01*
X176139073Y-72973127D01*
X176109482Y-72949727D01*
X176093823Y-72903624D01*
X176079012Y-72799841D01*
X176100614Y-72727437D01*
X176166398Y-72681127D01*
X176284135Y-72655625D01*
X176461594Y-72645647D01*
X176473379Y-72645441D01*
X176672815Y-72665576D01*
X176827834Y-72731514D01*
X176933397Y-72841004D01*
X176941214Y-72854582D01*
X176960759Y-72923155D01*
X176978244Y-73045919D01*
X176991985Y-73208420D01*
X176998862Y-73348925D01*
X177005271Y-73534093D01*
X177003268Y-73661872D01*
X176983777Y-73743519D01*
X176937722Y-73790290D01*
X176856028Y-73813442D01*
X176729620Y-73824231D01*
X176610676Y-73830402D01*
X176424250Y-73833141D01*
X176291875Y-73817185D01*
X176228931Y-73796241D01*
X176102583Y-73709085D01*
X176030973Y-73584833D01*
X176010000Y-73429697D01*
X176012408Y-73403211D01*
X176356773Y-73403211D01*
X176365656Y-73482838D01*
X176415316Y-73521779D01*
X176506626Y-73534324D01*
X176587812Y-73528714D01*
X176621302Y-73500135D01*
X176627838Y-73431351D01*
X176621234Y-73362381D01*
X176587593Y-73333931D01*
X176506626Y-73328378D01*
X176404089Y-73347810D01*
X176356773Y-73403211D01*
X176012408Y-73403211D01*
X176020836Y-73310492D01*
X176059827Y-73229137D01*
G37*
G36*
X167376784Y-71093858D02*
G01*
X167407864Y-71177310D01*
X167416031Y-71299518D01*
X167399479Y-71442198D01*
X167373948Y-71543901D01*
X167334934Y-71666171D01*
X167287276Y-71797638D01*
X167235814Y-71926929D01*
X167185386Y-72042673D01*
X167140831Y-72133496D01*
X167106988Y-72188028D01*
X167088697Y-72194896D01*
X167086899Y-72176797D01*
X167095120Y-72128183D01*
X167115240Y-72034873D01*
X167137849Y-71938243D01*
X167165674Y-71784617D01*
X167183961Y-71610236D01*
X167188113Y-71505730D01*
X167198619Y-71314458D01*
X167227848Y-71172908D01*
X167273886Y-71087244D01*
X167325484Y-71062973D01*
X167376784Y-71093858D01*
G37*
G36*
X168973514Y-74498516D02*
G01*
X169091412Y-74476398D01*
X169244436Y-74473074D01*
X169371697Y-74516893D01*
X169465056Y-74596696D01*
X169516373Y-74701323D01*
X169517508Y-74819615D01*
X169460320Y-74940413D01*
X169444341Y-74960246D01*
X169359814Y-75028953D01*
X169244454Y-75060916D01*
X169212652Y-75064235D01*
X169109603Y-75068093D01*
X169032685Y-75062492D01*
X169016419Y-75057998D01*
X168991162Y-75013426D01*
X168977043Y-74905613D01*
X168974064Y-74790022D01*
X169179460Y-74790022D01*
X169192372Y-74875859D01*
X169227215Y-74898539D01*
X169278148Y-74855885D01*
X169294024Y-74832690D01*
X169312240Y-74759365D01*
X169287930Y-74694690D01*
X169232024Y-74667027D01*
X169193881Y-74691042D01*
X169179768Y-74769553D01*
X169179460Y-74790022D01*
X168974064Y-74790022D01*
X168973514Y-74768695D01*
X168973514Y-74498516D01*
G37*
G36*
X165266487Y-72865000D02*
G01*
X165249325Y-72882162D01*
X165232163Y-72865000D01*
X165249325Y-72847838D01*
X165266487Y-72865000D01*
G37*
G36*
X166439737Y-75332520D02*
G01*
X166487715Y-75368487D01*
X166515434Y-75418461D01*
X166502426Y-75439161D01*
X166470607Y-75436689D01*
X166467838Y-75424188D01*
X166440069Y-75391950D01*
X166416352Y-75387838D01*
X166370674Y-75369303D01*
X166364865Y-75353513D01*
X166387103Y-75321617D01*
X166439737Y-75332520D01*
G37*
G36*
X167495277Y-74089059D02*
G01*
X167526046Y-74134801D01*
X167525698Y-74160392D01*
X167494119Y-74223330D01*
X167438869Y-74250954D01*
X167386233Y-74232442D01*
X167377744Y-74221315D01*
X167330300Y-74198932D01*
X167291622Y-74203648D01*
X167227249Y-74201597D01*
X167197708Y-74162056D01*
X167219512Y-74107583D01*
X167220529Y-74106553D01*
X167262431Y-74087565D01*
X167291622Y-74117838D01*
X167327538Y-74150044D01*
X167365706Y-74126132D01*
X167434672Y-74084636D01*
X167495277Y-74089059D01*
G37*
G36*
X165754870Y-71870896D02*
G01*
X165767486Y-71900132D01*
X165771611Y-71969259D01*
X165733255Y-72002935D01*
X165678092Y-71989541D01*
X165646262Y-71958961D01*
X165665370Y-71920360D01*
X165685699Y-71899066D01*
X165731408Y-71859522D01*
X165754870Y-71870896D01*
G37*
G36*
X166124595Y-74272297D02*
G01*
X166107433Y-74289459D01*
X166090271Y-74272297D01*
X166107433Y-74255135D01*
X166124595Y-74272297D01*
G37*
G36*
X174484548Y-74598369D02*
G01*
X174563426Y-74514038D01*
X174589476Y-74499858D01*
X174713388Y-74464195D01*
X174819907Y-74487205D01*
X174900347Y-74543249D01*
X174966609Y-74617544D01*
X174993090Y-74706608D01*
X174995873Y-74770000D01*
X174984443Y-74880122D01*
X174940648Y-74957874D01*
X174900347Y-74996751D01*
X174786079Y-75064573D01*
X174667539Y-75068035D01*
X174561295Y-75025746D01*
X174481024Y-74947289D01*
X174442224Y-74835942D01*
X174442559Y-74809315D01*
X174637511Y-74809315D01*
X174657146Y-74876625D01*
X174703780Y-74907195D01*
X174707194Y-74907297D01*
X174746737Y-74884035D01*
X174775168Y-74854794D01*
X174798779Y-74792410D01*
X174789379Y-74724195D01*
X174756957Y-74671503D01*
X174711503Y-74655687D01*
X174687658Y-74667737D01*
X174646980Y-74731081D01*
X174637511Y-74809315D01*
X174442559Y-74809315D01*
X174443773Y-74712653D01*
X174484548Y-74598369D01*
G37*
G36*
X169663693Y-74541655D02*
G01*
X169767249Y-74483185D01*
X169879202Y-74474834D01*
X169982612Y-74517792D01*
X170060538Y-74613250D01*
X170061673Y-74615603D01*
X170099975Y-74725538D01*
X170085744Y-74795060D01*
X170014556Y-74830684D01*
X169909929Y-74839174D01*
X169813778Y-74843911D01*
X169783095Y-74857788D01*
X169795681Y-74871247D01*
X169865239Y-74888652D01*
X169938104Y-74884284D01*
X170011324Y-74882268D01*
X170048502Y-74924037D01*
X170054409Y-74940609D01*
X170066379Y-75006102D01*
X170060699Y-75032905D01*
X169999352Y-75057402D01*
X169899935Y-75065539D01*
X169790950Y-75057719D01*
X169700898Y-75034349D01*
X169687240Y-75027605D01*
X169609725Y-74948525D01*
X169567220Y-74833275D01*
X169566869Y-74708425D01*
X169579843Y-74667027D01*
X169780136Y-74667027D01*
X169790645Y-74694043D01*
X169829596Y-74701351D01*
X169886463Y-74687347D01*
X169900271Y-74667027D01*
X169872616Y-74636241D01*
X169850810Y-74632702D01*
X169792371Y-74653621D01*
X169780136Y-74667027D01*
X169579843Y-74667027D01*
X169585476Y-74649053D01*
X169663693Y-74541655D01*
G37*
G36*
X171885454Y-72646770D02*
G01*
X172006794Y-72666112D01*
X172099756Y-72698840D01*
X172149073Y-72742944D01*
X172151267Y-72774357D01*
X172130829Y-72849836D01*
X172111725Y-72926556D01*
X172092747Y-72985266D01*
X172059294Y-73009084D01*
X171989873Y-73007140D01*
X171938913Y-72999955D01*
X171780351Y-72989430D01*
X171671253Y-73016169D01*
X171601332Y-73083635D01*
X171583282Y-73119728D01*
X171556083Y-73249605D01*
X171578069Y-73366389D01*
X171641588Y-73454387D01*
X171738990Y-73497906D01*
X171768690Y-73500000D01*
X171803724Y-73481938D01*
X171819843Y-73418670D01*
X171822433Y-73346194D01*
X171827431Y-73248262D01*
X171848949Y-73197763D01*
X171896771Y-73173813D01*
X171904096Y-73171892D01*
X172001933Y-73160238D01*
X172084299Y-73162657D01*
X172182838Y-73173919D01*
X172192727Y-73472282D01*
X172202615Y-73770645D01*
X172072592Y-73806753D01*
X171920350Y-73833481D01*
X171748821Y-73840081D01*
X171586246Y-73827132D01*
X171460869Y-73795212D01*
X171458467Y-73794181D01*
X171367342Y-73734521D01*
X171281321Y-73647923D01*
X171269683Y-73632484D01*
X171227281Y-73563275D01*
X171202340Y-73489123D01*
X171190508Y-73389070D01*
X171187435Y-73242156D01*
X171187433Y-73236240D01*
X171189135Y-73094703D01*
X171197737Y-73001924D01*
X171218479Y-72938033D01*
X171256603Y-72883158D01*
X171290406Y-72845864D01*
X171383705Y-72763543D01*
X171484114Y-72698490D01*
X171503830Y-72689151D01*
X171618705Y-72656280D01*
X171751002Y-72642823D01*
X171885454Y-72646770D01*
G37*
G36*
X171237997Y-74478921D02*
G01*
X171329928Y-74498233D01*
X171369223Y-74519900D01*
X171370788Y-74558548D01*
X171359217Y-74597866D01*
X171330006Y-74647841D01*
X171272483Y-74658706D01*
X171227367Y-74652951D01*
X171162516Y-74643039D01*
X171154216Y-74647601D01*
X171205201Y-74671650D01*
X171247500Y-74689859D01*
X171332091Y-74734237D01*
X171368806Y-74785070D01*
X171376217Y-74856265D01*
X171361612Y-74946698D01*
X171326453Y-75008837D01*
X171326076Y-75009153D01*
X171251582Y-75044010D01*
X171146675Y-75065043D01*
X171042593Y-75068632D01*
X170970571Y-75051157D01*
X170969529Y-75050471D01*
X170936734Y-74994488D01*
X170936536Y-74954671D01*
X170963400Y-74909503D01*
X171030163Y-74897455D01*
X171062347Y-74899158D01*
X171136826Y-74896895D01*
X171154727Y-74875905D01*
X171153382Y-74873415D01*
X171103065Y-74840496D01*
X171087754Y-74838648D01*
X171025301Y-74810883D01*
X170964992Y-74746305D01*
X170931376Y-74672991D01*
X170930000Y-74658234D01*
X170955150Y-74601099D01*
X171016407Y-74535549D01*
X171023470Y-74529838D01*
X171113437Y-74478651D01*
X171212353Y-74474692D01*
X171237997Y-74478921D01*
G37*
G36*
X175361034Y-74478945D02*
G01*
X175434807Y-74506527D01*
X175455925Y-74553999D01*
X175454203Y-74575795D01*
X175431793Y-74628758D01*
X175372171Y-74643901D01*
X175340676Y-74642712D01*
X175237703Y-74635560D01*
X175348556Y-74685430D01*
X175448171Y-74753405D01*
X175489907Y-74832893D01*
X175481128Y-74914056D01*
X175429199Y-74987052D01*
X175341485Y-75042042D01*
X175225348Y-75069186D01*
X175088154Y-75058643D01*
X175072142Y-75054773D01*
X175027245Y-75019825D01*
X175029237Y-74987298D01*
X175047098Y-74920853D01*
X175048919Y-74901762D01*
X175078111Y-74883323D01*
X175151892Y-74890135D01*
X175230663Y-74897465D01*
X175251351Y-74878757D01*
X175214263Y-74844075D01*
X175149561Y-74813951D01*
X175077116Y-74776796D01*
X175053035Y-74723204D01*
X175055169Y-74660786D01*
X175095281Y-74556041D01*
X175182983Y-74490057D01*
X175304359Y-74471108D01*
X175361034Y-74478945D01*
G37*
G36*
X176662163Y-74478243D02*
G01*
X176790178Y-74469208D01*
X176911792Y-74491878D01*
X176999292Y-74540543D01*
X177007478Y-74549388D01*
X177032273Y-74623115D01*
X177028444Y-74723277D01*
X177031521Y-74867836D01*
X177058054Y-74943868D01*
X177088424Y-75011925D01*
X177080843Y-75044224D01*
X177044295Y-75060308D01*
X176946238Y-75064365D01*
X176869379Y-75005219D01*
X176828459Y-74930574D01*
X176782525Y-74821486D01*
X176765249Y-74941232D01*
X176732597Y-75036974D01*
X176670275Y-75071163D01*
X176602095Y-75056581D01*
X176576931Y-75013636D01*
X176562822Y-74908273D01*
X176559190Y-74769867D01*
X176559190Y-74701351D01*
X176765136Y-74701351D01*
X176779510Y-74757127D01*
X176799460Y-74770000D01*
X176827348Y-74741251D01*
X176833784Y-74701351D01*
X176819410Y-74645575D01*
X176799460Y-74632702D01*
X176771572Y-74661451D01*
X176765136Y-74701351D01*
X176559190Y-74701351D01*
X176559190Y-74500860D01*
X176662163Y-74478243D01*
G37*
G36*
X176059969Y-74759096D02*
G01*
X176147298Y-74692079D01*
X176267433Y-74631119D01*
X176155879Y-74651800D01*
X176079758Y-74660493D01*
X176049419Y-74639476D01*
X176044325Y-74587664D01*
X176071893Y-74515165D01*
X176143069Y-74475756D01*
X176240562Y-74470841D01*
X176347080Y-74501827D01*
X176430473Y-74556271D01*
X176467144Y-74609871D01*
X176485877Y-74699519D01*
X176490541Y-74822516D01*
X176489057Y-74939452D01*
X176479277Y-75005250D01*
X176453207Y-75037419D01*
X176402852Y-75053469D01*
X176383277Y-75057466D01*
X176259289Y-75076164D01*
X176173594Y-75069482D01*
X176099597Y-75034455D01*
X176084358Y-75024135D01*
X176019854Y-74944917D01*
X176015554Y-74887484D01*
X176192744Y-74887484D01*
X176230248Y-74907297D01*
X176277531Y-74879661D01*
X176284595Y-74852950D01*
X176264637Y-74812918D01*
X176243835Y-74812190D01*
X176198507Y-74846355D01*
X176192744Y-74887484D01*
X176015554Y-74887484D01*
X176012810Y-74850844D01*
X176059969Y-74759096D01*
G37*
G36*
X165335136Y-73929054D02*
G01*
X165317973Y-73946216D01*
X165300811Y-73929054D01*
X165317973Y-73911892D01*
X165335136Y-73929054D01*
G37*
G36*
X163867663Y-75589947D02*
G01*
X163924402Y-75669044D01*
X163956301Y-75778200D01*
X163958049Y-75898863D01*
X163924336Y-76012483D01*
X163922232Y-76016513D01*
X163845229Y-76114586D01*
X163751532Y-76168424D01*
X163657948Y-76172604D01*
X163584322Y-76125482D01*
X163556399Y-76047015D01*
X163559304Y-75984744D01*
X163628409Y-75984744D01*
X163631162Y-76022820D01*
X163652555Y-76056332D01*
X163699591Y-76103652D01*
X163710572Y-76093648D01*
X163685995Y-76037060D01*
X163650005Y-75989362D01*
X163628409Y-75984744D01*
X163559304Y-75984744D01*
X163561532Y-75937001D01*
X163592764Y-75814455D01*
X163643140Y-75698395D01*
X163705701Y-75607835D01*
X163773491Y-75561792D01*
X163791394Y-75559459D01*
X163867663Y-75589947D01*
G37*
G36*
X172384856Y-72955270D02*
G01*
X172413210Y-72902897D01*
X172531648Y-72764838D01*
X172688812Y-72676215D01*
X172871961Y-72641038D01*
X173068353Y-72663314D01*
X173122290Y-72679802D01*
X173234862Y-72752752D01*
X173325037Y-72876229D01*
X173383509Y-73033374D01*
X173401352Y-73185515D01*
X173401352Y-73362702D01*
X173075271Y-73362702D01*
X172935158Y-73365643D01*
X172825203Y-73373547D01*
X172760308Y-73385037D01*
X172749190Y-73392824D01*
X172780257Y-73454230D01*
X172870557Y-73488391D01*
X173015732Y-73493929D01*
X173059231Y-73490758D01*
X173176883Y-73482996D01*
X173245446Y-73489147D01*
X173283726Y-73512982D01*
X173301004Y-73539230D01*
X173330575Y-73644348D01*
X173312973Y-73739575D01*
X173253841Y-73803250D01*
X173229730Y-73812721D01*
X173083411Y-73836805D01*
X172916797Y-73839871D01*
X172757047Y-73823372D01*
X172631319Y-73788760D01*
X172612461Y-73779693D01*
X172487788Y-73695501D01*
X172407403Y-73592702D01*
X172362550Y-73455047D01*
X172345141Y-73283731D01*
X172343135Y-73140282D01*
X172352409Y-73060359D01*
X172732494Y-73060359D01*
X172748924Y-73081088D01*
X172813186Y-73087644D01*
X172870634Y-73088108D01*
X172967781Y-73083929D01*
X173011842Y-73067225D01*
X173018090Y-73031748D01*
X173017439Y-73028040D01*
X172978256Y-72976360D01*
X172903918Y-72954564D01*
X172821580Y-72963728D01*
X172758398Y-73004927D01*
X172750262Y-73017455D01*
X172732494Y-73060359D01*
X172352409Y-73060359D01*
X172354851Y-73039313D01*
X172384856Y-72955270D01*
G37*
G36*
X164845018Y-71489041D02*
G01*
X164859153Y-71500017D01*
X164880930Y-71556465D01*
X164865844Y-71616626D01*
X164822948Y-71646406D01*
X164820271Y-71646486D01*
X164777887Y-71618938D01*
X164763149Y-71592693D01*
X164761700Y-71529244D01*
X164795836Y-71488085D01*
X164845018Y-71489041D01*
G37*
G36*
X163511712Y-73846947D02*
G01*
X163573379Y-73856411D01*
X163584595Y-73863688D01*
X163566532Y-73902643D01*
X163522196Y-73971614D01*
X163513609Y-73983823D01*
X163430912Y-74057348D01*
X163333282Y-74085252D01*
X163243275Y-74063803D01*
X163208848Y-74034221D01*
X163185580Y-73972918D01*
X163205853Y-73914086D01*
X163244334Y-73869494D01*
X163310900Y-73848250D01*
X163414181Y-73843243D01*
X163511712Y-73846947D01*
G37*
G36*
X166556330Y-71280931D02*
G01*
X166522812Y-71360121D01*
X166462420Y-71456771D01*
X166392537Y-71548133D01*
X166325607Y-71620452D01*
X166274075Y-71659971D01*
X166252458Y-71658991D01*
X166257588Y-71613040D01*
X166292131Y-71531521D01*
X166344756Y-71434114D01*
X166404134Y-71340503D01*
X166458934Y-71270369D01*
X166490919Y-71244736D01*
X166547440Y-71238628D01*
X166556330Y-71280931D01*
G37*
G36*
X164695943Y-74212507D02*
G01*
X164665811Y-74212448D01*
X164654191Y-74212787D01*
X164663579Y-74193052D01*
X164694281Y-74166225D01*
X164745297Y-74185528D01*
X164761593Y-74195990D01*
X164822326Y-74247802D01*
X164846993Y-74283816D01*
X164843942Y-74320387D01*
X164808469Y-74316600D01*
X164759554Y-74277596D01*
X164755350Y-74272297D01*
X164785946Y-74272297D01*
X164803109Y-74289459D01*
X164820271Y-74272297D01*
X164803109Y-74255135D01*
X164785946Y-74272297D01*
X164755350Y-74272297D01*
X164741909Y-74255353D01*
X164695943Y-74212507D01*
G37*
G36*
X174778268Y-72878661D02*
G01*
X174784562Y-72774944D01*
X174794949Y-72710690D01*
X174810339Y-72676175D01*
X174828619Y-72662726D01*
X174887799Y-72652680D01*
X174994224Y-72645290D01*
X175126499Y-72641956D01*
X175147427Y-72641892D01*
X175379272Y-72658940D01*
X175559055Y-72712698D01*
X175695022Y-72807081D01*
X175795422Y-72946006D01*
X175797922Y-72950811D01*
X175849048Y-73072033D01*
X175865369Y-73187796D01*
X175860324Y-73286886D01*
X175816912Y-73490194D01*
X175728362Y-73645254D01*
X175592112Y-73754030D01*
X175405599Y-73818488D01*
X175166259Y-73840590D01*
X175137913Y-73840533D01*
X175002489Y-73837223D01*
X174891535Y-73830863D01*
X174824701Y-73822681D01*
X174817230Y-73820511D01*
X174800044Y-73793955D01*
X174787684Y-73725587D01*
X174779630Y-73608424D01*
X174775362Y-73435484D01*
X174774325Y-73243379D01*
X174774328Y-73242567D01*
X175186217Y-73242567D01*
X175187338Y-73373534D01*
X175193841Y-73450307D01*
X175210434Y-73487338D01*
X175241825Y-73499081D01*
X175270081Y-73500000D01*
X175355930Y-73471766D01*
X175407378Y-73423714D01*
X175447641Y-73325423D01*
X175458757Y-73206959D01*
X175440766Y-73098017D01*
X175406873Y-73039073D01*
X175330278Y-72995938D01*
X175269576Y-72985135D01*
X175227165Y-72988641D01*
X175202303Y-73008793D01*
X175190312Y-73060039D01*
X175186511Y-73156830D01*
X175186217Y-73242567D01*
X174774328Y-73242567D01*
X174775159Y-73031565D01*
X174778268Y-72878661D01*
G37*
G36*
X172543244Y-74500860D02*
G01*
X172646098Y-74478269D01*
X172761207Y-74474129D01*
X172881590Y-74501491D01*
X172980453Y-74551805D01*
X173024048Y-74598870D01*
X173046141Y-74673827D01*
X173057642Y-74778598D01*
X173058109Y-74802572D01*
X173049831Y-74900524D01*
X173013774Y-74962113D01*
X172946554Y-75010646D01*
X172851339Y-75051143D01*
X172739807Y-75074853D01*
X172637589Y-75078718D01*
X172570315Y-75059682D01*
X172566127Y-75056036D01*
X172555256Y-75013010D01*
X172547183Y-74919791D01*
X172543368Y-74794822D01*
X172543257Y-74770000D01*
X172749190Y-74770000D01*
X172754788Y-74856993D01*
X172775385Y-74888749D01*
X172800676Y-74885385D01*
X172838919Y-74839522D01*
X172852163Y-74770000D01*
X172835371Y-74692526D01*
X172800676Y-74654614D01*
X172766715Y-74656277D01*
X172751606Y-74704542D01*
X172749190Y-74770000D01*
X172543257Y-74770000D01*
X172543244Y-74767006D01*
X172543244Y-74500860D01*
G37*
G36*
X164785946Y-73105270D02*
G01*
X164768784Y-73122432D01*
X164751622Y-73105270D01*
X164768784Y-73088108D01*
X164785946Y-73105270D01*
G37*
G36*
X170964325Y-73202858D02*
G01*
X170964821Y-73420278D01*
X170962265Y-73578757D01*
X170950593Y-73687940D01*
X170923739Y-73757468D01*
X170875638Y-73796985D01*
X170800224Y-73816132D01*
X170691433Y-73824552D01*
X170569595Y-73830402D01*
X170387761Y-73833415D01*
X170257583Y-73818617D01*
X170184122Y-73794673D01*
X170090368Y-73740637D01*
X170022580Y-73669684D01*
X169976954Y-73570913D01*
X169949691Y-73433422D01*
X169936988Y-73246312D01*
X169934723Y-73079527D01*
X169934595Y-72641892D01*
X170304754Y-72641892D01*
X170317329Y-73038053D01*
X170325495Y-73224769D01*
X170338732Y-73353428D01*
X170361030Y-73434613D01*
X170396379Y-73478907D01*
X170448771Y-73496894D01*
X170491309Y-73499474D01*
X170516372Y-73492618D01*
X170533832Y-73464228D01*
X170545478Y-73403360D01*
X170553100Y-73299070D01*
X170558486Y-73140414D01*
X170559957Y-73079527D01*
X170569595Y-72659054D01*
X170964325Y-72638466D01*
X170964325Y-73202858D01*
G37*
G36*
X166192850Y-74041421D02*
G01*
X166193244Y-74049189D01*
X166166857Y-74082194D01*
X166156894Y-74083513D01*
X166136394Y-74062485D01*
X166141757Y-74049189D01*
X166172601Y-74016444D01*
X166178107Y-74014865D01*
X166192850Y-74041421D01*
G37*
G36*
X164499910Y-73065225D02*
G01*
X164495199Y-73085631D01*
X164477027Y-73088108D01*
X164448775Y-73075549D01*
X164454145Y-73065225D01*
X164494879Y-73061117D01*
X164499910Y-73065225D01*
G37*
G36*
X175743932Y-74513289D02*
G01*
X175766960Y-74613301D01*
X175769730Y-74687861D01*
X175771557Y-74794454D01*
X175783365Y-74849462D01*
X175814645Y-74869948D01*
X175872703Y-74872973D01*
X175946295Y-74882208D01*
X175973217Y-74921468D01*
X175975676Y-74958784D01*
X175971315Y-75006341D01*
X175947487Y-75032017D01*
X175888071Y-75042529D01*
X175776949Y-75044592D01*
X175769730Y-75044594D01*
X175563784Y-75044594D01*
X175563784Y-74773672D01*
X175566961Y-74628551D01*
X175577960Y-74539422D01*
X175598982Y-74493856D01*
X175615271Y-74482993D01*
X175694572Y-74471449D01*
X175743932Y-74513289D01*
G37*
G36*
X166055946Y-74272297D02*
G01*
X166038784Y-74289459D01*
X166021622Y-74272297D01*
X166038784Y-74255135D01*
X166055946Y-74272297D01*
G37*
G36*
X166124595Y-73997702D02*
G01*
X166107433Y-74014865D01*
X166090271Y-73997702D01*
X166107433Y-73980540D01*
X166124595Y-73997702D01*
G37*
G36*
X164408379Y-73036621D02*
G01*
X164391217Y-73053784D01*
X164374054Y-73036621D01*
X164391217Y-73019459D01*
X164408379Y-73036621D01*
G37*
G36*
X165701262Y-72069820D02*
G01*
X165705370Y-72110554D01*
X165701262Y-72115585D01*
X165680856Y-72110874D01*
X165678379Y-72092702D01*
X165690938Y-72064450D01*
X165701262Y-72069820D01*
G37*
G36*
X171987863Y-74782282D02*
G01*
X172042211Y-74728442D01*
X172128397Y-74679790D01*
X172136838Y-74676382D01*
X172251487Y-74631822D01*
X172141852Y-74648182D01*
X172060572Y-74650832D01*
X172020267Y-74619790D01*
X172010001Y-74594550D01*
X171999161Y-74533692D01*
X172023898Y-74500002D01*
X172096569Y-74485124D01*
X172177108Y-74481545D01*
X172300180Y-74488671D01*
X172378676Y-74524127D01*
X172421795Y-74599203D01*
X172438735Y-74725190D01*
X172440271Y-74804524D01*
X172438197Y-74928984D01*
X172428603Y-75001398D01*
X172406429Y-75038319D01*
X172366618Y-75056307D01*
X172363041Y-75057284D01*
X172188775Y-75073074D01*
X172072311Y-75043905D01*
X172001996Y-74982986D01*
X171968860Y-74889211D01*
X171972465Y-74863878D01*
X172143909Y-74863878D01*
X172155168Y-74885347D01*
X172209737Y-74907657D01*
X172257432Y-74887143D01*
X172268649Y-74855811D01*
X172242212Y-74810281D01*
X172219188Y-74804324D01*
X172163006Y-74823326D01*
X172143909Y-74863878D01*
X171972465Y-74863878D01*
X171982603Y-74792632D01*
X171987863Y-74782282D01*
G37*
%TO.C,R2*%
X145872000Y-90910000D02*
X145872000Y-84370000D01*
X143462000Y-90910000D02*
X143132000Y-90910000D01*
X143132000Y-90910000D02*
X143132000Y-84370000D01*
X143132000Y-84370000D02*
X143462000Y-84370000D01*
X145542000Y-90910000D02*
X145872000Y-90910000D01*
X145872000Y-84370000D02*
X145542000Y-84370000D01*
%TO.C,U3*%
X170228654Y-85368029D02*
X170228654Y-89771972D01*
X168488000Y-85284001D02*
G75*
G03*
X168488000Y-89855999I761999J-2285999D01*
G01*
X170012001Y-89856002D02*
G75*
G03*
X170228654Y-89771972I-940901J2747202D01*
G01*
X170228654Y-85368028D02*
G75*
G03*
X170012000Y-85284001I-978754J-2202272D01*
G01*
%TO.C,C1*%
X170290000Y-79940000D02*
X171819000Y-79940000D01*
X167597000Y-78179000D02*
X168210000Y-78179000D01*
X170290000Y-79780000D02*
X171800000Y-79780000D01*
X170290000Y-78459000D02*
X171187000Y-78459000D01*
X170290000Y-78739000D02*
X171399000Y-78739000D01*
X167050000Y-78819000D02*
X168210000Y-78819000D01*
X170290000Y-78179000D02*
X170903000Y-78179000D01*
X170290000Y-79580000D02*
X171761000Y-79580000D01*
X168239000Y-77779000D02*
X170261000Y-77779000D01*
X170290000Y-79459000D02*
X171730000Y-79459000D01*
X170290000Y-80140000D02*
X171830000Y-80140000D01*
X166681000Y-79940000D02*
X168210000Y-79940000D01*
X167026000Y-78859000D02*
X168210000Y-78859000D01*
X170290000Y-78819000D02*
X171450000Y-78819000D01*
X166671000Y-80100000D02*
X168210000Y-80100000D01*
X168573000Y-77659000D02*
X169927000Y-77659000D01*
X170290000Y-80180000D02*
X171830000Y-80180000D01*
X166902000Y-79099000D02*
X168210000Y-79099000D01*
X167465000Y-78299000D02*
X168210000Y-78299000D01*
X167507000Y-78259000D02*
X168210000Y-78259000D01*
X166782000Y-79419000D02*
X168210000Y-79419000D01*
X170290000Y-78339000D02*
X171076000Y-78339000D01*
X167551000Y-78219000D02*
X168210000Y-78219000D01*
X170290000Y-79700000D02*
X171786000Y-79700000D01*
X166921000Y-79059000D02*
X168210000Y-79059000D01*
X168732000Y-77619000D02*
X169768000Y-77619000D01*
X166700000Y-79780000D02*
X168210000Y-79780000D01*
X166868000Y-79179000D02*
X168210000Y-79179000D01*
X166674000Y-80020000D02*
X168210000Y-80020000D01*
X170290000Y-80100000D02*
X171829000Y-80100000D01*
X167645000Y-78139000D02*
X170855000Y-78139000D01*
X170290000Y-79900000D02*
X171815000Y-79900000D01*
X166982000Y-78939000D02*
X168210000Y-78939000D01*
X167386000Y-78379000D02*
X168210000Y-78379000D01*
X166722000Y-79660000D02*
X168210000Y-79660000D01*
X170290000Y-79500000D02*
X171741000Y-79500000D01*
X170290000Y-79860000D02*
X171811000Y-79860000D01*
X167003000Y-78899000D02*
X168210000Y-78899000D01*
X167349000Y-78419000D02*
X168210000Y-78419000D01*
X170290000Y-78499000D02*
X171221000Y-78499000D01*
X166852000Y-79219000D02*
X168210000Y-79219000D01*
X170290000Y-78219000D02*
X170949000Y-78219000D01*
X167313000Y-78459000D02*
X168210000Y-78459000D01*
X167867000Y-77979000D02*
X170633000Y-77979000D01*
X167128000Y-78699000D02*
X168210000Y-78699000D01*
X166672000Y-80060000D02*
X168210000Y-80060000D01*
X166940000Y-79019000D02*
X168210000Y-79019000D01*
X167525000Y-82734775D02*
X168025000Y-82734775D01*
X170290000Y-78779000D02*
X171425000Y-78779000D01*
X167185000Y-78619000D02*
X168210000Y-78619000D01*
X166749000Y-79540000D02*
X168210000Y-79540000D01*
X170290000Y-78979000D02*
X171540000Y-78979000D01*
X170290000Y-79419000D02*
X171718000Y-79419000D01*
X170290000Y-79259000D02*
X171664000Y-79259000D01*
X170290000Y-78539000D02*
X171254000Y-78539000D01*
X170290000Y-78299000D02*
X171035000Y-78299000D01*
X166836000Y-79259000D02*
X168210000Y-79259000D01*
X170290000Y-78899000D02*
X171497000Y-78899000D01*
X168072000Y-77859000D02*
X170428000Y-77859000D01*
X170290000Y-79620000D02*
X171770000Y-79620000D01*
X170290000Y-79980000D02*
X171823000Y-79980000D01*
X170290000Y-80020000D02*
X171826000Y-80020000D01*
X166670000Y-80180000D02*
X168210000Y-80180000D01*
X166730000Y-79620000D02*
X168210000Y-79620000D01*
X166694000Y-79820000D02*
X168210000Y-79820000D01*
X170290000Y-79059000D02*
X171579000Y-79059000D01*
X166795000Y-79379000D02*
X168210000Y-79379000D01*
X170290000Y-79740000D02*
X171793000Y-79740000D01*
X170290000Y-80060000D02*
X171828000Y-80060000D01*
X170290000Y-78259000D02*
X170993000Y-78259000D01*
X167999000Y-77899000D02*
X170501000Y-77899000D01*
X166670000Y-80140000D02*
X168210000Y-80140000D01*
X166689000Y-79860000D02*
X168210000Y-79860000D01*
X166885000Y-79139000D02*
X168210000Y-79139000D01*
X170290000Y-79339000D02*
X171692000Y-79339000D01*
X166960000Y-78979000D02*
X168210000Y-78979000D01*
X167075000Y-78779000D02*
X168210000Y-78779000D01*
X167696000Y-78099000D02*
X170804000Y-78099000D01*
X170290000Y-79219000D02*
X171648000Y-79219000D01*
X167775000Y-82984775D02*
X167775000Y-82484775D01*
X166677000Y-79980000D02*
X168210000Y-79980000D01*
X167931000Y-77939000D02*
X170569000Y-77939000D01*
X170290000Y-78379000D02*
X171114000Y-78379000D01*
X170290000Y-79179000D02*
X171632000Y-79179000D01*
X167424000Y-78339000D02*
X168210000Y-78339000D01*
X170290000Y-78859000D02*
X171474000Y-78859000D01*
X170290000Y-78419000D02*
X171151000Y-78419000D01*
X170290000Y-79379000D02*
X171705000Y-79379000D01*
X170290000Y-78659000D02*
X171345000Y-78659000D01*
X166685000Y-79900000D02*
X168210000Y-79900000D01*
X168966000Y-77579000D02*
X169534000Y-77579000D01*
X170290000Y-78579000D02*
X171285000Y-78579000D01*
X170290000Y-79139000D02*
X171615000Y-79139000D01*
X170290000Y-79099000D02*
X171598000Y-79099000D01*
X170290000Y-79820000D02*
X171806000Y-79820000D01*
X170290000Y-79660000D02*
X171778000Y-79660000D01*
X166822000Y-79299000D02*
X168210000Y-79299000D01*
X170290000Y-78699000D02*
X171372000Y-78699000D01*
X167246000Y-78539000D02*
X168210000Y-78539000D01*
X166714000Y-79700000D02*
X168210000Y-79700000D01*
X170290000Y-79019000D02*
X171560000Y-79019000D01*
X167750000Y-78059000D02*
X170750000Y-78059000D01*
X167279000Y-78499000D02*
X168210000Y-78499000D01*
X166770000Y-79459000D02*
X168210000Y-79459000D01*
X170290000Y-78939000D02*
X171518000Y-78939000D01*
X170290000Y-78619000D02*
X171315000Y-78619000D01*
X166739000Y-79580000D02*
X168210000Y-79580000D01*
X170290000Y-79540000D02*
X171751000Y-79540000D01*
X170290000Y-79299000D02*
X171678000Y-79299000D01*
X166759000Y-79500000D02*
X168210000Y-79500000D01*
X167101000Y-78739000D02*
X168210000Y-78739000D01*
X168335000Y-77739000D02*
X170165000Y-77739000D01*
X166707000Y-79740000D02*
X168210000Y-79740000D01*
X166808000Y-79339000D02*
X168210000Y-79339000D01*
X167155000Y-78659000D02*
X168210000Y-78659000D01*
X167215000Y-78579000D02*
X168210000Y-78579000D01*
X168445000Y-77699000D02*
X170055000Y-77699000D01*
X168152000Y-77819000D02*
X170348000Y-77819000D01*
X167807000Y-78019000D02*
X170693000Y-78019000D01*
X171870000Y-80180000D02*
G75*
G03*
X171870000Y-80180000I-2620000J0D01*
G01*
%TO.C,kibuzzard-629BB99D*%
G36*
X162899190Y-101100000D02*
G01*
X162304583Y-100208090D01*
X180695417Y-100208090D01*
X180100810Y-101100000D01*
X180695417Y-101991910D01*
X162304583Y-101991910D01*
X162574810Y-101586569D01*
X163229919Y-101586569D01*
X163339456Y-101634988D01*
X163424784Y-101654633D01*
X163534719Y-101661181D01*
X163646108Y-101652803D01*
X163690368Y-101640544D01*
X164006206Y-101640544D01*
X164164956Y-101640544D01*
X164164956Y-101054756D01*
X164191150Y-101049994D01*
X164214169Y-101048406D01*
X164262588Y-101078569D01*
X164277669Y-101184931D01*
X164277669Y-101356381D01*
X164436419Y-101356381D01*
X164436419Y-101207156D01*
X164433244Y-101126194D01*
X164425306Y-101059519D01*
X164453881Y-101050787D01*
X164484044Y-101048406D01*
X164508650Y-101053169D01*
X164529288Y-101072219D01*
X164543575Y-101113494D01*
X164549131Y-101184931D01*
X164549131Y-101640544D01*
X164707881Y-101640544D01*
X164707881Y-101411944D01*
X164823769Y-101411944D01*
X164845994Y-101527037D01*
X164909494Y-101603237D01*
X165008713Y-101645306D01*
X165138094Y-101658006D01*
X165237709Y-101654831D01*
X165327006Y-101645306D01*
X165354217Y-101640544D01*
X165688956Y-101640544D01*
X165885806Y-101640544D01*
X165885806Y-101086506D01*
X165966769Y-101071425D01*
X166047731Y-101067456D01*
X166090594Y-101069044D01*
X166142981Y-101074600D01*
X166196163Y-101083331D01*
X166241406Y-101092856D01*
X166248452Y-101056344D01*
X166398569Y-101056344D01*
X166568431Y-101056344D01*
X166568431Y-101362731D01*
X166573194Y-101447464D01*
X166587481Y-101514337D01*
X166643044Y-101604031D01*
X166731944Y-101646894D01*
X166852594Y-101658006D01*
X166974038Y-101648481D01*
X167003206Y-101640544D01*
X167206606Y-101640544D01*
X167401869Y-101640544D01*
X167401869Y-101207156D01*
X167662219Y-101207156D01*
X167662219Y-101640544D01*
X167857481Y-101640544D01*
X167857481Y-101411944D01*
X167998769Y-101411944D01*
X168020994Y-101527037D01*
X168084494Y-101603237D01*
X168183713Y-101645306D01*
X168313094Y-101658006D01*
X168412709Y-101654831D01*
X168502006Y-101645306D01*
X168529217Y-101640544D01*
X168863956Y-101640544D01*
X169060806Y-101640544D01*
X169622781Y-101640544D01*
X170208569Y-101640544D01*
X170208569Y-101478619D01*
X169856144Y-101478619D01*
X169896823Y-101418889D01*
X169942663Y-101354000D01*
X169960692Y-101329394D01*
X170489556Y-101329394D01*
X170924531Y-101329394D01*
X170924531Y-101137306D01*
X170489556Y-101137306D01*
X170489556Y-101329394D01*
X169960692Y-101329394D01*
X169991081Y-101287920D01*
X170039500Y-101224619D01*
X170086133Y-101165683D01*
X170129194Y-101112700D01*
X170192694Y-101037294D01*
X170192694Y-100894419D01*
X169638656Y-100894419D01*
X169638656Y-101056344D01*
X169946631Y-101056344D01*
X169872019Y-101156356D01*
X169830347Y-101213308D01*
X169787881Y-101273037D01*
X169745019Y-101334752D01*
X169702156Y-101397656D01*
X169660881Y-101460362D01*
X169622781Y-101521481D01*
X169622781Y-101640544D01*
X169060806Y-101640544D01*
X169060806Y-101086506D01*
X169141769Y-101071425D01*
X169222731Y-101067456D01*
X169265594Y-101069044D01*
X169317981Y-101074600D01*
X169371163Y-101083331D01*
X169416406Y-101092856D01*
X169451331Y-100911881D01*
X169390213Y-100896800D01*
X169322744Y-100887275D01*
X169260038Y-100881719D01*
X169214794Y-100880131D01*
X169112202Y-100884497D01*
X169023500Y-100897594D01*
X168942736Y-100917834D01*
X168863956Y-100943631D01*
X168863956Y-101640544D01*
X168529217Y-101640544D01*
X168629006Y-101623081D01*
X168629006Y-101178581D01*
X168613131Y-101052375D01*
X168560744Y-100957125D01*
X168463113Y-100896800D01*
X168394255Y-100880727D01*
X168309919Y-100875369D01*
X168239672Y-100877948D01*
X168171806Y-100885687D01*
X168068619Y-100908706D01*
X168095606Y-101065869D01*
X168178950Y-101046819D01*
X168286106Y-101038881D01*
X168359131Y-101048208D01*
X168406756Y-101076187D01*
X168441681Y-101169056D01*
X168441681Y-101192869D01*
X168378578Y-101183344D01*
X168306744Y-101180169D01*
X168190856Y-101192075D01*
X168092431Y-101230969D01*
X168024169Y-101302406D01*
X167998769Y-101411944D01*
X167857481Y-101411944D01*
X167857481Y-100819806D01*
X171143606Y-100819806D01*
X171402369Y-100819806D01*
X171402369Y-101640544D01*
X171599219Y-101640544D01*
X171997681Y-101640544D01*
X172192944Y-101640544D01*
X172192944Y-101065869D01*
X172235013Y-101054756D01*
X172288194Y-101048406D01*
X172378681Y-101094444D01*
X172396541Y-101155166D01*
X172402494Y-101245256D01*
X172402494Y-101640544D01*
X172597756Y-101640544D01*
X172597756Y-101273831D01*
X172740631Y-101273831D01*
X172747775Y-101363128D01*
X172769206Y-101440519D01*
X172803933Y-101506202D01*
X172850963Y-101560375D01*
X172909700Y-101602841D01*
X172979550Y-101633400D01*
X173059917Y-101651855D01*
X173150206Y-101658006D01*
X173278794Y-101646100D01*
X173299216Y-101640544D01*
X173626456Y-101640544D01*
X173823306Y-101640544D01*
X174324956Y-101640544D01*
X174483706Y-101640544D01*
X174483706Y-101054756D01*
X174509900Y-101049994D01*
X174532919Y-101048406D01*
X174581338Y-101078569D01*
X174596419Y-101184931D01*
X174596419Y-101356381D01*
X174755169Y-101356381D01*
X174755169Y-101207156D01*
X174751994Y-101126194D01*
X174744056Y-101059519D01*
X174772631Y-101050787D01*
X174802794Y-101048406D01*
X174827400Y-101053169D01*
X174848038Y-101072219D01*
X174862325Y-101113494D01*
X174867881Y-101184931D01*
X174867881Y-101640544D01*
X175026631Y-101640544D01*
X175026631Y-101265894D01*
X175118706Y-101265894D01*
X175125056Y-101350627D01*
X175144106Y-101427025D01*
X175174864Y-101494295D01*
X175216338Y-101551644D01*
X175267534Y-101598078D01*
X175327463Y-101632606D01*
X175395527Y-101654038D01*
X175471131Y-101661181D01*
X175546736Y-101654038D01*
X175589590Y-101640544D01*
X175912456Y-101640544D01*
X176071206Y-101640544D01*
X176071206Y-101054756D01*
X176097400Y-101049994D01*
X176120419Y-101048406D01*
X176168838Y-101078569D01*
X176183919Y-101184931D01*
X176183919Y-101356381D01*
X176342669Y-101356381D01*
X176342669Y-101207156D01*
X176339494Y-101126194D01*
X176331556Y-101059519D01*
X176360131Y-101050787D01*
X176390294Y-101048406D01*
X176414900Y-101053169D01*
X176435538Y-101072219D01*
X176449825Y-101113494D01*
X176455381Y-101184931D01*
X176455381Y-101640544D01*
X176614131Y-101640544D01*
X176614131Y-101273831D01*
X176709381Y-101273831D01*
X176716525Y-101363128D01*
X176737956Y-101440519D01*
X176772683Y-101506202D01*
X176819713Y-101560375D01*
X176878450Y-101602841D01*
X176948300Y-101633400D01*
X177028667Y-101651855D01*
X177118956Y-101658006D01*
X177247544Y-101646100D01*
X177355494Y-101616731D01*
X177328506Y-101450044D01*
X177238813Y-101475444D01*
X177126894Y-101488144D01*
X177040375Y-101477627D01*
X176971319Y-101446075D01*
X176926075Y-101396267D01*
X176910994Y-101330981D01*
X177395181Y-101330981D01*
X177397563Y-101297644D01*
X177398356Y-101257956D01*
X177388831Y-101143039D01*
X177362750Y-101056344D01*
X177511069Y-101056344D01*
X177680931Y-101056344D01*
X177680931Y-101362731D01*
X177685694Y-101447464D01*
X177699981Y-101514337D01*
X177755544Y-101604031D01*
X177844444Y-101646894D01*
X177965094Y-101658006D01*
X178086538Y-101648481D01*
X178203219Y-101616731D01*
X178176231Y-101448456D01*
X178126225Y-101469094D01*
X178081775Y-101481000D01*
X178037325Y-101486556D01*
X177987319Y-101488144D01*
X177941281Y-101483381D01*
X177906356Y-101464331D01*
X177884131Y-101424644D01*
X177876194Y-101357969D01*
X177876194Y-101273831D01*
X178296881Y-101273831D01*
X178304025Y-101363128D01*
X178325456Y-101440519D01*
X178360183Y-101506202D01*
X178407213Y-101560375D01*
X178465950Y-101602841D01*
X178535800Y-101633400D01*
X178616167Y-101651855D01*
X178706456Y-101658006D01*
X178835044Y-101646100D01*
X178855466Y-101640544D01*
X179182706Y-101640544D01*
X179379556Y-101640544D01*
X179379556Y-101086506D01*
X179460519Y-101071425D01*
X179541481Y-101067456D01*
X179584344Y-101069044D01*
X179636731Y-101074600D01*
X179689913Y-101083331D01*
X179735156Y-101092856D01*
X179770081Y-100911881D01*
X179708963Y-100896800D01*
X179641494Y-100887275D01*
X179578788Y-100881719D01*
X179533544Y-100880131D01*
X179430952Y-100884497D01*
X179342250Y-100897594D01*
X179261486Y-100917834D01*
X179182706Y-100943631D01*
X179182706Y-101640544D01*
X178855466Y-101640544D01*
X178942994Y-101616731D01*
X178916006Y-101450044D01*
X178826313Y-101475444D01*
X178714394Y-101488144D01*
X178627875Y-101477627D01*
X178558819Y-101446075D01*
X178513575Y-101396267D01*
X178498494Y-101330981D01*
X178982681Y-101330981D01*
X178985063Y-101297644D01*
X178985856Y-101257956D01*
X178976331Y-101143039D01*
X178947756Y-101048053D01*
X178900131Y-100973000D01*
X178834162Y-100918760D01*
X178750553Y-100886217D01*
X178649306Y-100875369D01*
X178583425Y-100881719D01*
X178519131Y-100900769D01*
X178459203Y-100932320D01*
X178406419Y-100976175D01*
X178361969Y-101032333D01*
X178327044Y-101100794D01*
X178304422Y-101181359D01*
X178296881Y-101273831D01*
X177876194Y-101273831D01*
X177876194Y-101056344D01*
X178188931Y-101056344D01*
X178188931Y-100894419D01*
X177876194Y-100894419D01*
X177876194Y-100675344D01*
X177680931Y-100707094D01*
X177680931Y-100894419D01*
X177511069Y-100894419D01*
X177511069Y-101056344D01*
X177362750Y-101056344D01*
X177360256Y-101048053D01*
X177312631Y-100973000D01*
X177246662Y-100918760D01*
X177163053Y-100886217D01*
X177061806Y-100875369D01*
X176995925Y-100881719D01*
X176931631Y-100900769D01*
X176871703Y-100932320D01*
X176818919Y-100976175D01*
X176774469Y-101032333D01*
X176739544Y-101100794D01*
X176716922Y-101181359D01*
X176709381Y-101273831D01*
X176614131Y-101273831D01*
X176614131Y-101194456D01*
X176612147Y-101121630D01*
X176606194Y-101058725D01*
X176575238Y-100962681D01*
X176512531Y-100905531D01*
X176410931Y-100886481D01*
X176334731Y-100899975D01*
X176271231Y-100930931D01*
X176214875Y-100896800D01*
X176141056Y-100886481D01*
X176034694Y-100896006D01*
X175912456Y-100922994D01*
X175912456Y-101640544D01*
X175589590Y-101640544D01*
X175614800Y-101632606D01*
X175674530Y-101598078D01*
X175725131Y-101551644D01*
X175766009Y-101494295D01*
X175796569Y-101427025D01*
X175815619Y-101350627D01*
X175821969Y-101265894D01*
X175815619Y-101182352D01*
X175796569Y-101106350D01*
X175765811Y-101039278D01*
X175724338Y-100982525D01*
X175673141Y-100936884D01*
X175613213Y-100903150D01*
X175545545Y-100882314D01*
X175471131Y-100875369D01*
X175397709Y-100882314D01*
X175329844Y-100903150D01*
X175269320Y-100936884D01*
X175217925Y-100982525D01*
X175176253Y-101039278D01*
X175144900Y-101106350D01*
X175125255Y-101182352D01*
X175118706Y-101265894D01*
X175026631Y-101265894D01*
X175026631Y-101194456D01*
X175024647Y-101121630D01*
X175018694Y-101058725D01*
X174987738Y-100962681D01*
X174925031Y-100905531D01*
X174823431Y-100886481D01*
X174747231Y-100899975D01*
X174683731Y-100930931D01*
X174627375Y-100896800D01*
X174553556Y-100886481D01*
X174447194Y-100896006D01*
X174324956Y-100922994D01*
X174324956Y-101640544D01*
X173823306Y-101640544D01*
X173823306Y-101086506D01*
X173904269Y-101071425D01*
X173985231Y-101067456D01*
X174028094Y-101069044D01*
X174080481Y-101074600D01*
X174133663Y-101083331D01*
X174178906Y-101092856D01*
X174213831Y-100911881D01*
X174152713Y-100896800D01*
X174085244Y-100887275D01*
X174022538Y-100881719D01*
X173977294Y-100880131D01*
X173874702Y-100884497D01*
X173786000Y-100897594D01*
X173705236Y-100917834D01*
X173626456Y-100943631D01*
X173626456Y-101640544D01*
X173299216Y-101640544D01*
X173386744Y-101616731D01*
X173359756Y-101450044D01*
X173270063Y-101475444D01*
X173158144Y-101488144D01*
X173071625Y-101477627D01*
X173002569Y-101446075D01*
X172957325Y-101396267D01*
X172942244Y-101330981D01*
X173426431Y-101330981D01*
X173428813Y-101297644D01*
X173429606Y-101257956D01*
X173420081Y-101143039D01*
X173391506Y-101048053D01*
X173343881Y-100973000D01*
X173277912Y-100918760D01*
X173194303Y-100886217D01*
X173093056Y-100875369D01*
X173027175Y-100881719D01*
X172962881Y-100900769D01*
X172902953Y-100932320D01*
X172850169Y-100976175D01*
X172805719Y-101032333D01*
X172770794Y-101100794D01*
X172748172Y-101181359D01*
X172740631Y-101273831D01*
X172597756Y-101273831D01*
X172597756Y-101219856D01*
X172594184Y-101147030D01*
X172583469Y-101080950D01*
X172535844Y-100973000D01*
X172446944Y-100903150D01*
X172384634Y-100884695D01*
X172308831Y-100878544D01*
X172250094Y-100885687D01*
X172192944Y-100900769D01*
X172192944Y-100538819D01*
X171997681Y-100572156D01*
X171997681Y-101640544D01*
X171599219Y-101640544D01*
X171599219Y-100819806D01*
X171857981Y-100819806D01*
X171857981Y-100657881D01*
X171143606Y-100657881D01*
X171143606Y-100819806D01*
X167857481Y-100819806D01*
X167857481Y-100657881D01*
X167662219Y-100657881D01*
X167662219Y-101045231D01*
X167401869Y-101045231D01*
X167401869Y-100657881D01*
X167206606Y-100657881D01*
X167206606Y-101640544D01*
X167003206Y-101640544D01*
X167090719Y-101616731D01*
X167063731Y-101448456D01*
X167013725Y-101469094D01*
X166969275Y-101481000D01*
X166924825Y-101486556D01*
X166874819Y-101488144D01*
X166828781Y-101483381D01*
X166793856Y-101464331D01*
X166771631Y-101424644D01*
X166763694Y-101357969D01*
X166763694Y-101056344D01*
X167076431Y-101056344D01*
X167076431Y-100894419D01*
X166763694Y-100894419D01*
X166763694Y-100675344D01*
X166568431Y-100707094D01*
X166568431Y-100894419D01*
X166398569Y-100894419D01*
X166398569Y-101056344D01*
X166248452Y-101056344D01*
X166276331Y-100911881D01*
X166215213Y-100896800D01*
X166147744Y-100887275D01*
X166085038Y-100881719D01*
X166039794Y-100880131D01*
X165937202Y-100884497D01*
X165848500Y-100897594D01*
X165767736Y-100917834D01*
X165688956Y-100943631D01*
X165688956Y-101640544D01*
X165354217Y-101640544D01*
X165454006Y-101623081D01*
X165454006Y-101178581D01*
X165438131Y-101052375D01*
X165385744Y-100957125D01*
X165288113Y-100896800D01*
X165219255Y-100880727D01*
X165134919Y-100875369D01*
X165064672Y-100877948D01*
X164996806Y-100885687D01*
X164893619Y-100908706D01*
X164920606Y-101065869D01*
X165003950Y-101046819D01*
X165111106Y-101038881D01*
X165184131Y-101048208D01*
X165231756Y-101076187D01*
X165266681Y-101169056D01*
X165266681Y-101192869D01*
X165203578Y-101183344D01*
X165131744Y-101180169D01*
X165015856Y-101192075D01*
X164917431Y-101230969D01*
X164849169Y-101302406D01*
X164823769Y-101411944D01*
X164707881Y-101411944D01*
X164707881Y-101194456D01*
X164705897Y-101121630D01*
X164699944Y-101058725D01*
X164668988Y-100962681D01*
X164606281Y-100905531D01*
X164504681Y-100886481D01*
X164428481Y-100899975D01*
X164364981Y-100930931D01*
X164308625Y-100896800D01*
X164234806Y-100886481D01*
X164128444Y-100896006D01*
X164006206Y-100922994D01*
X164006206Y-101640544D01*
X163690368Y-101640544D01*
X163736860Y-101627667D01*
X163806975Y-101585775D01*
X163874245Y-101494692D01*
X163896669Y-101372256D01*
X163889922Y-101298239D01*
X163869681Y-101238112D01*
X163800625Y-101149212D01*
X163708550Y-101092062D01*
X163612506Y-101053169D01*
X163551388Y-101029356D01*
X163495825Y-100999987D01*
X163455344Y-100961887D01*
X163439469Y-100911881D01*
X163456755Y-100849263D01*
X163508613Y-100811692D01*
X163595044Y-100799169D01*
X163706963Y-100815044D01*
X163795069Y-100853144D01*
X163852219Y-100702331D01*
X163738713Y-100656294D01*
X163665489Y-100640816D01*
X163580756Y-100635656D01*
X163483478Y-100644299D01*
X163401192Y-100670228D01*
X163333900Y-100713444D01*
X163266630Y-100806312D01*
X163244206Y-100929344D01*
X163269606Y-101046025D01*
X163333900Y-101124606D01*
X163420419Y-101176994D01*
X163512494Y-101213506D01*
X163579169Y-101241287D01*
X163639494Y-101274625D01*
X163683944Y-101316694D01*
X163701406Y-101370669D01*
X163694263Y-101417500D01*
X163668069Y-101458775D01*
X163616475Y-101487350D01*
X163534719Y-101497669D01*
X163455542Y-101492112D01*
X163389463Y-101475444D01*
X163287069Y-101427819D01*
X163229919Y-101586569D01*
X162574810Y-101586569D01*
X162899190Y-101100000D01*
G37*
G36*
X168395644Y-101319075D02*
G01*
X168441681Y-101324631D01*
X168441681Y-101496081D01*
X168389294Y-101500050D01*
X168327381Y-101500844D01*
X168228956Y-101479412D01*
X168190856Y-101407181D01*
X168203556Y-101361144D01*
X168237688Y-101334156D01*
X168287694Y-101320663D01*
X168346431Y-101316694D01*
X168395644Y-101319075D01*
G37*
G36*
X177131656Y-101052375D02*
G01*
X177176106Y-101088094D01*
X177201506Y-101138100D01*
X177209444Y-101196044D01*
X176910994Y-101196044D01*
X176924488Y-101137306D01*
X176953063Y-101086506D01*
X176999100Y-101051581D01*
X177064981Y-101038881D01*
X177131656Y-101052375D01*
G37*
G36*
X173162906Y-101052375D02*
G01*
X173207356Y-101088094D01*
X173232756Y-101138100D01*
X173240694Y-101196044D01*
X172942244Y-101196044D01*
X172955738Y-101137306D01*
X172984313Y-101086506D01*
X173030350Y-101051581D01*
X173096231Y-101038881D01*
X173162906Y-101052375D01*
G37*
G36*
X165220644Y-101319075D02*
G01*
X165266681Y-101324631D01*
X165266681Y-101496081D01*
X165214294Y-101500050D01*
X165152381Y-101500844D01*
X165053956Y-101479412D01*
X165015856Y-101407181D01*
X165028556Y-101361144D01*
X165062688Y-101334156D01*
X165112694Y-101320663D01*
X165171431Y-101316694D01*
X165220644Y-101319075D01*
G37*
G36*
X178719156Y-101052375D02*
G01*
X178763606Y-101088094D01*
X178789006Y-101138100D01*
X178796944Y-101196044D01*
X178498494Y-101196044D01*
X178511988Y-101137306D01*
X178540563Y-101086506D01*
X178586600Y-101051581D01*
X178652481Y-101038881D01*
X178719156Y-101052375D01*
G37*
G36*
X175539592Y-101060511D02*
G01*
X175586225Y-101106350D01*
X175613014Y-101177192D01*
X175621944Y-101267481D01*
X175612220Y-101357969D01*
X175583050Y-101429406D01*
X175534830Y-101475841D01*
X175467956Y-101491319D01*
X175399495Y-101475841D01*
X175352863Y-101429406D01*
X175326073Y-101357969D01*
X175317144Y-101267481D01*
X175326867Y-101177192D01*
X175356038Y-101106350D01*
X175404258Y-101060511D01*
X175471131Y-101045231D01*
X175539592Y-101060511D01*
G37*
%TO.C,R3*%
X148920000Y-84370000D02*
X148590000Y-84370000D01*
X148590000Y-90910000D02*
X148920000Y-90910000D01*
X146180000Y-90910000D02*
X146180000Y-84370000D01*
X146510000Y-90910000D02*
X146180000Y-90910000D01*
X148920000Y-90910000D02*
X148920000Y-84370000D01*
X146180000Y-84370000D02*
X146510000Y-84370000D01*
D13*
%TO.C,J2*%
X141696000Y-76304000D02*
X142696000Y-76304000D01*
X142696000Y-76304000D02*
X142196000Y-77054000D01*
X158716000Y-104604000D02*
X133416000Y-104604000D01*
X133416000Y-77304000D02*
X158716000Y-77304000D01*
X142196000Y-77054000D02*
X141696000Y-76304000D01*
X141896000Y-76404000D02*
X142496000Y-76404000D01*
X159716000Y-78304000D02*
X159716000Y-103604000D01*
X142096000Y-76504000D02*
X142296000Y-76504000D01*
X142296000Y-76504000D02*
X142196000Y-76654000D01*
X132416000Y-100454000D02*
X159716000Y-100454000D01*
X132416000Y-81454000D02*
X159716000Y-81454000D01*
X142196000Y-76654000D02*
X142096000Y-76504000D01*
X142196000Y-76854000D02*
X141896000Y-76404000D01*
X132416000Y-103604000D02*
X132416000Y-78304000D01*
X142496000Y-76404000D02*
X142196000Y-76854000D01*
X159716000Y-78304000D02*
G75*
G03*
X158716000Y-77304000I-1000000J0D01*
G01*
X133416000Y-77304000D02*
G75*
G03*
X132416000Y-78304000I-1J-999999D01*
G01*
X132416000Y-103604000D02*
G75*
G03*
X133416000Y-104604000I999999J-1D01*
G01*
X158716000Y-104604000D02*
G75*
G03*
X159716000Y-103604000I0J1000000D01*
G01*
D14*
%TO.C,J1*%
X189600000Y-80800000D02*
X189600000Y-90000000D01*
X174900000Y-82900000D02*
X174900000Y-80800000D01*
X174600000Y-90300000D02*
X176200000Y-90300000D01*
X174600000Y-88600000D02*
X174600000Y-90300000D01*
X181100000Y-80800000D02*
X189600000Y-80800000D01*
X174900000Y-90000000D02*
X174900000Y-87900000D01*
X174900000Y-80800000D02*
X176700000Y-80800000D01*
X189600000Y-90000000D02*
X174900000Y-90000000D01*
%TO.C,U1*%
X131778000Y-104870000D02*
X131778000Y-72540000D01*
X105918000Y-97970000D02*
X105918000Y-72540000D01*
X129658000Y-70410000D02*
X108048000Y-70410000D01*
X108458000Y-104870000D02*
X131778000Y-104870000D01*
X108458000Y-97970000D02*
X108458000Y-104870000D01*
X105918000Y-97970000D02*
X108458000Y-97970000D01*
X131778000Y-72540000D02*
G75*
G03*
X129648000Y-70410000I-2130000J0D01*
G01*
X108048000Y-70410000D02*
G75*
G03*
X105918000Y-72540000I2J-2130002D01*
G01*
G36*
X105513000Y-78750000D02*
G01*
X104878000Y-79385000D01*
X104878000Y-78115000D01*
X105513000Y-78750000D01*
G37*
D13*
X105513000Y-78750000D02*
X104878000Y-79385000D01*
X104878000Y-78115000D01*
X105513000Y-78750000D01*
D14*
%TO.C,R1*%
X99960000Y-84370000D02*
X99630000Y-84370000D01*
X102040000Y-84370000D02*
X102370000Y-84370000D01*
X99630000Y-84370000D02*
X99630000Y-90910000D01*
X99630000Y-90910000D02*
X99960000Y-90910000D01*
X102370000Y-90910000D02*
X102040000Y-90910000D01*
X102370000Y-84370000D02*
X102370000Y-90910000D01*
%TD*%
M02*
