%TF.GenerationSoftware,KiCad,Pcbnew,6.0.7-f9a2dced07~116~ubuntu22.04.1*%
%TF.CreationDate,2022-09-18T17:51:17+02:00*%
%TF.ProjectId,SmartHarz-Thermometer,536d6172-7448-4617-927a-2d546865726d,1b1*%
%TF.SameCoordinates,Original*%
%TF.FileFunction,Copper,L2,Bot*%
%TF.FilePolarity,Positive*%
%FSLAX46Y46*%
G04 Gerber Fmt 4.6, Leading zero omitted, Abs format (unit mm)*
G04 Created by KiCad (PCBNEW 6.0.7-f9a2dced07~116~ubuntu22.04.1) date 2022-09-18 17:51:17*
%MOMM*%
%LPD*%
G01*
G04 APERTURE LIST*
G04 Aperture macros list*
%AMRoundRect*
0 Rectangle with rounded corners*
0 $1 Rounding radius*
0 $2 $3 $4 $5 $6 $7 $8 $9 X,Y pos of 4 corners*
0 Add a 4 corners polygon primitive as box body*
4,1,4,$2,$3,$4,$5,$6,$7,$8,$9,$2,$3,0*
0 Add four circle primitives for the rounded corners*
1,1,$1+$1,$2,$3*
1,1,$1+$1,$4,$5*
1,1,$1+$1,$6,$7*
1,1,$1+$1,$8,$9*
0 Add four rect primitives between the rounded corners*
20,1,$1+$1,$2,$3,$4,$5,0*
20,1,$1+$1,$4,$5,$6,$7,0*
20,1,$1+$1,$6,$7,$8,$9,0*
20,1,$1+$1,$8,$9,$2,$3,0*%
G04 Aperture macros list end*
%TA.AperFunction,ComponentPad*%
%ADD10R,1.500000X1.500000*%
%TD*%
%TA.AperFunction,ComponentPad*%
%ADD11C,1.500000*%
%TD*%
%TA.AperFunction,ComponentPad*%
%ADD12R,1.200000X1.200000*%
%TD*%
%TA.AperFunction,ComponentPad*%
%ADD13C,1.200000*%
%TD*%
%TA.AperFunction,ComponentPad*%
%ADD14C,1.600000*%
%TD*%
%TA.AperFunction,ComponentPad*%
%ADD15O,1.600000X1.600000*%
%TD*%
%TA.AperFunction,ComponentPad*%
%ADD16RoundRect,0.300000X0.300000X-0.300000X0.300000X0.300000X-0.300000X0.300000X-0.300000X-0.300000X0*%
%TD*%
%TA.AperFunction,ComponentPad*%
%ADD17R,1.600000X1.600000*%
%TD*%
%TA.AperFunction,ComponentPad*%
%ADD18C,0.800000*%
%TD*%
%TA.AperFunction,ComponentPad*%
%ADD19C,5.400000*%
%TD*%
%TA.AperFunction,ComponentPad*%
%ADD20R,2.000000X2.000000*%
%TD*%
%TA.AperFunction,ComponentPad*%
%ADD21O,1.600000X2.000000*%
%TD*%
%TA.AperFunction,ComponentPad*%
%ADD22R,1.800000X4.400000*%
%TD*%
%TA.AperFunction,ComponentPad*%
%ADD23O,1.800000X4.000000*%
%TD*%
%TA.AperFunction,ComponentPad*%
%ADD24O,4.000000X1.800000*%
%TD*%
%TA.AperFunction,ComponentPad*%
%ADD25O,2.000000X1.600000*%
%TD*%
%TA.AperFunction,Conductor*%
%ADD26C,1.000000*%
%TD*%
%TA.AperFunction,Conductor*%
%ADD27C,0.500000*%
%TD*%
G04 APERTURE END LIST*
D10*
%TO.P,U2,1,VCC*%
%TO.N,+5V*%
X6496000Y21070000D03*
D11*
%TO.P,U2,2,IO*%
%TO.N,/DHT_IO*%
X6496000Y18530000D03*
%TO.P,U2,3,NC*%
%TO.N,unconnected-(U2-Pad3)*%
X6496000Y15990000D03*
%TO.P,U2,4,GND*%
%TO.N,GND*%
X6496000Y13450000D03*
%TD*%
D12*
%TO.P,C2,1*%
%TO.N,+5V*%
X79250000Y10322599D03*
D13*
%TO.P,C2,2*%
%TO.N,GND*%
X79250000Y8822599D03*
%TD*%
D14*
%TO.P,R2,1*%
%TO.N,+3V3*%
X54502000Y13450000D03*
D15*
%TO.P,R2,2*%
%TO.N,/I2C_SCL*%
X54502000Y21070000D03*
%TD*%
D16*
%TO.P,U3,1,VO*%
%TO.N,+5V*%
X79250000Y14790000D03*
D13*
%TO.P,U3,2,GND*%
%TO.N,GND*%
X79250000Y17330000D03*
%TO.P,U3,3,VI*%
%TO.N,+9V*%
X79250000Y19870000D03*
%TD*%
D17*
%TO.P,C1,1*%
%TO.N,+9V*%
X79250000Y23720000D03*
D14*
%TO.P,C1,2*%
%TO.N,GND*%
X79250000Y25720000D03*
%TD*%
D18*
%TO.P,H3,1,1*%
%TO.N,unconnected-(H3-Pad1)*%
X94568109Y29468109D03*
X97431891Y32331891D03*
X93975000Y30900000D03*
X96000000Y28875000D03*
D19*
X96000000Y30900000D03*
D18*
X98025000Y30900000D03*
X94568109Y32331891D03*
X96000000Y32925000D03*
X97431891Y29468109D03*
%TD*%
D14*
%TO.P,R3,1*%
%TO.N,+3V3*%
X57550000Y13450000D03*
D15*
%TO.P,R3,2*%
%TO.N,/I2C_SDA*%
X57550000Y21070000D03*
%TD*%
D20*
%TO.P,J2,1,Pin_1*%
%TO.N,GND*%
X52216000Y25896000D03*
D21*
%TO.P,J2,2,Pin_2*%
%TO.N,+3V3*%
X54756000Y25896000D03*
%TO.P,J2,3,Pin_3*%
%TO.N,/I2C_SCL*%
X57296000Y25896000D03*
%TO.P,J2,4,Pin_4*%
%TO.N,/I2C_SDA*%
X59836000Y25896000D03*
%TD*%
D22*
%TO.P,J1,1*%
%TO.N,+9V*%
X85900000Y19500000D03*
D23*
%TO.P,J1,2*%
%TO.N,GND*%
X91700000Y19500000D03*
D24*
%TO.P,J1,3*%
X88900000Y24300000D03*
%TD*%
D18*
%TO.P,H1,1,1*%
%TO.N,unconnected-(H1-Pad1)*%
X2568109Y32331891D03*
X4000000Y32925000D03*
X2568109Y29468109D03*
X4000000Y28875000D03*
X6025000Y30900000D03*
D19*
X4000000Y30900000D03*
D18*
X1975000Y30900000D03*
X5431891Y29468109D03*
X5431891Y32331891D03*
%TD*%
D20*
%TO.P,U1,1,~{RST}*%
%TO.N,unconnected-(U1-Pad1)*%
X17418000Y26150000D03*
D25*
%TO.P,U1,2,A0*%
%TO.N,unconnected-(U1-Pad2)*%
X17418000Y23610000D03*
%TO.P,U1,3,D0*%
%TO.N,unconnected-(U1-Pad3)*%
X17418000Y21070000D03*
%TO.P,U1,4,SCK/D5*%
%TO.N,/DHT_IO*%
X17418000Y18530000D03*
%TO.P,U1,5,MISO/D6*%
%TO.N,unconnected-(U1-Pad5)*%
X17418000Y15990000D03*
%TO.P,U1,6,MOSI/D7*%
%TO.N,unconnected-(U1-Pad6)*%
X17418000Y13450000D03*
%TO.P,U1,7,CS/D8*%
%TO.N,unconnected-(U1-Pad7)*%
X17418000Y10910000D03*
%TO.P,U1,8,3V3*%
%TO.N,+3V3*%
X17418000Y8370000D03*
%TO.P,U1,9,5V*%
%TO.N,+5V*%
X40278000Y8370000D03*
%TO.P,U1,10,GND*%
%TO.N,GND*%
X40278000Y10910000D03*
%TO.P,U1,11,D4*%
%TO.N,unconnected-(U1-Pad11)*%
X40278000Y13450000D03*
%TO.P,U1,12,D3*%
%TO.N,unconnected-(U1-Pad12)*%
X40278000Y15990000D03*
%TO.P,U1,13,SDA/D2*%
%TO.N,/I2C_SDA*%
X40278000Y18530000D03*
%TO.P,U1,14,SCL/D1*%
%TO.N,/I2C_SCL*%
X40278000Y21070000D03*
%TO.P,U1,15,RX*%
%TO.N,unconnected-(U1-Pad15)*%
X40278000Y23610000D03*
%TO.P,U1,16,TX*%
%TO.N,unconnected-(U1-Pad16)*%
X40278000Y26150000D03*
%TD*%
D18*
%TO.P,H4,1,1*%
%TO.N,unconnected-(H4-Pad1)*%
X94568109Y2468109D03*
X94568109Y5331891D03*
X96000000Y1875000D03*
X97431891Y5331891D03*
X93975000Y3900000D03*
X98025000Y3900000D03*
X96000000Y5925000D03*
D19*
X96000000Y3900000D03*
D18*
X97431891Y2468109D03*
%TD*%
D19*
%TO.P,H2,1,1*%
%TO.N,unconnected-(H2-Pad1)*%
X4000000Y3900000D03*
D18*
X5431891Y5331891D03*
X4000000Y5925000D03*
X5431891Y2468109D03*
X2568109Y2468109D03*
X6025000Y3900000D03*
X2568109Y5331891D03*
X1975000Y3900000D03*
X4000000Y1875000D03*
%TD*%
D14*
%TO.P,R1,1*%
%TO.N,+5V*%
X11000000Y21070000D03*
D15*
%TO.P,R1,2*%
%TO.N,/DHT_IO*%
X11000000Y13450000D03*
%TD*%
D26*
%TO.N,GND*%
X79250000Y8822599D02*
X81022599Y8822599D01*
X76200000Y19100000D02*
X76200000Y24700000D01*
X79250000Y17330000D02*
X81870000Y17330000D01*
X85700000Y13500000D02*
X90150000Y17950000D01*
X91700000Y21500000D02*
X88900000Y24300000D01*
X76200000Y24700000D02*
X77220000Y25720000D01*
X81870000Y17330000D02*
X85700000Y13500000D01*
X91700000Y19500000D02*
X91700000Y21500000D01*
X81022599Y8822599D02*
X85700000Y13500000D01*
X77220000Y25720000D02*
X79250000Y25720000D01*
X79250000Y25720000D02*
X75721434Y29248566D01*
X74798402Y4371001D02*
X79250000Y8822599D01*
X40278000Y10910000D02*
X52216000Y22848000D01*
X52216000Y22848000D02*
X52216000Y25896000D01*
X79250000Y17330000D02*
X77970000Y17330000D01*
X75721434Y29248566D02*
X55568566Y29248566D01*
X77970000Y17330000D02*
X76200000Y19100000D01*
X87480000Y25720000D02*
X79250000Y25720000D01*
X15574999Y4371001D02*
X74798402Y4371001D01*
X90150000Y17950000D02*
X91700000Y19500000D01*
X55568566Y29248566D02*
X52216000Y25896000D01*
X88900000Y24300000D02*
X87480000Y25720000D01*
X6496000Y13450000D02*
X15574999Y4371001D01*
D27*
%TO.N,+3V3*%
X46752000Y5700000D02*
X54502000Y13450000D01*
X53252000Y14700000D02*
X53252000Y23148000D01*
X54502000Y13450000D02*
X57550000Y13450000D01*
X17418000Y8370000D02*
X20088000Y5700000D01*
X53252000Y23148000D02*
X54756000Y24652000D01*
X54502000Y13450000D02*
X53252000Y14700000D01*
X20088000Y5700000D02*
X46752000Y5700000D01*
X54756000Y24652000D02*
X54756000Y25896000D01*
%TD*%
M02*
