%TF.GenerationSoftware,KiCad,Pcbnew,6.0.7-f9a2dced07~116~ubuntu22.04.1*%
%TF.CreationDate,2022-09-18T17:51:17+02:00*%
%TF.ProjectId,SmartHarz-Thermometer,536d6172-7448-4617-927a-2d546865726d,1b1*%
%TF.SameCoordinates,Original*%
%TF.FileFunction,Soldermask,Top*%
%TF.FilePolarity,Negative*%
%FSLAX46Y46*%
G04 Gerber Fmt 4.6, Leading zero omitted, Abs format (unit mm)*
G04 Created by KiCad (PCBNEW 6.0.7-f9a2dced07~116~ubuntu22.04.1) date 2022-09-18 17:51:17*
%MOMM*%
%LPD*%
G01*
G04 APERTURE LIST*
G04 Aperture macros list*
%AMRoundRect*
0 Rectangle with rounded corners*
0 $1 Rounding radius*
0 $2 $3 $4 $5 $6 $7 $8 $9 X,Y pos of 4 corners*
0 Add a 4 corners polygon primitive as box body*
4,1,4,$2,$3,$4,$5,$6,$7,$8,$9,$2,$3,0*
0 Add four circle primitives for the rounded corners*
1,1,$1+$1,$2,$3*
1,1,$1+$1,$4,$5*
1,1,$1+$1,$6,$7*
1,1,$1+$1,$8,$9*
0 Add four rect primitives between the rounded corners*
20,1,$1+$1,$2,$3,$4,$5,0*
20,1,$1+$1,$4,$5,$6,$7,0*
20,1,$1+$1,$6,$7,$8,$9,0*
20,1,$1+$1,$8,$9,$2,$3,0*%
G04 Aperture macros list end*
%ADD10R,1.500000X1.500000*%
%ADD11C,1.500000*%
%ADD12R,1.200000X1.200000*%
%ADD13C,1.200000*%
%ADD14C,1.600000*%
%ADD15O,1.600000X1.600000*%
%ADD16RoundRect,0.300000X0.300000X-0.300000X0.300000X0.300000X-0.300000X0.300000X-0.300000X-0.300000X0*%
%ADD17R,1.600000X1.600000*%
%ADD18C,0.800000*%
%ADD19C,5.400000*%
%ADD20C,2.550000*%
%ADD21R,2.000000X2.000000*%
%ADD22O,1.600000X2.000000*%
%ADD23R,1.800000X4.400000*%
%ADD24O,1.800000X4.000000*%
%ADD25O,4.000000X1.800000*%
%ADD26O,2.000000X1.600000*%
G04 APERTURE END LIST*
%TO.C,G\u002A\u002A\u002A*%
G36*
X96032859Y8316300D02*
G01*
X96045606Y8269867D01*
X96057422Y8227849D01*
X96067834Y8191842D01*
X96076373Y8163440D01*
X96082568Y8144235D01*
X96085948Y8135823D01*
X96086242Y8135576D01*
X96090747Y8141169D01*
X96095021Y8153648D01*
X96098211Y8164675D01*
X96104876Y8186306D01*
X96114420Y8216650D01*
X96126244Y8253818D01*
X96139749Y8295916D01*
X96152173Y8334373D01*
X96204883Y8497025D01*
X96280052Y8497025D01*
X96338414Y8316220D01*
X96353413Y8270370D01*
X96367285Y8229138D01*
X96379494Y8194031D01*
X96389500Y8166552D01*
X96396768Y8148206D01*
X96400758Y8140500D01*
X96401193Y8140424D01*
X96404013Y8147855D01*
X96409744Y8166296D01*
X96417898Y8194060D01*
X96427990Y8229460D01*
X96439532Y8270809D01*
X96452037Y8316421D01*
X96452829Y8319334D01*
X96465274Y8364964D01*
X96476647Y8406274D01*
X96486487Y8441616D01*
X96494328Y8469340D01*
X96499710Y8487794D01*
X96502168Y8495330D01*
X96502222Y8495409D01*
X96509338Y8496202D01*
X96526286Y8496367D01*
X96549764Y8495888D01*
X96556401Y8495661D01*
X96608405Y8493739D01*
X96443909Y7977337D01*
X96398048Y7979238D01*
X96352188Y7981139D01*
X96299315Y8160183D01*
X96285584Y8206253D01*
X96272918Y8247935D01*
X96261820Y8283641D01*
X96252790Y8311785D01*
X96246331Y8330780D01*
X96242944Y8339040D01*
X96242690Y8339265D01*
X96239799Y8333271D01*
X96233810Y8316478D01*
X96225317Y8290700D01*
X96214910Y8257754D01*
X96203184Y8219455D01*
X96198225Y8202937D01*
X96185245Y8159479D01*
X96172640Y8117309D01*
X96161216Y8079114D01*
X96151775Y8047582D01*
X96145121Y8025399D01*
X96144163Y8022212D01*
X96130815Y7977853D01*
X96040450Y7977853D01*
X96033760Y7999211D01*
X96027296Y8019711D01*
X96017977Y8049078D01*
X96006335Y8085649D01*
X95992904Y8127759D01*
X95978215Y8173746D01*
X95962803Y8221944D01*
X95947199Y8270691D01*
X95931936Y8318324D01*
X95917547Y8363177D01*
X95904565Y8403588D01*
X95893523Y8437893D01*
X95884954Y8464427D01*
X95879390Y8481528D01*
X95877417Y8487416D01*
X95877662Y8492182D01*
X95884314Y8495101D01*
X95899543Y8496579D01*
X95925517Y8497022D01*
X95928771Y8497025D01*
X95983813Y8497025D01*
X96032859Y8316300D01*
G37*
G36*
X96855493Y9145493D02*
G01*
X96857619Y8972486D01*
X96875335Y8945733D01*
X96897455Y8921397D01*
X96922920Y8907572D01*
X96959719Y8899419D01*
X96993583Y8904049D01*
X97024212Y8921369D01*
X97047796Y8946423D01*
X97051861Y8952526D01*
X97055051Y8959746D01*
X97057495Y8969702D01*
X97059321Y8984012D01*
X97060657Y9004295D01*
X97061633Y9032168D01*
X97062376Y9069252D01*
X97063015Y9117163D01*
X97063290Y9141528D01*
X97065235Y9318500D01*
X97169932Y9318500D01*
X97168213Y9060556D01*
X97166494Y8802613D01*
X97115563Y8800694D01*
X97064631Y8798775D01*
X97064631Y8859498D01*
X97038394Y8837040D01*
X97017546Y8822041D01*
X96995250Y8810151D01*
X96986700Y8806954D01*
X96958785Y8801800D01*
X96925306Y8800132D01*
X96892754Y8802000D01*
X96871641Y8806100D01*
X96836337Y8822988D01*
X96804315Y8850185D01*
X96778332Y8884865D01*
X96763447Y8916958D01*
X96760739Y8931806D01*
X96758624Y8959010D01*
X96757094Y8998756D01*
X96756143Y9051230D01*
X96755765Y9116618D01*
X96755757Y9128898D01*
X96755757Y9318500D01*
X96853366Y9318500D01*
X96855493Y9145493D01*
G37*
G36*
X95314631Y8500551D02*
G01*
X95345205Y8492619D01*
X95372337Y8481606D01*
X95384734Y8474071D01*
X95389976Y8469825D01*
X95392284Y8465454D01*
X95390602Y8459136D01*
X95383876Y8449051D01*
X95371051Y8433379D01*
X95351072Y8410300D01*
X95341271Y8399080D01*
X95328847Y8385598D01*
X95320398Y8380716D01*
X95311356Y8383049D01*
X95303331Y8387579D01*
X95276865Y8396741D01*
X95245600Y8398171D01*
X95215204Y8392085D01*
X95197569Y8383530D01*
X95184797Y8374404D01*
X95174676Y8364945D01*
X95166899Y8353570D01*
X95161159Y8338698D01*
X95157149Y8318747D01*
X95154560Y8292136D01*
X95153085Y8257282D01*
X95152418Y8212604D01*
X95152249Y8156520D01*
X95152248Y8150362D01*
X95152238Y7977853D01*
X95047089Y7977853D01*
X95047089Y8497025D01*
X95152238Y8497025D01*
X95152238Y8443831D01*
X95176882Y8463595D01*
X95213661Y8486187D01*
X95254866Y8500065D01*
X95286615Y8503597D01*
X95314631Y8500551D01*
G37*
G36*
X96638528Y8202012D02*
G01*
X96660398Y8233559D01*
X96693077Y8258142D01*
X96710983Y8266914D01*
X96727604Y8273160D01*
X96745734Y8277691D01*
X96768257Y8280918D01*
X96798062Y8283250D01*
X96838035Y8285095D01*
X96839459Y8285149D01*
X96933751Y8288679D01*
X96931830Y8331387D01*
X96930140Y8355395D01*
X96926765Y8370367D01*
X96920219Y8380411D01*
X96911355Y8387915D01*
X96900741Y8394478D01*
X96888135Y8398602D01*
X96870325Y8400818D01*
X96844095Y8401660D01*
X96828094Y8401734D01*
X96797625Y8401439D01*
X96777215Y8400177D01*
X96763784Y8397383D01*
X96754254Y8392490D01*
X96747648Y8386947D01*
X96735499Y8376775D01*
X96727405Y8372182D01*
X96727121Y8372161D01*
X96719429Y8375888D01*
X96705316Y8385376D01*
X96688092Y8398086D01*
X96671065Y8411481D01*
X96657545Y8423019D01*
X96650840Y8430164D01*
X96650608Y8430867D01*
X96655914Y8440339D01*
X96669748Y8453425D01*
X96688979Y8467663D01*
X96710478Y8480595D01*
X96719612Y8485127D01*
X96736157Y8491917D01*
X96752646Y8496318D01*
X96772550Y8498804D01*
X96799340Y8499850D01*
X96828046Y8499969D01*
X96882102Y8497500D01*
X96925507Y8490131D01*
X96960010Y8477325D01*
X96987361Y8458542D01*
X96998235Y8447505D01*
X97008975Y8434180D01*
X97017630Y8420183D01*
X97024420Y8403976D01*
X97029566Y8384019D01*
X97033288Y8358773D01*
X97035806Y8326698D01*
X97037341Y8286256D01*
X97038113Y8235905D01*
X97038342Y8174108D01*
X97038344Y8167242D01*
X97038344Y7977853D01*
X96933195Y7977853D01*
X96933049Y8002497D01*
X96932626Y8018185D01*
X96930407Y8022395D01*
X96924581Y8016793D01*
X96921548Y8013064D01*
X96899823Y7995410D01*
X96868785Y7982571D01*
X96831567Y7975127D01*
X96791299Y7973656D01*
X96751111Y7978739D01*
X96744460Y7980309D01*
X96701934Y7996404D01*
X96667742Y8021646D01*
X96647907Y8045002D01*
X96636342Y8064193D01*
X96629643Y8084908D01*
X96626082Y8112685D01*
X96625863Y8115628D01*
X96626397Y8135576D01*
X96719910Y8135576D01*
X96725507Y8108179D01*
X96741935Y8088072D01*
X96765080Y8076923D01*
X96788263Y8072763D01*
X96818065Y8070823D01*
X96849340Y8071092D01*
X96876941Y8073563D01*
X96892983Y8077142D01*
X96913460Y8089979D01*
X96926528Y8112130D01*
X96932616Y8144496D01*
X96933195Y8161537D01*
X96933195Y8201294D01*
X96867101Y8201294D01*
X96816982Y8199816D01*
X96778589Y8195049D01*
X96750805Y8186495D01*
X96732514Y8173655D01*
X96722598Y8156029D01*
X96719910Y8135576D01*
X96626397Y8135576D01*
X96627128Y8162901D01*
X96638528Y8202012D01*
G37*
G36*
X94546626Y9221134D02*
G01*
X94575339Y9262107D01*
X94612849Y9293634D01*
X94640164Y9308349D01*
X94662683Y9317717D01*
X94681357Y9322866D01*
X94701515Y9324666D01*
X94728489Y9323987D01*
X94734195Y9323684D01*
X94788429Y9315349D01*
X94834592Y9296677D01*
X94872925Y9267513D01*
X94903668Y9227699D01*
X94914847Y9206779D01*
X94922798Y9188366D01*
X94928100Y9170469D01*
X94931410Y9149372D01*
X94933384Y9121356D01*
X94934291Y9096701D01*
X94936500Y9022769D01*
X94611671Y9022769D01*
X94615984Y8995792D01*
X94626107Y8959210D01*
X94644075Y8931620D01*
X94664465Y8914748D01*
X94700940Y8898447D01*
X94740818Y8893694D01*
X94781502Y8900340D01*
X94820396Y8918238D01*
X94829045Y8924097D01*
X94854401Y8942464D01*
X94925511Y8879440D01*
X94906790Y8859705D01*
X94890661Y8846393D01*
X94867780Y8831855D01*
X94847644Y8821424D01*
X94823665Y8811585D01*
X94801105Y8805611D01*
X94774742Y8802445D01*
X94748072Y8801241D01*
X94709181Y8801647D01*
X94677057Y8804928D01*
X94660822Y8808682D01*
X94613387Y8830385D01*
X94574698Y8861820D01*
X94545194Y8902535D01*
X94526775Y8947006D01*
X94519694Y8979747D01*
X94514978Y9020055D01*
X94513020Y9062500D01*
X94514210Y9101655D01*
X94515003Y9109918D01*
X94517498Y9122989D01*
X94613495Y9122989D01*
X94613761Y9117606D01*
X94615906Y9113720D01*
X94621767Y9111086D01*
X94633184Y9109461D01*
X94651993Y9108601D01*
X94680034Y9108262D01*
X94719144Y9108202D01*
X94725071Y9108202D01*
X94761733Y9108501D01*
X94793341Y9109331D01*
X94817761Y9110587D01*
X94832858Y9112169D01*
X94836792Y9113581D01*
X94833826Y9130886D01*
X94826352Y9153532D01*
X94816501Y9176258D01*
X94806406Y9193803D01*
X94802319Y9198636D01*
X94772251Y9219146D01*
X94738569Y9229363D01*
X94704346Y9229079D01*
X94672651Y9218090D01*
X94658449Y9208296D01*
X94640521Y9188329D01*
X94625293Y9162839D01*
X94615556Y9137120D01*
X94613495Y9122989D01*
X94517498Y9122989D01*
X94526563Y9170482D01*
X94546626Y9221134D01*
G37*
G36*
X94532846Y8201726D02*
G01*
X94549911Y8228675D01*
X94571617Y8249738D01*
X94599468Y8265473D01*
X94634971Y8276433D01*
X94679632Y8283176D01*
X94734957Y8286257D01*
X94762859Y8286595D01*
X94830220Y8286727D01*
X94830220Y8315320D01*
X94827445Y8349053D01*
X94818212Y8373742D01*
X94801153Y8390501D01*
X94774901Y8400441D01*
X94738092Y8404674D01*
X94720066Y8405020D01*
X94691839Y8404427D01*
X94672430Y8402032D01*
X94657539Y8396907D01*
X94643417Y8388501D01*
X94625926Y8378907D01*
X94613177Y8376235D01*
X94610844Y8377000D01*
X94601222Y8383480D01*
X94585130Y8394871D01*
X94572100Y8404301D01*
X94554010Y8419498D01*
X94546971Y8432204D01*
X94551261Y8444634D01*
X94567157Y8459002D01*
X94580072Y8467955D01*
X94619014Y8487238D01*
X94664194Y8499065D01*
X94712764Y8503632D01*
X94761873Y8501134D01*
X94808672Y8491768D01*
X94850311Y8475729D01*
X94883939Y8453213D01*
X94890754Y8446602D01*
X94900903Y8435090D01*
X94909079Y8423156D01*
X94915491Y8409285D01*
X94920352Y8391963D01*
X94923872Y8369677D01*
X94926263Y8340913D01*
X94927737Y8304156D01*
X94928505Y8257893D01*
X94928778Y8200609D01*
X94928797Y8174180D01*
X94928797Y7977853D01*
X94830220Y7977853D01*
X94830220Y8024475D01*
X94805447Y8004567D01*
X94771333Y7985199D01*
X94729454Y7974739D01*
X94682043Y7973565D01*
X94648468Y7978125D01*
X94603529Y7992688D01*
X94566813Y8016002D01*
X94539154Y8046451D01*
X94521387Y8082422D01*
X94514349Y8122299D01*
X94517149Y8148403D01*
X94612718Y8148403D01*
X94612763Y8125239D01*
X94621867Y8103194D01*
X94639485Y8085187D01*
X94662913Y8074652D01*
X94684663Y8071532D01*
X94712925Y8070616D01*
X94742773Y8071725D01*
X94769281Y8074681D01*
X94787185Y8079159D01*
X94805651Y8089892D01*
X94817337Y8105317D01*
X94823632Y8128250D01*
X94825833Y8157516D01*
X94826934Y8198008D01*
X94744786Y8197717D01*
X94706647Y8197146D01*
X94679108Y8195561D01*
X94659644Y8192685D01*
X94645731Y8188240D01*
X94641993Y8186416D01*
X94622280Y8169768D01*
X94612718Y8148403D01*
X94517149Y8148403D01*
X94518872Y8164468D01*
X94532846Y8201726D01*
G37*
G36*
X96033065Y13228366D02*
G01*
X96083104Y13228145D01*
X96130336Y13227717D01*
X96172989Y13227082D01*
X96209292Y13226240D01*
X96237472Y13225190D01*
X96255757Y13223934D01*
X96262156Y13222729D01*
X96266034Y13214452D01*
X96271907Y13193374D01*
X96279734Y13159683D01*
X96289474Y13113563D01*
X96301087Y13055200D01*
X96314534Y12984780D01*
X96318646Y12962796D01*
X96331330Y12895295D01*
X96342041Y12839694D01*
X96351015Y12794934D01*
X96358491Y12759960D01*
X96364705Y12733712D01*
X96369897Y12715136D01*
X96374302Y12703172D01*
X96378160Y12696765D01*
X96378508Y12696405D01*
X96387710Y12690773D01*
X96407414Y12681010D01*
X96435922Y12667880D01*
X96471538Y12652144D01*
X96512565Y12634566D01*
X96557305Y12615907D01*
X96561889Y12614023D01*
X96613617Y12592925D01*
X96654635Y12576554D01*
X96686306Y12564445D01*
X96709995Y12556130D01*
X96727066Y12551144D01*
X96738881Y12549019D01*
X96746804Y12549289D01*
X96749185Y12549962D01*
X96758229Y12554989D01*
X96776755Y12566628D01*
X96803445Y12584006D01*
X96836980Y12606248D01*
X96876040Y12632478D01*
X96919306Y12661821D01*
X96965460Y12693403D01*
X96966315Y12693991D01*
X97012319Y12725513D01*
X97055276Y12754758D01*
X97093901Y12780865D01*
X97126905Y12802972D01*
X97153002Y12820215D01*
X97170903Y12831734D01*
X97179322Y12836665D01*
X97179418Y12836704D01*
X97184170Y12836402D01*
X97191926Y12832301D01*
X97203500Y12823660D01*
X97219705Y12809738D01*
X97241354Y12789794D01*
X97269262Y12763086D01*
X97304240Y12728875D01*
X97347103Y12686419D01*
X97375938Y12657683D01*
X97422144Y12611522D01*
X97459846Y12573695D01*
X97489860Y12543273D01*
X97513004Y12519325D01*
X97530096Y12500920D01*
X97541952Y12487129D01*
X97549392Y12477020D01*
X97553232Y12469664D01*
X97554289Y12464129D01*
X97553382Y12459486D01*
X97552326Y12456942D01*
X97546927Y12447774D01*
X97534945Y12429111D01*
X97517262Y12402273D01*
X97494762Y12368583D01*
X97468327Y12329363D01*
X97438840Y12285933D01*
X97407184Y12239615D01*
X97406143Y12238098D01*
X97369571Y12184610D01*
X97339926Y12140822D01*
X97316563Y12105689D01*
X97298841Y12078167D01*
X97286116Y12057209D01*
X97277747Y12041771D01*
X97273090Y12030806D01*
X97271503Y12023271D01*
X97271830Y12019647D01*
X97275295Y12009961D01*
X97283148Y11990171D01*
X97294559Y11962239D01*
X97308701Y11928125D01*
X97324745Y11889791D01*
X97341863Y11849197D01*
X97359226Y11808305D01*
X97376006Y11769075D01*
X97391374Y11733469D01*
X97404501Y11703446D01*
X97414561Y11680969D01*
X97418392Y11672729D01*
X97433031Y11653641D01*
X97451998Y11644471D01*
X97463867Y11641689D01*
X97486989Y11636863D01*
X97519691Y11630319D01*
X97560297Y11622386D01*
X97607133Y11613391D01*
X97658524Y11603662D01*
X97700894Y11595738D01*
X97753948Y11585700D01*
X97803097Y11576078D01*
X97846791Y11567200D01*
X97883480Y11559393D01*
X97911617Y11552986D01*
X97929652Y11548307D01*
X97935836Y11545972D01*
X97938299Y11537518D01*
X97940436Y11517679D01*
X97942243Y11488211D01*
X97943717Y11450867D01*
X97944853Y11407400D01*
X97945649Y11359565D01*
X97946101Y11309115D01*
X97946204Y11257804D01*
X97945955Y11207386D01*
X97945352Y11159614D01*
X97944389Y11116242D01*
X97943064Y11079023D01*
X97941373Y11049712D01*
X97939311Y11030062D01*
X97936922Y11021863D01*
X97928730Y11019100D01*
X97909117Y11014305D01*
X97879594Y11007793D01*
X97841672Y10999879D01*
X97796861Y10990880D01*
X97746674Y10981111D01*
X97695409Y10971408D01*
X97641214Y10961113D01*
X97590707Y10951181D01*
X97545447Y10941946D01*
X97506993Y10933740D01*
X97476905Y10926894D01*
X97456741Y10921741D01*
X97448263Y10918759D01*
X97442036Y10910256D01*
X97432059Y10891321D01*
X97419066Y10863775D01*
X97403792Y10829442D01*
X97386972Y10790144D01*
X97369339Y10747703D01*
X97351629Y10703943D01*
X97334576Y10660686D01*
X97318915Y10619755D01*
X97305381Y10582972D01*
X97294707Y10552161D01*
X97287629Y10529143D01*
X97284881Y10515741D01*
X97285039Y10513771D01*
X97289599Y10505541D01*
X97300762Y10487827D01*
X97317648Y10461950D01*
X97339380Y10429235D01*
X97365080Y10391003D01*
X97393870Y10348577D01*
X97420926Y10309025D01*
X97451665Y10264055D01*
X97480046Y10222153D01*
X97505198Y10184635D01*
X97526249Y10152817D01*
X97542327Y10128016D01*
X97552562Y10111548D01*
X97556040Y10104998D01*
X97554356Y10099152D01*
X97546972Y10088331D01*
X97533305Y10071899D01*
X97512771Y10049219D01*
X97484786Y10019654D01*
X97448766Y9982570D01*
X97404128Y9937328D01*
X97379325Y9912384D01*
X97332714Y9865719D01*
X97294381Y9827659D01*
X97263434Y9797395D01*
X97238982Y9774115D01*
X97220131Y9757010D01*
X97205988Y9745270D01*
X97195663Y9738085D01*
X97188261Y9734646D01*
X97182923Y9734136D01*
X97173777Y9738331D01*
X97155219Y9749169D01*
X97128616Y9765770D01*
X97095334Y9787254D01*
X97056741Y9812743D01*
X97014201Y9841356D01*
X96978165Y9865961D01*
X96920067Y9905547D01*
X96871128Y9938164D01*
X96831634Y9963630D01*
X96801867Y9981767D01*
X96782112Y9992396D01*
X96773249Y9995395D01*
X96761763Y9992362D01*
X96741320Y9984017D01*
X96714418Y9971491D01*
X96683557Y9955914D01*
X96669613Y9948517D01*
X96631864Y9928718D01*
X96604193Y9915487D01*
X96585560Y9908384D01*
X96574924Y9906969D01*
X96572991Y9907677D01*
X96568632Y9914827D01*
X96559894Y9932947D01*
X96547273Y9960834D01*
X96531267Y9997284D01*
X96512371Y10041093D01*
X96491082Y10091058D01*
X96467896Y10145976D01*
X96443311Y10204642D01*
X96417823Y10265854D01*
X96391928Y10328408D01*
X96366123Y10391100D01*
X96340905Y10452727D01*
X96316769Y10512085D01*
X96294213Y10567971D01*
X96273734Y10619181D01*
X96255827Y10664512D01*
X96240990Y10702760D01*
X96229718Y10732721D01*
X96222509Y10753193D01*
X96219859Y10762971D01*
X96219895Y10763477D01*
X96227640Y10773996D01*
X96242079Y10785388D01*
X96244791Y10787038D01*
X96272526Y10805075D01*
X96305500Y10829356D01*
X96339768Y10856722D01*
X96371386Y10884015D01*
X96396408Y10908075D01*
X96397906Y10909659D01*
X96447374Y10970713D01*
X96488561Y11038669D01*
X96519515Y11110081D01*
X96529517Y11142174D01*
X96536305Y11176161D01*
X96541135Y11218656D01*
X96543816Y11265138D01*
X96544157Y11311091D01*
X96541967Y11351997D01*
X96539260Y11372813D01*
X96518542Y11454546D01*
X96486138Y11530897D01*
X96442736Y11600924D01*
X96389021Y11663683D01*
X96325680Y11718231D01*
X96255803Y11762345D01*
X96181975Y11794573D01*
X96104008Y11815095D01*
X96023739Y11823910D01*
X95943006Y11821018D01*
X95863645Y11806420D01*
X95787493Y11780115D01*
X95750769Y11762345D01*
X95678759Y11716649D01*
X95615710Y11661828D01*
X95562309Y11598826D01*
X95519242Y11528586D01*
X95487196Y11452051D01*
X95467311Y11372813D01*
X95463459Y11337296D01*
X95462256Y11293935D01*
X95463511Y11247247D01*
X95467033Y11201751D01*
X95472632Y11161965D01*
X95477054Y11142174D01*
X95502810Y11070331D01*
X95539669Y11000406D01*
X95585680Y10935845D01*
X95608665Y10909659D01*
X95633035Y10885968D01*
X95664295Y10858808D01*
X95698501Y10831337D01*
X95731709Y10806716D01*
X95759973Y10788102D01*
X95761781Y10787038D01*
X95776840Y10775976D01*
X95786064Y10764971D01*
X95786676Y10763477D01*
X95784834Y10755598D01*
X95778351Y10736825D01*
X95767722Y10708362D01*
X95753444Y10671411D01*
X95736014Y10627178D01*
X95715929Y10576864D01*
X95693685Y10521674D01*
X95669778Y10462811D01*
X95644706Y10401478D01*
X95618964Y10338880D01*
X95593050Y10276220D01*
X95567459Y10214701D01*
X95542689Y10155526D01*
X95519236Y10099900D01*
X95497596Y10049026D01*
X95478267Y10004107D01*
X95461744Y9966347D01*
X95448525Y9936949D01*
X95439105Y9917118D01*
X95433982Y9908055D01*
X95433581Y9907677D01*
X95425357Y9907309D01*
X95409480Y9912485D01*
X95384910Y9923643D01*
X95350604Y9941224D01*
X95336958Y9948517D01*
X95305160Y9965063D01*
X95276240Y9979047D01*
X95252697Y9989339D01*
X95237030Y9994808D01*
X95233322Y9995395D01*
X95222585Y9991502D01*
X95201586Y9979943D01*
X95170611Y9960897D01*
X95129942Y9934544D01*
X95079865Y9901063D01*
X95028406Y9865961D01*
X94983690Y9835478D01*
X94941825Y9807415D01*
X94904175Y9782650D01*
X94872109Y9762063D01*
X94846992Y9746535D01*
X94830191Y9736944D01*
X94823648Y9734136D01*
X94818266Y9734659D01*
X94810847Y9738122D01*
X94800497Y9745336D01*
X94786325Y9757111D01*
X94767437Y9774257D01*
X94742942Y9797584D01*
X94711946Y9827901D01*
X94673558Y9866019D01*
X94627246Y9912384D01*
X94578239Y9961790D01*
X94538133Y10002732D01*
X94506342Y10035847D01*
X94482285Y10061771D01*
X94465376Y10081139D01*
X94455032Y10094589D01*
X94450669Y10102757D01*
X94450531Y10104998D01*
X94454908Y10113054D01*
X94465896Y10130600D01*
X94482622Y10156319D01*
X94504215Y10188896D01*
X94529804Y10227015D01*
X94558517Y10269358D01*
X94585646Y10309025D01*
X94616421Y10354037D01*
X94644875Y10396013D01*
X94670129Y10433632D01*
X94691306Y10465569D01*
X94707528Y10490502D01*
X94717917Y10507108D01*
X94721532Y10513771D01*
X94720338Y10523682D01*
X94714576Y10543798D01*
X94704981Y10572295D01*
X94692289Y10607351D01*
X94677234Y10647143D01*
X94660549Y10689849D01*
X94642971Y10733646D01*
X94625233Y10776711D01*
X94608071Y10817222D01*
X94592218Y10853356D01*
X94578409Y10883290D01*
X94567379Y10905201D01*
X94559863Y10917268D01*
X94558309Y10918759D01*
X94548777Y10922039D01*
X94527870Y10927321D01*
X94497147Y10934272D01*
X94458167Y10942561D01*
X94412490Y10951856D01*
X94361675Y10961823D01*
X94311163Y10971408D01*
X94257268Y10981616D01*
X94207314Y10991354D01*
X94162815Y11000306D01*
X94125279Y11008156D01*
X94096218Y11014590D01*
X94077143Y11019291D01*
X94069649Y11021863D01*
X94067221Y11030311D01*
X94065166Y11050144D01*
X94063481Y11079607D01*
X94062163Y11116947D01*
X94061206Y11160410D01*
X94060609Y11208244D01*
X94060366Y11258692D01*
X94060476Y11310004D01*
X94060933Y11360423D01*
X94061735Y11408197D01*
X94062877Y11451572D01*
X94064357Y11488795D01*
X94066169Y11518111D01*
X94068312Y11537766D01*
X94070735Y11545972D01*
X94079220Y11548970D01*
X94099091Y11553968D01*
X94128800Y11560637D01*
X94166797Y11568650D01*
X94211533Y11577679D01*
X94261459Y11587396D01*
X94305677Y11595738D01*
X94359469Y11605813D01*
X94410017Y11615411D01*
X94455646Y11624204D01*
X94494684Y11631864D01*
X94525455Y11638064D01*
X94546284Y11642476D01*
X94554574Y11644471D01*
X94576131Y11655819D01*
X94588180Y11672729D01*
X94596260Y11690371D01*
X94607852Y11716607D01*
X94622126Y11749475D01*
X94638255Y11787014D01*
X94655410Y11827263D01*
X94672762Y11868261D01*
X94689483Y11908047D01*
X94704745Y11944660D01*
X94717718Y11976140D01*
X94727576Y12000525D01*
X94733488Y12015854D01*
X94734743Y12019653D01*
X94734855Y12025583D01*
X94732292Y12034245D01*
X94726400Y12046711D01*
X94716522Y12064051D01*
X94702004Y12087335D01*
X94682190Y12117633D01*
X94656424Y12156016D01*
X94624051Y12203554D01*
X94605964Y12229951D01*
X94567395Y12286172D01*
X94535633Y12332566D01*
X94510058Y12370150D01*
X94490049Y12399940D01*
X94474985Y12422951D01*
X94464245Y12440201D01*
X94457209Y12452706D01*
X94453255Y12461482D01*
X94451763Y12467545D01*
X94452112Y12471911D01*
X94453682Y12475598D01*
X94454739Y12477520D01*
X94460751Y12484711D01*
X94475039Y12500051D01*
X94496537Y12522443D01*
X94524177Y12550794D01*
X94556890Y12584010D01*
X94593609Y12620994D01*
X94633266Y12660654D01*
X94638046Y12665416D01*
X94684707Y12711739D01*
X94723033Y12749422D01*
X94753870Y12779231D01*
X94778065Y12801932D01*
X94796465Y12818289D01*
X94809916Y12829069D01*
X94819266Y12835036D01*
X94825359Y12836957D01*
X94827443Y12836641D01*
X94835598Y12831915D01*
X94853268Y12820569D01*
X94879162Y12803467D01*
X94911990Y12781473D01*
X94950463Y12755451D01*
X94993291Y12726267D01*
X95039183Y12694784D01*
X95040317Y12694003D01*
X95086458Y12662381D01*
X95129746Y12632981D01*
X95168859Y12606679D01*
X95202478Y12584354D01*
X95229279Y12566882D01*
X95247941Y12555142D01*
X95257143Y12550011D01*
X95257187Y12549995D01*
X95263894Y12548837D01*
X95273761Y12549820D01*
X95288164Y12553416D01*
X95308481Y12560093D01*
X95336089Y12570321D01*
X95372365Y12584570D01*
X95418686Y12603309D01*
X95444683Y12613951D01*
X95489711Y12632683D01*
X95531202Y12650423D01*
X95567459Y12666405D01*
X95596781Y12679866D01*
X95617468Y12690041D01*
X95627823Y12696166D01*
X95628219Y12696521D01*
X95632042Y12702366D01*
X95636334Y12713416D01*
X95641339Y12730748D01*
X95647297Y12755442D01*
X95654453Y12788576D01*
X95663047Y12831230D01*
X95673322Y12884480D01*
X95685520Y12949407D01*
X95688032Y12962922D01*
X95702085Y13037485D01*
X95714254Y13099634D01*
X95724515Y13149259D01*
X95732845Y13186251D01*
X95739220Y13210499D01*
X95743616Y13221893D01*
X95744366Y13222699D01*
X95753064Y13224129D01*
X95773131Y13225353D01*
X95802796Y13226371D01*
X95840286Y13227183D01*
X95883831Y13227789D01*
X95931656Y13228188D01*
X95981992Y13228380D01*
X96033065Y13228366D01*
G37*
G36*
X97419561Y8501114D02*
G01*
X97443388Y8494869D01*
X97466447Y8486197D01*
X97485305Y8476499D01*
X97496530Y8467173D01*
X97498210Y8462825D01*
X97493992Y8454189D01*
X97482948Y8438912D01*
X97467250Y8419938D01*
X97463015Y8415142D01*
X97427979Y8375977D01*
X97410831Y8387212D01*
X97389702Y8395328D01*
X97362444Y8398453D01*
X97334669Y8396593D01*
X97311986Y8389750D01*
X97307607Y8387149D01*
X97293149Y8375980D01*
X97281592Y8363712D01*
X97272617Y8348797D01*
X97265908Y8329690D01*
X97261146Y8304844D01*
X97258014Y8272711D01*
X97256195Y8231746D01*
X97255370Y8180402D01*
X97255213Y8131967D01*
X97255213Y7977853D01*
X97156636Y7977853D01*
X97156636Y8497025D01*
X97255213Y8497025D01*
X97255213Y8470738D01*
X97256574Y8452014D01*
X97261562Y8445629D01*
X97271535Y8451069D01*
X97281437Y8460813D01*
X97301888Y8476072D01*
X97330688Y8489434D01*
X97363041Y8499147D01*
X97394154Y8503459D01*
X97398396Y8503532D01*
X97419561Y8501114D01*
G37*
G36*
X97526002Y8350066D02*
G01*
X97543932Y8397581D01*
X97544322Y8398349D01*
X97556182Y8416341D01*
X97573546Y8436899D01*
X97585426Y8448787D01*
X97626227Y8478027D01*
X97671445Y8495941D01*
X97719007Y8502634D01*
X97766840Y8498212D01*
X97812871Y8482778D01*
X97855029Y8456437D01*
X97878969Y8433960D01*
X97900691Y8406995D01*
X97916281Y8379044D01*
X97926842Y8346943D01*
X97933479Y8307532D01*
X97936704Y8268655D01*
X97940661Y8201294D01*
X97775375Y8201294D01*
X97722057Y8201149D01*
X97680681Y8200674D01*
X97650049Y8199810D01*
X97628962Y8198497D01*
X97616223Y8196676D01*
X97610632Y8194286D01*
X97610127Y8193079D01*
X97613223Y8173518D01*
X97620923Y8148908D01*
X97631045Y8125455D01*
X97638116Y8113452D01*
X97662070Y8090467D01*
X97693421Y8076147D01*
X97729522Y8070678D01*
X97767727Y8074245D01*
X97805391Y8087034D01*
X97827969Y8100130D01*
X97853124Y8117563D01*
X97889554Y8086439D01*
X97908022Y8070145D01*
X97917764Y8058267D01*
X97918285Y8048217D01*
X97909090Y8037409D01*
X97889683Y8023256D01*
X97875655Y8013892D01*
X97828915Y7990290D01*
X97776557Y7976616D01*
X97722330Y7973579D01*
X97685666Y7978077D01*
X97639544Y7992748D01*
X97598452Y8016063D01*
X97565070Y8046157D01*
X97544400Y8076376D01*
X97526317Y8123759D01*
X97515435Y8178471D01*
X97511754Y8236860D01*
X97514761Y8286727D01*
X97610419Y8286727D01*
X97833532Y8286727D01*
X97833532Y8301764D01*
X97828929Y8323382D01*
X97817035Y8348445D01*
X97800720Y8372060D01*
X97782857Y8389338D01*
X97781628Y8390180D01*
X97753905Y8401698D01*
X97720929Y8405116D01*
X97687894Y8400308D01*
X97669134Y8392865D01*
X97647562Y8375229D01*
X97629117Y8348770D01*
X97616589Y8317807D01*
X97614364Y8308086D01*
X97610419Y8286727D01*
X97514761Y8286727D01*
X97515276Y8295276D01*
X97526002Y8350066D01*
G37*
G36*
X97915348Y9319092D02*
G01*
X97940077Y9311975D01*
X97961168Y9302265D01*
X97984836Y9288714D01*
X98007885Y9273499D01*
X98027121Y9258798D01*
X98039349Y9246790D01*
X98041792Y9242621D01*
X98038264Y9235285D01*
X98026884Y9222325D01*
X98010010Y9206392D01*
X98007826Y9204491D01*
X97971622Y9173234D01*
X97946561Y9193373D01*
X97913095Y9212914D01*
X97875467Y9222808D01*
X97837039Y9222933D01*
X97801173Y9213165D01*
X97778346Y9199564D01*
X97758173Y9179741D01*
X97744294Y9155764D01*
X97735876Y9125181D01*
X97732088Y9085543D01*
X97731669Y9062199D01*
X97732003Y9029848D01*
X97733401Y9007075D01*
X97736458Y8990322D01*
X97741769Y8976032D01*
X97748098Y8963877D01*
X97772544Y8932359D01*
X97803553Y8911054D01*
X97839005Y8900303D01*
X97876781Y8900452D01*
X97914761Y8911843D01*
X97946936Y8931649D01*
X97971622Y8951165D01*
X98007826Y8919908D01*
X98025180Y8903803D01*
X98037312Y8890367D01*
X98041861Y8882250D01*
X98041792Y8881777D01*
X98034064Y8871837D01*
X98017794Y8858158D01*
X97996178Y8842918D01*
X97972408Y8828296D01*
X97949681Y8816470D01*
X97940077Y8812424D01*
X97900157Y8802575D01*
X97854584Y8799605D01*
X97808917Y8803536D01*
X97775732Y8811776D01*
X97731015Y8833981D01*
X97692518Y8866797D01*
X97661745Y8908570D01*
X97640199Y8957642D01*
X97638633Y8962808D01*
X97631682Y8998352D01*
X97628357Y9041416D01*
X97628640Y9086891D01*
X97632516Y9129667D01*
X97639269Y9162341D01*
X97659670Y9211382D01*
X97689124Y9253556D01*
X97725997Y9287121D01*
X97768654Y9310331D01*
X97782440Y9315045D01*
X97825247Y9323236D01*
X97871401Y9324548D01*
X97915348Y9319092D01*
G37*
G36*
X98108403Y9217405D02*
G01*
X98135431Y9258741D01*
X98170503Y9290357D01*
X98213333Y9311840D01*
X98263639Y9322779D01*
X98274674Y9323672D01*
X98325089Y9322473D01*
X98368759Y9311700D01*
X98408849Y9290416D01*
X98423485Y9279629D01*
X98456630Y9245681D01*
X98480881Y9203081D01*
X98496412Y9151372D01*
X98503396Y9090094D01*
X98503855Y9067564D01*
X98503855Y9022769D01*
X98176091Y9022769D01*
X98179891Y8998124D01*
X98190075Y8961962D01*
X98209265Y8933273D01*
X98221330Y8921861D01*
X98253314Y8903074D01*
X98290211Y8894587D01*
X98328977Y8896241D01*
X98366571Y8907875D01*
X98399947Y8929327D01*
X98402284Y8931409D01*
X98409600Y8937317D01*
X98416347Y8938682D01*
X98425447Y8934417D01*
X98439819Y8923434D01*
X98452907Y8912568D01*
X98490093Y8881475D01*
X98469126Y8859836D01*
X98451012Y8844563D01*
X98427253Y8828811D01*
X98412151Y8820581D01*
X98376518Y8808283D01*
X98333652Y8801270D01*
X98288452Y8799769D01*
X98245814Y8804006D01*
X98217096Y8811583D01*
X98172109Y8834009D01*
X98136254Y8864784D01*
X98109218Y8904422D01*
X98090689Y8953437D01*
X98080351Y9012344D01*
X98078421Y9039198D01*
X98079614Y9107222D01*
X98081019Y9115512D01*
X98177251Y9115512D01*
X98180304Y9112480D01*
X98188416Y9110421D01*
X98203345Y9109150D01*
X98226850Y9108482D01*
X98260689Y9108230D01*
X98286543Y9108202D01*
X98327508Y9108303D01*
X98357138Y9108731D01*
X98377241Y9109671D01*
X98389623Y9111308D01*
X98396094Y9113828D01*
X98398461Y9117416D01*
X98398670Y9119703D01*
X98392496Y9153548D01*
X98375835Y9184458D01*
X98351145Y9209550D01*
X98320883Y9225940D01*
X98304667Y9229936D01*
X98269791Y9229148D01*
X98237384Y9217469D01*
X98210237Y9196749D01*
X98191141Y9168839D01*
X98184949Y9150518D01*
X98180708Y9132408D01*
X98177497Y9119703D01*
X98177251Y9115512D01*
X98081019Y9115512D01*
X98089702Y9166761D01*
X98108403Y9217405D01*
G37*
G36*
X93507400Y9116763D02*
G01*
X93508339Y9125098D01*
X93518656Y9179885D01*
X93535406Y9224248D01*
X93559599Y9259734D01*
X93592247Y9287892D01*
X93627137Y9307101D01*
X93649764Y9316707D01*
X93668405Y9322215D01*
X93688152Y9324497D01*
X93714098Y9324427D01*
X93725714Y9324004D01*
X93780194Y9316547D01*
X93826551Y9298810D01*
X93865085Y9270600D01*
X93896099Y9231726D01*
X93909568Y9206779D01*
X93915907Y9192634D01*
X93920442Y9179658D01*
X93923475Y9165299D01*
X93925306Y9147007D01*
X93926236Y9122233D01*
X93926564Y9088426D01*
X93926597Y9062199D01*
X93926489Y9021610D01*
X93925963Y8991613D01*
X93924719Y8969659D01*
X93922457Y8953198D01*
X93918876Y8939678D01*
X93913676Y8926551D01*
X93909568Y8917620D01*
X93882889Y8875269D01*
X93847033Y8839724D01*
X93811591Y8817203D01*
X93790772Y8808951D01*
X93766450Y8803851D01*
X93734458Y8801127D01*
X93722872Y8800661D01*
X93693088Y8800094D01*
X93671791Y8801282D01*
X93654358Y8805024D01*
X93636165Y8812118D01*
X93624235Y8817702D01*
X93580494Y8845689D01*
X93545848Y8883163D01*
X93529149Y8910764D01*
X93518537Y8939965D01*
X93510720Y8978622D01*
X93506035Y9023278D01*
X93505030Y9062199D01*
X93611151Y9062199D01*
X93611387Y9025016D01*
X93612308Y8998301D01*
X93614231Y8979382D01*
X93617473Y8965590D01*
X93622354Y8954253D01*
X93624445Y8950479D01*
X93642297Y8929943D01*
X93668049Y8912396D01*
X93696457Y8900837D01*
X93716300Y8897904D01*
X93734482Y8900942D01*
X93756651Y8908598D01*
X93765454Y8912691D01*
X93785562Y8925169D01*
X93802261Y8939250D01*
X93806745Y8944458D01*
X93816898Y8966398D01*
X93823876Y8997642D01*
X93827679Y9034742D01*
X93828307Y9074246D01*
X93825757Y9112705D01*
X93820030Y9146669D01*
X93811126Y9172687D01*
X93806788Y9179941D01*
X93785138Y9200541D01*
X93756216Y9215924D01*
X93725199Y9223874D01*
X93704508Y9223755D01*
X93668189Y9213053D01*
X93639336Y9193702D01*
X93622971Y9172568D01*
X93617958Y9161110D01*
X93614545Y9146654D01*
X93612457Y9126628D01*
X93611417Y9098460D01*
X93611151Y9062199D01*
X93505030Y9062199D01*
X93504816Y9070477D01*
X93507400Y9116763D01*
G37*
G36*
X94127037Y9318500D02*
G01*
X94127037Y9294697D01*
X94127496Y9279306D01*
X94130510Y9274907D01*
X94138535Y9279350D01*
X94141824Y9281745D01*
X94186181Y9307596D01*
X94231586Y9321838D01*
X94276396Y9324798D01*
X94318964Y9316805D01*
X94357647Y9298187D01*
X94390799Y9269273D01*
X94416775Y9230391D01*
X94418666Y9226494D01*
X94423420Y9215481D01*
X94426959Y9204017D01*
X94429460Y9190020D01*
X94431100Y9171406D01*
X94432056Y9146093D01*
X94432506Y9111998D01*
X94432625Y9067038D01*
X94432626Y9062199D01*
X94432446Y9012472D01*
X94431631Y8973739D01*
X94429768Y8943854D01*
X94426445Y8920668D01*
X94421249Y8902036D01*
X94413768Y8885810D01*
X94403589Y8869843D01*
X94392881Y8855360D01*
X94364263Y8828102D01*
X94328475Y8809831D01*
X94288069Y8800690D01*
X94245600Y8800823D01*
X94203620Y8810374D01*
X94164682Y8829486D01*
X94148396Y8841612D01*
X94127037Y8859642D01*
X94127037Y8441991D01*
X94145718Y8459889D01*
X94170473Y8477408D01*
X94202761Y8491900D01*
X94237005Y8501244D01*
X94260659Y8503597D01*
X94306516Y8497197D01*
X94349091Y8478558D01*
X94383650Y8451335D01*
X94397557Y8436843D01*
X94408755Y8423025D01*
X94417537Y8408291D01*
X94424195Y8391055D01*
X94429022Y8369727D01*
X94432309Y8342719D01*
X94434348Y8308443D01*
X94435433Y8265310D01*
X94435855Y8211733D01*
X94435912Y8167264D01*
X94435912Y7977853D01*
X94338463Y7977853D01*
X94336256Y8150362D01*
X94335521Y8202907D01*
X94334732Y8243997D01*
X94333753Y8275324D01*
X94332448Y8298577D01*
X94330681Y8315445D01*
X94328317Y8327618D01*
X94325220Y8336786D01*
X94321254Y8344639D01*
X94320550Y8345851D01*
X94298143Y8372915D01*
X94270015Y8390503D01*
X94238761Y8398618D01*
X94206978Y8397260D01*
X94177260Y8386432D01*
X94152203Y8366134D01*
X94138548Y8345742D01*
X94135012Y8337351D01*
X94132272Y8326855D01*
X94130230Y8312586D01*
X94128789Y8292875D01*
X94127849Y8266050D01*
X94127312Y8230443D01*
X94127081Y8184384D01*
X94127048Y8150362D01*
X94127037Y7977853D01*
X94021889Y7977853D01*
X94021889Y9061660D01*
X94127527Y9061660D01*
X94128566Y9026502D01*
X94131173Y8995323D01*
X94135301Y8972163D01*
X94136559Y8968116D01*
X94154216Y8934519D01*
X94178971Y8911858D01*
X94210181Y8900447D01*
X94247204Y8900597D01*
X94266563Y8904787D01*
X94292546Y8918588D01*
X94312608Y8943381D01*
X94326482Y8978294D01*
X94333904Y9022455D01*
X94334609Y9074992D01*
X94330948Y9116405D01*
X94323184Y9157004D01*
X94310904Y9186538D01*
X94293071Y9206617D01*
X94268650Y9218851D01*
X94264127Y9220170D01*
X94227073Y9224287D01*
X94193145Y9216997D01*
X94164494Y9199452D01*
X94143269Y9172802D01*
X94134323Y9150610D01*
X94130356Y9127753D01*
X94128108Y9096756D01*
X94127527Y9061660D01*
X94021889Y9061660D01*
X94021889Y9318500D01*
X94127037Y9318500D01*
G37*
G36*
X96013091Y9321102D02*
G01*
X96061505Y9310289D01*
X96105073Y9293683D01*
X96140223Y9272408D01*
X96146014Y9267616D01*
X96151798Y9261411D01*
X96153000Y9254786D01*
X96148532Y9245391D01*
X96137305Y9230880D01*
X96119421Y9210255D01*
X96097548Y9185435D01*
X96063561Y9202580D01*
X96026722Y9217540D01*
X95989255Y9226409D01*
X95953386Y9229324D01*
X95921339Y9226418D01*
X95895340Y9217827D01*
X95877613Y9203687D01*
X95871400Y9190898D01*
X95868253Y9166993D01*
X95873026Y9148503D01*
X95886807Y9134642D01*
X95910681Y9124625D01*
X95945737Y9117668D01*
X95977587Y9114191D01*
X96010739Y9110635D01*
X96042484Y9106004D01*
X96068409Y9101000D01*
X96080094Y9097866D01*
X96114204Y9080358D01*
X96140517Y9054380D01*
X96158808Y9022202D01*
X96168849Y8986098D01*
X96170417Y8948339D01*
X96163284Y8911197D01*
X96147226Y8876944D01*
X96122017Y8847853D01*
X96106090Y8836067D01*
X96066428Y8817384D01*
X96018936Y8805097D01*
X95967468Y8799583D01*
X95915877Y8801217D01*
X95868019Y8810375D01*
X95861992Y8812229D01*
X95817475Y8830445D01*
X95774353Y8854814D01*
X95748641Y8873577D01*
X95730581Y8888521D01*
X95766572Y8924064D01*
X95802563Y8959608D01*
X95817510Y8945565D01*
X95831467Y8935356D01*
X95852532Y8923102D01*
X95871741Y8913539D01*
X95908472Y8901033D01*
X95947853Y8894822D01*
X95985945Y8895036D01*
X96018808Y8901808D01*
X96032859Y8908159D01*
X96054496Y8926034D01*
X96066820Y8947341D01*
X96069323Y8969287D01*
X96061496Y8989084D01*
X96049637Y9000143D01*
X96037095Y9004748D01*
X96014745Y9009579D01*
X95985892Y9014007D01*
X95963368Y9016553D01*
X95920745Y9021226D01*
X95888389Y9026337D01*
X95863424Y9032630D01*
X95842978Y9040850D01*
X95824175Y9051741D01*
X95822078Y9053138D01*
X95794072Y9079367D01*
X95775410Y9112382D01*
X95766206Y9149613D01*
X95766576Y9188487D01*
X95776636Y9226431D01*
X95796500Y9260873D01*
X95811998Y9277717D01*
X95843807Y9300802D01*
X95881401Y9315869D01*
X95926948Y9323595D01*
X95963405Y9325000D01*
X96013091Y9321102D01*
G37*
G36*
X95406975Y8326576D02*
G01*
X95409796Y8359918D01*
X95414517Y8386067D01*
X95421583Y8407001D01*
X95431439Y8424700D01*
X95444531Y8441142D01*
X95455148Y8452256D01*
X95491341Y8479710D01*
X95532540Y8496285D01*
X95576324Y8501946D01*
X95620272Y8496656D01*
X95661960Y8480380D01*
X95696054Y8455840D01*
X95710841Y8442159D01*
X95710841Y8707322D01*
X95815989Y8707322D01*
X95815989Y7977853D01*
X95710841Y7977853D01*
X95710841Y8032718D01*
X95695972Y8018750D01*
X95664726Y7997307D01*
X95626035Y7982630D01*
X95584273Y7975736D01*
X95543816Y7977644D01*
X95531249Y7980446D01*
X95487635Y7998515D01*
X95452745Y8026353D01*
X95426083Y8064361D01*
X95425050Y8066353D01*
X95405252Y8105055D01*
X95405252Y8230393D01*
X95405277Y8234153D01*
X95507296Y8234153D01*
X95507834Y8197586D01*
X95509590Y8170946D01*
X95512957Y8151040D01*
X95518326Y8134679D01*
X95520021Y8130783D01*
X95539294Y8102137D01*
X95566297Y8084113D01*
X95601061Y8076692D01*
X95608978Y8076479D01*
X95643760Y8081150D01*
X95663577Y8089734D01*
X95681794Y8104156D01*
X95694965Y8123201D01*
X95703720Y8148852D01*
X95708692Y8183092D01*
X95710511Y8227906D01*
X95710552Y8237439D01*
X95710096Y8274785D01*
X95708502Y8301985D01*
X95705427Y8322010D01*
X95700531Y8337834D01*
X95698481Y8342588D01*
X95684906Y8367661D01*
X95669833Y8383429D01*
X95649879Y8391872D01*
X95621661Y8394972D01*
X95608719Y8395162D01*
X95583046Y8394708D01*
X95566339Y8392558D01*
X95554430Y8387535D01*
X95543153Y8378458D01*
X95540364Y8375820D01*
X95527360Y8360944D01*
X95518123Y8343592D01*
X95512088Y8321348D01*
X95508692Y8291793D01*
X95507371Y8252512D01*
X95507296Y8234153D01*
X95405277Y8234153D01*
X95405609Y8284061D01*
X95406975Y8326576D01*
G37*
G36*
X97555274Y9322355D02*
G01*
X97584546Y9315844D01*
X97608802Y9306409D01*
X97624370Y9295210D01*
X97626211Y9292712D01*
X97624273Y9285214D01*
X97616038Y9270990D01*
X97603725Y9252985D01*
X97589551Y9234140D01*
X97575733Y9217399D01*
X97564491Y9205706D01*
X97558040Y9202003D01*
X97557906Y9202067D01*
X97550130Y9205877D01*
X97535005Y9212909D01*
X97528427Y9215913D01*
X97495484Y9224331D01*
X97463073Y9221006D01*
X97433754Y9207180D01*
X97410085Y9184095D01*
X97394626Y9152993D01*
X97393935Y9150610D01*
X97391604Y9135311D01*
X97389651Y9108502D01*
X97388140Y9071813D01*
X97387135Y9026873D01*
X97386699Y8975313D01*
X97386686Y8965265D01*
X97386649Y8805899D01*
X97288072Y8805899D01*
X97288072Y9318500D01*
X97386649Y9318500D01*
X97386649Y9264757D01*
X97408008Y9282787D01*
X97445442Y9307866D01*
X97485962Y9321417D01*
X97524657Y9324783D01*
X97555274Y9322355D01*
G37*
G36*
X95282062Y9323661D02*
G01*
X95321147Y9318054D01*
X95352617Y9306145D01*
X95381341Y9285751D01*
X95394807Y9273085D01*
X95407261Y9259871D01*
X95417284Y9246703D01*
X95425138Y9232019D01*
X95431084Y9214260D01*
X95435386Y9191864D01*
X95438303Y9163271D01*
X95440099Y9126919D01*
X95441034Y9081250D01*
X95441371Y9024700D01*
X95441397Y8995311D01*
X95441397Y8805899D01*
X95343616Y8805899D01*
X95341575Y8978409D01*
X95340800Y9034848D01*
X95339743Y9079754D01*
X95338080Y9114739D01*
X95335487Y9141412D01*
X95331639Y9161385D01*
X95326212Y9176269D01*
X95318882Y9187674D01*
X95309324Y9197211D01*
X95297214Y9206491D01*
X95295392Y9207794D01*
X95276975Y9217774D01*
X95255031Y9222293D01*
X95236481Y9222989D01*
X95204222Y9219628D01*
X95178748Y9208151D01*
X95156011Y9186464D01*
X95149358Y9177977D01*
X95145292Y9171870D01*
X95142100Y9164639D01*
X95139652Y9154664D01*
X95137820Y9140329D01*
X95136474Y9120013D01*
X95135484Y9092099D01*
X95134722Y9054968D01*
X95134058Y9007002D01*
X95133773Y8982872D01*
X95131738Y8805899D01*
X95027374Y8805899D01*
X95027374Y9318500D01*
X95132522Y9318500D01*
X95132522Y9264564D01*
X95154833Y9284152D01*
X95191492Y9308728D01*
X95232984Y9321780D01*
X95280743Y9323752D01*
X95282062Y9323661D01*
G37*
G36*
X96240505Y9132786D02*
G01*
X96241749Y9154740D01*
X96244011Y9171201D01*
X96247592Y9184721D01*
X96252792Y9197848D01*
X96256900Y9206779D01*
X96284379Y9251570D01*
X96319549Y9285710D01*
X96362317Y9309138D01*
X96412586Y9321792D01*
X96437024Y9323929D01*
X96492157Y9320803D01*
X96540938Y9306629D01*
X96582685Y9281765D01*
X96616719Y9246566D01*
X96632553Y9221744D01*
X96646493Y9186598D01*
X96656092Y9141969D01*
X96661004Y9090895D01*
X96660884Y9036413D01*
X96657789Y8999270D01*
X96647581Y8944241D01*
X96630645Y8899535D01*
X96606036Y8863675D01*
X96572813Y8835182D01*
X96542233Y8818020D01*
X96518724Y8807962D01*
X96497893Y8802341D01*
X96474044Y8800030D01*
X96450168Y8799796D01*
X96421264Y8801205D01*
X96394019Y8804493D01*
X96373882Y8808980D01*
X96372373Y8809504D01*
X96327152Y8832865D01*
X96289532Y8866861D01*
X96259840Y8911180D01*
X96254426Y8922237D01*
X96248945Y8935235D01*
X96245032Y8948375D01*
X96242428Y8964150D01*
X96240873Y8985049D01*
X96240109Y9013565D01*
X96239876Y9052188D01*
X96239870Y9062199D01*
X96239879Y9065485D01*
X96338604Y9065485D01*
X96339633Y9021636D01*
X96343248Y8988281D01*
X96350092Y8962917D01*
X96360806Y8943039D01*
X96373787Y8928249D01*
X96404010Y8907707D01*
X96438179Y8899206D01*
X96474487Y8902971D01*
X96499557Y8912691D01*
X96521184Y8925884D01*
X96536690Y8941674D01*
X96547114Y8962450D01*
X96553497Y8990597D01*
X96556878Y9028503D01*
X96557590Y9045898D01*
X96557907Y9079788D01*
X96556809Y9111032D01*
X96554496Y9135609D01*
X96552599Y9145523D01*
X96537675Y9178357D01*
X96514237Y9203020D01*
X96484701Y9218650D01*
X96451479Y9224381D01*
X96416985Y9219348D01*
X96386827Y9204889D01*
X96367238Y9188578D01*
X96353415Y9168398D01*
X96344565Y9142055D01*
X96339893Y9107258D01*
X96338604Y9065485D01*
X96239879Y9065485D01*
X96239979Y9102789D01*
X96240505Y9132786D01*
G37*
%TD*%
D10*
%TO.C,U2*%
X6496000Y21070000D03*
D11*
X6496000Y18530000D03*
X6496000Y15990000D03*
X6496000Y13450000D03*
%TD*%
D12*
%TO.C,C2*%
X79250000Y10322599D03*
D13*
X79250000Y8822599D03*
%TD*%
D14*
%TO.C,R2*%
X54502000Y13450000D03*
D15*
X54502000Y21070000D03*
%TD*%
D16*
%TO.C,U3*%
X79250000Y14790000D03*
D13*
X79250000Y17330000D03*
X79250000Y19870000D03*
%TD*%
D17*
%TO.C,C1*%
X79250000Y23720000D03*
D14*
X79250000Y25720000D03*
%TD*%
D18*
%TO.C,H3*%
X94568109Y29468109D03*
X97431891Y32331891D03*
X93975000Y30900000D03*
X96000000Y28875000D03*
D19*
X96000000Y30900000D03*
D18*
X98025000Y30900000D03*
X94568109Y32331891D03*
X96000000Y32925000D03*
X97431891Y29468109D03*
%TD*%
D14*
%TO.C,R3*%
X57550000Y13450000D03*
D15*
X57550000Y21070000D03*
%TD*%
D20*
%TO.C,J2*%
X66416000Y25546000D03*
X45716000Y2346000D03*
X66416000Y2346000D03*
X45716000Y25546000D03*
D21*
X52216000Y25896000D03*
D22*
X54756000Y25896000D03*
X57296000Y25896000D03*
X59836000Y25896000D03*
%TD*%
D23*
%TO.C,J1*%
X85900000Y19500000D03*
D24*
X91700000Y19500000D03*
D25*
X88900000Y24300000D03*
%TD*%
D18*
%TO.C,H1*%
X2568109Y32331891D03*
X4000000Y32925000D03*
X2568109Y29468109D03*
X4000000Y28875000D03*
X6025000Y30900000D03*
D19*
X4000000Y30900000D03*
D18*
X1975000Y30900000D03*
X5431891Y29468109D03*
X5431891Y32331891D03*
%TD*%
D21*
%TO.C,U1*%
X17418000Y26150000D03*
D26*
X17418000Y23610000D03*
X17418000Y21070000D03*
X17418000Y18530000D03*
X17418000Y15990000D03*
X17418000Y13450000D03*
X17418000Y10910000D03*
X17418000Y8370000D03*
X40278000Y8370000D03*
X40278000Y10910000D03*
X40278000Y13450000D03*
X40278000Y15990000D03*
X40278000Y18530000D03*
X40278000Y21070000D03*
X40278000Y23610000D03*
X40278000Y26150000D03*
%TD*%
D18*
%TO.C,H4*%
X94568109Y2468109D03*
X94568109Y5331891D03*
X96000000Y1875000D03*
X97431891Y5331891D03*
X93975000Y3900000D03*
X98025000Y3900000D03*
X96000000Y5925000D03*
D19*
X96000000Y3900000D03*
D18*
X97431891Y2468109D03*
%TD*%
D19*
%TO.C,H2*%
X4000000Y3900000D03*
D18*
X5431891Y5331891D03*
X4000000Y5925000D03*
X5431891Y2468109D03*
X2568109Y2468109D03*
X6025000Y3900000D03*
X2568109Y5331891D03*
X1975000Y3900000D03*
X4000000Y1875000D03*
%TD*%
D14*
%TO.C,R1*%
X11000000Y21070000D03*
D15*
X11000000Y13450000D03*
%TD*%
M02*
