%TF.GenerationSoftware,KiCad,Pcbnew,6.0.7-f9a2dced07~116~ubuntu22.04.1*%
%TF.CreationDate,2022-09-18T17:51:17+02:00*%
%TF.ProjectId,SmartHarz-Thermometer,536d6172-7448-4617-927a-2d546865726d,1b1*%
%TF.SameCoordinates,Original*%
%TF.FileFunction,Legend,Bot*%
%TF.FilePolarity,Positive*%
%FSLAX46Y46*%
G04 Gerber Fmt 4.6, Leading zero omitted, Abs format (unit mm)*
G04 Created by KiCad (PCBNEW 6.0.7-f9a2dced07~116~ubuntu22.04.1) date 2022-09-18 17:51:17*
%MOMM*%
%LPD*%
G01*
G04 APERTURE LIST*
G04 Aperture macros list*
%AMRoundRect*
0 Rectangle with rounded corners*
0 $1 Rounding radius*
0 $2 $3 $4 $5 $6 $7 $8 $9 X,Y pos of 4 corners*
0 Add a 4 corners polygon primitive as box body*
4,1,4,$2,$3,$4,$5,$6,$7,$8,$9,$2,$3,0*
0 Add four circle primitives for the rounded corners*
1,1,$1+$1,$2,$3*
1,1,$1+$1,$4,$5*
1,1,$1+$1,$6,$7*
1,1,$1+$1,$8,$9*
0 Add four rect primitives between the rounded corners*
20,1,$1+$1,$2,$3,$4,$5,0*
20,1,$1+$1,$4,$5,$6,$7,0*
20,1,$1+$1,$6,$7,$8,$9,0*
20,1,$1+$1,$8,$9,$2,$3,0*%
G04 Aperture macros list end*
%ADD10C,0.150000*%
%ADD11R,1.500000X1.500000*%
%ADD12C,1.500000*%
%ADD13R,1.200000X1.200000*%
%ADD14C,1.200000*%
%ADD15C,1.600000*%
%ADD16O,1.600000X1.600000*%
%ADD17RoundRect,0.300000X0.300000X-0.300000X0.300000X0.300000X-0.300000X0.300000X-0.300000X-0.300000X0*%
%ADD18R,1.600000X1.600000*%
%ADD19C,0.800000*%
%ADD20C,5.400000*%
%ADD21C,2.550000*%
%ADD22R,2.000000X2.000000*%
%ADD23O,1.600000X2.000000*%
%ADD24R,1.800000X4.400000*%
%ADD25O,1.800000X4.000000*%
%ADD26O,4.000000X1.800000*%
%ADD27O,2.000000X1.600000*%
G04 APERTURE END LIST*
D10*
X10158452Y397620D02*
X10075119Y1064286D01*
X10098928Y873810D02*
X10039404Y969048D01*
X9985833Y1016667D01*
X9884642Y1064286D01*
X9789404Y1064286D01*
X9473928Y1302381D02*
X9420357Y1350000D01*
X9319166Y1397620D01*
X9081071Y1397620D01*
X8991785Y1350000D01*
X8950119Y1302381D01*
X8914404Y1207143D01*
X8926309Y1111905D01*
X8991785Y969048D01*
X9634642Y397620D01*
X9015595Y397620D01*
X8587023Y397620D02*
X8462023Y1397620D01*
X8509642Y1016667D02*
X8408452Y1064286D01*
X8217976Y1064286D01*
X8128690Y1016667D01*
X8087023Y969048D01*
X8051309Y873810D01*
X8087023Y588096D01*
X8146547Y492858D01*
X8200119Y445239D01*
X8301309Y397620D01*
X8491785Y397620D01*
X8581071Y445239D01*
X7158452Y397620D02*
X7729880Y397620D01*
X7444166Y397620D02*
X7319166Y1397620D01*
X7432261Y1254762D01*
X7539404Y1159524D01*
X7640595Y1111905D01*
%LPC*%
D11*
%TO.C,U2*%
X6496000Y21070000D03*
D12*
X6496000Y18530000D03*
X6496000Y15990000D03*
X6496000Y13450000D03*
%TD*%
D13*
%TO.C,C2*%
X79250000Y10322599D03*
D14*
X79250000Y8822599D03*
%TD*%
D15*
%TO.C,R2*%
X54502000Y13450000D03*
D16*
X54502000Y21070000D03*
%TD*%
D17*
%TO.C,U3*%
X79250000Y14790000D03*
D14*
X79250000Y17330000D03*
X79250000Y19870000D03*
%TD*%
D18*
%TO.C,C1*%
X79250000Y23720000D03*
D15*
X79250000Y25720000D03*
%TD*%
D19*
%TO.C,H3*%
X94568109Y29468109D03*
X97431891Y32331891D03*
X93975000Y30900000D03*
X96000000Y28875000D03*
D20*
X96000000Y30900000D03*
D19*
X98025000Y30900000D03*
X94568109Y32331891D03*
X96000000Y32925000D03*
X97431891Y29468109D03*
%TD*%
D15*
%TO.C,R3*%
X57550000Y13450000D03*
D16*
X57550000Y21070000D03*
%TD*%
D21*
%TO.C,J2*%
X66416000Y25546000D03*
X45716000Y2346000D03*
X66416000Y2346000D03*
X45716000Y25546000D03*
D22*
X52216000Y25896000D03*
D23*
X54756000Y25896000D03*
X57296000Y25896000D03*
X59836000Y25896000D03*
%TD*%
D24*
%TO.C,J1*%
X85900000Y19500000D03*
D25*
X91700000Y19500000D03*
D26*
X88900000Y24300000D03*
%TD*%
D19*
%TO.C,H1*%
X2568109Y32331891D03*
X4000000Y32925000D03*
X2568109Y29468109D03*
X4000000Y28875000D03*
X6025000Y30900000D03*
D20*
X4000000Y30900000D03*
D19*
X1975000Y30900000D03*
X5431891Y29468109D03*
X5431891Y32331891D03*
%TD*%
D22*
%TO.C,U1*%
X17418000Y26150000D03*
D27*
X17418000Y23610000D03*
X17418000Y21070000D03*
X17418000Y18530000D03*
X17418000Y15990000D03*
X17418000Y13450000D03*
X17418000Y10910000D03*
X17418000Y8370000D03*
X40278000Y8370000D03*
X40278000Y10910000D03*
X40278000Y13450000D03*
X40278000Y15990000D03*
X40278000Y18530000D03*
X40278000Y21070000D03*
X40278000Y23610000D03*
X40278000Y26150000D03*
%TD*%
D19*
%TO.C,H4*%
X94568109Y2468109D03*
X94568109Y5331891D03*
X96000000Y1875000D03*
X97431891Y5331891D03*
X93975000Y3900000D03*
X98025000Y3900000D03*
X96000000Y5925000D03*
D20*
X96000000Y3900000D03*
D19*
X97431891Y2468109D03*
%TD*%
D20*
%TO.C,H2*%
X4000000Y3900000D03*
D19*
X5431891Y5331891D03*
X4000000Y5925000D03*
X5431891Y2468109D03*
X2568109Y2468109D03*
X6025000Y3900000D03*
X2568109Y5331891D03*
X1975000Y3900000D03*
X4000000Y1875000D03*
%TD*%
D15*
%TO.C,R1*%
X11000000Y21070000D03*
D16*
X11000000Y13450000D03*
%TD*%
M02*
