%TF.GenerationSoftware,KiCad,Pcbnew,6.0.7-f9a2dced07~116~ubuntu22.04.1*%
%TF.CreationDate,2022-09-18T17:51:17+02:00*%
%TF.ProjectId,SmartHarz-Thermometer,536d6172-7448-4617-927a-2d546865726d,1b1*%
%TF.SameCoordinates,Original*%
%TF.FileFunction,Other,Comment*%
%FSLAX46Y46*%
G04 Gerber Fmt 4.6, Leading zero omitted, Abs format (unit mm)*
G04 Created by KiCad (PCBNEW 6.0.7-f9a2dced07~116~ubuntu22.04.1) date 2022-09-18 17:51:17*
%MOMM*%
%LPD*%
G01*
G04 APERTURE LIST*
%ADD10C,0.150000*%
G04 APERTURE END LIST*
D10*
%TO.C,U1*%
X25371809Y32047620D02*
X25371809Y33047620D01*
X25943238Y32047620D02*
X25514666Y32619048D01*
X25943238Y33047620D02*
X25371809Y32476191D01*
X26371809Y32571429D02*
X26705142Y32571429D01*
X26848000Y32047620D02*
X26371809Y32047620D01*
X26371809Y33047620D01*
X26848000Y33047620D01*
X27276571Y32571429D02*
X27609904Y32571429D01*
X27752761Y32047620D02*
X27276571Y32047620D01*
X27276571Y33047620D01*
X27752761Y33047620D01*
X28181333Y32047620D02*
X28181333Y33047620D01*
X28562285Y33047620D01*
X28657523Y33000000D01*
X28705142Y32952381D01*
X28752761Y32857143D01*
X28752761Y32714286D01*
X28705142Y32619048D01*
X28657523Y32571429D01*
X28562285Y32523810D01*
X28181333Y32523810D01*
X30133714Y33047620D02*
X30324190Y33047620D01*
X30419428Y33000000D01*
X30514666Y32904762D01*
X30562285Y32714286D01*
X30562285Y32380953D01*
X30514666Y32190477D01*
X30419428Y32095239D01*
X30324190Y32047620D01*
X30133714Y32047620D01*
X30038476Y32095239D01*
X29943238Y32190477D01*
X29895619Y32380953D01*
X29895619Y32714286D01*
X29943238Y32904762D01*
X30038476Y33000000D01*
X30133714Y33047620D01*
X30990857Y33047620D02*
X30990857Y32238096D01*
X31038476Y32142858D01*
X31086095Y32095239D01*
X31181333Y32047620D01*
X31371809Y32047620D01*
X31467047Y32095239D01*
X31514666Y32142858D01*
X31562285Y32238096D01*
X31562285Y33047620D01*
X31895619Y33047620D02*
X32467047Y33047620D01*
X32181333Y32047620D02*
X32181333Y33047620D01*
X25205142Y29507620D02*
X25205142Y30507620D01*
X25776571Y29507620D01*
X25776571Y30507620D01*
X26395619Y29507620D02*
X26300380Y29555239D01*
X26252761Y29602858D01*
X26205142Y29698096D01*
X26205142Y29983810D01*
X26252761Y30079048D01*
X26300380Y30126667D01*
X26395619Y30174286D01*
X26538476Y30174286D01*
X26633714Y30126667D01*
X26681333Y30079048D01*
X26728952Y29983810D01*
X26728952Y29698096D01*
X26681333Y29602858D01*
X26633714Y29555239D01*
X26538476Y29507620D01*
X26395619Y29507620D01*
X28347999Y29555239D02*
X28252761Y29507620D01*
X28062285Y29507620D01*
X27967047Y29555239D01*
X27919428Y29602858D01*
X27871809Y29698096D01*
X27871809Y29983810D01*
X27919428Y30079048D01*
X27967047Y30126667D01*
X28062285Y30174286D01*
X28252761Y30174286D01*
X28347999Y30126667D01*
X28919428Y29507620D02*
X28824190Y29555239D01*
X28776571Y29602858D01*
X28728952Y29698096D01*
X28728952Y29983810D01*
X28776571Y30079048D01*
X28824190Y30126667D01*
X28919428Y30174286D01*
X29062285Y30174286D01*
X29157523Y30126667D01*
X29205142Y30079048D01*
X29252761Y29983810D01*
X29252761Y29698096D01*
X29205142Y29602858D01*
X29157523Y29555239D01*
X29062285Y29507620D01*
X28919428Y29507620D01*
X29681333Y30174286D02*
X29681333Y29174286D01*
X29681333Y30126667D02*
X29776571Y30174286D01*
X29967047Y30174286D01*
X30062285Y30126667D01*
X30109904Y30079048D01*
X30157523Y29983810D01*
X30157523Y29698096D01*
X30109904Y29602858D01*
X30062285Y29555239D01*
X29967047Y29507620D01*
X29776571Y29507620D01*
X29681333Y29555239D01*
X30586095Y30174286D02*
X30586095Y29174286D01*
X30586095Y30126667D02*
X30681333Y30174286D01*
X30871809Y30174286D01*
X30967047Y30126667D01*
X31014666Y30079048D01*
X31062285Y29983810D01*
X31062285Y29698096D01*
X31014666Y29602858D01*
X30967047Y29555239D01*
X30871809Y29507620D01*
X30681333Y29507620D01*
X30586095Y29555239D01*
X31871809Y29555239D02*
X31776571Y29507620D01*
X31586095Y29507620D01*
X31490857Y29555239D01*
X31443238Y29650477D01*
X31443238Y30031429D01*
X31490857Y30126667D01*
X31586095Y30174286D01*
X31776571Y30174286D01*
X31871809Y30126667D01*
X31919428Y30031429D01*
X31919428Y29936191D01*
X31443238Y29840953D01*
X32348000Y29507620D02*
X32348000Y30174286D01*
X32348000Y29983810D02*
X32395619Y30079048D01*
X32443238Y30126667D01*
X32538476Y30174286D01*
X32633714Y30174286D01*
%TO.C,H3*%
X98700000Y30900000D02*
G75*
G03*
X98700000Y30900000I-2700000J0D01*
G01*
%TO.C,H1*%
X6700000Y30900000D02*
G75*
G03*
X6700000Y30900000I-2700000J0D01*
G01*
%TO.C,H4*%
X98700000Y3900000D02*
G75*
G03*
X98700000Y3900000I-2700000J0D01*
G01*
%TO.C,H2*%
X6700000Y3900000D02*
G75*
G03*
X6700000Y3900000I-2700000J0D01*
G01*
%TD*%
M02*
